<svg width="18" height="18" viewBox="0 0 18 18" fill="none" xmlns="http://www.w3.org/2000/svg">
<path d="M3.25 0C1.45507 0 0 1.45507 0 3.25V14.75C0 16.5449 1.45507 18 3.25 18H14.75C16.5449 18 18 16.5449 18 14.75V3.25C18 1.45507 16.5449 0 14.75 0H3.25ZM1.5 5.5H16.5V14.75C16.5 15.7165 15.7165 16.5 14.75 16.5H3.25C2.2835 16.5 1.5 15.7165 1.5 14.75V5.5ZM13.25 11.5C12.5596 11.5 12 12.0596 12 12.75C12 13.4404 12.5596 14 13.25 14C13.9404 14 14.5 13.4404 14.5 12.75C14.5 12.0596 13.9404 11.5 13.25 11.5ZM9 11.5C8.3096 11.5 7.75 12.0596 7.75 12.75C7.75 13.4404 8.3096 14 9 14C9.6904 14 10.25 13.4404 10.25 12.75C10.25 12.0596 9.6904 11.5 9 11.5ZM13.25 7.5C12.5596 7.5 12 8.0596 12 8.75C12 9.4404 12.5596 10 13.25 10C13.9404 10 14.5 9.4404 14.5 8.75C14.5 8.0596 13.9404 7.5 13.25 7.5ZM9 7.5C8.3096 7.5 7.75 8.0596 7.75 8.75C7.75 9.4404 8.3096 10 9 10C9.6904 10 10.25 9.4404 10.25 8.75C10.25 8.0596 9.6904 7.5 9 7.5ZM4.75 7.5C4.05964 7.5 3.5 8.0596 3.5 8.75C3.5 9.4404 4.05964 10 4.75 10C5.44036 10 6 9.4404 6 8.75C6 8.0596 5.44036 7.5 4.75 7.5ZM3.25 1.5H14.75C15.7165 1.5 16.5 2.2835 16.5 3.25V4H1.5V3.25C1.5 2.2835 2.2835 1.5 3.25 1.5Z" fill="black"/>
</svg>
