<svg width="72" height="74" viewBox="0 0 72 74" fill="none" xmlns="http://www.w3.org/2000/svg">
<path d="M23.2513 11.9574C21.8927 9.25753 18.5697 8.13779 16.1147 9.90078C11.0888 13.5099 7.08273 18.4098 4.54828 24.1258C1.27008 31.5192 0.656863 39.8206 2.81311 47.6154C4.96936 55.4103 9.76167 62.2164 16.3735 66.874C22.9853 71.5316 31.0075 73.7525 39.0733 73.1584C47.139 72.5643 54.7492 69.1919 60.6072 63.6157C66.4652 58.0396 70.2085 50.6048 71.1994 42.5782C72.1902 34.5515 70.3673 26.4296 66.0412 19.5963C62.6966 14.3133 58.0157 10.0533 52.5153 7.21953C49.8285 5.83529 46.7054 7.42984 45.7571 10.2996C44.8087 13.1694 46.4152 16.2155 48.9965 17.7879C52.1296 19.6963 54.8052 22.3105 56.7934 25.451C59.765 30.1448 61.0172 35.7237 60.3366 41.2372C59.656 46.7507 57.0847 51.8577 53.0609 55.6879C49.037 59.5181 43.8096 61.8346 38.2692 62.2427C32.7289 62.6508 27.2184 61.1253 22.6768 57.926C18.1351 54.7267 14.8433 50.0516 13.3622 44.6973C11.8811 39.343 12.3023 33.6409 14.5541 28.5623C16.0607 25.1644 18.3244 22.1863 21.144 19.8395C23.467 17.9059 24.6099 14.6573 23.2513 11.9574Z" fill="#F9D3E4"/>
<path d="M36.5053 5.33789C36.5053 4.23332 35.609 3.33193 34.5063 3.39508C29.0436 3.70794 23.7206 5.29962 18.971 8.05345C13.6436 11.1423 9.22665 15.5836 6.16721 20.9279C3.10778 26.2723 1.5144 32.33 1.54832 38.488C1.57857 43.9781 2.90132 49.3742 5.39754 54.2433C5.90146 55.2262 7.13257 55.5426 8.08507 54.9833L14.0362 51.4889C14.9887 50.9296 15.2992 49.7071 14.8209 48.7115C13.2825 45.5089 12.469 41.9973 12.4493 38.4279C12.426 34.1902 13.5225 30.0216 15.6279 26.3438C17.7332 22.6661 20.7728 19.6097 24.4389 17.4841C27.5268 15.6937 30.9669 14.6172 34.5075 14.3221C35.6083 14.2304 36.5053 13.3436 36.5053 12.2391V5.33789Z" fill="#D48FFB"/>
<path d="M64.4716 55.7333C65.4089 56.3177 66.6479 56.0342 67.1778 55.065C70.3965 49.178 71.86 42.4746 71.3703 35.7548C70.8321 28.3686 67.962 21.3442 63.174 15.6944C58.386 10.0446 51.9274 6.06139 44.7295 4.31908C38.1809 2.73397 31.3284 3.07819 24.9932 5.28782C23.9502 5.65159 23.4673 6.82739 23.8901 7.84784L26.5316 14.2234C26.9544 15.2439 28.1226 15.7198 29.1746 15.3832C33.3673 14.0417 37.8615 13.8726 42.1648 14.9143C47.1181 16.1133 51.5627 18.8544 54.8576 22.7423C58.1525 26.6303 60.1276 31.4642 60.498 36.5471C60.8197 40.963 59.9159 45.3686 57.9049 49.2845C57.4004 50.2671 57.6782 51.4974 58.6155 52.0819L64.4716 55.7333Z" fill="#94BEEE"/>
<path d="M44.0631 3.62838C44.3663 2.56623 43.7518 1.45344 42.674 1.2115C35.3005 -0.443805 27.5683 0.331923 20.6466 3.4534C13.725 6.57488 8.02495 11.8567 4.38439 18.4791C3.85227 19.447 4.27951 20.6443 5.27629 21.1202L15.9181 26.2011C16.9149 26.6771 18.1001 26.2479 18.6772 25.3061C20.678 22.0413 23.6206 19.4365 27.139 17.8498C30.6574 16.2631 34.5578 15.7819 38.3292 16.4436C39.4172 16.6345 40.5234 16.0303 40.8266 14.9681L44.0631 3.62838Z" fill="#FDDCC1"/>
</svg>
