<svg width="354" height="326" viewBox="0 0 354 326" fill="none" xmlns="http://www.w3.org/2000/svg">
<path d="M58.7754 165.777C58.7754 165.777 51.3144 167.75 57.5921 183.867C63.8698 199.983 68.5206 208.124 68.5206 208.124C68.5206 208.124 69.5477 211.824 66.4992 212.07C63.4508 212.317 56.9594 210.607 55.2585 214.143C53.5576 217.678 55.8912 221.666 61.1747 225.375C66.4582 229.083 77.7235 237.643 78.7424 238.416C79.7613 239.189 80.6405 240.949 78.5863 241.45C76.5321 241.952 61.5527 242.009 62.0046 249.122C62.4565 256.234 78.8657 264.153 80.6405 265.057C82.4154 265.962 82.7769 266.784 82.5304 267.779C82.2839 268.774 77.2387 268.33 72.9742 268.519C68.7096 268.708 63.8041 269.679 64.4122 273.757C65.0202 277.836 74.2724 287.226 98.5122 292.085L109.901 293.607L117.091 284.562C131.289 264.293 131.519 251.12 129.145 247.749C126.77 244.377 122.571 247.058 119.326 249.862C116.08 252.666 112.752 256.44 111.93 255.93C111.109 255.42 110.747 254.524 111.413 252.641C112.078 250.758 118.504 233.729 113.927 228.244C109.35 222.76 98.4629 233.088 96.6306 234.132C94.7982 235.176 94.2312 233.31 94.4284 232.043C94.6257 230.777 96.8935 216.807 98.1589 210.475C99.4243 204.144 98.4958 199.695 94.6914 198.256C91.0267 196.875 87.5098 202.598 85.1269 204.522C82.744 206.446 80.9445 203.058 80.9445 203.058C80.9445 203.058 78.7013 193.956 72.136 177.955C65.5707 161.953 58.6521 165.801 58.6521 165.801" fill="#EBEBEB"/>
<path d="M110.221 296.353C105.447 284.586 97.2961 263.52 90.2214 245.471C83.1467 227.422 76.7211 211.1 72.0046 199.309C69.6381 193.43 67.7318 188.619 66.4006 185.33L64.8805 181.531L64.4943 180.545C64.4469 180.432 64.4057 180.317 64.3711 180.199C64.3711 180.199 64.4286 180.306 64.5272 180.528C64.6258 180.75 64.7655 181.087 64.9463 181.507L66.5321 185.281C67.8961 188.57 69.8189 193.314 72.2346 199.202C77.0086 210.969 83.4753 227.282 90.5583 245.331C97.6413 263.38 105.735 284.455 110.46 296.246" fill="#E0E0E0"/>
<path d="M64.2396 216.905C64.5075 216.978 64.7665 217.08 65.012 217.21C65.505 217.423 66.2034 217.752 67.058 218.163C68.7753 218.986 71.1171 220.211 73.6808 221.6L80.2543 225.169L82.2428 226.23C82.4959 226.346 82.7357 226.489 82.9577 226.657C82.6897 226.581 82.4286 226.481 82.1771 226.361C81.6923 226.148 80.9938 225.81 80.1393 225.391C78.4302 224.569 76.1048 223.294 73.5658 221.913L66.9923 218.394L65.0038 217.333C64.7306 217.226 64.4735 217.082 64.2396 216.905Z" fill="#E0E0E0"/>
<path d="M83.7794 225.999C83.689 225.958 85.9733 221.016 88.882 214.964C91.7908 208.912 94.2148 204.036 94.3052 204.077C94.3956 204.119 92.1113 209.069 89.2025 215.12C86.2937 221.172 83.8697 226.048 83.7794 225.999Z" fill="#E0E0E0"/>
<path d="M93.4013 254.203C93.5562 253.966 93.7352 253.746 93.9354 253.546L95.4802 251.827C96.7785 250.38 98.5615 248.365 100.41 246.071C102.259 243.777 103.944 241.655 105.119 240.101C105.677 239.378 106.138 238.761 106.515 238.268C106.671 238.031 106.853 237.813 107.058 237.618C106.946 237.879 106.802 238.124 106.631 238.35C106.327 238.802 105.891 239.46 105.324 240.258C104.198 241.845 102.588 244.007 100.69 246.301C98.7916 248.595 96.9757 250.594 95.6281 252C94.9543 252.699 94.4038 253.266 93.9847 253.644C93.8107 253.851 93.6151 254.038 93.4013 254.203Z" fill="#E0E0E0"/>
<path d="M73.9191 249.87C74.1957 249.864 74.4719 249.895 74.7408 249.96L76.8361 250.338C78.6027 250.676 81.0431 251.161 83.7301 251.728C86.417 252.295 88.841 252.822 90.5994 253.216L92.67 253.71C92.9304 253.756 93.1842 253.833 93.426 253.94C93.1493 253.946 92.8731 253.915 92.6043 253.85L90.509 253.463C88.7342 253.126 86.302 252.641 83.615 252.082C80.9281 251.522 78.4959 250.988 76.7457 250.585L74.6668 250.1C74.4089 250.055 74.1577 249.978 73.9191 249.87Z" fill="#E0E0E0"/>
<path d="M79.219 275.854C79.5565 275.866 79.8921 275.91 80.2214 275.985L82.9084 276.462C85.1762 276.881 88.3069 277.482 91.7497 278.164C95.1926 278.847 98.3233 279.496 100.583 279.981L103.245 280.565C103.576 280.622 103.901 280.71 104.215 280.828C103.88 280.821 103.547 280.78 103.221 280.705L100.534 280.228C98.2657 279.809 95.1351 279.208 91.684 278.518C88.2329 277.827 85.1105 277.186 82.8591 276.709L80.1886 276.117C79.8585 276.057 79.5341 275.969 79.219 275.854Z" fill="#E0E0E0"/>
<path d="M103.689 280.532C103.88 280.239 104.097 279.964 104.338 279.71L106.211 277.465C107.797 275.565 109.967 272.934 112.284 269.958C114.601 266.981 116.63 264.251 118.085 262.253L119.81 259.885C120.01 259.594 120.233 259.319 120.476 259.062C120.323 259.387 120.139 259.696 119.925 259.983C119.547 260.567 118.997 261.398 118.282 262.45C116.877 264.481 114.88 267.252 112.53 270.229C110.18 273.206 108.003 275.812 106.376 277.679C105.554 278.6 104.889 279.323 104.412 279.849C104.189 280.096 103.947 280.324 103.689 280.532Z" fill="#E0E0E0"/>
<path d="M253.417 213.871L247.583 217.39L247.221 216.798L252.521 213.591L251.7 212.218L252.234 211.897L253.417 213.871Z" fill="white"/>
<path d="M251.774 223.072L251.24 223.393L248.774 219.281L249.194 219.018L253.031 220.013C253.337 220.141 253.667 220.198 253.998 220.183C254.329 220.167 254.653 220.078 254.945 219.923C255.619 219.512 255.767 218.788 255.217 217.9C255.05 217.589 254.816 217.32 254.532 217.112C254.247 216.904 253.92 216.763 253.573 216.699L253.68 216.05C254.12 216.142 254.534 216.329 254.893 216.599C255.252 216.869 255.548 217.215 255.759 217.612C256.474 218.796 256.326 219.914 255.356 220.498C254.991 220.7 254.586 220.818 254.169 220.844C253.753 220.87 253.336 220.802 252.949 220.646L249.802 219.824L251.774 223.072Z" fill="white"/>
<path d="M256.482 228.614L255.775 227.446L254.239 228.367L253.877 227.767L255.406 226.846L253.417 223.557L253.853 223.294L259.604 224.05L260.007 224.716L254.444 224.009L255.972 226.542L257.32 225.72L257.673 226.303L256.326 227.126L257.032 228.293L256.482 228.614Z" fill="white"/>
<path d="M271.569 263.637L269.025 265.177L297.401 312.139L299.945 310.599L271.569 263.637Z" fill="white"/>
<path d="M273.622 215.207L272.675 215.78L276.884 222.746L277.831 222.173L273.622 215.207Z" fill="#EBEBEB"/>
<path d="M314.844 243.837L284.394 193.403L280.069 196.018L310.519 246.452L314.844 243.837Z" fill="white"/>
<path d="M184.132 4.71061C184.132 4.83395 176.367 3.88834 166.836 2.57271C157.304 1.25708 149.58 0.105906 149.58 0.00723412C149.58 -0.0914381 157.337 0.829501 166.836 2.14513C176.334 3.46076 184.14 4.59549 184.132 4.71061Z" fill="#E0E0E0"/>
<path d="M183.196 11.6344C183.196 11.7578 175.439 10.8122 165.94 9.49654C156.441 8.18091 148.685 7.02973 148.685 6.93106C148.685 6.83239 156.441 7.75334 165.94 9.06897C175.439 10.3846 183.212 11.5193 183.196 11.6344Z" fill="#E0E0E0"/>
<path d="M180.032 18.6975C180.032 18.8126 172.275 17.8752 162.777 16.5596C153.278 15.244 145.521 14.0928 145.521 13.9859C145.521 13.879 153.27 14.8082 162.777 16.132C172.283 17.4559 180.048 18.5824 180.032 18.6975Z" fill="#E0E0E0"/>
<path d="M174.272 25.818C174.272 25.9414 166.515 24.9958 156.975 23.6801C147.436 22.3645 139.72 21.2133 139.72 21.1147C139.72 21.016 147.477 21.9369 157.016 23.2526C166.556 24.5682 174.288 25.7029 174.272 25.818Z" fill="#E0E0E0"/>
<path d="M165.094 32.9307C165.094 33.0459 157.337 32.1085 147.838 30.7846C138.34 29.4608 130.583 28.3178 130.583 28.2191C130.583 28.1205 138.34 29.0414 147.838 30.3653C157.337 31.6891 165.11 32.8074 165.094 32.9307Z" fill="#E0E0E0"/>
<path d="M199.605 7.02162C196.756 6.84433 193.932 6.38434 191.174 5.64844C192.605 5.66758 194.031 5.82732 195.43 6.12535C196.848 6.28422 198.247 6.58447 199.605 7.02162Z" fill="#E0E0E0"/>
<path d="M199.309 13.196C197.886 13.178 196.469 13.021 195.077 12.7273C193.659 12.5685 192.261 12.2682 190.903 11.8311C192.332 11.8408 193.756 12.0007 195.151 12.308C196.563 12.4676 197.955 12.765 199.309 13.196Z" fill="#E0E0E0"/>
<path d="M197.214 21.773C195.782 21.7475 194.357 21.5822 192.957 21.2796C191.544 21.1009 190.148 20.8066 188.783 20.3998C188.783 20.2518 190.706 20.4738 193.031 20.852C194.453 21.0181 195.854 21.3266 197.214 21.773Z" fill="#E0E0E0"/>
<path d="M194.19 28.9673C192.758 28.9418 191.333 28.7766 189.933 28.474C188.52 28.294 187.125 27.9998 185.759 27.5941C185.759 27.4461 187.682 27.6681 190.007 28.0464C191.429 28.2112 192.83 28.5198 194.19 28.9673Z" fill="#E0E0E0"/>
<path d="M187.682 35.8335C186.25 35.8083 184.825 35.6431 183.426 35.3401C182.012 35.1661 180.615 34.8718 179.251 34.4603C179.251 34.3123 181.174 34.5343 183.491 34.9207C184.915 35.0861 186.319 35.3918 187.682 35.8335Z" fill="#E0E0E0"/>
<path d="M157.279 41.6135C157.279 41.7287 145.644 40.1828 131.33 38.1518C117.017 36.1208 105.414 34.3858 105.431 34.2707C105.447 34.1556 117.066 35.7014 131.388 37.7324C145.71 39.7634 157.279 41.5066 157.279 41.6135Z" fill="#E0E0E0"/>
<path d="M151.248 48.9074C151.056 48.9021 150.864 48.8856 150.673 48.8581L149.03 48.6443L143.031 47.7645L123.262 44.7221C115.546 43.5051 108.57 42.3704 103.541 41.5235L97.5673 40.4956C96.8607 40.3641 96.3183 40.2654 95.9239 40.1832C95.7327 40.1553 95.5452 40.1056 95.3652 40.0352C95.5583 40.0419 95.7507 40.0639 95.9404 40.1009L97.5837 40.3312L103.582 41.2274L123.352 44.2945L143.072 47.4685L149.046 48.4799L150.689 48.7759C150.88 48.7962 151.068 48.8404 151.248 48.9074Z" fill="#E0E0E0"/>
<path d="M140.402 55.5348C139.685 55.5514 138.968 55.4879 138.266 55.3456C136.877 55.1647 134.864 54.8852 132.374 54.5234C127.403 53.808 120.542 52.7637 112.974 51.5796C105.406 50.3956 98.5451 49.2855 93.5903 48.4633L87.7235 47.4765L86.1376 47.1805C85.9497 47.1576 85.765 47.1135 85.5871 47.0489C85.7746 47.0432 85.9622 47.0598 86.1458 47.0983L87.7481 47.3038L93.6396 48.1261L113.04 51.1109L132.423 54.1862L140.402 55.5348Z" fill="#E0E0E0"/>
<path d="M176.827 45.6187C175.396 45.5932 173.97 45.4279 172.571 45.1253C171.158 44.9454 169.762 44.6511 168.397 44.2455C168.397 44.0975 170.32 44.3195 172.645 44.6977C174.067 44.8614 175.468 45.17 176.827 45.6187Z" fill="#E0E0E0"/>
<path d="M168.454 50.273C167.023 50.2475 165.597 50.0822 164.198 49.7796C162.785 49.5997 161.389 49.3054 160.024 48.8998C160.024 48.7518 161.947 48.9738 164.272 49.352C165.694 49.5157 167.095 49.8243 168.454 50.273Z" fill="#E0E0E0"/>
<path d="M157.181 58.1255C155.749 58.1 154.324 57.9347 152.924 57.6321C151.511 57.4569 150.114 57.1626 148.75 56.7523C148.75 56.6042 150.673 56.8263 152.998 57.2127C154.42 57.3761 155.821 57.6819 157.181 58.1255Z" fill="#E0E0E0"/>
<path d="M135.636 70.525C135.636 70.6484 121.248 68.5269 103.59 65.8052C85.9322 63.0835 71.5444 60.7729 71.5444 60.6578C71.5444 60.5427 85.924 62.6559 103.59 65.3859C121.257 68.1158 135.653 70.4099 135.636 70.525Z" fill="#E0E0E0"/>
<path d="M127.033 86.0905C127.033 86.2057 122.3 85.5396 116.515 84.6022C110.731 83.6649 106.047 82.8097 106.064 82.6946C106.08 82.5795 110.796 83.2455 116.581 84.1829C122.366 85.1203 127.05 85.9672 127.033 86.0905Z" fill="#E0E0E0"/>
<path d="M354 320.873C354 320.996 274.748 321.087 177.008 321.087C79.2683 321.087 0 320.996 0 320.873C0 320.75 79.2355 320.659 177.008 320.659C274.781 320.659 354 320.758 354 320.873Z" fill="#263238"/>
<path d="M87.8385 41.9346L87.9043 45.2237C87.9043 45.2237 89.2436 70.714 89.1615 74.5457C89.0793 78.3775 76.302 100.242 76.302 100.242L84.1492 113.044L102.884 79.3314L98.3972 43.1515L98.2822 42.2553" fill="#FFBE9D"/>
<path d="M97.3537 37.9953L94.8311 28.7119L84.9708 34.4185C84.9708 35.2407 87.9207 41.934 87.9207 41.934L89.6298 43.7101C89.6298 43.7101 98.2 42.8056 98.3808 42.7151C98.5616 42.6247 97.3537 37.9953 97.3537 37.9953Z" fill="#FFBE9D"/>
<path d="M95.1351 29.3702C95.1351 29.3702 95.1927 29.4442 95.2337 29.5675C95.6117 30.5707 96.7128 35.1014 96.2115 35.4385C95.7103 35.7757 94.0176 35.8579 93.7465 35.2905C93.4753 34.7231 92.5386 29.5346 92.5386 29.5346C92.5386 29.5346 92.44 28.7124 93.7383 28.1614C94.5435 27.849 95.1351 29.3702 95.1351 29.3702Z" fill="#FFBE9D"/>
<path d="M92.0127 28.4492C92.0127 28.4492 92.0702 28.5232 92.1113 28.6383C92.4893 29.6497 93.5904 34.1722 93.0891 34.5093C92.5879 34.8465 90.8952 34.9287 90.6241 34.3613C90.3529 33.794 89.4162 28.6055 89.4162 28.6055C89.4162 28.6055 89.3258 27.7832 90.6158 27.2405C91.4211 26.9198 92.0127 28.4492 92.0127 28.4492Z" fill="#FFBE9D"/>
<path d="M89.1615 28.3505C89.2093 28.4077 89.2431 28.4752 89.2601 28.5478C89.638 29.551 90.7309 34.0817 90.2296 34.4188C89.7284 34.756 88.0439 34.8382 87.7646 34.2708C87.4852 33.7035 86.5567 28.5149 86.5567 28.5149C86.5567 28.5149 86.4581 27.6927 87.7564 27.15C88.5698 26.7964 89.1615 28.3505 89.1615 28.3505Z" fill="#FFBE9D"/>
<path d="M86.3348 28.2351C86.3827 28.2923 86.4164 28.3599 86.4334 28.4325C86.8114 29.4357 87.9043 33.9664 87.403 34.3035C86.9018 34.6406 85.2091 34.7228 84.938 34.1555C84.6668 33.5881 83.7301 28.3996 83.7301 28.3996C83.7301 28.3996 83.6315 27.5773 84.9298 27.0346C85.7432 26.7057 86.3348 28.2351 86.3348 28.2351Z" fill="#FFBE9D"/>
<path d="M93.3932 33.9747C93.3729 33.2116 93.2542 32.4543 93.0398 31.7217C92.9233 30.9801 92.7134 30.2563 92.4154 29.5674C92.4356 30.3305 92.5544 31.0878 92.7687 31.8204C92.8853 32.562 93.0951 33.2858 93.3932 33.9747Z" fill="#EB996E"/>
<path d="M90.7227 34.674C90.6395 33.5983 90.4552 32.5329 90.1721 31.4918C89.9991 30.4263 89.7239 29.3799 89.3504 28.3672C89.444 29.4415 89.6281 30.5061 89.901 31.5494C90.0847 32.6126 90.3596 33.658 90.7227 34.674Z" fill="#EB996E"/>
<g opacity="0.78">
<path d="M87.9864 35.15C87.8933 34.0729 87.7091 33.0056 87.4359 31.9596C87.2522 30.8964 86.9773 29.851 86.6142 28.835C86.6975 29.9133 86.8818 30.9815 87.1648 32.0254C87.3393 33.0906 87.6144 34.1368 87.9864 35.15Z" fill="#EB996E"/>
</g>
<path d="M90.1228 41.0293L87.1319 38.6118C85.8214 37.5549 84.9704 36.0315 84.7572 34.3607L84.5929 33.0862L93.6314 31.2607C93.6314 31.2607 93.6315 34.6238 91.0842 34.6649L94.2641 36.3095L90.1228 41.0293Z" fill="#FFBE9D"/>
<path d="M93.8287 36.9592C93.7876 36.9592 93.5904 36.5892 93.0481 36.0876C92.2986 35.3958 91.3229 35.0011 90.3036 34.9775H89.334L90.2461 34.6404L92.3332 33.8675C92.7509 33.6441 93.0954 33.3051 93.3257 32.891C93.5559 32.4769 93.6621 32.0051 93.6314 31.5322C93.6241 31.4599 93.6103 31.3883 93.5904 31.3184L93.8451 31.4582C91.3225 32.0831 89.0382 32.6094 87.3702 32.8972C86.5485 33.0452 85.8583 33.1356 85.3817 33.1932C85.1391 33.2276 84.8929 33.2276 84.6504 33.1932C85.5237 32.939 86.4095 32.7304 87.3044 32.5683C88.9478 32.2147 91.2157 31.6391 93.7383 31.0142L93.9355 30.9648L93.993 31.154C94.0218 31.2482 94.0438 31.3444 94.0587 31.4418C94.1212 32.018 93.9849 32.5982 93.6725 33.0863C93.3806 33.5235 92.9963 33.8912 92.5468 34.1635L90.4351 34.8871L90.3776 34.5417C91.4779 34.5864 92.5166 35.0618 93.2699 35.8656C93.5563 36.1695 93.7502 36.5489 93.8287 36.9592Z" fill="#EB996E"/>
<path d="M93.2781 32.7737C93.3521 32.7737 93.5 33.1848 93.9601 33.5959C94.0766 33.7094 94.2259 33.7832 94.3867 33.8068C94.5475 33.8304 94.7116 33.8027 94.8558 33.7275C95.0161 33.5937 95.1379 33.4196 95.2087 33.223C95.2794 33.0265 95.2966 32.8146 95.2584 32.6092C95.1516 31.5896 95.0941 30.6358 95.0037 29.978C94.9133 29.3201 94.7982 28.9008 94.864 28.8761C94.9297 28.8514 95.1187 29.2379 95.2995 29.9204C95.4871 30.7989 95.6161 31.6889 95.6857 32.5845C95.731 32.865 95.6964 33.1526 95.586 33.4144C95.4755 33.6761 95.2937 33.9015 95.0612 34.0646C94.8475 34.174 94.6037 34.2099 94.3676 34.1668C94.1315 34.1237 93.9161 34.004 93.7547 33.8262C93.56 33.6137 93.4141 33.3611 93.3274 33.0861C93.2699 32.897 93.2535 32.7901 93.2781 32.7737Z" fill="#EB996E"/>
<path d="M62.5634 62.6057C64.7491 62.4741 66.7787 63.8062 68.3152 65.4014C69.8518 66.9966 70.9857 68.8878 72.5551 70.4254C73.7219 71.5684 75.1352 72.5551 75.8419 74.027C76.9676 76.3787 76.0227 79.4128 77.4853 81.6001C78.307 82.8252 79.6956 83.5488 80.5255 84.7576C81.5526 86.2788 81.4787 88.2687 81.2486 90.0941C81.1935 91.3777 80.7429 92.6127 79.9585 93.6299C79.2266 94.3126 78.3375 94.8041 77.3702 95.0606C70.1982 97.4888 62.4542 97.6553 55.1846 95.5375" fill="#263238"/>
<path d="M47.5018 77.2674C47.3136 75.7654 47.4287 74.2408 47.8404 72.784C48.252 71.3273 48.9518 69.9682 49.8982 68.7872C50.8446 67.6062 52.0184 66.6274 53.3499 65.9089C54.6815 65.1905 56.1436 64.7469 57.6497 64.6045C60.566 64.3792 63.4586 65.274 65.739 67.107C68.0195 68.94 69.5165 71.5734 69.9257 74.4717C70.6276 78.5984 71.1104 82.7595 71.3719 86.9373C71.2979 92.7425 67.9044 94.9955 66.5321 95.678C66.0376 95.8582 65.5253 95.985 65.0038 96.0563C65.0038 96.0563 65.0038 96.0563 65.0038 96.0974L66.2939 102.758C66.8773 107.124 64.4451 110.98 60.0901 111.646C55.7352 112.313 52.3087 108.933 51.6431 104.567L47.5018 77.2674Z" fill="#FFBE9D"/>
<path d="M68.9233 77.8998C68.8329 78.0313 68.1016 77.6202 67.0827 77.7682C66.0638 77.9162 65.4393 78.5082 65.3325 78.4013C65.2257 78.2944 65.3325 78.13 65.6365 77.8504C66.0188 77.4953 66.5005 77.2658 67.0169 77.1926C67.5271 77.1199 68.0473 77.2091 68.5042 77.4475C68.8411 77.6366 68.9726 77.834 68.9233 77.8998Z" fill="#263238"/>
<path d="M60.1969 79.7916C60.0983 79.9232 59.3752 79.5121 58.3564 79.6601C57.3375 79.8081 56.713 80.4001 56.5979 80.3014C56.4829 80.2028 56.5979 80.0219 56.902 79.7505C57.283 79.3888 57.7695 79.1583 58.2906 79.0927C58.8 79.0123 59.3217 79.0988 59.7779 79.3394C60.1065 79.5285 60.2462 79.7258 60.1969 79.7916Z" fill="#263238"/>
<path d="M63.6069 84.4293C64.1025 84.1962 64.6237 84.0223 65.1599 83.9112C65.4064 83.8455 65.6365 83.7632 65.6529 83.5905C65.6341 83.3268 65.5368 83.0748 65.3736 82.867L64.3547 81.0662C63.4347 79.5469 62.6352 77.9578 61.9636 76.3135C63.0091 77.751 63.9353 79.2718 64.7327 80.8606C65.0778 81.4938 65.4064 82.1023 65.7269 82.6778C65.926 82.9605 66.0218 83.3031 65.9981 83.6481C65.973 83.7416 65.9275 83.8284 65.865 83.9023C65.8025 83.9762 65.7245 84.0354 65.6365 84.0757C65.5045 84.1299 65.3666 84.1685 65.2257 84.1908C64.6994 84.3434 64.1548 84.4236 63.6069 84.4293Z" fill="#263238"/>
<path d="M64.9627 96.097C64.9627 96.097 61.224 96.9604 56.0721 94.7979C56.0721 94.7979 58.2906 99.5917 65.3161 97.8896L64.9627 96.097Z" fill="#EB996E"/>
<path d="M63.5166 86.8549C63.299 86.6539 63.0348 86.5104 62.7479 86.4372C62.461 86.3639 62.1604 86.3634 61.8732 86.4355C61.6602 86.4868 61.4597 86.5801 61.2833 86.71C61.1069 86.8399 60.9583 87.0038 60.8461 87.192C60.7403 87.3756 60.6923 87.5868 60.7085 87.798C60.7246 88.0093 60.804 88.2108 60.9365 88.3761C61.1216 88.5278 61.3472 88.622 61.5852 88.6468C61.8232 88.6716 62.0633 88.6261 62.2758 88.5159C62.7128 88.2792 63.1005 87.961 63.418 87.5785C63.5161 87.4837 63.5968 87.3724 63.6562 87.2496C63.6847 87.1906 63.6945 87.1243 63.6842 87.0596C63.6739 86.995 63.6441 86.935 63.5987 86.8878" fill="#EB996E"/>
<path d="M60.805 85.5312C60.9611 85.5312 61.1172 86.5673 62.1361 87.1758C63.155 87.7843 64.2807 87.5129 64.3054 87.6609C64.33 87.8089 64.0835 87.9076 63.6069 87.9898C62.9842 88.089 62.3465 87.9637 61.8074 87.6363C61.2867 87.327 60.9088 86.8247 60.7557 86.2384C60.6489 85.819 60.731 85.5395 60.805 85.5312Z" fill="#263238"/>
<path d="M59.4985 76.5931C59.441 76.8809 58.4385 76.8891 57.3046 77.2016C56.1707 77.514 55.2914 77.958 55.1025 77.736C55.0203 77.6373 55.1025 77.3578 55.4804 77.0453C55.9355 76.6561 56.473 76.3753 57.0523 76.2244C57.6317 76.0734 58.2377 76.0561 58.8247 76.1737C59.3013 76.2806 59.5396 76.4615 59.4985 76.5931Z" fill="#263238"/>
<path d="M67.9372 74.8745C67.7976 75.1212 67.1155 74.9896 66.2939 75.0965C65.4722 75.2034 64.8148 75.4665 64.6505 75.2527C64.4861 75.039 64.6505 74.9074 64.9052 74.6525C65.2723 74.3403 65.7246 74.1456 66.2035 74.0934C66.6817 74.0295 67.1678 74.1187 67.5921 74.3483C67.8633 74.5374 67.9948 74.7512 67.9372 74.8745Z" fill="#263238"/>
<path d="M71.0597 73.2053C69.86 75.039 66.0556 73.9042 63.7548 72.6462C62.5565 73.4142 61.1057 73.6832 59.7118 73.396C58.318 73.1087 57.0915 72.2879 56.2939 71.1085C54.9792 72.7531 52.3087 72.235 51.3638 70.3438C50.4188 68.4526 50.9365 65.8542 52.2759 64.2015C53.6215 62.6579 55.4757 61.6485 57.5018 61.3564C59.8269 60.9044 62.2334 61.144 64.4239 62.0456C66.6143 62.9473 68.4928 64.4715 69.8271 66.4298C71.0925 68.3457 71.8567 70.9194 71.1007 73.2135" fill="#263238"/>
<path d="M52.5881 64.0615C48.2742 63.2392 44.1165 67.5397 43.681 70.6397C42.9332 75.9844 43.681 76.6505 42.6785 79.2077C42.0458 80.8522 39.8519 82.579 38.9891 84.2975C38.0524 86.1394 38.0606 89.2312 38.7098 91.2211C39.2521 92.8656 41.4789 97.495 41.4789 97.495C41.4789 97.495 47.888 97.2894 51.1666 96.4507C52.0137 96.2769 52.8077 95.905 53.4837 95.3653C54.1082 94.7979 52.8182 92.8409 52.9414 92.0104C53.2783 89.6423 55.0449 88.2691 54.5848 85.9339C53.911 82.8339 51.4706 82.6448 51.5199 79.4955C51.5199 77.851 54.0589 75.3842 54.289 73.7396C54.5191 72.0951 55.4887 66.257 52.6456 64.1026" fill="#263238"/>
<path d="M45.2915 97.6675C45.2915 97.6675 44.9793 97.3057 44.4698 96.6479C43.7088 95.7212 43.0682 94.7017 42.5635 93.6137C41.8021 92.0109 41.4789 90.2348 41.6268 88.4663C41.7084 87.3927 42.0017 86.3458 42.4896 85.3862C42.9776 84.4265 43.6506 83.573 44.4698 82.8749C45.3572 82.1595 46.3679 81.6168 47.2307 80.8932C48.088 80.2028 48.7156 79.268 49.0302 78.2126C49.2857 77.2777 49.4643 76.3234 49.5643 75.3594C49.6494 74.5374 49.8117 73.7252 50.0491 72.9337C50.2056 72.3663 50.4786 71.8378 50.8507 71.3819C51.2228 70.926 51.6858 70.5528 52.2101 70.286C52.6148 70.1203 53.0466 70.0311 53.4837 70.0228C53.3727 69.9853 53.2557 69.9686 53.1386 69.9735C52.8012 69.9681 52.4661 70.0295 52.1526 70.1544C51.5833 70.4012 51.0749 70.7699 50.6632 71.2344C50.2516 71.699 49.9466 72.2481 49.7697 72.8432C49.5025 73.6445 49.3181 74.4711 49.2192 75.31C49.1107 76.2531 48.9238 77.1855 48.6604 78.0975C48.3598 79.075 47.766 79.9362 46.9595 80.5643C46.1378 81.255 45.1189 81.7895 44.1904 82.546C43.3349 83.2746 42.6339 84.1673 42.1287 85.1714C41.6235 86.1755 41.3243 87.2707 41.2488 88.3923C41.1128 90.2184 41.4705 92.0475 42.2841 93.6877C42.8203 94.7833 43.5061 95.799 44.3219 96.7055C44.6095 97.0179 44.856 97.2564 45.0203 97.4044C45.0978 97.5045 45.1891 97.5931 45.2915 97.6675Z" fill="#455A64"/>
<path d="M76.6472 94.872C76.6472 94.872 76.7129 94.798 76.8115 94.6418C76.9454 94.4075 77.0661 94.1659 77.173 93.9182C77.5452 92.9931 77.7349 92.0046 77.7318 91.0073C77.739 89.5122 77.32 88.0461 76.5239 86.7809C76.0248 86.0659 75.4756 85.3872 74.8805 84.7499C74.2681 84.095 73.8276 83.2983 73.5987 82.4311C73.2125 80.6303 73.8041 78.8131 73.6809 77.1357C73.6481 75.6471 73.2412 74.1907 72.4976 72.901C71.9847 72.0455 71.3024 71.304 70.4927 70.722C70.2708 70.5691 70.0404 70.4291 69.8025 70.3026L69.5478 70.1875C69.8104 70.4179 70.0846 70.6348 70.3694 70.8371C71.127 71.4448 71.7603 72.193 72.2347 73.0408C72.9178 74.3042 73.2817 75.7157 73.2947 77.1521C73.3096 78.0046 73.2574 78.8569 73.1385 79.7011C73.0063 80.6355 73.0257 81.5851 73.1961 82.5133C73.4393 83.436 73.9081 84.2837 74.5601 84.9801C75.1506 85.6039 75.6996 86.2659 76.2034 86.9618C76.9839 88.1655 77.4109 89.5644 77.436 90.9991C77.4637 91.9707 77.319 92.9395 77.0087 93.8606C76.8033 94.5184 76.6143 94.8555 76.6472 94.872Z" fill="#455A64"/>
<path d="M58.3974 61.9977C59.3257 61.9854 60.2537 62.0376 61.1747 62.154C63.3829 62.5244 65.4059 63.6176 66.9266 65.2621C68.3662 66.9781 69.3221 69.0474 69.6957 71.2565C69.8233 72.1798 69.87 73.1125 69.8353 74.044C69.9242 73.8037 69.9768 73.5515 69.9915 73.2957C70.0721 72.6074 70.0721 71.9119 69.9915 71.2236C69.6908 68.9296 68.735 66.7711 67.2388 65.0072C65.6643 63.2994 63.5422 62.1968 61.2405 61.8908C60.5501 61.8059 59.852 61.8059 59.1616 61.8908C58.9028 61.8861 58.645 61.9222 58.3974 61.9977Z" fill="#455A64"/>
<path d="M64.593 70.5241C64.657 70.3137 64.6875 70.0945 64.6834 69.8745C64.7028 69.2712 64.6393 68.668 64.4944 68.082C64.2679 67.1038 63.845 66.1819 63.2512 65.3725C62.6574 64.5631 61.9052 63.8831 61.0404 63.3739C60.1756 62.8647 59.2164 62.5369 58.221 62.4104C57.2255 62.284 56.2148 62.3616 55.2504 62.6386C54.6736 62.7963 54.1208 63.0314 53.607 63.3375C53.2454 63.5677 53.0647 63.7157 53.0811 63.7404C53.8015 63.3967 54.5525 63.1214 55.3243 62.9181C57.2036 62.4376 59.1966 62.7203 60.8684 63.7047C62.5401 64.689 63.755 66.2951 64.2479 68.1724C64.4278 68.9454 64.5433 69.732 64.593 70.5241Z" fill="#455A64"/>
<path d="M45.9899 135.459C45.9899 135.459 48.833 141.939 48.6686 145.006C48.5043 148.073 45.5709 158.039 45.5709 158.039L80.3201 161.287L80.4762 153.245L79.4327 120.165L98.8081 90.6702L84.1492 82.168L69.8929 101.532L66.2856 100.135L50.6736 102.108V104.821L50.2298 104.871C46.8059 105.599 43.5248 106.885 40.5175 108.678C37.7835 110.382 35.6166 112.86 34.2913 115.798C32.966 118.736 32.542 122.002 33.073 125.181C33.7057 129.128 34.9382 133.922 37.3047 136.693C41.8568 142.004 45.9899 135.459 45.9899 135.459Z" fill="#0093DD"/>
<path d="M41.0598 120.016C41.0598 120.016 39.285 109.919 39.778 109.187C40.386 108.324 47.6908 105.183 47.7976 105.503L49.3999 116.604L41.0598 120.016Z" fill="#FAFAFA"/>
<path d="M70.6735 120.576L69.8436 139.941H77.1484V120.576H70.6735Z" fill="#FAFAFA"/>
<path d="M58.5864 130.262C58.7229 130.247 58.8608 130.247 58.9973 130.262H60.2544L65.0613 130.188H65.201V130.336C65.2503 134.982 65.275 141.93 65.275 149.701V149.915H57.5347V149.701C57.8058 144.118 58.0523 139.266 58.2249 135.722C58.3235 134.078 58.3974 132.705 58.455 131.718C58.455 131.282 58.5043 130.896 58.5289 130.657C58.5146 130.542 58.5146 130.426 58.5289 130.312C58.5374 130.443 58.5374 130.575 58.5289 130.706C58.5289 131.003 58.5289 131.364 58.5289 131.808C58.5289 132.812 58.4632 134.176 58.4139 135.87C58.2906 139.349 58.1181 144.151 57.9209 149.684L57.7154 149.471H65.0202L64.8066 149.684C64.8066 141.914 64.8066 134.966 64.8806 130.32L65.0202 130.46L60.3202 130.312H59.0301L58.5864 130.262Z" fill="#FAFAFA"/>
<path d="M86.7621 108.595L79.0547 103.719L85.8254 93.8271L93.7218 98.4154L86.7621 108.595Z" fill="#FAFAFA"/>
<g opacity="0.4">
<path d="M79.0547 109.188H56.4336V116.53H79.0547V109.188Z" fill="white"/>
</g>
<path d="M78.726 129.161C78.6864 128.938 78.6864 128.71 78.726 128.487C78.7835 128.051 78.8575 127.426 78.9232 126.661C79.1017 124.653 79.1017 122.633 78.9232 120.626C78.7354 118.618 78.3669 116.631 77.8222 114.689C77.4113 113.201 77.0744 112.296 77.1402 112.271C77.2059 112.247 77.2798 112.469 77.4524 112.872C77.704 113.435 77.9262 114.012 78.118 114.598C78.7484 116.542 79.1618 118.55 79.3505 120.585C79.5421 122.619 79.5007 124.669 79.2272 126.694C79.1473 127.305 79.0349 127.912 78.8904 128.511C78.8703 128.735 78.8148 128.954 78.726 129.161Z" fill="#263238"/>
<path d="M89.6956 85.3828C89.3114 85.9922 88.8683 86.5623 88.3726 87.0849C87.551 88.0963 86.3102 89.4777 84.9544 90.9907L83.5082 92.5859L83.385 92.7257L83.2371 92.627C81.9963 91.8047 80.9364 91.04 80.1968 90.5055C79.7777 90.2497 79.3937 89.9401 79.0547 89.5846C79.5058 89.7743 79.9354 90.0113 80.3365 90.2918C81.1171 90.7687 82.21 91.4594 83.4672 92.2816H83.2042L84.634 90.6371C85.9897 89.1241 87.2305 87.7838 88.1426 86.8218C88.6145 86.295 89.1344 85.8132 89.6956 85.3828Z" fill="#FAFAFA"/>
<path d="M97.6824 92.3799C96.8938 92.0976 96.1321 91.7454 95.4063 91.3274C94.0176 90.6284 92.1195 89.6253 90.0407 88.507C87.9618 87.3887 86.0883 86.3444 84.7408 85.5797C83.9938 85.1974 83.2793 84.7546 82.6044 84.2559C83.3953 84.5388 84.1597 84.891 84.8887 85.3084C86.2691 86.0155 88.1754 87.0105 90.2461 88.1287C92.3167 89.247 94.1984 90.2913 95.546 91.056C96.2943 91.4359 97.0091 91.8787 97.6824 92.3799Z" fill="#263238"/>
<path d="M19.5233 294.042L15.8011 310.882L9.01393 323.364C8.89591 323.578 8.82347 323.814 8.80119 324.057C8.77891 324.301 8.80727 324.546 8.88448 324.778C8.96169 325.01 9.08607 325.223 9.24978 325.404C9.41348 325.585 9.61296 325.731 9.83562 325.831C10.0948 325.954 10.3801 326.011 10.6665 325.998C10.9529 325.985 11.2319 325.902 11.479 325.757C14.6343 323.931 26.2119 317.156 26.4173 315.89C26.6556 314.442 31.5282 298.375 31.5282 298.375L19.5233 294.042Z" fill="#0093DD"/>
<g opacity="0.6">
<path d="M9.8274 325.814L26.6309 314.763L26.4584 315.47C26.3071 316.067 25.9563 316.595 25.4641 316.966C24.0919 317.953 20.2546 320.609 11.4954 325.724C11.2467 325.866 10.9671 325.945 10.6808 325.955C10.3946 325.965 10.1101 325.906 9.85206 325.781L9.8274 325.814Z" fill="white"/>
</g>
<g opacity="0.6">
<path d="M24.5521 308.514C24.3081 308.615 24.1101 308.802 23.9963 309.041C23.8825 309.279 23.8609 309.551 23.9358 309.805C24.027 310.051 24.2093 310.252 24.445 310.367C24.6807 310.482 24.9515 310.501 25.2012 310.421C25.4593 310.315 25.6686 310.116 25.7885 309.864C25.9085 309.612 25.9305 309.324 25.8503 309.056C25.7263 308.809 25.5121 308.62 25.2521 308.526C24.9921 308.433 24.7061 308.443 24.4535 308.555" fill="white"/>
</g>
<path d="M15.4478 319.433C15.1757 318.817 14.788 318.259 14.3056 317.789C13.7496 317.4 13.125 317.121 12.465 316.966C12.465 316.917 12.7033 316.843 13.1142 316.884C13.6416 316.953 14.138 317.173 14.5439 317.517C14.9601 317.856 15.2662 318.311 15.4231 318.825C15.5299 319.17 15.4971 319.433 15.4478 319.433Z" fill="#263238"/>
<path d="M13.7058 321.382C13.6072 321.431 13.2045 320.757 12.3993 320.296C11.8869 320.06 11.3599 319.857 10.8216 319.688C11.1184 319.59 11.4342 319.564 11.7429 319.613C12.0516 319.661 12.3442 319.783 12.5965 319.968C13.4839 320.502 13.8044 321.357 13.7058 321.382Z" fill="#263238"/>
<path d="M18.4141 317.098C17.8213 316.451 17.1843 315.847 16.5077 315.289C15.7573 314.835 14.9746 314.436 14.1659 314.097C15.0858 314.142 15.9738 314.448 16.7261 314.979C17.4785 315.511 18.0639 316.246 18.4141 317.098Z" fill="#263238"/>
<path d="M19.9342 312.074C19.8684 312.164 19.0385 311.548 17.8471 311.211C16.6556 310.873 15.6285 310.923 15.6121 310.816C16.3682 310.539 17.1978 310.539 17.9539 310.816C18.743 310.985 19.4455 311.431 19.9342 312.074Z" fill="#263238"/>
<path d="M21.1585 307.157C20.4856 306.739 19.7584 306.415 18.9975 306.195C18.215 306.088 17.4217 306.088 16.6392 306.195C16.6392 306.154 16.8611 305.99 17.2966 305.858C17.8787 305.701 18.4897 305.684 19.0796 305.809C19.6789 305.929 20.2416 306.188 20.723 306.565C21.0435 306.878 21.1914 307.1 21.1585 307.157Z" fill="#263238"/>
<path d="M19.2357 305.265C19.2273 305.047 19.2724 304.829 19.3672 304.632C19.5655 304.064 19.8757 303.541 20.2793 303.095C20.5434 302.738 20.9195 302.48 21.3475 302.363C21.4912 302.339 21.6386 302.359 21.7706 302.421C21.9025 302.483 22.0128 302.583 22.087 302.708C22.2087 302.965 22.2349 303.256 22.161 303.53C21.9911 304.087 21.6298 304.566 21.1411 304.882C20.6523 305.198 20.0677 305.331 19.4905 305.257C18.921 305.177 18.388 304.93 17.9593 304.546C17.5307 304.163 17.2256 303.66 17.0829 303.103C17.0504 302.962 17.0474 302.817 17.0743 302.675C17.1012 302.534 17.1573 302.399 17.239 302.281C17.3361 302.163 17.4697 302.081 17.6187 302.048C17.7676 302.015 17.9233 302.034 18.0607 302.1C18.4462 302.287 18.7772 302.57 19.0221 302.922C19.3865 303.399 19.6646 303.936 19.8438 304.509C19.9298 304.711 19.9691 304.931 19.9588 305.15C19.6822 304.41 19.2943 303.717 18.8085 303.095C18.5995 302.79 18.3168 302.544 17.9868 302.379C17.9139 302.343 17.8308 302.333 17.7515 302.351C17.6721 302.369 17.6014 302.414 17.5513 302.478C17.5021 302.558 17.4708 302.648 17.4594 302.742C17.4481 302.836 17.457 302.931 17.4855 303.021C17.6223 303.497 17.8934 303.925 18.2665 304.251C18.6395 304.578 19.0987 304.79 19.5891 304.862C20.0768 304.92 20.5696 304.81 20.9863 304.55C21.403 304.29 21.7188 303.895 21.8816 303.432C21.9509 303.246 21.9509 303.042 21.8816 302.856C21.8443 302.785 21.7851 302.727 21.7127 302.691C21.6402 302.656 21.5583 302.644 21.479 302.659C21.1197 302.759 20.8007 302.968 20.5669 303.259C20.0053 303.842 19.5543 304.521 19.2357 305.265Z" fill="#263238"/>
<g opacity="0.3">
<path d="M19.0878 295.867L18.5866 298.268L30.4764 301.755L31.4953 298.384L19.5233 294.042L19.0878 295.867Z" fill="black"/>
</g>
<path d="M74.0013 300.274L72.9906 313.735C72.9906 313.735 86.3266 319.277 86.3842 321.785L60.2298 320.773L60.9365 299.731L74.0013 300.274Z" fill="#0093DD"/>
<g opacity="0.6">
<path d="M64.9463 312.288C64.6924 312.356 64.4724 312.515 64.3284 312.735C64.1844 312.955 64.1265 313.22 64.1657 313.48C64.2158 313.742 64.3654 313.974 64.5831 314.127C64.8007 314.281 65.0694 314.344 65.3325 314.303C65.6018 314.231 65.8349 314.062 65.9867 313.828C66.1385 313.594 66.1982 313.312 66.1542 313.036C66.0656 312.774 65.8796 312.556 65.6349 312.428C65.3901 312.299 65.1053 312.27 64.8395 312.346" fill="white"/>
</g>
<g opacity="0.6">
<path d="M60.2298 320.774L60.3859 318.652L85.4063 320.42C85.4063 320.42 86.5485 320.971 86.3842 321.785L60.2298 320.774Z" fill="white"/>
</g>
<path d="M73.4179 313.62C73.4179 313.744 72.7688 313.776 72.1279 314.163C71.4869 314.549 71.1254 315.076 71.0104 315.026C70.8953 314.977 71.1172 314.204 71.906 313.785C72.6948 313.365 73.4672 313.505 73.4179 313.62Z" fill="#263238"/>
<path d="M76.1213 314.861C76.1213 314.985 75.5872 315.182 75.127 315.683C74.6669 316.185 74.5272 316.769 74.3957 316.761C74.2642 316.752 74.2232 316.021 74.7983 315.387C75.3735 314.754 76.1213 314.738 76.1213 314.861Z" fill="#263238"/>
<path d="M77.5757 318.208C77.4606 318.208 77.3045 317.583 77.6578 316.9C78.0112 316.218 78.6274 315.955 78.6767 316.078C78.726 316.202 78.3398 316.547 78.0604 317.114C77.7811 317.682 77.6825 318.2 77.5757 318.208Z" fill="#263238"/>
<path d="M73.3111 310.529C73.2536 310.644 72.6702 310.438 71.9471 310.463C71.224 310.487 70.657 310.693 70.5913 310.578C70.5256 310.463 71.0843 310.027 71.9389 310.019C72.7934 310.01 73.3768 310.43 73.3111 310.529Z" fill="#263238"/>
<g opacity="0.3">
<path d="M73.7959 302.939L73.6233 305.34L60.7721 304.723L60.8543 301.952L73.7959 302.939Z" fill="black"/>
</g>
<path d="M73.4672 307.806C73.0319 307.907 72.5774 307.887 72.1525 307.749C71.6831 307.645 71.2279 307.485 70.7967 307.272C70.5435 307.146 70.2992 307.003 70.0654 306.844C69.9194 306.76 69.7888 306.652 69.6792 306.524C69.6026 306.426 69.5609 306.306 69.5609 306.182C69.5609 306.059 69.6026 305.938 69.6792 305.841C69.7463 305.753 69.8336 305.682 69.9337 305.635C70.0338 305.588 70.1438 305.566 70.2544 305.57C70.4192 305.573 70.5826 305.6 70.7392 305.652C71.0223 305.73 71.2974 305.835 71.5609 305.965C71.9935 306.175 72.3901 306.452 72.7359 306.787C73.3193 307.379 73.5083 307.864 73.4672 307.889C73.4261 307.913 73.1303 307.51 72.5305 307.025C72.1773 306.743 71.791 306.506 71.3801 306.318C71.1407 306.214 70.8935 306.128 70.6406 306.063C70.3694 305.973 70.1311 305.965 70.0572 306.063C69.9832 306.162 70.0572 306.129 70.0572 306.211C70.1381 306.302 70.2323 306.379 70.3366 306.441C70.5516 306.598 70.7767 306.741 71.0104 306.869C71.4098 307.084 71.8278 307.263 72.2593 307.403C72.6712 307.508 73.0748 307.643 73.4672 307.806Z" fill="#263238"/>
<path d="M73.2864 307.979C73.0545 307.597 72.9508 307.15 72.9906 306.704C72.9898 306.218 73.0703 305.734 73.2289 305.274C73.3218 305.001 73.443 304.74 73.5905 304.493C73.6649 304.328 73.7788 304.184 73.9221 304.073C74.0655 303.963 74.2338 303.889 74.4121 303.859C74.5286 303.867 74.6406 303.907 74.7352 303.975C74.8297 304.044 74.9029 304.137 74.9462 304.246C75.0081 304.401 75.0468 304.565 75.0613 304.731C75.1029 305.026 75.1029 305.324 75.0613 305.619C74.966 306.106 74.7546 306.563 74.445 306.951C73.9109 307.609 73.3686 307.773 73.3604 307.699C73.3522 307.625 73.7794 307.403 74.1821 306.762C74.4167 306.392 74.5733 305.978 74.6422 305.545C74.6792 305.294 74.6792 305.039 74.6422 304.789C74.6422 304.509 74.519 304.279 74.4121 304.303C74.3053 304.328 74.0588 304.501 73.9438 304.715C73.8034 304.935 73.685 305.169 73.5905 305.413C73.4293 305.83 73.327 306.268 73.2864 306.713C73.2453 307.477 73.3604 307.963 73.2864 307.979Z" fill="#263238"/>
<path d="M40.8626 127.845L47.6251 128.223C48.1018 130.125 48.7424 131.982 49.5396 133.774C54.9874 124.309 59.2109 111.638 60.2627 106.54C60.1065 106.03 59.9258 105.471 59.7039 104.838C59.5386 103.888 59.5665 102.915 59.7861 101.976C59.9751 100.842 60.2873 99.3123 60.3859 98.6051C60.6735 96.4508 61.0186 96.1383 61.7746 96.3603C62.7935 96.6892 61.3555 102.404 62.1854 102.527C62.6373 102.593 63.1879 100.636 63.344 99.0327C63.5001 97.4293 64.2314 92.4545 64.7655 92.1503C65.5872 91.6652 66.2199 92.4299 66.0227 94.0333C65.8255 95.6367 65.5708 100.48 66.4253 100.546C67.2799 100.611 67.9619 92.4134 67.9619 92.4134C67.9619 92.4134 67.8304 90.6373 68.7836 90.6784C70.5584 90.7524 69.1698 99.3945 69.0219 100.209C68.915 100.776 69.8436 100.883 69.9175 100.266C69.9915 99.6494 70.427 92.0434 72.2347 92.1339C73.6151 92.1832 71.1583 99.2547 71.9389 100.891C72.7195 102.527 73.2536 95.3243 74.5765 95.4229C75.0695 95.4229 75.3982 95.5545 74.5272 99.6329C73.6492 102.876 72.5931 106.069 71.3637 109.196C69.2684 120.502 60.0737 156.674 45.6613 150.054C37.5923 146.346 33.8289 128.001 33.8289 128.001L40.8626 127.845Z" fill="#FFBE9D"/>
<path d="M71.3883 109.187C71.4026 109.102 71.4275 109.02 71.4623 108.941C71.5198 108.76 71.602 108.521 71.7006 108.234C71.9224 107.576 72.2429 106.663 72.6455 105.504C73.0481 104.344 73.5412 102.864 74.0342 101.154C74.2807 100.332 74.4861 99.3777 74.6751 98.3828C74.7655 97.8894 74.8641 97.3796 74.9216 96.8534C74.9422 96.5934 74.9422 96.3322 74.9216 96.0722C74.9216 95.8009 74.8641 95.5871 74.6504 95.5789C74.4368 95.5706 74.2807 95.7022 74.1328 95.9324C73.9932 96.1756 73.8777 96.4317 73.7877 96.6972C73.5987 97.2398 73.4425 97.8154 73.2946 98.4075C73.1467 98.9995 73.0071 99.608 72.8263 100.225C72.7501 100.566 72.6107 100.889 72.4154 101.179C72.3621 101.245 72.2853 101.288 72.2011 101.298C72.1168 101.309 72.0317 101.287 71.9635 101.236C71.8837 101.162 71.8195 101.072 71.7745 100.973C71.7026 100.805 71.6529 100.628 71.6266 100.447C71.6007 99.0648 71.7387 97.6847 72.0375 96.3354C72.1607 95.6446 72.284 94.9457 72.3744 94.2386C72.4221 93.8841 72.4496 93.5272 72.4565 93.1696C72.4565 92.8489 72.4565 92.4049 72.2675 92.3474C72.0785 92.2898 71.7745 92.4789 71.6102 92.7749C71.4187 93.0806 71.2669 93.4094 71.1583 93.7534C70.9273 94.4741 70.7488 95.2106 70.6242 95.9571C70.4927 96.7218 70.3941 97.4947 70.3037 98.2759C70.3037 98.6706 70.2297 99.0982 70.1887 99.46L70.1394 100.06C70.1461 100.188 70.1253 100.316 70.0786 100.435C70.0318 100.554 69.9601 100.662 69.8682 100.751C69.7493 100.839 69.6053 100.887 69.4574 100.887C69.3094 100.887 69.1654 100.839 69.0465 100.751C68.9803 100.707 68.9236 100.65 68.8798 100.584C68.8361 100.517 68.8061 100.443 68.7918 100.364C68.7792 100.291 68.7792 100.216 68.7918 100.142V99.9945C68.8493 99.5915 68.915 99.1722 68.9726 98.7857C69.0876 97.9635 69.1862 97.1412 69.2684 96.3189C69.3505 95.4966 69.3998 94.6744 69.4163 93.8521C69.4574 93.0221 69.3743 92.1907 69.1698 91.3853C69.1231 91.1801 68.9996 91.0006 68.8247 90.8837C68.7408 90.8584 68.6512 90.8589 68.5676 90.8853C68.4841 90.9117 68.4104 90.9628 68.3563 91.0317C68.136 91.4418 68.0471 91.9097 68.1016 92.372C67.9537 94.0166 67.7729 95.5871 67.5428 97.1494C67.4196 97.9717 67.2963 98.7117 67.0991 99.4764C67.0501 99.6716 66.9898 99.8638 66.9183 100.052C66.8529 100.284 66.7181 100.491 66.5321 100.644C66.4473 100.685 66.3514 100.697 66.2593 100.677C66.1672 100.658 66.084 100.609 66.0227 100.537C65.9431 100.445 65.8818 100.339 65.8419 100.225C65.769 100.033 65.7167 99.835 65.6858 99.6327C65.5164 98.1306 65.5026 96.6151 65.6447 95.1102C65.7397 94.41 65.7755 93.7031 65.7515 92.9969C65.7331 92.697 65.5973 92.4163 65.3736 92.2158C65.3226 92.1807 65.2644 92.1573 65.2033 92.1474C65.1423 92.1374 65.0797 92.1411 65.0202 92.1582C64.9506 92.175 64.884 92.2027 64.823 92.2405C64.7802 92.269 64.7461 92.3088 64.7244 92.3556C64.4801 92.9773 64.2984 93.6218 64.1821 94.2797C64.0506 94.9375 63.9356 95.5953 63.8288 96.2449C63.722 96.8945 63.6316 97.5276 63.5494 98.1608C63.4672 98.7939 63.4179 99.4189 63.2947 100.036C63.1923 100.645 63.0299 101.243 62.8099 101.82C62.7578 101.966 62.6917 102.106 62.6127 102.239C62.5141 102.371 62.4648 102.543 62.2018 102.626C62.135 102.638 62.0661 102.63 62.0034 102.604C61.9407 102.578 61.887 102.534 61.8485 102.478C61.802 102.398 61.766 102.312 61.7417 102.223C61.7114 102.071 61.6922 101.917 61.6842 101.762C61.6842 100.586 61.8485 99.5093 61.906 98.4733C61.9555 97.9756 61.9555 97.4743 61.906 96.9767C61.906 96.7547 61.8074 96.4998 61.676 96.4422C61.589 96.3994 61.4935 96.3772 61.3966 96.3772C61.2997 96.3772 61.2041 96.3994 61.1172 96.4422C60.8322 96.7541 60.6537 97.1486 60.6078 97.5688C60.5092 97.9963 60.4681 98.391 60.3859 98.8268C60.0983 100.471 59.7943 101.861 59.6546 103.004C59.5815 103.508 59.5815 104.021 59.6546 104.525C59.7532 104.936 59.8929 105.306 59.9668 105.594L60.1641 106.268C60.1967 106.341 60.2162 106.419 60.2216 106.499C60.1808 106.429 60.1503 106.355 60.1312 106.277L59.8929 105.627C59.7943 105.331 59.6546 104.994 59.5314 104.542C59.4565 104.026 59.4565 103.503 59.5314 102.988C59.6546 101.82 59.934 100.43 60.1969 98.7939C60.2709 98.391 60.312 97.9717 60.4106 97.5194C60.4516 97.2926 60.5121 97.0698 60.5913 96.8534C60.6599 96.6009 60.8102 96.3782 61.0186 96.2202C61.1454 96.1539 61.2864 96.1193 61.4295 96.1193C61.5725 96.1193 61.7135 96.1539 61.8403 96.2202C62.169 96.4094 62.1772 96.7218 62.2347 96.9603C62.2837 97.4772 62.2837 97.9975 62.2347 98.5144C62.1854 99.5669 62.0211 100.669 62.0457 101.803C62.053 101.936 62.0695 102.068 62.095 102.198C62.095 102.33 62.1936 102.379 62.1772 102.354C62.1608 102.33 62.3087 102.239 62.3662 102.132C62.4329 102.009 62.4933 101.883 62.547 101.754C62.7477 101.193 62.8989 100.615 62.9989 100.027C63.1139 99.4353 63.1468 98.8104 63.2372 98.1772C63.3276 97.5441 63.4015 96.8945 63.5083 96.2449C63.6151 95.5953 63.722 94.9293 63.8534 94.2632C63.9707 93.5637 64.1664 92.8797 64.4368 92.224C64.4884 92.1145 64.5713 92.0229 64.6751 91.9609C64.7655 91.908 64.8621 91.8666 64.9627 91.8376C65.0737 91.8085 65.1895 91.803 65.3027 91.8214C65.4159 91.8398 65.524 91.8817 65.6201 91.9444C65.7807 92.0725 65.9138 92.2317 66.0112 92.4126C66.1087 92.5935 66.1685 92.7923 66.187 92.9969C66.2364 93.3708 66.2364 93.7496 66.187 94.1235C66.187 94.477 66.1213 94.8388 66.0966 95.2006C65.9489 96.6688 65.9489 98.1481 66.0966 99.6162C66.1258 99.7896 66.1698 99.9601 66.2281 100.126C66.2544 100.191 66.2904 100.252 66.3349 100.307C66.3349 100.471 66.3349 100.348 66.3349 100.373C66.3349 100.397 66.3349 100.373 66.3349 100.315C66.4203 100.2 66.4869 100.073 66.5321 99.9369C66.5897 99.7642 66.6472 99.5833 66.6965 99.4024C66.8773 98.6706 67.0087 97.8977 67.1238 97.1247C67.3538 95.5706 67.5264 93.9837 67.6743 92.372C67.6096 91.801 67.7307 91.2243 68.0194 90.7275C68.1265 90.5814 68.2788 90.4748 68.4526 90.4243C68.6265 90.3737 68.8121 90.382 68.9808 90.4479C69.127 90.5252 69.2554 90.6326 69.3573 90.7629C69.4593 90.8933 69.5326 91.0437 69.5724 91.2044C69.7951 92.0515 69.8866 92.9279 69.8435 93.8028C69.8435 94.625 69.7696 95.4966 69.6874 96.3354C69.6053 97.1741 69.5067 97.9799 69.3916 98.8022C69.3341 99.2133 69.2684 99.6244 69.2108 100.019C69.1533 100.282 69.2108 100.29 69.2108 100.364C69.259 100.394 69.3145 100.41 69.3711 100.41C69.4277 100.41 69.4832 100.394 69.5313 100.364C69.6217 100.307 69.6299 100.184 69.6463 99.9616L69.7039 99.3613C69.7039 98.9666 69.786 98.539 69.8189 98.1772C69.9093 97.355 70.0161 96.5985 70.1476 95.8338C70.2766 95.0651 70.4606 94.3067 70.6981 93.5643C70.8212 93.189 70.9895 92.83 71.1993 92.4954C71.3157 92.3143 71.4665 92.1578 71.643 92.0349C71.7389 91.9499 71.8576 91.8949 71.9843 91.8764C72.1111 91.858 72.2404 91.8771 72.3565 91.9312C72.4726 91.9854 72.5703 92.0723 72.6377 92.1813C72.7051 92.2903 72.7393 92.4166 72.7359 92.5447C72.7657 92.7378 72.7794 92.9331 72.777 93.1285C72.7653 93.5001 72.7323 93.8707 72.6784 94.2386C72.588 94.9622 72.4565 95.6611 72.3333 96.3518C72.0352 97.6626 71.8918 99.0038 71.906 100.348C71.9207 100.493 71.9596 100.635 72.021 100.767C72.0421 100.817 72.0698 100.864 72.1032 100.907C72.1032 100.907 72.1032 100.907 72.1032 100.866C72.2592 100.612 72.373 100.334 72.4401 100.044C72.6209 99.4435 72.7605 98.8351 72.9167 98.243C73.0728 97.651 73.2289 97.0672 73.4343 96.508C73.5332 96.2222 73.6598 95.9468 73.8123 95.6858C73.8907 95.5452 73.997 95.4221 74.1246 95.324C74.1967 95.2652 74.2808 95.2231 74.3711 95.2006C74.4579 95.184 74.5471 95.184 74.634 95.2006C74.7288 95.2096 74.8194 95.2442 74.8961 95.3007C74.9728 95.3571 75.0327 95.4334 75.0695 95.5213C75.1255 95.6657 75.1561 95.8187 75.1599 95.9736C75.1683 96.2486 75.1518 96.5238 75.1106 96.7958C75.0531 97.3385 74.9462 97.8483 74.8476 98.3499C74.6706 99.288 74.4429 100.216 74.1656 101.129C73.6562 102.839 73.1385 104.287 72.7112 105.463C72.284 106.638 71.8896 107.559 71.6923 108.168C71.5773 108.456 71.4787 108.686 71.413 108.867C71.3472 109.048 71.3965 109.196 71.3883 109.187Z" fill="#EB996E"/>
<path d="M33.7796 128.667C35.0861 133.288 37.6416 140.425 40.3531 147.957C40.4411 148.2 40.5987 148.41 40.8061 148.563C41.0135 148.716 41.2614 148.804 41.5186 148.816C41.7759 148.829 42.0311 148.765 42.2521 148.632C42.4731 148.5 42.65 148.305 42.7607 148.072L49.4985 133.806C49.4985 133.806 47.8552 122.089 48.0113 122.5C48.1674 122.911 34.1083 124.021 34.1083 124.021L33.7796 128.667Z" fill="#0093DD"/>
<path d="M52.0047 129.76C52.0047 129.76 51.8239 129.621 51.487 129.53C51.2587 129.46 51.0155 129.456 50.7846 129.517C50.5538 129.578 50.3446 129.702 50.1805 129.876L50.008 130.073L49.9012 129.818C49.5396 128.897 49.0795 127.705 48.6193 126.389C47.8992 124.584 47.3088 122.729 46.8527 120.839C47.7116 122.585 48.4367 124.394 49.022 126.249C49.4985 127.557 49.9094 128.766 50.2134 129.703L49.934 129.654C50.1724 129.41 50.4904 129.262 50.8297 129.234C51.0765 129.212 51.3251 129.251 51.5528 129.349C51.9225 129.489 52.0211 129.744 52.0047 129.76Z" fill="#263238"/>
<path d="M42.4485 143.328C42.704 142.622 43.0317 141.944 43.4263 141.306C44.0754 140.089 44.9957 138.411 46.0475 136.577C47.0992 134.744 48.0606 133.091 48.7755 131.907C49.129 131.244 49.5444 130.617 50.0162 130.032C49.7556 130.736 49.4282 131.414 49.0384 132.055C48.3893 133.28 47.4608 134.949 46.4172 136.791C45.3737 138.633 44.4041 140.278 43.6892 141.462C43.3336 142.121 42.9183 142.745 42.4485 143.328Z" fill="#263238"/>
<path d="M37.962 141.182C38.327 140.871 38.7204 140.596 39.137 140.36C39.9012 139.866 41.0105 139.176 42.3581 138.353L42.2841 138.575C41.5364 136.824 40.6407 134.776 39.7204 132.573C38.5536 129.802 37.5101 127.253 36.7459 125.353L36.976 125.427C35.9078 126.011 35.0368 126.472 34.437 126.784C34.131 126.967 33.8058 127.116 33.4674 127.228C33.7364 126.995 34.0314 126.793 34.3466 126.628C34.93 126.266 35.7681 125.764 36.8117 125.156L36.9596 125.065L37.0335 125.23C37.8552 127.105 38.9398 129.629 40.1066 132.408C41.0269 134.62 41.8733 136.676 42.5717 138.436L42.6292 138.584L42.4978 138.658C41.1337 139.48 40.0327 140.096 39.211 140.532C38.8175 140.79 38.3991 141.008 37.962 141.182Z" fill="#FAFAFA"/>
<path d="M74.519 303.662C75.7228 303.627 76.8702 303.143 77.7354 302.305C78.6006 301.466 79.121 300.334 79.1944 299.131C80.5995 276.371 86.9265 172.839 85.6611 169.591C84.2313 165.94 80.4762 153.245 80.4762 153.245L46.9267 151.69C46.9267 151.69 38.5783 164.847 37.3786 169.928C36.294 174.459 5.89973 270.303 2.11996 290.654C1.9329 291.665 2.12555 292.709 2.66091 293.586C3.19627 294.463 4.0366 295.112 5.02053 295.407L74.519 303.662Z" fill="#263238"/>
<path d="M53.5495 152.406C53.5495 152.406 53.5084 152.53 53.4016 152.768L52.925 153.804L51.0515 157.767C50.6818 158.647 50.2791 159.626 49.8272 160.687C49.3753 161.747 48.8823 162.915 48.4386 164.189C47.9949 165.464 47.4525 166.812 46.9513 168.26C46.4501 169.707 45.9817 171.253 45.4558 172.873L43.9686 178.003C43.4838 179.796 43.0236 181.671 42.5142 183.611C42.0047 185.552 41.6021 187.575 41.1173 189.655C40.6325 191.735 40.197 193.881 39.778 196.093C38.8741 200.501 37.9867 205.138 37.05 209.957C36.1132 214.775 35.1108 219.742 33.9358 224.807C33.3688 227.34 32.7114 229.806 32.1034 232.273C31.4953 234.74 30.7805 237.125 30.0574 239.468C28.6359 244.163 27.0747 248.636 25.4806 252.846C22.2596 261.275 18.9071 268.683 16.0312 274.842C13.1552 281.001 10.6327 285.918 8.90711 289.314L6.91041 293.236C6.68855 293.664 6.50778 294.001 6.37631 294.239C6.32048 294.356 6.25736 294.468 6.18732 294.576C6.23186 294.455 6.28401 294.337 6.34345 294.223C6.45848 293.976 6.62282 293.631 6.83646 293.195C7.28839 292.274 7.93752 290.95 8.77564 289.256C10.419 285.844 12.8841 280.902 15.7682 274.727C18.6523 268.552 21.9309 261.143 25.1272 252.723C26.7049 248.513 28.2579 244.048 29.6794 239.361C30.3943 237.026 31.0352 234.617 31.709 232.183C32.3828 229.749 32.9744 227.249 33.5249 224.708C34.6999 219.651 35.686 214.668 36.6473 209.866C37.6087 205.064 38.4797 200.419 39.4 196.011C39.8355 193.799 40.3285 191.653 40.7722 189.573C41.2159 187.492 41.7336 185.461 42.1855 183.521C42.6374 181.58 43.1715 179.706 43.6646 177.913C44.1576 176.12 44.6999 174.418 45.1847 172.782L46.6966 168.136C47.206 166.689 47.7401 165.341 48.2167 164.074C48.6933 162.808 49.1781 161.607 49.6464 160.58C50.1148 159.552 50.5257 158.54 50.9036 157.669C51.7253 155.95 52.3991 154.626 52.8428 153.73L53.3605 152.719L53.5495 152.406Z" fill="#455A64"/>
<path d="M23.9276 297.43C23.9276 297.43 23.9276 297.306 24.0098 297.06C24.0919 296.813 24.1823 296.426 24.3056 295.966L25.4724 291.772C26.483 288.105 27.9374 282.842 29.7451 276.347C31.5529 269.851 33.6317 262.064 35.8914 253.422C37.0089 249.097 38.1757 244.558 39.3918 239.854C40.6079 235.151 41.7829 230.25 43.0319 225.251C44.2808 220.251 45.4147 215.384 46.5569 210.614C47.699 205.845 48.7179 201.315 49.7368 196.965C51.7171 188.257 53.4591 180.396 54.8806 173.793C56.3021 167.19 57.4278 161.854 58.2249 158.17C58.6111 156.336 58.9151 154.881 59.1287 153.911C59.2356 153.442 59.3177 153.088 59.3752 152.809C59.4328 152.529 59.4738 152.431 59.4738 152.431C59.4621 152.56 59.4429 152.69 59.4163 152.817C59.367 153.08 59.3013 153.45 59.2109 153.927C59.0219 154.922 58.7425 156.394 58.3892 158.203L57.0334 164.929C56.4829 167.56 55.8666 170.553 55.1764 173.859C53.796 180.437 52.0869 188.331 50.1148 197.055C49.1206 201.405 48.0852 205.985 46.9595 210.713C45.8338 215.441 44.6506 220.342 43.4509 225.358C42.2512 230.374 40.9858 235.225 39.7944 239.953C38.6029 244.681 37.4033 249.203 36.2776 253.52C33.9851 262.162 31.8651 269.966 30.041 276.429L27.5759 285.202C26.8281 287.776 26.179 289.996 25.6531 291.781C25.1273 293.565 24.7 294.979 24.4124 295.958C24.2727 296.418 24.1577 296.78 24.0837 297.035C24.0098 297.29 23.9276 297.43 23.9276 297.43Z" fill="#455A64"/>
<path d="M63.911 152.513C63.911 152.513 63.911 152.636 63.9685 152.891L64.1082 154.026C64.1657 154.527 64.2396 155.144 64.3218 155.859C64.404 156.575 64.4286 157.438 64.4861 158.384C64.4861 158.861 64.5437 159.362 64.5683 159.888C64.593 160.415 64.5683 160.974 64.5683 161.533V163.342C64.5683 163.967 64.5108 164.625 64.4861 165.299C64.4615 165.973 64.4204 166.672 64.3793 167.388C64.3382 168.103 64.2479 168.851 64.1739 169.616C64.0671 171.145 63.8041 172.741 63.5987 174.434C63.0893 177.797 62.4155 181.457 61.5527 185.362C60.6899 189.268 59.6793 193.412 58.6275 197.779C57.5757 202.145 56.4829 206.733 55.579 211.527C54.6752 216.321 53.9357 221.32 53.2619 226.459C52.5881 231.598 52.1033 236.606 51.5281 241.466C50.9529 246.325 50.4599 251.012 49.8847 255.444L48.9973 261.957C48.6522 264.053 48.3482 266.068 48.0031 268.074C47.658 270.081 47.3046 271.939 46.9184 273.756C46.5322 275.573 46.1461 277.308 45.7599 278.961C45.3737 280.614 44.9382 282.176 44.5273 283.656C44.1165 285.136 43.6563 286.501 43.2619 287.768C43.0565 288.409 42.8757 289.034 42.6621 289.626C42.4485 290.218 42.2348 290.785 42.0376 291.328C41.635 292.405 41.2652 293.4 40.9283 294.288C40.2052 296.048 39.5725 297.38 39.1781 298.301L38.7016 299.337C38.5947 299.567 38.529 299.682 38.529 299.682C38.529 299.682 38.529 299.551 38.6605 299.312C38.7919 299.074 38.9152 298.712 39.096 298.26C39.4739 297.339 40.0738 295.99 40.7393 294.231L41.7993 291.254L42.4156 289.56C42.621 288.968 42.7936 288.335 42.9908 287.694C43.377 286.403 43.8125 285.029 44.2233 283.582L45.423 278.895L46.5569 273.69C46.9267 271.873 47.2471 269.974 47.6169 268.009C47.9866 266.043 48.2496 263.996 48.5783 261.899C48.9069 259.802 49.1534 257.623 49.4492 255.395C49.9998 250.938 50.5339 246.26 51.0926 241.416C51.6514 236.573 52.169 231.549 52.8264 226.377C53.4837 221.205 54.2561 216.222 55.16 211.412C56.0638 206.602 57.1731 202.013 58.2331 197.655C59.2931 193.297 60.3284 189.145 61.1994 185.255C62.0704 181.366 62.7606 177.707 63.2947 174.352C63.5083 172.708 63.7795 171.063 63.8945 169.55C63.9767 168.794 64.0424 168.054 64.1164 167.338C64.1903 166.623 64.1986 165.924 64.2396 165.25C64.2807 164.575 64.33 163.934 64.3382 163.301C64.3465 162.668 64.3382 162.076 64.3382 161.5C64.3382 160.924 64.3382 160.374 64.3382 159.856C64.3382 159.338 64.2889 158.836 64.2725 158.359C64.2232 157.413 64.2232 156.566 64.1493 155.843C64.0753 155.119 64.026 154.503 63.9767 154.001C63.9274 153.499 63.9027 153.138 63.8781 152.866C63.8814 152.748 63.8924 152.63 63.911 152.513Z" fill="#455A64"/>
<path d="M60.2462 302.684C60.2088 302.56 60.1786 302.433 60.1559 302.306C60.1066 302.034 60.0326 301.664 59.9422 301.187C59.8518 300.71 59.745 300.077 59.6135 299.354C59.4821 298.63 59.3095 297.808 59.2273 296.887C59.1452 295.966 58.9973 294.889 58.8576 293.738C58.7179 292.586 58.6932 291.32 58.5946 289.972C58.5946 289.297 58.5125 288.59 58.4878 287.875C58.4632 287.159 58.4878 286.403 58.4878 285.63C58.4878 284.857 58.4878 284.076 58.4878 283.262C58.4878 282.448 58.5536 281.617 58.5782 280.795C58.6029 279.973 58.6522 279.068 58.685 278.18C58.7179 277.292 58.8329 276.38 58.8987 275.45C59.0219 273.592 59.2602 271.676 59.4903 269.695C59.7204 267.713 60.049 265.657 60.312 263.544C60.5749 261.431 61.0022 259.268 61.4295 257.056C63.0728 248.184 65.2914 238.539 67.3456 228.359C69.2727 218.788 70.7126 209.125 71.6595 199.407C72.5469 190.444 72.8838 182.345 72.9989 175.561C72.9989 172.157 72.9989 169.073 72.9989 166.376C72.9989 163.679 72.8838 161.344 72.8016 159.437C72.7195 157.529 72.6455 156.057 72.6044 155.054C72.6044 154.569 72.6044 154.19 72.6044 153.919C72.6044 153.648 72.6044 153.524 72.6044 153.524C72.6044 153.524 72.6044 153.656 72.6044 153.911C72.6044 154.166 72.6537 154.569 72.6948 155.054C72.7606 156.049 72.8838 157.521 72.966 159.428C73.0482 161.336 73.1632 163.663 73.2371 166.368C73.3111 169.074 73.3357 172.124 73.3193 175.561C73.2454 182.378 72.9331 190.494 72.0703 199.465C71.1405 209.199 69.7089 218.879 67.7811 228.466C65.7269 238.662 63.4673 248.299 61.8321 257.155C61.4048 259.359 61.0679 261.529 60.6982 263.626C60.3284 265.723 60.049 267.779 59.8354 269.769C59.6218 271.758 59.3506 273.666 59.2273 275.524C59.1452 276.445 59.0712 277.35 58.9973 278.238C58.9233 279.126 58.9151 279.998 58.874 280.844C58.8329 281.691 58.8083 282.53 58.7672 283.311V287.908C58.7672 288.623 58.8329 289.322 58.8658 289.996C58.948 291.345 58.948 292.611 59.0877 293.754C59.2273 294.897 59.3177 295.958 59.4163 296.912C59.5149 297.865 59.6546 298.688 59.7614 299.378L60.0573 301.212C60.1312 301.689 60.1805 302.034 60.2298 302.339C60.2791 302.643 60.2462 302.684 60.2462 302.684Z" fill="#455A64"/>
<path d="M78.6603 153.162C78.6603 153.162 78.7014 153.285 78.7753 153.532L79.0958 154.618L79.597 156.402C79.8305 157.214 80.0225 158.037 80.1722 158.869C80.353 159.798 80.6077 160.826 80.7885 161.969C80.9692 163.112 81.1253 164.353 81.3143 165.693C81.5033 167.034 81.5362 168.473 81.6594 170.002C81.7827 171.532 81.7827 173.143 81.7498 174.845C81.7498 178.241 81.4705 181.95 81.035 185.921C80.5995 189.893 79.9175 194.103 79.1286 198.51L76.5485 212.341C75.6447 217.135 74.8559 222.118 74.141 227.24C73.4261 232.363 72.8427 237.371 72.3661 242.222C71.8896 247.073 71.5445 251.769 71.2651 256.242C70.9857 260.715 70.8131 264.966 70.731 268.954C70.6488 272.942 70.5995 276.65 70.6159 280.038C70.6324 283.426 70.6817 286.493 70.7638 289.182C70.846 291.871 70.9446 294.189 71.0186 296.081C71.0925 297.972 71.1829 299.427 71.2322 300.439C71.2322 300.927 71.2486 301.305 71.2815 301.573C71.2815 301.836 71.2815 301.968 71.2815 301.968C71.2815 301.968 71.2815 301.836 71.2322 301.582L71.1418 300.447C71.0761 299.452 70.9611 297.98 70.8542 296.089C70.7474 294.198 70.6077 291.879 70.5256 289.19C70.4434 286.501 70.353 283.434 70.3119 280.038C70.2708 276.642 70.3119 272.934 70.3777 268.946C70.4434 264.958 70.6324 260.723 70.8707 256.217C71.109 251.711 71.4623 247.04 71.9471 242.181C72.4319 237.321 72.9906 232.314 73.7219 227.174C74.4532 222.035 75.2256 217.061 76.1377 212.267L78.7424 198.444C79.5641 194.037 80.1968 189.827 80.6816 185.88C81.1664 181.933 81.3965 178.225 81.4458 174.837C81.4458 173.143 81.3965 171.548 81.3883 170.01C81.3801 168.473 81.1746 167.058 81.076 165.718C80.9774 164.378 80.7391 163.144 80.5912 162.001C80.4433 160.859 80.1804 159.839 80.0161 158.902C79.8517 157.964 79.6792 157.15 79.4737 156.435C79.2683 155.719 79.1369 155.144 79.0136 154.65C78.8904 154.157 78.8 153.828 78.7342 153.549C78.6685 153.269 78.6603 153.162 78.6603 153.162Z" fill="#455A64"/>
<path d="M235.069 321.982L131.676 321.506C125.705 321.477 119.99 319.078 115.787 314.835C111.584 310.591 109.236 304.851 109.26 298.877L110.353 39.4839C110.381 33.5056 112.781 27.7832 117.024 23.5752C121.268 19.3671 127.008 17.0179 132.982 17.0442L236.375 17.5211C239.332 17.534 242.257 18.1296 244.984 19.2738C247.71 20.418 250.185 22.0884 252.266 24.1897C254.348 26.291 255.995 28.782 257.115 31.5204C258.234 34.2589 258.804 37.1912 258.791 40.1499L257.698 299.535C257.685 302.495 257.09 305.425 255.945 308.155C254.801 310.886 253.131 313.364 251.029 315.449C248.928 317.533 246.437 319.183 243.698 320.304C240.96 321.425 238.028 321.995 235.069 321.982Z" fill="#263238"/>
<path d="M235.34 24.7977L215.291 24.699C213.971 24.725 212.715 25.2736 211.798 26.2246C210.882 27.1756 210.38 28.4514 210.402 29.7724V33.4069C210.414 34.0613 210.297 34.7116 210.057 35.3208C209.818 35.9299 209.461 36.4859 209.007 36.9571C208.553 37.4282 208.011 37.8052 207.411 38.0666C206.812 38.3279 206.167 38.4685 205.513 38.4803L166.441 38.2994C165.121 38.2628 163.87 37.7038 162.961 36.745C162.052 35.7862 161.56 34.5059 161.593 33.1849V29.5422C161.626 28.2211 161.135 26.9408 160.226 25.982C159.317 25.0233 158.065 24.4643 156.745 24.4277H149.695L132.152 24.3537C130.08 24.3439 128.027 24.7427 126.109 25.5271C124.191 26.3115 122.447 27.4662 120.975 28.9254C119.503 30.3845 118.333 32.1195 117.531 34.0312C116.729 35.9429 116.311 37.994 116.302 40.0672L115.234 293.252C115.229 295.326 115.633 297.38 116.423 299.298C117.212 301.216 118.371 302.959 119.834 304.428C121.297 305.897 123.035 307.064 124.948 307.86C126.861 308.657 128.913 309.069 130.985 309.072L234.173 309.549C236.244 309.559 238.298 309.16 240.215 308.376C242.132 307.591 243.876 306.436 245.347 304.977C246.819 303.518 247.988 301.783 248.789 299.871C249.59 297.96 250.007 295.909 250.015 293.836L251.075 40.6839C251.089 38.6056 250.693 36.5449 249.909 34.6202C249.125 32.6956 247.968 30.9449 246.506 29.4688C245.044 27.9926 243.305 26.8201 241.389 26.0185C239.472 25.2169 237.417 24.802 235.34 24.7977Z" fill="#FAFAFA"/>
<path d="M129.704 51.7108C129.592 51.7074 129.485 51.6602 129.408 51.5792L127.838 49.9347C127.8 49.8976 127.77 49.8527 127.75 49.8031C127.73 49.7535 127.721 49.7003 127.723 49.6469C127.724 49.5931 127.735 49.5399 127.756 49.4905C127.777 49.4411 127.808 49.3964 127.847 49.3591L129.424 47.8543C129.462 47.816 129.506 47.7856 129.556 47.7649C129.605 47.7441 129.658 47.7334 129.712 47.7334C129.765 47.7334 129.818 47.7441 129.868 47.7649C129.917 47.7856 129.962 47.816 129.999 47.8543C130.038 47.8926 130.068 47.938 130.089 47.9881C130.11 48.0382 130.121 48.092 130.121 48.1462C130.121 48.2005 130.11 48.2543 130.089 48.3044C130.068 48.3545 130.038 48.3999 129.999 48.4381L128.718 49.6551L130.008 51.0036C130.046 51.0418 130.077 51.0873 130.098 51.1374C130.118 51.1875 130.129 51.2413 130.129 51.2955C130.129 51.3498 130.118 51.4035 130.098 51.4536C130.077 51.5037 130.046 51.5492 130.008 51.5874C129.968 51.627 129.92 51.6583 129.868 51.6795C129.816 51.7006 129.76 51.7113 129.704 51.7108Z" fill="#263238"/>
<path d="M227.139 265.674H141.832C134.516 265.674 128.586 271.608 128.586 278.929V281.305C128.586 288.626 134.516 294.56 141.832 294.56H227.139C234.455 294.56 240.385 288.626 240.385 281.305V278.929C240.385 271.608 234.455 265.674 227.139 265.674Z" fill="#0093DD"/>
<path d="M171.191 276.766H173.787C174.22 276.744 174.653 276.81 175.059 276.961C175.466 277.111 175.837 277.343 176.151 277.642C176.465 277.941 176.716 278.3 176.886 278.699C177.057 279.097 177.146 279.527 177.146 279.96C177.146 280.394 177.057 280.823 176.886 281.222C176.716 281.62 176.465 281.98 176.151 282.279C175.837 282.578 175.466 282.809 175.059 282.96C174.653 283.111 174.22 283.177 173.787 283.155H171.191V276.766ZM173.754 282.571C174.109 282.591 174.464 282.538 174.798 282.416C175.132 282.294 175.438 282.105 175.696 281.86C175.954 281.616 176.16 281.321 176.301 280.995C176.441 280.668 176.514 280.316 176.514 279.96C176.514 279.605 176.441 279.253 176.301 278.926C176.16 278.599 175.954 278.305 175.696 278.06C175.438 277.816 175.132 277.627 174.798 277.505C174.464 277.382 174.109 277.33 173.754 277.35H171.864V282.571H173.754Z" fill="#FAFAFA"/>
<path d="M178.15 279.965C178.129 279.297 178.307 278.639 178.662 278.073C179.017 277.508 179.532 277.061 180.142 276.791C180.752 276.52 181.429 276.438 182.086 276.554C182.743 276.671 183.35 276.981 183.83 277.445C184.31 277.908 184.641 278.505 184.78 279.158C184.919 279.811 184.86 280.491 184.611 281.11C184.362 281.729 183.934 282.26 183.382 282.635C182.83 283.01 182.178 283.211 181.511 283.213C181.074 283.234 180.637 283.166 180.227 283.011C179.817 282.857 179.443 282.621 179.128 282.316C178.814 282.012 178.564 281.646 178.396 281.242C178.228 280.837 178.144 280.403 178.15 279.965ZM184.182 279.965C184.19 279.43 184.039 278.906 183.748 278.458C183.457 278.01 183.039 277.659 182.548 277.45C182.057 277.24 181.514 277.182 180.99 277.283C180.466 277.383 179.983 277.638 179.604 278.014C179.225 278.39 178.966 278.87 178.861 279.394C178.755 279.918 178.809 280.461 179.013 280.954C179.218 281.448 179.565 281.869 180.01 282.164C180.454 282.46 180.977 282.616 181.511 282.612C181.863 282.625 182.214 282.565 182.542 282.437C182.87 282.308 183.168 282.114 183.418 281.866C183.668 281.618 183.865 281.321 183.996 280.994C184.128 280.667 184.191 280.317 184.182 279.965Z" fill="#FAFAFA"/>
<path d="M191.692 276.766V283.155H191.141L187.033 277.974V283.155H186.351V276.766H186.91L191.018 281.946V276.766H191.692Z" fill="#FAFAFA"/>
<path d="M198.282 282.571V283.155H193.771V276.766H198.142V277.349H194.444V279.619H197.731V280.194H194.444V282.571H198.282Z" fill="#FAFAFA"/>
<path d="M145.357 156.468H141.881V154.823H150.772V156.468H147.296V165.307H145.357V156.468Z" fill="#0093DD"/>
<path d="M159.917 160.735V165.324H158.052V160.982C158.052 159.559 157.345 158.869 156.154 158.869C154.823 158.869 153.919 159.691 153.919 161.278V165.324H152.053V154.198H153.919V158.268C154.269 157.925 154.686 157.657 155.144 157.482C155.602 157.306 156.091 157.227 156.581 157.249C158.496 157.216 159.917 158.31 159.917 160.735Z" fill="#0093DD"/>
<path d="M168.98 160.621V165.307H167.222V164.329C166.928 164.706 166.543 165.003 166.103 165.191C165.663 165.379 165.183 165.453 164.707 165.406C162.883 165.406 161.725 164.403 161.725 163.013C161.725 161.624 162.629 160.637 165.053 160.637H167.14V160.514C167.14 159.42 166.482 158.779 165.151 158.779C164.26 158.766 163.391 159.056 162.686 159.601L161.955 158.244C162.944 157.558 164.129 157.209 165.332 157.249C167.649 157.216 168.98 158.31 168.98 160.621ZM167.14 162.8V161.879H165.209C163.935 161.879 163.565 162.356 163.565 162.939C163.565 163.523 164.141 164.049 165.094 164.049C165.523 164.085 165.953 163.984 166.321 163.759C166.689 163.534 166.975 163.198 167.14 162.8Z" fill="#0093DD"/>
<path d="M179.243 160.735V165.324H177.37V160.982C177.37 159.559 176.671 158.869 175.472 158.869C174.14 158.869 173.245 159.691 173.245 161.278V165.324H171.371V157.323H173.154V158.359C173.502 157.979 173.929 157.682 174.405 157.487C174.881 157.292 175.394 157.205 175.907 157.232C177.822 157.216 179.243 158.31 179.243 160.735Z" fill="#0093DD"/>
<path d="M184.88 161.878L183.491 163.202V165.315H181.618V154.198H183.491V160.9L187.361 157.306H189.605L186.269 160.661L189.917 165.307H187.682L184.88 161.878Z" fill="#0093DD"/>
<path d="M202.735 157.307L198.997 165.949C198.265 167.758 197.246 168.309 195.915 168.309C195.139 168.325 194.382 168.066 193.779 167.577L194.527 166.204C194.897 166.556 195.388 166.753 195.899 166.755C196.556 166.755 196.951 166.442 197.304 165.644L197.444 165.332L193.96 157.307H195.899L198.413 163.219L200.944 157.307H202.735Z" fill="#0093DD"/>
<path d="M203.015 161.303C202.985 160.454 203.21 159.616 203.659 158.897C204.109 158.177 204.764 157.608 205.539 157.263C206.314 156.918 207.175 156.813 208.01 156.961C208.845 157.109 209.618 157.503 210.227 158.093C210.837 158.683 211.257 159.442 211.433 160.273C211.608 161.104 211.532 161.968 211.213 162.755C210.895 163.541 210.348 164.215 209.644 164.689C208.94 165.163 208.111 165.415 207.263 165.414C206.709 165.445 206.154 165.361 205.634 165.167C205.114 164.973 204.64 164.674 204.241 164.288C203.842 163.901 203.527 163.437 203.316 162.923C203.105 162.41 203.002 161.858 203.015 161.303ZM209.646 161.303C209.628 160.837 209.474 160.388 209.203 160.009C208.932 159.63 208.555 159.34 208.121 159.174C207.686 159.007 207.212 158.973 206.758 159.074C206.303 159.175 205.889 159.407 205.565 159.742C205.242 160.077 205.024 160.499 204.938 160.957C204.853 161.415 204.904 161.888 205.085 162.317C205.265 162.746 205.568 163.112 205.956 163.371C206.343 163.629 206.797 163.768 207.263 163.77C207.585 163.777 207.905 163.718 208.203 163.595C208.5 163.473 208.77 163.29 208.994 163.058C209.217 162.826 209.391 162.551 209.503 162.249C209.615 161.947 209.664 161.625 209.646 161.303Z" fill="#0093DD"/>
<path d="M221.059 157.307V165.307H219.276V164.288C218.956 164.652 218.56 164.942 218.115 165.135C217.67 165.328 217.189 165.421 216.704 165.406C214.65 165.406 213.261 164.288 213.261 161.878V157.307H215.135V161.624C215.135 163.071 215.817 163.761 217 163.761C218.183 163.761 219.185 162.939 219.185 161.352V157.307H221.059Z" fill="#0093DD"/>
<path d="M223.162 164.238C223.163 164.082 223.196 163.928 223.258 163.785C223.319 163.642 223.409 163.513 223.522 163.406C223.635 163.298 223.768 163.215 223.914 163.16C224.059 163.105 224.215 163.08 224.37 163.087C224.678 163.087 224.972 163.209 225.19 163.427C225.407 163.644 225.529 163.939 225.529 164.246C225.529 164.554 225.407 164.849 225.19 165.066C224.972 165.284 224.678 165.406 224.37 165.406C224.214 165.411 224.058 165.385 223.911 165.329C223.765 165.273 223.631 165.188 223.519 165.079C223.406 164.97 223.316 164.839 223.255 164.695C223.194 164.55 223.162 164.395 223.162 164.238ZM223.269 154.823H225.48L225.11 161.829H223.623L223.269 154.823Z" fill="#0093DD"/>
<path d="M185.233 139.143C197.114 139.143 206.745 129.505 206.745 117.616C206.745 105.727 197.114 96.0889 185.233 96.0889C173.353 96.0889 163.721 105.727 163.721 117.616C163.721 129.505 173.353 139.143 185.233 139.143Z" fill="#0093DD"/>
<path d="M195.825 108.53C196.096 108.752 192.078 114.162 186.852 120.609L183.68 124.457L183.245 124.983L182.785 124.506C178.676 120.288 175.907 117.163 176.104 116.966C176.302 116.769 179.432 119.556 183.639 123.643L182.752 123.733L185.858 119.844C191.084 113.356 195.545 108.307 195.825 108.53Z" fill="white"/>
<path d="M215.792 108.933C215.151 106.672 212.218 106.894 212.218 106.894L212.292 108.464C213.992 108.168 215.044 110.158 215.044 110.158L215.792 108.933Z" fill="#0093DD"/>
<path d="M153.475 113.686C152.842 111.424 149.901 111.638 149.901 111.638L149.983 113.217C151.684 112.921 152.735 114.911 152.735 114.911L153.475 113.686Z" fill="#E0E0E0"/>
<path d="M187.797 82.3978C191.207 83.4338 193.327 79.5034 193.327 79.5034L191.256 78.3193C190.237 80.7286 186.836 80.449 186.836 80.449L187.797 82.3978Z" fill="#E0E0E0"/>
<path d="M168.89 86.6328C167.304 86.8055 167.115 88.7954 167.115 88.7954L168.175 88.9187C168.175 87.7511 169.629 87.2742 169.629 87.2742L168.89 86.6328Z" fill="#0093DD"/>
<path d="M234.247 101.204C234.477 99.6249 232.604 98.9424 232.604 98.9424L232.217 99.9373C233.351 100.225 233.458 101.755 233.458 101.755L234.247 101.204Z" fill="#E0E0E0"/>
<path d="M178.142 65.854C178.372 64.2753 176.499 63.5928 176.499 63.5928L176.113 64.5959C177.246 64.8837 177.353 66.4049 177.353 66.4049L178.142 65.854Z" fill="#0093DD"/>
<path d="M138.964 91.3193C138.685 93.7861 141.955 94.3945 141.955 94.3945L142.547 92.75C140.583 92.5691 140.303 90.2832 140.303 90.2832L138.964 91.3193Z" fill="#0093DD"/>
<path d="M211.897 82.3488C213.491 82.4393 214.001 80.5069 214.001 80.5069L212.974 80.2109C212.785 81.3621 211.273 81.6006 211.273 81.6006L211.897 82.3488Z" fill="#0093DD"/>
<path d="M220.599 88.8445C220.172 88.9644 219.726 89.0061 219.284 88.9678C218.842 89.007 218.396 88.9652 217.969 88.8445C218.837 88.669 219.731 88.669 220.599 88.8445Z" fill="#E0E0E0"/>
<path d="M221.996 85.2676C222.16 86.148 222.16 87.0513 221.996 87.9317C221.82 87.0523 221.82 86.147 221.996 85.2676Z" fill="#E0E0E0"/>
<path d="M223.475 88.7538C223.902 88.6339 224.347 88.5922 224.789 88.6305C225.231 88.5912 225.677 88.633 226.104 88.7538C225.236 88.9293 224.342 88.9293 223.475 88.7538Z" fill="#E0E0E0"/>
<path d="M222.086 92.3394C221.911 91.4572 221.911 90.5491 222.086 89.667C222.25 90.5502 222.25 91.4562 222.086 92.3394Z" fill="#E0E0E0"/>
<path d="M224.206 90.8432C224.157 90.8843 223.902 90.6706 223.639 90.3663C223.376 90.0621 223.22 89.7661 223.269 89.7249C223.319 89.6838 223.581 89.8894 223.836 90.2019C224.091 90.5143 224.264 90.7528 224.206 90.8432Z" fill="#E0E0E0"/>
<path d="M224.083 86.7314C224.132 86.789 223.959 87.0439 223.688 87.3153C223.417 87.5866 223.162 87.7675 223.113 87.7182C223.064 87.6688 223.236 87.4057 223.508 87.1344C223.779 86.863 224.033 86.7314 224.083 86.7314Z" fill="#E0E0E0"/>
<path d="M221.075 87.7756C221.026 87.8331 220.78 87.7016 220.525 87.4878C220.27 87.274 220.106 87.0602 220.147 87.0109C220.188 86.9615 220.434 87.0849 220.689 87.2904C220.944 87.496 221.116 87.7262 221.075 87.7756Z" fill="#E0E0E0"/>
<path d="M220.952 89.5687C221.01 89.6098 220.853 89.8647 220.607 90.136C220.36 90.4074 220.122 90.5801 220.073 90.5307C220.024 90.4814 220.171 90.2265 220.418 89.9634C220.664 89.7002 220.903 89.5193 220.952 89.5687Z" fill="#E0E0E0"/>
<path d="M149.013 81.5097C148.146 81.6851 147.252 81.6851 146.384 81.5097C146.811 81.3898 147.256 81.348 147.699 81.3864C148.141 81.3471 148.586 81.3889 149.013 81.5097Z" fill="#0093DD"/>
<path d="M150.41 77.9336C150.585 78.8157 150.585 79.7238 150.41 80.606C150.235 79.7238 150.235 78.8157 150.41 77.9336Z" fill="#0093DD"/>
<path d="M151.897 81.4275C152.765 81.252 153.659 81.252 154.527 81.4275C153.659 81.6029 152.765 81.6029 151.897 81.4275Z" fill="#0093DD"/>
<path d="M150.501 85.005C150.325 84.1256 150.325 83.2202 150.501 82.3408C150.676 83.2202 150.676 84.1256 150.501 85.005Z" fill="#0093DD"/>
<path d="M152.629 83.4425C152.571 83.4919 152.316 83.2781 152.062 82.9656C151.807 82.6532 151.634 82.3736 151.692 82.3243C151.749 82.2749 151.996 82.4969 152.259 82.8012C152.522 83.1054 152.678 83.4425 152.629 83.4425Z" fill="#0093DD"/>
<path d="M152.505 79.4133C152.555 79.4627 152.374 79.7258 152.111 79.9971C151.848 80.2685 151.585 80.4412 151.536 80.3918C151.487 80.3425 151.659 80.0876 151.93 79.8162C152.201 79.5449 152.456 79.3311 152.505 79.4133Z" fill="#0093DD"/>
<path d="M149.49 80.4496C149.449 80.4989 149.202 80.3756 148.948 80.1618C148.693 79.948 148.52 79.7342 148.57 79.6766C148.619 79.6191 148.857 79.7506 149.112 79.9644C149.367 80.1782 149.539 80.392 149.49 80.4496Z" fill="#0093DD"/>
<path d="M149.375 82.2334C149.424 82.2828 149.268 82.5377 149.03 82.809C148.791 83.0804 148.545 83.2531 148.487 83.2037C148.43 83.1544 148.594 82.8995 148.832 82.6364C149.071 82.3732 149.317 82.1841 149.375 82.2334Z" fill="#0093DD"/>
<path d="M239.958 47.3037C238.029 47.5149 236.087 47.5864 234.148 47.5174C232.212 47.5867 230.273 47.5152 228.347 47.3037C230.273 47.0872 232.212 47.0157 234.148 47.0899C236.087 47.0159 238.029 47.0873 239.958 47.3037Z" fill="#263238"/>
<path d="M239.958 49.7296C238.029 49.9459 236.087 50.0174 234.148 49.9434C232.212 50.0175 230.273 49.9461 228.347 49.7296C230.273 49.518 232.212 49.4466 234.148 49.5158C236.087 49.4469 238.029 49.5183 239.958 49.7296Z" fill="#263238"/>
<path d="M239.958 52.1388C238.029 52.3551 236.087 52.4265 234.148 52.3526C232.212 52.4267 230.273 52.3553 228.347 52.1388C230.273 51.9272 232.212 51.8557 234.148 51.925C236.087 51.8561 238.029 51.9275 239.958 52.1388Z" fill="#263238"/>
<path d="M188.783 217.973L188.298 251.061L184.025 251.029L184.946 217.94L188.783 217.973Z" fill="#FAFAFA"/>
<path d="M191.478 206.675L191.223 218.039L187.033 217.957L187.329 206.643L191.478 206.675Z" fill="#FAFAFA"/>
<path d="M161.692 206.503L161.281 217.768L156.671 217.727L156.918 206.404L161.692 206.503Z" fill="#FAFAFA"/>
<path d="M212.365 225.234L212.226 231.673L209.843 231.623L210.015 225.218L212.365 225.234Z" fill="#FAFAFA"/>
<path d="M195.488 225.136L195.258 231.516L192.645 231.5L192.785 225.078L195.488 225.136Z" fill="#FAFAFA"/>
<path d="M147.187 178.077C146.837 178.077 146.524 178 146.248 177.847C145.977 177.694 145.765 177.475 145.612 177.189C145.459 176.898 145.383 176.552 145.383 176.153C145.383 175.753 145.459 175.41 145.612 175.124C145.765 174.833 145.975 174.611 146.241 174.458C146.507 174.305 146.81 174.229 147.15 174.229C147.496 174.229 147.789 174.303 148.031 174.451C148.277 174.599 148.464 174.801 148.593 175.057C148.721 175.309 148.785 175.593 148.785 175.908C148.785 175.992 148.782 176.069 148.777 176.138C148.772 176.207 148.765 176.269 148.755 176.323H145.768V175.797H148.496L148.193 175.857C148.193 175.501 148.095 175.228 147.897 175.035C147.705 174.843 147.451 174.747 147.136 174.747C146.894 174.747 146.685 174.803 146.507 174.917C146.335 175.025 146.199 175.186 146.1 175.398C146.007 175.605 145.96 175.857 145.96 176.153C145.96 176.444 146.009 176.695 146.108 176.908C146.206 177.12 146.344 177.282 146.522 177.396C146.704 177.504 146.921 177.559 147.173 177.559C147.444 177.559 147.663 177.507 147.831 177.403C148.003 177.3 148.141 177.159 148.245 176.982L148.711 177.255C148.617 177.423 148.496 177.569 148.349 177.692C148.206 177.815 148.035 177.912 147.838 177.981C147.646 178.045 147.429 178.077 147.187 178.077Z" fill="#1A1A1A" fill-opacity="0.6"/>
<path d="M149.91 178.003V174.303H150.428L150.479 175.131L150.383 175.05C150.462 174.853 150.568 174.695 150.701 174.576C150.834 174.453 150.987 174.364 151.16 174.31C151.337 174.256 151.52 174.229 151.707 174.229C151.973 174.229 152.215 174.28 152.432 174.384C152.649 174.483 152.821 174.636 152.949 174.843C153.083 175.05 153.149 175.314 153.149 175.635V178.003H152.557V175.842C152.557 175.432 152.469 175.149 152.291 174.991C152.119 174.828 151.904 174.747 151.648 174.747C151.47 174.747 151.293 174.789 151.115 174.872C150.938 174.956 150.79 175.092 150.672 175.279C150.558 175.467 150.502 175.719 150.502 176.034V178.003H149.91Z" fill="#1A1A1A" fill-opacity="0.6"/>
<path d="M154.489 178.003V174.303H154.969L155.051 174.909C155.154 174.682 155.305 174.512 155.502 174.399C155.704 174.285 155.948 174.229 156.234 174.229C156.298 174.229 156.367 174.234 156.441 174.243C156.52 174.253 156.586 174.273 156.641 174.303L156.537 174.843C156.483 174.823 156.424 174.808 156.36 174.798C156.296 174.789 156.204 174.784 156.086 174.784C155.933 174.784 155.778 174.828 155.62 174.917C155.467 175.006 155.339 175.141 155.236 175.324C155.132 175.501 155.08 175.728 155.08 176.005V178.003H154.489Z" fill="#1A1A1A" fill-opacity="0.6"/>
<path d="M158.923 174.229C159.273 174.229 159.581 174.305 159.847 174.458C160.118 174.611 160.33 174.833 160.483 175.124C160.636 175.41 160.712 175.753 160.712 176.153C160.712 176.552 160.636 176.898 160.483 177.189C160.33 177.475 160.118 177.694 159.847 177.847C159.581 178 159.273 178.077 158.923 178.077C158.578 178.077 158.269 178 157.998 177.847C157.727 177.694 157.515 177.475 157.362 177.189C157.209 176.898 157.133 176.552 157.133 176.153C157.133 175.753 157.209 175.41 157.362 175.124C157.515 174.833 157.727 174.611 157.998 174.458C158.269 174.305 158.578 174.229 158.923 174.229ZM158.923 174.739C158.671 174.739 158.457 174.796 158.279 174.909C158.102 175.023 157.964 175.186 157.865 175.398C157.771 175.605 157.725 175.857 157.725 176.153C157.725 176.444 157.771 176.695 157.865 176.908C157.964 177.12 158.102 177.282 158.279 177.396C158.457 177.509 158.671 177.566 158.923 177.566C159.174 177.566 159.389 177.509 159.566 177.396C159.744 177.282 159.879 177.12 159.973 176.908C160.071 176.695 160.121 176.444 160.121 176.153C160.121 175.857 160.071 175.605 159.973 175.398C159.879 175.186 159.744 175.023 159.566 174.909C159.389 174.796 159.174 174.739 158.923 174.739Z" fill="#1A1A1A" fill-opacity="0.6"/>
<path d="M162.388 172.6V177.063C162.388 177.25 162.423 177.381 162.492 177.455C162.561 177.524 162.672 177.559 162.824 177.559C162.923 177.559 163.004 177.551 163.068 177.537C163.133 177.522 163.219 177.495 163.327 177.455L163.231 177.973C163.152 178.008 163.066 178.032 162.972 178.047C162.879 178.067 162.783 178.077 162.684 178.077C162.383 178.077 162.159 177.995 162.011 177.833C161.868 177.67 161.796 177.421 161.796 177.085V172.6H162.388Z" fill="#1A1A1A" fill-opacity="0.6"/>
<path d="M164.649 172.6V177.063C164.649 177.25 164.683 177.381 164.752 177.455C164.821 177.524 164.932 177.559 165.085 177.559C165.183 177.559 165.265 177.551 165.329 177.537C165.393 177.522 165.479 177.495 165.588 177.455L165.492 177.973C165.413 178.008 165.326 178.032 165.233 178.047C165.139 178.067 165.043 178.077 164.944 178.077C164.644 178.077 164.419 177.995 164.271 177.833C164.128 177.67 164.057 177.421 164.057 177.085V172.6H164.649Z" fill="#1A1A1A" fill-opacity="0.6"/>
<path d="M166.347 178.003V174.303H166.865L166.902 174.88C167.035 174.653 167.207 174.488 167.419 174.384C167.636 174.28 167.858 174.229 168.085 174.229C168.346 174.229 168.593 174.288 168.824 174.406C169.056 174.525 169.234 174.707 169.357 174.954C169.436 174.786 169.547 174.65 169.69 174.547C169.833 174.438 169.988 174.359 170.156 174.31C170.328 174.256 170.491 174.229 170.644 174.229C170.88 174.229 171.105 174.278 171.317 174.377C171.533 174.475 171.711 174.628 171.849 174.835C171.987 175.043 172.056 175.309 172.056 175.635V178.003H171.464V175.694C171.464 175.358 171.381 175.117 171.213 174.969C171.045 174.821 170.838 174.747 170.592 174.747C170.4 174.747 170.22 174.793 170.052 174.887C169.884 174.981 169.749 175.119 169.645 175.302C169.547 175.484 169.497 175.709 169.497 175.975V178.003H168.906V175.694C168.906 175.358 168.822 175.117 168.654 174.969C168.487 174.821 168.28 174.747 168.033 174.747C167.87 174.747 167.703 174.791 167.53 174.88C167.363 174.964 167.222 175.099 167.109 175.287C166.995 175.474 166.939 175.721 166.939 176.027V178.003H166.347Z" fill="#1A1A1A" fill-opacity="0.6"/>
<path d="M174.941 178.077C174.591 178.077 174.278 178 174.002 177.847C173.731 177.694 173.519 177.475 173.366 177.189C173.213 176.898 173.137 176.552 173.137 176.153C173.137 175.753 173.213 175.41 173.366 175.124C173.519 174.833 173.728 174.611 173.995 174.458C174.261 174.305 174.564 174.229 174.904 174.229C175.249 174.229 175.543 174.303 175.784 174.451C176.031 174.599 176.218 174.801 176.346 175.057C176.474 175.309 176.538 175.593 176.538 175.908C176.538 175.992 176.536 176.069 176.531 176.138C176.526 176.207 176.519 176.269 176.509 176.323H173.521V175.797H176.25L175.947 175.857C175.947 175.501 175.848 175.228 175.651 175.035C175.459 174.843 175.205 174.747 174.889 174.747C174.648 174.747 174.438 174.803 174.261 174.917C174.088 175.025 173.953 175.186 173.854 175.398C173.76 175.605 173.714 175.857 173.714 176.153C173.714 176.444 173.763 176.695 173.861 176.908C173.96 177.12 174.098 177.282 174.276 177.396C174.458 177.504 174.675 177.559 174.926 177.559C175.197 177.559 175.417 177.507 175.585 177.403C175.757 177.3 175.895 177.159 175.999 176.982L176.465 177.255C176.371 177.423 176.25 177.569 176.102 177.692C175.959 177.815 175.789 177.912 175.592 177.981C175.4 178.045 175.183 178.077 174.941 178.077Z" fill="#1A1A1A" fill-opacity="0.6"/>
<path d="M177.664 178.003V174.303H178.181L178.233 175.131L178.137 175.05C178.216 174.853 178.322 174.695 178.455 174.576C178.588 174.453 178.741 174.364 178.913 174.31C179.091 174.256 179.273 174.229 179.461 174.229C179.727 174.229 179.968 174.28 180.185 174.384C180.402 174.483 180.575 174.636 180.703 174.843C180.836 175.05 180.903 175.314 180.903 175.635V178.003H180.311V175.842C180.311 175.432 180.222 175.149 180.045 174.991C179.872 174.828 179.658 174.747 179.402 174.747C179.224 174.747 179.047 174.789 178.869 174.872C178.692 174.956 178.544 175.092 178.425 175.279C178.312 175.467 178.255 175.719 178.255 176.034V178.003H177.664Z" fill="#1A1A1A" fill-opacity="0.6"/>
<path d="M183.064 173.252V176.982C183.064 177.164 183.116 177.3 183.22 177.389C183.323 177.477 183.456 177.522 183.619 177.522C183.762 177.522 183.885 177.497 183.989 177.448C184.092 177.398 184.186 177.332 184.27 177.248L184.477 177.744C184.363 177.847 184.228 177.929 184.07 177.988C183.917 178.047 183.74 178.077 183.538 178.077C183.35 178.077 183.175 178.045 183.013 177.981C182.85 177.912 182.719 177.805 182.621 177.662C182.527 177.514 182.478 177.322 182.473 177.085V173.415L183.064 173.252ZM184.41 174.303V174.813H181.733V174.303H184.41Z" fill="#1A1A1A" fill-opacity="0.6"/>
<path d="M189.142 178.077C188.782 178.077 188.449 178 188.143 177.847C187.842 177.694 187.611 177.477 187.448 177.196L187.951 176.834C188.059 177.06 188.217 177.238 188.424 177.366C188.636 177.495 188.89 177.559 189.186 177.559C189.447 177.559 189.652 177.509 189.8 177.411C189.948 177.307 190.022 177.174 190.022 177.011C190.022 176.908 189.987 176.814 189.918 176.73C189.854 176.641 189.728 176.577 189.541 176.538L188.653 176.352C188.294 176.278 188.035 176.155 187.877 175.982C187.724 175.81 187.648 175.595 187.648 175.339C187.648 175.136 187.704 174.951 187.818 174.784C187.936 174.616 188.101 174.483 188.313 174.384C188.53 174.28 188.784 174.229 189.075 174.229C189.44 174.229 189.748 174.3 189.999 174.443C190.251 174.586 190.438 174.789 190.561 175.05L190.066 175.376C189.982 175.159 189.847 175.001 189.659 174.902C189.472 174.798 189.277 174.747 189.075 174.747C188.897 174.747 188.745 174.771 188.616 174.821C188.493 174.87 188.397 174.939 188.328 175.028C188.264 175.112 188.232 175.208 188.232 175.316C188.232 175.425 188.269 175.526 188.343 175.62C188.417 175.709 188.555 175.773 188.757 175.812L189.681 176.005C190.026 176.074 190.268 176.187 190.406 176.345C190.544 176.503 190.613 176.695 190.613 176.922C190.613 177.154 190.552 177.359 190.428 177.537C190.305 177.709 190.132 177.842 189.911 177.936C189.689 178.03 189.432 178.077 189.142 178.077Z" fill="#1A1A1A" fill-opacity="0.6"/>
<path d="M193.049 178.077C192.812 178.077 192.588 178.032 192.376 177.944C192.169 177.855 191.999 177.712 191.865 177.514C191.737 177.312 191.673 177.051 191.673 176.73V174.303H192.265V176.575C192.265 176.949 192.346 177.208 192.509 177.352C192.672 177.49 192.901 177.559 193.197 177.559C193.335 177.559 193.47 177.537 193.603 177.492C193.736 177.443 193.855 177.369 193.958 177.27C194.067 177.167 194.151 177.036 194.21 176.878C194.274 176.72 194.306 176.533 194.306 176.315V174.303H194.898V178.003H194.38L194.343 177.44C194.215 177.662 194.04 177.825 193.818 177.929C193.601 178.027 193.345 178.077 193.049 178.077Z" fill="#1A1A1A" fill-opacity="0.6"/>
<path d="M197.805 174.229C198.062 174.229 198.286 174.268 198.478 174.347C198.675 174.426 198.845 174.539 198.988 174.687C199.131 174.835 199.247 175.011 199.336 175.213L198.774 175.479C198.695 175.242 198.574 175.062 198.412 174.939C198.254 174.811 198.047 174.747 197.79 174.747C197.544 174.747 197.332 174.803 197.154 174.917C196.977 175.025 196.841 175.186 196.748 175.398C196.654 175.605 196.607 175.857 196.607 176.153C196.607 176.444 196.654 176.695 196.748 176.908C196.841 177.12 196.977 177.282 197.154 177.396C197.332 177.504 197.544 177.559 197.79 177.559C197.983 177.559 198.148 177.529 198.286 177.47C198.429 177.411 198.545 177.324 198.633 177.211C198.727 177.097 198.791 176.959 198.826 176.797L199.373 176.989C199.289 177.216 199.173 177.411 199.025 177.574C198.882 177.736 198.707 177.862 198.5 177.951C198.298 178.035 198.067 178.077 197.805 178.077C197.46 178.077 197.152 178 196.881 177.847C196.61 177.694 196.398 177.475 196.245 177.189C196.092 176.898 196.016 176.552 196.016 176.153C196.016 175.753 196.092 175.41 196.245 175.124C196.398 174.833 196.61 174.611 196.881 174.458C197.152 174.305 197.46 174.229 197.805 174.229Z" fill="#1A1A1A" fill-opacity="0.6"/>
<path d="M201.943 174.229C202.2 174.229 202.424 174.268 202.616 174.347C202.814 174.426 202.984 174.539 203.127 174.687C203.27 174.835 203.385 175.011 203.474 175.213L202.912 175.479C202.833 175.242 202.712 175.062 202.55 174.939C202.392 174.811 202.185 174.747 201.929 174.747C201.682 174.747 201.47 174.803 201.293 174.917C201.115 175.025 200.98 175.186 200.886 175.398C200.792 175.605 200.745 175.857 200.745 176.153C200.745 176.444 200.792 176.695 200.886 176.908C200.98 177.12 201.115 177.282 201.293 177.396C201.47 177.504 201.682 177.559 201.929 177.559C202.121 177.559 202.286 177.529 202.424 177.47C202.567 177.411 202.683 177.324 202.772 177.211C202.865 177.097 202.929 176.959 202.964 176.797L203.511 176.989C203.427 177.216 203.311 177.411 203.164 177.574C203.021 177.736 202.846 177.862 202.639 177.951C202.436 178.035 202.205 178.077 201.943 178.077C201.598 178.077 201.29 178 201.019 177.847C200.748 177.694 200.536 177.475 200.383 177.189C200.23 176.898 200.154 176.552 200.154 176.153C200.154 175.753 200.23 175.41 200.383 175.124C200.536 174.833 200.748 174.611 201.019 174.458C201.29 174.305 201.598 174.229 201.943 174.229Z" fill="#1A1A1A" fill-opacity="0.6"/>
<path d="M206.096 178.077C205.746 178.077 205.433 178 205.157 177.847C204.886 177.694 204.674 177.475 204.521 177.189C204.368 176.898 204.292 176.552 204.292 176.153C204.292 175.753 204.368 175.41 204.521 175.124C204.674 174.833 204.883 174.611 205.15 174.458C205.416 174.305 205.719 174.229 206.059 174.229C206.404 174.229 206.698 174.303 206.939 174.451C207.186 174.599 207.373 174.801 207.501 175.057C207.63 175.309 207.694 175.593 207.694 175.908C207.694 175.992 207.691 176.069 207.686 176.138C207.681 176.207 207.674 176.269 207.664 176.323H204.676V175.797H207.405L207.102 175.857C207.102 175.501 207.003 175.228 206.806 175.035C206.614 174.843 206.36 174.747 206.045 174.747C205.803 174.747 205.593 174.803 205.416 174.917C205.243 175.025 205.108 175.186 205.009 175.398C204.916 175.605 204.869 175.857 204.869 176.153C204.869 176.444 204.918 176.695 205.017 176.908C205.115 177.12 205.253 177.282 205.431 177.396C205.613 177.504 205.83 177.559 206.081 177.559C206.353 177.559 206.572 177.507 206.74 177.403C206.912 177.3 207.05 177.159 207.154 176.982L207.62 177.255C207.526 177.423 207.405 177.569 207.257 177.692C207.114 177.815 206.944 177.912 206.747 177.981C206.555 178.045 206.338 178.077 206.096 178.077Z" fill="#1A1A1A" fill-opacity="0.6"/>
<path d="M210.15 178.077C209.79 178.077 209.457 178 209.152 177.847C208.851 177.694 208.619 177.477 208.456 177.196L208.959 176.834C209.068 177.06 209.226 177.238 209.433 177.366C209.645 177.495 209.899 177.559 210.194 177.559C210.456 177.559 210.66 177.509 210.808 177.411C210.956 177.307 211.03 177.174 211.03 177.011C211.03 176.908 210.995 176.814 210.926 176.73C210.862 176.641 210.737 176.577 210.549 176.538L209.662 176.352C209.302 176.278 209.043 176.155 208.885 175.982C208.733 175.81 208.656 175.595 208.656 175.339C208.656 175.136 208.713 174.951 208.826 174.784C208.945 174.616 209.11 174.483 209.322 174.384C209.539 174.28 209.793 174.229 210.083 174.229C210.448 174.229 210.756 174.3 211.008 174.443C211.259 174.586 211.447 174.789 211.57 175.05L211.074 175.376C210.991 175.159 210.855 175.001 210.668 174.902C210.48 174.798 210.286 174.747 210.083 174.747C209.906 174.747 209.753 174.771 209.625 174.821C209.502 174.87 209.406 174.939 209.336 175.028C209.272 175.112 209.24 175.208 209.24 175.316C209.24 175.425 209.277 175.526 209.351 175.62C209.425 175.709 209.563 175.773 209.765 175.812L210.69 176.005C211.035 176.074 211.276 176.187 211.415 176.345C211.553 176.503 211.622 176.695 211.622 176.922C211.622 177.154 211.56 177.359 211.437 177.537C211.313 177.709 211.141 177.842 210.919 177.936C210.697 178.03 210.441 178.077 210.15 178.077Z" fill="#1A1A1A" fill-opacity="0.6"/>
<path d="M214.05 178.077C213.69 178.077 213.357 178 213.051 177.847C212.751 177.694 212.519 177.477 212.356 177.196L212.859 176.834C212.968 177.06 213.125 177.238 213.332 177.366C213.544 177.495 213.798 177.559 214.094 177.559C214.355 177.559 214.56 177.509 214.708 177.411C214.856 177.307 214.93 177.174 214.93 177.011C214.93 176.908 214.895 176.814 214.826 176.73C214.762 176.641 214.636 176.577 214.449 176.538L213.562 176.352C213.202 176.278 212.943 176.155 212.785 175.982C212.632 175.81 212.556 175.595 212.556 175.339C212.556 175.136 212.613 174.951 212.726 174.784C212.844 174.616 213.01 174.483 213.222 174.384C213.438 174.28 213.692 174.229 213.983 174.229C214.348 174.229 214.656 174.3 214.908 174.443C215.159 174.586 215.346 174.789 215.47 175.05L214.974 175.376C214.89 175.159 214.755 175.001 214.567 174.902C214.38 174.798 214.185 174.747 213.983 174.747C213.806 174.747 213.653 174.771 213.525 174.821C213.401 174.87 213.305 174.939 213.236 175.028C213.172 175.112 213.14 175.208 213.14 175.316C213.14 175.425 213.177 175.526 213.251 175.62C213.325 175.709 213.463 175.773 213.665 175.812L214.59 176.005C214.935 176.074 215.176 176.187 215.314 176.345C215.452 176.503 215.521 176.695 215.521 176.922C215.521 177.154 215.46 177.359 215.337 177.537C215.213 177.709 215.041 177.842 214.819 177.936C214.597 178.03 214.341 178.077 214.05 178.077Z" fill="#1A1A1A" fill-opacity="0.6"/>
<path d="M218.12 172.563C218.248 172.563 218.369 172.578 218.482 172.608C218.595 172.637 218.684 172.679 218.748 172.734L218.593 173.215C218.534 173.175 218.47 173.148 218.401 173.133C218.332 173.114 218.255 173.104 218.171 173.104C217.959 173.104 217.794 173.156 217.676 173.259C217.558 173.358 217.498 173.518 217.498 173.74V178.003H216.907V173.681C216.907 173.518 216.932 173.368 216.981 173.23C217.03 173.091 217.104 172.973 217.203 172.874C217.306 172.776 217.434 172.699 217.587 172.645C217.74 172.591 217.918 172.563 218.12 172.563ZM218.733 174.303V174.813H216.167V174.303H218.733Z" fill="#1A1A1A" fill-opacity="0.6"/>
<path d="M220.86 178.077C220.624 178.077 220.399 178.032 220.187 177.944C219.98 177.855 219.81 177.712 219.677 177.514C219.549 177.312 219.485 177.051 219.485 176.73V174.303H220.076V176.575C220.076 176.949 220.158 177.208 220.32 177.352C220.483 177.49 220.712 177.559 221.008 177.559C221.146 177.559 221.282 177.537 221.415 177.492C221.548 177.443 221.666 177.369 221.77 177.27C221.878 177.167 221.962 177.036 222.021 176.878C222.085 176.72 222.117 176.533 222.117 176.315V174.303H222.709V178.003H222.191L222.154 177.44C222.026 177.662 221.851 177.825 221.629 177.929C221.412 178.027 221.156 178.077 220.86 178.077Z" fill="#1A1A1A" fill-opacity="0.6"/>
<path d="M224.648 172.6V177.063C224.648 177.25 224.682 177.381 224.751 177.455C224.82 177.524 224.931 177.559 225.084 177.559C225.183 177.559 225.264 177.551 225.328 177.537C225.392 177.522 225.479 177.495 225.587 177.455L225.491 177.973C225.412 178.008 225.326 178.032 225.232 178.047C225.138 178.067 225.042 178.077 224.944 178.077C224.643 178.077 224.419 177.995 224.271 177.833C224.128 177.67 224.056 177.421 224.056 177.085V172.6H224.648Z" fill="#1A1A1A" fill-opacity="0.6"/>
</svg>
