<svg width="315" height="315" viewBox="0 0 315 315" fill="none" xmlns="http://www.w3.org/2000/svg">
<path d="M284.294 59.661H144.068V257.084H284.294V59.661Z" fill="#EBEBEB"/>
<path d="M266.087 37.8C267.51 36.9406 269.042 36.2754 270.642 35.8218L271.58 31.311L279.203 31.1724L280.3 35.6517C281.918 36.0489 283.475 36.6612 284.93 37.4724L288.779 34.9524L294.267 40.2444L291.879 44.1819C292.738 45.6075 293.404 47.1414 293.857 48.7431L298.368 49.6818L298.5 57.3048L294.027 58.401C293.628 60.0163 293.016 61.5714 292.207 63.0252L294.727 66.8808L289.428 72.3618L285.491 69.9741C284.068 70.8354 282.536 71.5028 280.936 71.9586L279.997 76.4694L272.374 76.6017L271.278 72.1287C269.663 71.7297 268.108 71.1174 266.654 70.308L262.798 72.828L257.317 67.5297L259.705 63.5922C258.84 62.1687 258.172 60.6343 257.72 59.031L253.21 58.0923L253.077 50.4693L257.55 49.3731C257.951 47.7584 258.564 46.2036 259.371 44.7489L256.851 40.8996L262.149 35.4123L266.087 37.8ZM270.15 47.9556C269.022 49.1197 268.265 50.5924 267.974 52.1871C267.684 53.7819 267.873 55.4271 268.518 56.9142C269.163 58.4014 270.235 59.6637 271.598 60.5413C272.961 61.4188 274.554 61.8722 276.175 61.8439C277.795 61.8156 279.371 61.307 280.703 60.3825C282.034 59.4579 283.062 58.159 283.654 56.6503C284.247 55.1415 284.379 53.4908 284.033 51.9071C283.687 50.3234 282.879 48.878 281.711 47.754C280.148 46.2528 278.053 45.4325 275.886 45.4726C273.719 45.5128 271.657 46.4102 270.15 47.9682V47.9556Z" fill="#E0E0E0"/>
<path d="M270.15 47.9681C270.58 47.4369 271.095 46.9813 271.675 46.62C273.251 45.594 275.136 45.1485 277.005 45.36C278.297 45.4877 279.54 45.9195 280.634 46.62C281.89 47.4408 282.903 48.5828 283.569 49.9275C284.318 51.4383 284.593 53.1403 284.357 54.8099C284.124 56.5885 283.324 58.2447 282.076 59.5327C280.828 60.8208 279.197 61.6721 277.427 61.9604C276.594 62.1083 275.743 62.121 274.907 61.9983C274.106 61.9102 273.324 61.6976 272.588 61.3683C271.222 60.7528 270.046 59.7799 269.186 58.5522C268.273 57.2517 267.754 55.7152 267.693 54.1271C267.631 52.539 268.03 50.967 268.84 49.5999C269.172 49.0121 269.598 48.4823 270.1 48.0311C270.144 48.0689 269.609 48.5667 268.979 49.6881C268.1 51.2827 267.78 53.1259 268.071 54.9234C268.268 56.1534 268.749 57.3205 269.476 58.3316C270.312 59.4859 271.438 60.3987 272.74 60.9777C274.181 61.6094 275.775 61.8043 277.326 61.5384C278.992 61.2532 280.523 60.4437 281.697 59.2279C282.871 58.012 283.626 56.4533 283.853 54.7784C284.059 53.22 283.808 51.635 283.128 50.2172C282.505 48.9409 281.552 47.8536 280.369 47.0672C279.334 46.3808 278.151 45.9491 276.917 45.8072C275.111 45.5788 273.281 45.9625 271.719 46.8972C270.667 47.4579 270.188 48.0122 270.15 47.9681Z" fill="#E0E0E0"/>
<path d="M266.087 37.8C265.999 37.7638 265.915 37.7195 265.835 37.6677L265.079 37.233L262.08 35.4879H262.175L256.914 41.0067V40.8555L259.434 44.6985L259.56 44.73L259.522 44.8056C258.723 46.2496 258.121 47.7943 257.733 49.3983V49.4865H257.645L253.172 50.5953L253.298 50.4315C253.348 52.8339 253.399 55.3749 253.449 58.0545L253.26 57.96L257.771 58.8861H257.891L257.922 58.9995C258.372 60.5826 259.033 62.0977 259.888 63.504L259.951 63.6111L259.888 63.7182L257.506 67.6557L257.475 67.3974L262.962 72.6894H262.691L266.54 70.1694L266.654 70.0938L266.774 70.1631C268.211 70.959 269.746 71.5627 271.341 71.9586H271.473L271.511 72.0909C271.851 73.4895 272.229 75.0204 272.607 76.5639L272.381 76.3938L280.004 76.2552L279.777 76.4379L280.715 71.9271L280.747 71.7885L280.886 71.7507C282.463 71.3023 283.974 70.6455 285.377 69.7977L285.503 69.7284L285.623 69.7977L289.561 72.1917H289.271L294.563 66.7107V67.0005L292.043 63.1449L291.961 63.0315L292.03 62.9055C292.831 61.4721 293.437 59.9382 293.832 58.3443L293.864 58.2057H293.996L298.475 57.1158L298.305 57.3363C298.263 54.7323 298.221 52.1913 298.179 49.7133L298.349 49.9212L293.838 48.9762H293.712L293.681 48.8502C293.232 47.267 292.575 45.7503 291.728 44.3394L291.665 44.2323L291.69 44.1L294.084 40.1625L294.116 40.4082L288.641 35.0973H288.868L285.006 37.6173L284.924 37.674L284.836 37.6236C283.397 36.8171 281.856 36.2069 280.256 35.8092H280.161V35.721C279.764 34.0893 279.411 32.6277 279.077 31.2417L279.216 31.3488L271.593 31.4433L271.694 31.3614C271.303 33.1632 270.988 34.6374 270.724 35.8659V35.91H270.68C269.476 36.246 268.308 36.6953 267.189 37.2519L266.37 37.6803C266.284 37.7337 266.193 37.7801 266.099 37.8189C266.18 37.7579 266.265 37.7012 266.351 37.6488C266.528 37.5417 266.792 37.3779 267.158 37.1826C268.266 36.5932 269.431 36.1182 270.635 35.7651L270.585 35.8218C270.831 34.5618 271.127 33.1128 271.492 31.3047V31.2228H271.574L279.197 31.0527H279.304V31.1598C279.644 32.5458 280.01 34.0074 280.413 35.6328L280.3 35.5194C281.932 35.9154 283.504 36.5277 284.974 37.3401H284.798L288.641 34.8201L288.761 34.7445L288.868 34.839L294.361 40.1247L294.475 40.2318L294.393 40.3641C293.618 41.6241 292.83 42.9597 292.011 44.3079V44.1C292.882 45.5394 293.558 47.0881 294.021 48.7053L293.864 48.5541L298.374 49.4928H298.544V49.6692C298.595 52.143 298.643 54.6819 298.689 57.2859V57.4686L298.519 57.5064L294.046 58.6089L294.21 58.4451C293.807 60.0799 293.188 61.6539 292.37 63.126V62.8866L294.89 66.7422L294.991 66.8934L294.859 67.0257L289.567 72.513L289.441 72.6453L289.277 72.5508L285.39 70.182H285.629C284.189 71.0534 282.638 71.7272 281.018 72.1854L281.182 72.009L280.243 76.5198L280.205 76.7025H280.016L272.393 76.8285H272.21L272.166 76.6521C271.788 75.1023 271.417 73.5777 271.076 72.1728L271.24 72.3429C269.606 71.9341 268.033 71.3135 266.559 70.497H266.792L262.937 73.017L262.792 73.1115L262.666 72.9918C260.776 71.1459 258.886 69.3504 257.185 67.6872L257.065 67.5675L257.153 67.4289L259.547 63.4914V63.7056C258.683 62.263 258.014 60.7123 257.557 59.094L257.67 59.22L253.159 58.275H253.014V58.1301C252.968 55.4547 252.928 52.9137 252.895 50.5071V50.3748L253.021 50.3433L257.5 49.2597L257.393 49.3668C257.805 47.745 258.432 46.1855 259.258 44.73V44.8686L256.738 41.0067L256.687 40.9248L256.757 40.8618L262.08 35.3745L262.124 35.3304L262.175 35.3619L265.073 37.17L265.822 37.6425C265.913 37.6904 266.001 37.743 266.087 37.8Z" fill="#E0E0E0"/>
<path d="M232.823 22.3838C233.679 21.8712 234.598 21.473 235.557 21.1994L236.118 18.503L240.679 18.4211L241.309 21.0986C242.278 21.3355 243.21 21.7022 244.081 22.1885L246.387 20.6765L249.669 23.8265L248.239 26.1827C248.777 27.037 249.194 27.9613 249.48 28.9295L252.183 29.4965L252.265 34.0577L249.581 34.6877C249.344 35.6566 248.977 36.589 248.491 37.4597L250.003 39.7655L246.853 43.0478L244.44 41.6429C243.59 42.1608 242.675 42.5634 241.718 42.8399L241.158 45.5426L236.59 45.6182L235.96 42.9407C234.993 42.7038 234.063 42.3372 233.194 41.8508L230.889 43.3628L227.606 40.2128L229.005 37.7999C228.494 36.9459 228.095 36.0289 227.821 35.072L225.124 34.5113L225.042 29.9438L227.72 29.3138C227.958 28.3476 228.325 27.4175 228.81 26.5481L227.298 24.2423L230.448 20.9537L232.804 22.3838H232.823ZM235.261 28.4633C234.589 29.1601 234.14 30.0402 233.968 30.9926C233.796 31.9449 233.911 32.9267 234.297 33.814C234.684 34.7012 235.324 35.4541 236.138 35.9775C236.952 36.5008 237.903 36.7713 238.87 36.7545C239.838 36.7378 240.779 36.4347 241.574 35.8836C242.369 35.3324 242.983 34.5578 243.339 33.6578C243.694 32.7578 243.775 31.7726 243.57 30.8267C243.366 29.8809 242.886 29.0168 242.191 28.3436C241.729 27.895 241.183 27.5421 240.584 27.3052C239.985 27.0683 239.345 26.9521 238.701 26.9632C238.057 26.9743 237.422 27.1126 236.831 27.37C236.241 27.6274 235.707 27.999 235.261 28.4633Z" fill="#F5F5F5"/>
<path d="M235.261 28.4634C235.517 28.1482 235.823 27.8778 236.168 27.6633C237.113 27.0497 238.242 26.7826 239.362 26.9073C240.196 26.9974 240.993 27.2972 241.679 27.7786C242.365 28.26 242.919 28.9074 243.287 29.6604C243.509 30.0912 243.66 30.5549 243.734 31.0338C243.816 31.5323 243.816 32.0409 243.734 32.5395C243.598 33.6019 243.122 34.5921 242.379 35.3636C241.636 36.1351 240.664 36.6469 239.608 36.8235C239.107 36.9021 238.597 36.9021 238.096 36.8235C237.412 36.7308 236.754 36.4978 236.164 36.1389C235.575 35.7801 235.065 35.3032 234.669 34.7382C234.221 34.1012 233.932 33.367 233.825 32.5962C233.655 31.4825 233.878 30.3444 234.455 29.3769C234.659 29.0246 234.918 28.7076 235.223 28.4382C235.223 28.4382 234.927 28.7595 234.549 29.4336C234.22 30.0179 234.018 30.6644 233.954 31.3317C233.89 31.999 233.967 32.6723 234.178 33.3083C234.39 33.9443 234.733 34.529 235.184 35.0248C235.635 35.5206 236.185 35.9165 236.798 36.1872C237.217 36.3773 237.664 36.5006 238.121 36.5526C238.594 36.6238 239.076 36.6131 239.545 36.5211C240.543 36.3542 241.462 35.8712 242.165 35.143C242.868 34.4149 243.319 33.4801 243.451 32.4765C243.53 32.0051 243.53 31.524 243.451 31.0527C243.379 30.6004 243.241 30.161 243.041 29.7486C242.665 28.9836 242.094 28.3316 241.385 27.8586C240.773 27.4469 240.074 27.1837 239.343 27.09C238.252 26.9406 237.143 27.1625 236.193 27.72C235.57 28.161 235.28 28.4886 235.261 28.4634Z" fill="#F5F5F5"/>
<path d="M232.823 22.3839L232.672 22.3083L232.224 22.0437L230.448 20.9979H230.498L227.348 24.2991V24.2109L228.866 26.5104V26.5545V26.5986C228.392 27.4661 228.032 28.3916 227.795 29.3517V29.4021H227.745L225.068 30.0699L225.143 29.9691C225.143 31.4055 225.2 32.9301 225.231 34.5303L225.143 34.4232L227.846 34.9839H227.915V35.0532C228.187 36.0001 228.583 36.9068 229.093 37.7496L229.131 37.8126L229.093 37.8756L227.669 40.2318V40.0806L230.958 43.2306H230.794L233.1 41.7186L233.169 41.6745L233.239 41.7123C234.099 42.1889 235.018 42.5491 235.973 42.7833H236.055V42.8652C236.263 43.7031 236.489 44.6166 236.716 45.5427L236.578 45.4419L241.139 45.36L241.007 45.4671C241.183 44.6166 241.378 43.6968 241.567 42.7707V42.6825H241.649C242.593 42.4106 243.497 42.0166 244.339 41.5107L244.415 41.4666L244.49 41.5107L246.847 42.9408H246.67C247.741 41.832 248.8 40.7421 249.82 39.6585V39.8349L248.308 37.5291L248.264 37.4535L248.302 37.3842C248.781 36.5249 249.144 35.6053 249.379 34.65V34.5681H249.455L252.132 33.9381L252.032 34.0704C252.006 32.5164 251.981 30.996 251.956 29.5092L252.063 29.6352L249.36 29.0682H249.285V28.9926C249.017 28.0442 248.625 27.1354 248.119 26.2899L248.075 26.2269L248.119 26.1639L249.549 23.814V23.9526C248.396 22.8375 247.307 21.7854 246.273 20.8026H246.406L244.094 22.3083L244.043 22.3461H243.993C243.147 21.8415 242.238 21.4516 241.29 21.1869H241.233V21.1365C241 20.16 240.786 19.2843 240.603 18.4527L240.685 18.5157L236.124 18.5724L236.187 18.5283C235.954 19.6056 235.765 20.4876 235.607 21.2247C234.873 21.4313 234.16 21.7076 233.478 22.05L232.987 22.3083C232.937 22.344 232.881 22.3716 232.823 22.3902L232.98 22.2894C233.081 22.2264 233.239 22.1256 233.459 22.0122C234.123 21.658 234.822 21.373 235.544 21.1617L235.513 21.1995C235.658 20.4624 235.834 19.5741 236.055 18.4905V18.4464H236.105L240.666 18.3456H240.729V18.4149C240.937 19.2402 241.151 20.1159 241.359 21.0924L241.296 21.0231C242.271 21.2593 243.21 21.6259 244.087 22.113H243.986L246.33 20.5884L246.406 20.538L246.469 20.601L249.757 23.751L249.82 23.814L249.776 23.8959L248.346 26.2521V26.1261C248.87 26.9874 249.275 27.9156 249.549 28.8855L249.455 28.7973L252.158 29.358H252.258V29.4588C252.29 30.9456 252.315 32.4639 252.347 34.0263V34.1271L252.246 34.1586L249.562 34.7886L249.663 34.6878C249.425 35.6673 249.056 36.6103 248.567 37.4913V37.3527L250.11 39.69L250.167 39.7782L250.091 39.8601L246.941 43.1424L246.866 43.2243L246.771 43.1676L244.409 41.7375H244.553C243.691 42.2582 242.763 42.6608 241.794 42.9345L241.895 42.8337C241.7 43.7598 241.511 44.6796 241.328 45.5301V45.6435H241.214L236.653 45.7191H236.54V45.612C236.313 44.6859 236.093 43.7724 235.91 42.9282L236.011 43.029C234.997 42.8043 234.018 42.4441 233.1 41.958H233.239L230.933 43.47L230.845 43.5267L230.769 43.47C229.635 42.3675 228.52 41.2965 227.493 40.32L227.417 40.2507L227.474 40.1688L228.904 37.8126V37.9386C228.387 37.0757 227.986 36.1477 227.714 35.1792L227.802 35.2611L225.099 34.65H225.011V34.5618C225.011 32.9616 224.967 31.4118 224.942 30.0006V29.9187H225.017L227.701 29.2887L227.632 29.358C227.874 28.382 228.247 27.4433 228.74 26.5671V26.6553L227.241 24.3432L227.21 24.2928L227.247 24.255C228.545 22.9257 229.616 21.8232 230.435 20.9916H230.467L232.205 22.0752L232.646 22.3587L232.823 22.3839Z" fill="#F5F5F5"/>
<path d="M110.603 32.4387H28.1295V168.96H110.603V32.4387Z" fill="#E0E0E0"/>
<path d="M107.862 32.4387H25.389V168.96H107.862V32.4387Z" fill="#EBEBEB"/>
<path d="M104.353 35.2043H28.8981V166.188H104.353V35.2043Z" fill="#FAFAFA"/>
<path d="M89.6616 52.2269H43.2621V149.171H89.6616V52.2269Z" fill="#EBEBEB"/>
<path d="M43.2621 114.862C43.155 105.808 51.3009 96.9696 60.2721 95.7033C64.5498 95.0733 69.0921 95.949 73.0863 94.311C80.2179 91.3878 82.4859 81.9126 89.6679 79.1028L89.9955 149.171H43.2621V114.862Z" fill="#E0E0E0"/>
<path d="M224.198 264.361C225.134 263.793 226.143 263.354 227.197 263.056L227.827 260.089L232.835 260.001L233.56 262.943C234.622 263.206 235.646 263.609 236.603 264.14L239.123 262.483L242.726 265.961L241.158 268.55C241.723 269.488 242.162 270.496 242.462 271.549L245.429 272.179L245.517 277.219L242.55 277.906C242.286 278.968 241.883 279.991 241.353 280.948L243.01 283.468L239.532 287.072L236.937 285.503C236 286.071 234.992 286.51 233.938 286.807L233.308 289.775L228.299 289.863L227.575 286.915C226.513 286.654 225.489 286.253 224.532 285.724L222.012 287.381L218.408 283.897L219.977 281.308C219.409 280.371 218.971 279.363 218.673 278.309L215.706 277.679L215.617 272.67L218.61 271.971C218.873 270.908 219.276 269.885 219.807 268.928L218.15 266.408L221.628 262.798L224.223 264.373L224.198 264.361ZM226.869 271.039C226.13 271.804 225.633 272.771 225.444 273.818C225.254 274.866 225.379 275.946 225.803 276.922C226.227 277.898 226.931 278.727 227.826 279.302C228.721 279.878 229.767 280.176 230.831 280.157C231.895 280.139 232.93 279.805 233.805 279.198C234.679 278.592 235.354 277.739 235.744 276.749C236.134 275.759 236.221 274.675 235.995 273.635C235.769 272.595 235.239 271.645 234.473 270.906C233.966 270.415 233.366 270.029 232.709 269.77C232.052 269.511 231.35 269.384 230.644 269.396C229.938 269.408 229.241 269.56 228.593 269.842C227.945 270.123 227.36 270.53 226.869 271.039Z" fill="#F5F5F5"/>
<path d="M296.604 294.153C296.604 294.153 296.9 294.153 297.505 294.153H300.245V294.21C286.07 294.279 228.344 294.336 159.327 294.336L57.0906 294.286L26.1135 294.21H17.6904L26.1135 294.178L57.0906 294.128L159.327 294.078C228.344 294.078 286.07 294.134 300.245 294.204V294.21H297.505C296.9 294.166 296.604 294.153 296.604 294.153Z" fill="#263238"/>
<path d="M273.036 49.373H131.834V248.611H273.036V49.373Z" fill="white"/>
<path d="M273.036 248.611C273.036 247.281 272.973 167.07 272.884 49.3731L273.036 49.518H131.846L132.01 49.3542C132.01 124.016 132.01 193.057 131.979 248.592L131.846 248.459L273.048 248.592L131.846 248.724H131.67V248.592C131.67 193.057 131.67 124.016 131.67 49.3542V49.203H131.846H273.036H273.187V49.3542C273.099 167.07 273.036 247.281 273.036 248.611Z" fill="#263238"/>
<path d="M197.404 181.654H145.555C143.227 181.654 141.34 183.541 141.34 185.869V191.262C141.34 193.589 143.227 195.476 145.555 195.476H197.404C199.732 195.476 201.619 193.589 201.619 191.262V185.869C201.619 183.541 199.732 181.654 197.404 181.654Z" fill="#F5F5F5"/>
<path d="M260.303 181.654H209.79C207.462 181.654 205.575 183.541 205.575 185.869V191.262C205.575 193.589 207.462 195.476 209.79 195.476H260.303C262.631 195.476 264.518 193.589 264.518 191.262V185.869C264.518 183.541 262.631 181.654 260.303 181.654Z" fill="#F5F5F5"/>
<path d="M261.135 209.979H145.272C142.944 209.979 141.057 211.866 141.057 214.194V219.587C141.057 221.914 142.944 223.801 145.272 223.801H261.135C263.463 223.801 265.35 221.914 265.35 219.587V214.194C265.35 211.866 263.463 209.979 261.135 209.979Z" fill="#F5F5F5"/>
<path d="M169.016 176.091C169.016 176.179 163.195 176.255 156.007 176.255C148.819 176.255 142.997 176.179 142.997 176.091C142.997 176.003 148.819 175.927 156.007 175.927C163.195 175.927 169.016 176.003 169.016 176.091Z" fill="#263238"/>
<path d="M230.58 176.091C230.58 176.179 225.994 176.255 220.336 176.255C214.679 176.255 210.086 176.179 210.086 176.091C210.086 176.003 214.672 175.927 220.336 175.927C226 175.927 230.58 176.003 230.58 176.091Z" fill="#263238"/>
<path d="M185.535 204.277C185.535 204.366 176.085 204.441 164.43 204.441C152.775 204.441 143.325 204.366 143.325 204.277C143.325 204.189 152.775 204.114 164.43 204.114C176.085 204.114 185.535 204.189 185.535 204.277Z" fill="#263238"/>
<path d="M261.248 150.274H142.941C140.676 150.274 138.839 152.11 138.839 154.375V161.28C138.839 163.545 140.676 165.381 142.941 165.381H261.248C263.513 165.381 265.35 163.545 265.35 161.28V154.375C265.35 152.11 263.513 150.274 261.248 150.274Z" fill="#E0E0E0"/>
<path d="M229.043 157.828C229.043 157.922 217.816 157.991 203.975 157.991C190.134 157.991 178.901 157.922 178.901 157.828C178.901 157.733 190.128 157.664 203.975 157.664C217.822 157.664 229.043 157.739 229.043 157.828Z" fill="#263238"/>
<path d="M261.248 58.4199H142.941C140.676 58.4199 138.839 60.2561 138.839 62.5212V69.426C138.839 71.6911 140.676 73.5273 142.941 73.5273H261.248C263.513 73.5273 265.35 71.6911 265.35 69.426V62.5212C265.35 60.2561 263.513 58.4199 261.248 58.4199Z" fill="#E0E0E0"/>
<path d="M229.043 65.9736C229.043 66.0618 217.816 66.1374 203.975 66.1374C190.134 66.1374 178.901 66.0618 178.901 65.9736C178.901 65.8854 190.128 65.8098 203.975 65.8098C217.822 65.8098 229.043 65.8791 229.043 65.9736Z" fill="#263238"/>
<path d="M273.036 77.1813C273.036 77.2758 241.397 77.3514 202.375 77.3514C163.353 77.3514 131.701 77.2758 131.701 77.1813C131.701 77.0868 163.34 77.0175 202.375 77.0175C241.41 77.0175 273.036 77.0931 273.036 77.1813Z" fill="#EBEBEB"/>
<path d="M273.036 144.018C273.036 144.113 241.397 144.182 202.375 144.182C163.353 144.182 131.701 144.113 131.701 144.018C131.701 143.924 163.34 143.854 202.375 143.854C241.41 143.854 273.036 143.93 273.036 144.018Z" fill="#EBEBEB"/>
<path d="M197.404 92.3328H145.555C143.227 92.3328 141.34 94.2198 141.34 96.5475V101.94C141.34 104.268 143.227 106.155 145.555 106.155H197.404C199.732 106.155 201.619 104.268 201.619 101.94V96.5475C201.619 94.2198 199.732 92.3328 197.404 92.3328Z" fill="#F5F5F5"/>
<path d="M260.303 92.3328H209.79C207.462 92.3328 205.575 94.2198 205.575 96.5475V101.94C205.575 104.268 207.462 106.155 209.79 106.155H260.303C262.631 106.155 264.518 104.268 264.518 101.94V96.5475C264.518 94.2198 262.631 92.3328 260.303 92.3328Z" fill="#F5F5F5"/>
<path d="M261.135 120.658H145.272C142.944 120.658 141.057 122.545 141.057 124.872V130.265C141.057 132.593 142.944 134.48 145.272 134.48H261.135C263.463 134.48 265.35 132.593 265.35 130.265V124.872C265.35 122.545 263.463 120.658 261.135 120.658Z" fill="#F5F5F5"/>
<path d="M169.016 86.7699C169.016 86.8581 163.195 86.9337 156.007 86.9337C148.819 86.9337 142.997 86.8581 142.997 86.7699C142.997 86.6817 148.819 86.6061 156.007 86.6061C163.195 86.6061 169.016 86.6817 169.016 86.7699Z" fill="#263238"/>
<path d="M230.58 86.7699C230.58 86.8581 225.994 86.9337 220.336 86.9337C214.679 86.9337 210.086 86.8581 210.086 86.7699C210.086 86.6817 214.672 86.6061 220.336 86.6061C226 86.6061 230.58 86.6817 230.58 86.7699Z" fill="#263238"/>
<path d="M185.535 114.956C185.535 115.044 176.085 115.12 164.43 115.12C152.775 115.12 143.325 115.044 143.325 114.956C143.325 114.868 152.775 114.792 164.43 114.792C176.085 114.792 185.535 114.868 185.535 114.956Z" fill="#263238"/>
<path d="M260.99 232.199C260.99 232.294 251.773 232.363 240.402 232.363C229.03 232.363 219.82 232.294 219.82 232.199C219.82 232.105 229.03 232.035 240.402 232.035C251.773 232.035 260.99 232.111 260.99 232.199Z" fill="#263238"/>
<path d="M192.364 100.693C192.045 100.798 191.719 100.88 191.388 100.939C188.914 101.394 186.359 101.029 184.111 99.8991C183.693 99.6823 183.316 99.3945 182.996 99.0486C182.645 98.6767 182.411 98.2102 182.322 97.7067C182.264 97.4383 182.263 97.1607 182.318 96.8917C182.373 96.6227 182.484 96.3682 182.643 96.1443C182.83 95.9129 183.081 95.7417 183.364 95.652C183.648 95.5624 183.951 95.5583 184.237 95.6403C184.388 95.6842 184.528 95.759 184.648 95.8599C184.769 95.9607 184.867 96.0855 184.936 96.2262C185.076 96.5116 185.118 96.8346 185.056 97.146C184.925 97.7569 184.623 98.3182 184.187 98.7651C183.327 99.7298 182.246 100.471 181.037 100.926C179.735 101.418 178.323 101.544 176.954 101.291C176.227 101.168 175.541 100.867 174.957 100.416C174.642 100.185 174.389 99.8807 174.22 99.5291C174.051 99.1775 173.971 98.7896 173.987 98.3997C174.028 97.9993 174.178 97.6179 174.422 97.2972C174.66 96.955 175.013 96.7093 175.417 96.6042C175.631 96.5621 175.851 96.576 176.058 96.6444C176.264 96.7129 176.449 96.8336 176.595 96.9948C176.872 97.3198 177.022 97.7337 177.017 98.1603C177.025 98.5776 176.925 98.9897 176.728 99.3573C176.515 99.7196 176.222 100.028 175.871 100.258C175.172 100.677 174.41 100.981 173.615 101.159C172.084 101.594 170.415 102.066 168.714 101.682C167.861 101.497 167.079 101.073 166.459 100.46C166.137 100.147 165.883 99.7717 165.714 99.3564C165.545 98.9411 165.464 98.4952 165.476 98.0469C165.482 97.7589 165.547 97.475 165.664 97.2121C165.782 96.9492 165.952 96.7125 166.162 96.516C166.395 96.3327 166.674 96.2189 166.969 96.1877C167.263 96.1565 167.56 96.2091 167.826 96.3396C168.099 96.4627 168.32 96.6794 168.449 96.9508C168.577 97.2222 168.604 97.5305 168.525 97.8201C168.356 98.3542 168.009 98.8143 167.542 99.1242C165.851 100.284 163.907 101.023 161.872 101.279C160.882 101.45 159.863 101.361 158.917 101.021C158.451 100.832 158.041 100.529 157.724 100.139C157.406 99.7488 157.193 99.2849 157.103 98.7903C157.028 98.2945 157.14 97.7886 157.417 97.3707C157.694 96.9527 158.117 96.6527 158.602 96.5286C158.849 96.481 159.105 96.5003 159.342 96.5845C159.579 96.6687 159.789 96.8147 159.951 97.0074C160.247 97.3808 160.413 97.8411 160.423 98.3178C160.445 98.7787 160.345 99.2371 160.133 99.6471C159.909 100.033 159.604 100.366 159.239 100.624C158.533 101.085 157.75 101.414 156.927 101.594C155.383 102.003 153.777 102.293 152.315 101.758C151.626 101.509 151.019 101.072 150.564 100.498C150.123 99.9475 149.899 99.255 149.934 98.5509C150 97.8987 150.3 97.2925 150.778 96.8436C150.994 96.6265 151.261 96.4668 151.555 96.3788C151.849 96.2908 152.16 96.2773 152.46 96.3396H152.523V96.4026C152.543 97.6391 152.092 98.8369 151.263 99.7542C150.674 100.445 149.91 100.964 149.052 101.26C148.522 101.443 147.96 101.516 147.401 101.474C147.023 101.417 146.834 101.367 146.834 101.367C147.568 101.487 148.32 101.417 149.02 101.165C149.851 100.862 150.588 100.345 151.156 99.666C151.935 98.7651 152.348 97.6055 152.315 96.4152L152.384 96.4971C152.114 96.4473 151.835 96.4643 151.573 96.5466C151.311 96.629 151.072 96.7742 150.879 96.9696C150.443 97.3883 150.173 97.9495 150.116 98.5509C150.022 99.8109 151.036 101.071 152.359 101.525C153.682 101.978 155.289 101.745 156.82 101.329C157.609 101.153 158.361 100.835 159.037 100.391C159.365 100.157 159.64 99.8564 159.844 99.5085C160.031 99.1431 160.118 98.7343 160.096 98.3241C160.087 97.9145 159.945 97.5187 159.692 97.1964C159.565 97.0421 159.398 96.925 159.21 96.8574C159.021 96.7898 158.818 96.7741 158.621 96.8121C158.21 96.9234 157.855 97.182 157.622 97.5388C157.39 97.8955 157.297 98.3254 157.361 98.7462C157.446 99.1864 157.639 99.5982 157.924 99.9439C158.209 100.29 158.577 100.558 158.993 100.724C159.89 101.043 160.853 101.123 161.79 100.958C163.769 100.706 165.66 99.9846 167.303 98.8533C167.706 98.5872 168.009 98.1951 168.166 97.7382C168.226 97.5207 168.205 97.2889 168.108 97.0852C168.011 96.8816 167.843 96.7198 167.637 96.6294C167.428 96.5297 167.196 96.4893 166.966 96.5126C166.736 96.536 166.517 96.6222 166.333 96.7617C166.155 96.9289 166.013 97.1298 165.915 97.3527C165.816 97.5756 165.763 97.8159 165.759 98.0595C165.75 98.4615 165.825 98.8609 165.978 99.2328C166.13 99.6047 166.359 99.9409 166.648 100.22C167.223 100.789 167.949 101.182 168.739 101.354C170.327 101.72 171.958 101.279 173.483 100.844C174.243 100.672 174.972 100.383 175.644 99.9873C175.956 99.7873 176.216 99.5178 176.406 99.1998C176.577 98.8801 176.663 98.5225 176.658 98.1603C176.665 97.8086 176.544 97.4663 176.318 97.1964C176.21 97.0742 176.071 96.9825 175.917 96.9305C175.762 96.8786 175.596 96.8681 175.436 96.9003C175.111 97.0115 174.825 97.2149 174.614 97.4856C174.403 97.7563 174.275 98.0827 174.245 98.4249C174.24 98.7669 174.319 99.1049 174.475 99.4092C174.631 99.7135 174.859 99.9748 175.14 100.17C175.694 100.594 176.342 100.878 177.03 100.995C178.348 101.238 179.706 101.119 180.961 100.649C182.139 100.221 183.192 99.5087 184.029 98.5761C184.436 98.1666 184.719 97.6516 184.848 97.0893C184.922 96.8386 184.898 96.5691 184.781 96.3353C184.664 96.1015 184.463 95.9207 184.218 95.8293C183.977 95.7569 183.72 95.7584 183.479 95.8337C183.239 95.9089 183.027 96.0544 182.87 96.2514C182.728 96.4498 182.629 96.6752 182.578 96.9136C182.527 97.1521 182.526 97.3985 182.574 97.6374C182.676 98.0872 182.881 98.5075 183.171 98.8657C183.462 99.224 183.831 99.5107 184.25 99.7038C185.591 100.404 187.058 100.832 188.565 100.964C189.519 101.041 190.479 101.007 191.425 100.863L192.163 100.724C192.229 100.71 192.296 100.699 192.364 100.693Z" fill="#0093DD"/>
<path d="M253.997 99.9432C253.747 100.101 253.481 100.232 253.203 100.334C252.414 100.656 251.573 100.833 250.721 100.857C249.366 100.905 248.022 100.592 246.828 99.9495C246.061 99.5698 245.409 98.9938 244.938 98.28C244.677 97.8739 244.558 97.3936 244.597 96.9129C244.625 96.6583 244.704 96.412 244.83 96.189C244.955 95.9659 245.125 95.7706 245.328 95.6151C245.547 95.4444 245.819 95.3553 246.097 95.3631C246.382 95.3728 246.653 95.4872 246.859 95.6844C247.056 95.8889 247.203 96.1349 247.292 96.4043C247.38 96.6737 247.407 96.9594 247.369 97.2405C247.268 97.8091 246.99 98.3315 246.576 98.7336C246.168 99.1447 245.706 99.4986 245.202 99.7857C244.15 100.405 242.973 100.782 241.756 100.888C240.455 101.038 239.138 100.794 237.976 100.189C237.368 99.8623 236.862 99.3739 236.515 98.7777C236.341 98.4656 236.228 98.1237 236.181 97.7697C236.146 97.2196 236.288 96.6728 236.586 96.2092C236.884 95.7456 237.323 95.3895 237.838 95.193C238.025 95.1346 238.221 95.1146 238.416 95.1341C238.611 95.1535 238.8 95.2122 238.972 95.3064C239.31 95.4966 239.576 95.7934 239.728 96.1506C239.876 96.5027 239.946 96.8833 239.932 97.2653C239.918 97.6474 239.82 98.0217 239.646 98.3619C239.289 99.0268 238.774 99.5936 238.146 100.012C236.896 100.877 235.433 101.383 233.916 101.474C232.398 101.565 230.885 101.238 229.54 100.529C228.877 100.192 228.277 99.7449 227.764 99.2061C227.224 98.6685 226.908 97.9455 226.882 97.1838C226.89 96.7999 227.008 96.4263 227.222 96.1079C227.437 95.7895 227.739 95.5396 228.091 95.3883C228.277 95.3153 228.477 95.2891 228.675 95.3122C228.873 95.3353 229.062 95.4069 229.225 95.5206C229.537 95.7441 229.76 96.0695 229.855 96.4404C229.944 96.7904 229.952 97.1559 229.879 97.5095C229.806 97.863 229.653 98.1954 229.433 98.4816C229.026 99.0222 228.534 99.4943 227.978 99.8802C226.971 100.625 225.818 101.148 224.594 101.416C223.37 101.683 222.104 101.688 220.878 101.43C219.739 101.224 218.713 100.61 217.993 99.7038C217.659 99.2619 217.471 98.7266 217.457 98.1729C217.442 97.6437 217.573 97.1207 217.835 96.6609C217.957 96.4356 218.122 96.2374 218.323 96.0782C218.523 95.9191 218.754 95.8022 219.001 95.7348C219.238 95.6814 219.484 95.6813 219.722 95.7347C219.959 95.7881 220.182 95.8936 220.374 96.0435C220.717 96.3149 220.983 96.6708 221.146 97.0761C221.31 97.4815 221.365 97.9224 221.306 98.3556C221.177 99.1003 220.781 99.7722 220.191 100.246C219.713 100.644 219.151 100.928 218.547 101.077C217.721 101.263 216.87 101.316 216.027 101.235L215.397 101.178C215.324 101.187 215.25 101.187 215.176 101.178C215.25 101.17 215.324 101.17 215.397 101.178H216.058C216.904 101.232 217.754 101.16 218.578 100.964C219.158 100.806 219.696 100.522 220.153 100.132C220.695 99.6554 221.043 98.9962 221.13 98.28C221.177 97.8823 221.123 97.4791 220.97 97.1086C220.818 96.7381 220.574 96.4127 220.261 96.1632C220.091 96.0352 219.895 95.9458 219.687 95.9012C219.48 95.8566 219.265 95.8578 219.057 95.9049C218.842 95.9698 218.641 96.0767 218.467 96.2194C218.293 96.3621 218.149 96.5378 218.043 96.7365C217.795 97.1632 217.678 97.6533 217.706 98.1461C217.734 98.6389 217.906 99.1126 218.2 99.5085C218.891 100.357 219.864 100.93 220.941 101.121C222.129 101.371 223.356 101.367 224.541 101.109C225.727 100.85 226.845 100.343 227.821 99.6219C228.346 99.2493 228.809 98.7965 229.194 98.28C229.387 98.0317 229.521 97.7426 229.585 97.4347C229.65 97.1268 229.643 96.8083 229.566 96.5034C229.492 96.2049 229.316 95.9417 229.068 95.76C228.947 95.6745 228.806 95.6205 228.659 95.6029C228.511 95.5853 228.362 95.6046 228.224 95.6592C227.931 95.7887 227.681 95.9992 227.503 96.266C227.326 96.5327 227.228 96.8446 227.222 97.1649C227.254 97.8426 227.54 98.4835 228.022 98.9604C228.513 99.4719 229.086 99.8978 229.717 100.22C231.011 100.892 232.463 101.203 233.919 101.121C235.375 101.037 236.78 100.551 237.976 99.7164C238.567 99.3413 239.056 98.8263 239.4 98.217C239.553 97.9197 239.639 97.5928 239.653 97.2589C239.667 96.925 239.609 96.592 239.482 96.2829C239.374 95.9861 239.159 95.7404 238.879 95.5946C238.599 95.4488 238.275 95.4134 237.97 95.4954C237.525 95.6708 237.147 95.9819 236.889 96.3845C236.631 96.7872 236.507 97.2608 236.533 97.7382C236.575 98.0504 236.675 98.352 236.83 98.6265C237.147 99.1755 237.612 99.625 238.171 99.9243C239.272 100.502 240.52 100.739 241.756 100.605C242.926 100.499 244.058 100.135 245.07 99.54C245.554 99.2691 245.999 98.9343 246.393 98.5446C246.771 98.182 247.026 97.7108 247.124 97.1964C247.158 96.9539 247.137 96.707 247.063 96.4736C246.989 96.2403 246.863 96.0266 246.695 95.8482C246.532 95.6913 246.318 95.599 246.092 95.5886C245.866 95.5781 245.644 95.6503 245.467 95.7915C245.293 95.9299 245.147 96.1012 245.039 96.2958C244.931 96.4904 244.862 96.7043 244.837 96.9255C244.801 97.3669 244.907 97.8082 245.139 98.1855C245.593 98.8686 246.216 99.4222 246.947 99.792C248.102 100.434 249.406 100.76 250.727 100.737C251.566 100.722 252.396 100.568 253.184 100.283C253.726 100.082 253.985 99.9243 253.997 99.9432Z" fill="#0093DD"/>
<path d="M195.426 127.77C195.351 127.819 195.27 127.859 195.187 127.89L194.462 128.218C193.832 128.501 192.881 128.917 191.64 129.383C190.13 129.966 188.563 130.388 186.965 130.643C185.964 130.79 184.952 130.851 183.941 130.826C182.799 130.848 181.662 130.677 180.577 130.322C179.968 130.115 179.418 129.765 178.973 129.301C178.528 128.837 178.201 128.273 178.019 127.657C177.926 127.322 177.9 126.972 177.944 126.627C177.987 126.282 178.098 125.949 178.271 125.647C178.445 125.326 178.694 125.052 178.997 124.848C179.3 124.644 179.647 124.516 180.01 124.475C180.393 124.469 180.769 124.576 181.091 124.784C181.413 124.991 181.666 125.289 181.818 125.641C182.162 126.339 182.219 127.144 181.975 127.884C181.712 128.619 181.257 129.271 180.659 129.774C180.06 130.282 179.394 130.706 178.681 131.034C177.209 131.799 175.508 131.998 173.899 131.594C173.067 131.338 172.319 130.862 171.733 130.217C171.148 129.572 170.747 128.781 170.572 127.928C170.497 127.488 170.497 127.038 170.572 126.598C170.633 126.136 170.821 125.7 171.114 125.338C171.254 125.142 171.434 124.978 171.643 124.857C171.852 124.737 172.084 124.662 172.324 124.639C172.579 124.634 172.829 124.71 173.039 124.856C173.248 125.002 173.406 125.211 173.489 125.452C173.61 125.905 173.631 126.38 173.55 126.842C173.47 127.304 173.29 127.743 173.023 128.129C172.558 128.921 171.961 129.629 171.259 130.221C169.878 131.403 168.112 132.04 166.295 132.012C164.477 131.985 162.731 131.294 161.387 130.07C160.741 129.469 160.3 128.68 160.127 127.814C160.041 127.378 160.069 126.926 160.209 126.504C160.362 126.09 160.615 125.72 160.946 125.427C161.273 125.127 161.684 124.936 162.124 124.879C162.35 124.846 162.579 124.864 162.797 124.93C163.015 124.997 163.215 125.11 163.384 125.263C163.679 125.571 163.887 125.953 163.985 126.368C164.084 126.783 164.07 127.217 163.945 127.625C163.699 128.391 163.248 129.075 162.641 129.604C162.081 130.125 161.466 130.583 160.807 130.971C159.547 131.716 158.147 132.192 156.694 132.369C155.335 132.548 153.954 132.426 152.649 132.01C152.028 131.802 151.46 131.46 150.986 131.008C150.527 130.571 150.212 130.004 150.085 129.383C149.948 128.791 150.006 128.17 150.249 127.613C150.365 127.344 150.547 127.109 150.778 126.93C151.01 126.75 151.283 126.632 151.572 126.586C151.843 126.545 152.12 126.561 152.385 126.634C152.65 126.706 152.897 126.834 153.109 127.008C153.309 127.175 153.46 127.394 153.545 127.64C153.631 127.886 153.648 128.151 153.594 128.407C153.489 128.872 153.234 129.29 152.869 129.597C152.548 129.879 152.19 130.116 151.805 130.303C151.14 130.632 150.446 130.898 149.732 131.097C148.748 131.379 147.731 131.529 146.708 131.544C146.353 131.557 145.997 131.542 145.643 131.5H145.914C146.097 131.5 146.362 131.5 146.708 131.5C147.72 131.454 148.723 131.285 149.694 130.996C150.397 130.785 151.08 130.513 151.735 130.183C152.105 129.999 152.449 129.766 152.756 129.49C153.077 129.201 153.298 128.817 153.386 128.394C153.431 128.17 153.415 127.938 153.338 127.723C153.262 127.507 153.128 127.317 152.951 127.172C152.758 127.02 152.536 126.909 152.299 126.847C152.062 126.784 151.814 126.77 151.572 126.806C151.317 126.85 151.078 126.957 150.877 127.118C150.675 127.278 150.517 127.488 150.419 127.726C150.199 128.239 150.15 128.809 150.28 129.352C150.434 129.935 150.738 130.467 151.163 130.895C151.588 131.323 152.118 131.631 152.699 131.79C153.967 132.189 155.308 132.301 156.624 132.117C158.788 131.846 160.81 130.898 162.401 129.408C162.971 128.917 163.394 128.278 163.624 127.562C163.732 127.208 163.745 126.832 163.661 126.471C163.577 126.11 163.399 125.778 163.145 125.509C162.849 125.283 162.479 125.176 162.109 125.209C161.738 125.242 161.393 125.411 161.141 125.685C160.859 125.943 160.643 126.265 160.511 126.624C160.39 126.996 160.366 127.393 160.442 127.777C160.612 128.577 161.029 129.304 161.633 129.856C162.922 131.025 164.593 131.683 166.333 131.708C168.073 131.732 169.762 131.12 171.083 129.988C171.76 129.422 172.334 128.741 172.777 127.978C173.008 127.617 173.172 127.218 173.263 126.8C173.364 126.399 173.351 125.978 173.225 125.584C173.167 125.403 173.054 125.245 172.901 125.132C172.748 125.019 172.564 124.957 172.374 124.954C172.181 124.978 171.995 125.041 171.828 125.141C171.661 125.241 171.516 125.375 171.404 125.534C171.168 125.866 171.004 126.244 170.922 126.643C170.841 127.042 170.844 127.454 170.932 127.852C171.096 128.647 171.47 129.384 172.015 129.985C172.56 130.587 173.256 131.031 174.031 131.273C175.565 131.658 177.187 131.47 178.592 130.744C179.966 130.082 181.282 129.125 181.742 127.758C181.963 127.089 181.914 126.361 181.604 125.729C181.478 125.425 181.265 125.166 180.991 124.984C180.717 124.802 180.395 124.706 180.067 124.708C179.747 124.746 179.442 124.859 179.175 125.039C178.909 125.219 178.69 125.46 178.536 125.742C178.378 126.013 178.275 126.314 178.235 126.625C178.195 126.937 178.218 127.253 178.303 127.556C178.471 128.137 178.776 128.669 179.193 129.108C179.609 129.546 180.125 129.878 180.697 130.076C181.756 130.432 182.868 130.607 183.985 130.593C184.985 130.625 185.986 130.573 186.978 130.435C188.566 130.203 190.126 129.808 191.633 129.257C192.893 128.81 193.826 128.413 194.475 128.155L195.212 127.852L195.426 127.77Z" fill="#0093DD"/>
<path d="M255.15 266.383C255.15 266.383 240.66 249.7 235.179 232.993C229.698 216.285 232.313 218.226 232.313 218.226C232.313 218.226 239.696 234.429 245.303 242.26C250.91 250.091 260.896 261.576 260.896 261.576L255.15 266.383Z" fill="#455A64"/>
<path d="M258.061 220.84C257.963 220.67 257.81 220.539 257.626 220.47C257.443 220.401 257.241 220.398 257.055 220.461C256.87 220.524 256.712 220.65 256.609 220.817C256.507 220.984 256.465 221.181 256.492 221.376C257.374 227.241 259.283 240.994 259.214 249.915C259.113 261.5 259.214 265.98 259.214 265.98H265.23C265.23 265.98 264.159 242.04 262.792 234.719C261.86 229.603 259.831 223.915 258.061 220.84Z" fill="#455A64"/>
<path d="M261.356 264.033C263.882 258.304 265.555 252.236 266.32 246.021C266.818 241.75 265.929 235.985 264.613 228.293C264.099 225.481 263.844 222.628 263.85 219.769C263.851 219.449 263.959 219.139 264.156 218.887C264.353 218.635 264.629 218.457 264.939 218.379C265.249 218.302 265.577 218.33 265.869 218.46C266.161 218.59 266.402 218.813 266.553 219.095C267.278 220.393 269.388 224.828 269.924 227.613C271.385 235.21 273.036 239.009 271.776 246.21C270.516 253.411 265.86 264.518 265.86 264.518L261.356 264.033Z" fill="#455A64"/>
<path d="M266.786 264.518C266.786 264.518 282.706 230.315 283.796 225.238C284.886 220.16 288.647 208.473 289.088 209.135C289.529 209.796 290.197 215.97 287.324 223.033C284.451 230.095 272.204 265.564 272.204 265.564H266.767" fill="#455A64"/>
<path d="M259.61 262.987C259.453 262.9 259.303 262.799 259.163 262.685C258.88 262.471 258.451 262.168 257.903 261.74C256.415 260.552 254.987 259.291 253.625 257.96C249.146 253.544 245.263 248.56 242.077 243.136C238.906 237.712 236.266 231.995 234.196 226.063C233.396 223.789 232.816 221.93 232.432 220.639C232.243 220.009 232.105 219.492 232.01 219.145C231.956 218.975 231.916 218.8 231.89 218.623C231.969 218.784 232.032 218.953 232.079 219.127L232.558 220.601C232.98 221.861 233.598 223.751 234.448 225.981C236.577 231.88 239.238 237.574 242.399 242.991C245.573 248.39 249.41 253.37 253.821 257.815C255.528 259.51 256.971 260.795 258.016 261.658C258.52 262.099 258.936 262.414 259.207 262.647C259.349 262.751 259.484 262.865 259.61 262.987Z" fill="#263238"/>
<path d="M261.349 246.582C261.278 246.25 261.232 245.913 261.211 245.574L260.914 242.833C260.662 240.521 260.284 237.327 259.705 233.824C259.125 230.322 258.514 227.159 258.029 224.885L257.449 222.188C257.358 221.863 257.299 221.53 257.273 221.193C257.398 221.506 257.499 221.829 257.575 222.157C257.758 222.787 257.991 223.7 258.262 224.834C258.81 227.102 259.478 230.252 260.045 233.768C260.612 237.283 260.965 240.49 261.154 242.808C261.248 243.974 261.311 244.912 261.343 245.568C261.375 245.905 261.377 246.244 261.349 246.582Z" fill="#263238"/>
<path d="M265.079 218.824C265.157 218.962 265.221 219.108 265.268 219.259C265.388 219.58 265.545 220.002 265.747 220.519C265.948 221.035 266.2 221.747 266.427 222.554C266.654 223.36 266.969 224.261 267.202 225.294L267.599 226.901C267.731 227.461 267.826 228.054 267.945 228.658C268.204 229.874 268.367 231.178 268.575 232.577C269.303 238.6 269.09 244.7 267.945 250.658C267.649 252.019 267.397 253.323 267.051 254.514C266.887 255.112 266.748 255.698 266.578 256.246C266.408 256.794 266.232 257.323 266.068 257.821C265.766 258.835 265.394 259.711 265.098 260.499C264.802 261.286 264.524 261.948 264.272 262.483L263.705 263.743C263.648 263.89 263.574 264.029 263.485 264.159C263.527 264.006 263.58 263.857 263.642 263.712C263.775 263.397 263.939 262.974 264.153 262.452C264.367 261.929 264.65 261.242 264.921 260.455C265.192 259.667 265.551 258.779 265.841 257.771C265.992 257.267 266.156 256.737 266.326 256.196C266.496 255.654 266.622 255.062 266.78 254.463C267.114 253.273 267.353 251.975 267.637 250.62C268.744 244.688 268.957 238.623 268.267 232.627C268.084 231.254 267.933 229.944 267.687 228.734C267.574 228.104 267.485 227.537 267.359 226.976C267.233 226.416 267.107 225.88 266.988 225.37C266.774 224.337 266.484 223.429 266.263 222.629C266.043 221.829 265.829 221.136 265.633 220.575L265.217 219.315C265.152 219.158 265.106 218.993 265.079 218.824Z" fill="#263238"/>
<path d="M288.924 209.821C288.927 209.872 288.927 209.922 288.924 209.973C288.924 210.092 288.88 210.237 288.849 210.42C288.779 210.804 288.691 211.384 288.534 212.121C288.231 213.595 287.715 215.712 286.921 218.276C286.127 220.84 285.031 223.864 283.771 227.172C282.511 230.479 280.993 234.102 279.581 237.932C278.17 241.762 277.061 245.492 276.003 248.907C274.945 252.321 273.993 255.352 273.055 257.872C272.322 259.867 271.481 261.821 270.535 263.724C270.207 264.398 269.905 264.902 269.722 265.255L269.501 265.646C269.478 265.691 269.448 265.734 269.413 265.772L269.47 265.627C269.527 265.52 269.59 265.381 269.665 265.217C269.835 264.865 270.106 264.348 270.415 263.661C271.045 262.307 271.914 260.316 272.821 257.79C273.729 255.263 274.711 252.214 275.694 248.812C276.677 245.41 277.817 241.662 279.254 237.812C280.69 233.963 282.171 230.359 283.475 227.058C284.779 223.757 285.888 220.758 286.707 218.207C287.526 215.655 288.074 213.551 288.42 212.089C288.597 211.365 288.704 210.792 288.798 210.407C288.836 210.231 288.874 210.086 288.899 209.966C288.9 209.917 288.908 209.868 288.924 209.821Z" fill="#263238"/>
<path d="M239.841 202.261C239.621 202.054 239.338 201.925 239.037 201.895C238.736 201.865 238.433 201.935 238.176 202.095C237.919 202.254 237.722 202.494 237.615 202.777C237.508 203.06 237.498 203.371 237.586 203.66C238.128 205.421 238.795 207.141 239.583 208.807C241.769 213.457 248.201 230.139 251.206 239.305C254.211 248.472 258.457 265.564 258.457 265.564L264.883 264.518C264.883 264.518 259.006 236.433 253.26 226.309C248.642 218.182 244.03 206.426 239.841 202.261Z" fill="#455A64"/>
<path d="M252.964 245.032C253.105 245.276 253.217 245.536 253.298 245.807C253.487 246.311 253.745 247.067 254.041 247.962C254.633 249.795 255.352 252.372 256.082 255.2C256.813 258.029 257.418 260.631 257.84 262.508C258.035 263.397 258.193 264.14 258.325 264.732C258.4 265.004 258.445 265.283 258.457 265.564C258.341 265.307 258.252 265.039 258.193 264.764C258.042 264.178 257.84 263.441 257.607 262.565C257.116 260.631 256.467 258.092 255.755 255.282C255.043 252.472 254.337 249.877 253.808 248.031L253.178 245.845C253.081 245.581 253.009 245.309 252.964 245.032Z" fill="#263238"/>
<path d="M261.683 265.041C261.663 264.986 261.65 264.929 261.645 264.871C261.645 264.738 261.608 264.568 261.576 264.36C261.507 263.919 261.45 263.258 261.311 262.42C261.078 260.732 260.681 258.3 259.963 255.333C259.143 251.859 258.14 248.431 256.958 245.064C255.641 241.284 253.984 237.145 252.113 232.892C248.333 224.387 244.553 216.846 242.078 211.264C240.818 208.486 239.854 206.224 239.211 204.63C238.883 203.843 238.65 203.225 238.486 202.803C238.417 202.608 238.36 202.45 238.31 202.324C238.285 202.27 238.268 202.213 238.26 202.154C238.293 202.204 238.32 202.256 238.342 202.312L238.549 202.778C238.738 203.213 239.003 203.818 239.331 204.58C240.011 206.149 241.013 208.398 242.292 211.17C244.812 216.714 248.636 224.236 252.422 232.753C254.312 237.019 255.95 241.139 257.254 244.963C258.421 248.344 259.401 251.787 260.19 255.276C260.729 257.628 261.15 260.006 261.45 262.401C261.563 263.245 261.608 263.907 261.652 264.354C261.652 264.564 261.664 264.734 261.689 264.865C261.696 264.923 261.693 264.983 261.683 265.041Z" fill="#263238"/>
<path d="M264.883 264.518C264.779 264.166 264.705 263.806 264.663 263.441C264.537 262.685 264.367 261.689 264.165 260.486C263.724 257.966 263.044 254.57 262.074 250.834C261.103 247.099 260.026 243.778 259.195 241.384L258.187 238.562C258.047 238.223 257.933 237.873 257.846 237.516C258.031 237.836 258.187 238.171 258.313 238.518C258.59 239.148 258.974 240.118 259.421 241.303C260.582 244.397 261.577 247.552 262.401 250.753C263.232 253.949 263.901 257.185 264.405 260.448C264.587 261.708 264.726 262.716 264.795 263.422C264.849 263.785 264.879 264.151 264.883 264.518Z" fill="#263238"/>
<path d="M278.069 263.598H252.989V294.153H278.069V263.598Z" fill="#0093DD"/>
<g opacity="0.3">
<path d="M278.069 263.598H252.989V294.153H278.069V263.598Z" fill="black"/>
</g>
<path d="M270.068 263.598H247.817V294.153H270.068V263.598Z" fill="#0093DD"/>
<path d="M66.2634 101.594L65.5515 158.999C65.4318 168.758 67.2462 183.122 82.6875 182.612C96.0561 181.156 99.603 168.506 99.6975 159.396C99.7479 155.074 99.7983 151.471 99.8298 151.03C99.8298 151.03 114.458 149.833 115.693 135.381C116.292 128.4 116.323 113.917 116.254 100.813C116.199 94.0256 113.59 87.5081 108.948 82.5572C104.305 77.6062 97.9683 74.5848 91.1988 74.0943L89.8002 73.9872C74.6928 73.773 66.0681 86.4801 66.2634 101.594Z" fill="#FFBE9D"/>
<path d="M99.8361 151.03C99.8361 151.03 90.6822 150.898 81.4149 144.1C81.4149 144.1 85.2327 154.999 99.7605 154.747L99.8361 151.03Z" fill="#EB996E"/>
<path d="M91.5516 106.735C91.2681 107.031 89.5986 105.682 87.1731 105.619C84.7476 105.556 82.9458 106.741 82.6938 106.432C82.5678 106.294 82.8639 105.758 83.6577 105.204C84.7189 104.492 85.9782 104.135 87.255 104.183C88.5182 104.215 89.7366 104.657 90.7263 105.443C91.4571 106.054 91.6965 106.609 91.5516 106.735Z" fill="#263238"/>
<path d="M91.4823 111.743C91.4483 112.252 91.2176 112.728 90.839 113.07C90.4604 113.412 89.9637 113.594 89.4537 113.576C88.9525 113.576 88.4717 113.377 88.1173 113.023C87.7628 112.668 87.5637 112.188 87.5637 111.686C87.5962 111.178 87.8255 110.702 88.2031 110.36C88.5807 110.017 89.0767 109.836 89.586 109.853C89.8347 109.852 90.0812 109.901 90.3112 109.995C90.5413 110.09 90.7504 110.229 90.9265 110.404C91.1027 110.58 91.2425 110.789 91.3378 111.018C91.4332 111.248 91.4823 111.494 91.4823 111.743Z" fill="#263238"/>
<path d="M97.65 123.574C97.65 123.448 99.0486 123.31 101.304 123.19C101.877 123.19 102.425 123.096 102.564 122.718C102.656 122.136 102.568 121.54 102.312 121.01L100.895 116.55C99.0045 110.25 97.7004 105.046 97.9524 104.971C98.2044 104.895 99.9432 109.966 101.821 116.311C102.274 117.873 102.703 119.353 103.081 120.777C103.251 121.439 103.566 122.195 103.213 123.026C103.117 123.221 102.977 123.391 102.804 123.524C102.631 123.656 102.431 123.746 102.218 123.789C101.898 123.851 101.572 123.872 101.247 123.852C99.0171 123.795 97.65 123.707 97.65 123.574Z" fill="#263238"/>
<path d="M90.5247 97.65C90.2916 98.1918 88.3512 97.7823 86.0328 97.902C83.7144 98.0217 81.7992 98.532 81.5346 98.0217C81.4149 97.7697 81.774 97.2783 82.5615 96.7995C83.6002 96.207 84.7683 95.8782 85.9635 95.8419C87.1509 95.7792 88.3352 96.013 89.4096 96.5223C90.2286 96.9129 90.6255 97.3791 90.5247 97.65Z" fill="#263238"/>
<path d="M113.513 102.117C113.261 102.558 111.371 102.073 109.103 102.003C106.835 101.934 104.914 102.224 104.693 101.764C104.593 101.55 104.971 101.134 105.764 100.806C106.841 100.379 107.997 100.188 109.154 100.246C110.321 100.282 111.468 100.565 112.518 101.077C113.261 101.487 113.627 101.909 113.513 102.117Z" fill="#263238"/>
<path d="M66.6666 112.392C66.4272 112.266 56.9394 108.725 56.5362 118.635C56.133 128.545 66.15 126.914 66.1941 126.63C66.2382 126.347 66.6666 112.392 66.6666 112.392Z" fill="#FFBE9D"/>
<path d="M63.3213 122.749C63.2772 122.718 63.1386 122.863 62.8425 122.982C62.4376 123.142 61.9874 123.142 61.5825 122.982C60.5493 122.554 59.7366 120.859 59.7618 119.07C59.7723 118.22 59.9725 117.382 60.3477 116.619C60.4537 116.315 60.6325 116.041 60.8686 115.821C61.1047 115.602 61.3909 115.443 61.7022 115.359C61.9017 115.314 62.1108 115.34 62.2929 115.433C62.475 115.526 62.6183 115.681 62.6976 115.87C62.8236 116.153 62.748 116.348 62.8047 116.367C62.8614 116.386 63.0252 116.21 62.9559 115.8C62.9121 115.555 62.7853 115.333 62.5968 115.17C62.332 114.953 61.9933 114.847 61.6518 114.874C61.2374 114.936 60.8459 115.104 60.5149 115.361C60.1839 115.618 59.9246 115.956 59.7618 116.342C59.3088 117.183 59.0646 118.121 59.0499 119.076C59.0499 121.08 59.9823 122.989 61.3935 123.486C61.6572 123.573 61.9368 123.6 62.2122 123.566C62.4877 123.532 62.7524 123.438 62.9874 123.291C63.2898 122.989 63.3528 122.768 63.3213 122.749Z" fill="#EB996E"/>
<path d="M95.2812 130.441C95.3883 130.189 93.4479 129.61 92.0808 127.783C91.5122 126.986 91.0505 126.117 90.7074 125.2C90.4176 124.475 90.1971 124.028 90.0774 124.06C89.9577 124.091 89.9955 124.576 90.1593 125.364C90.3651 126.409 90.7949 127.398 91.4193 128.262C92.0666 129.125 92.9382 129.794 93.9393 130.196C94.7394 130.504 95.2497 130.523 95.2812 130.441Z" fill="#263238"/>
<path d="M113.627 107.648C113.337 107.938 111.668 106.596 109.217 106.533C106.766 106.47 104.99 107.654 104.731 107.346C104.605 107.207 104.908 106.672 105.695 106.117C106.756 105.406 108.016 105.048 109.292 105.097C110.558 105.129 111.778 105.571 112.77 106.357C113.526 106.968 113.765 107.516 113.627 107.648Z" fill="#263238"/>
<path d="M113.23 112.449C113.196 112.958 112.965 113.434 112.587 113.776C112.208 114.118 111.711 114.299 111.201 114.282C110.7 114.282 110.219 114.083 109.865 113.728C109.51 113.374 109.311 112.893 109.311 112.392C109.345 111.883 109.576 111.407 109.955 111.065C110.333 110.723 110.83 110.541 111.34 110.559C111.841 110.559 112.322 110.758 112.676 111.112C113.031 111.467 113.23 111.947 113.23 112.449Z" fill="#263238"/>
<path d="M126.34 81.6227C125.356 80.0235 123.829 78.8317 122.038 78.2649C120.248 77.6982 118.313 77.7943 116.588 78.5358C117.031 76.242 116.712 73.8663 115.679 71.7707C114.647 69.6752 112.957 67.9747 110.868 66.9286C108.78 65.8824 106.406 65.5479 104.109 65.976C101.813 66.4041 99.7192 67.5714 98.1477 69.2999C98.0227 68.687 97.7673 68.1081 97.3988 67.6027C97.0303 67.0972 96.5573 66.6769 96.012 66.3704C94.9192 65.7613 93.7066 65.3979 92.4588 65.3058C89.5016 64.9777 86.5101 65.431 83.7829 66.6205C81.0557 67.81 78.6882 69.694 76.9167 72.0845C74.0351 71.7426 71.1135 72.0827 68.3875 73.0774C65.6615 74.0722 63.2075 75.6937 61.2234 77.8112C56.5677 82.9709 55.6857 94.922 60.7887 105.248L61.9857 111.718C63.5859 111.718 65.0475 111.831 66.0366 112.713C67.3785 113.917 67.977 116.185 70.2009 115.328C71.3349 114.887 72.3681 112.512 72.7209 111.359C75.2368 103.667 76.0704 95.524 75.1653 87.4817C76.7539 85.7894 78.6532 84.4184 80.7597 83.4434L80.5896 83.6009C84.6279 82.196 89.1954 80.8163 93.0258 82.7126C95.9994 84.1805 97.7508 87.2675 99.9558 89.7245C102.008 91.9971 104.498 93.8306 107.278 95.1148C110.057 96.3989 113.068 97.107 116.128 97.1963C116.342 101.266 116.002 107.018 116.216 111.056L119.7 104.58C119.97 104.114 120.217 103.635 120.437 103.144L120.513 102.992C121.143 102.482 121.609 101.55 122.667 100.34C123.678 99.1514 124.344 97.7082 124.592 96.1675C124.839 94.6268 124.66 93.0476 124.072 91.6019C125.587 90.4889 126.649 88.8676 127.066 87.035C127.482 85.2023 127.225 83.281 126.34 81.6227Z" fill="#263238"/>
<path d="M120.412 81.7739C120.412 81.7739 120.45 81.8432 120.488 81.9881C120.539 82.1945 120.568 82.4056 120.576 82.6181C120.608 83.4296 120.409 84.2336 120.002 84.9365C119.714 85.4218 119.338 85.8491 118.894 86.1965C118.365 86.6009 117.743 86.8653 117.086 86.9651C116.321 87.0855 115.538 87.0054 114.814 86.7326C114.089 86.4599 113.448 86.0038 112.953 85.409L113.198 85.2011C113.437 85.4625 113.622 85.7684 113.742 86.1015C113.862 86.4345 113.915 86.788 113.898 87.1415C113.89 87.6143 113.788 88.0807 113.598 88.5135C113.407 88.9463 113.132 89.3366 112.789 89.6615C112.137 90.2408 111.314 90.5924 110.445 90.6632C109 90.7686 107.563 90.3725 106.376 89.5418C105.584 89.0047 104.853 88.3837 104.196 87.6896C103.943 87.4489 103.712 87.1876 103.503 86.9084C103.78 87.1197 104.041 87.3514 104.284 87.6014C104.969 88.2488 105.711 88.8329 106.502 89.3465C107.654 90.1167 109.033 90.4742 110.414 90.3608C111.215 90.2879 111.972 89.9613 112.575 89.4284C113.191 88.8322 113.549 88.0177 113.57 87.1604C113.593 86.5287 113.367 85.9131 112.94 85.4468L113.186 85.2326C113.645 85.7853 114.238 86.2111 114.909 86.4692C115.579 86.7273 116.305 86.8091 117.016 86.7068C117.591 86.6201 118.138 86.4052 118.618 86.078C119.098 85.7508 119.498 85.3198 119.788 84.8168C120.19 84.1484 120.407 83.3854 120.418 82.6055C120.469 82.0763 120.387 81.7802 120.412 81.7739Z" fill="#455A64"/>
<path d="M108.014 70.9127C108.014 70.9127 108.089 70.9127 108.228 71.0072C108.419 71.1181 108.602 71.2423 108.776 71.3789C109.434 71.8864 109.95 72.5546 110.275 73.3193C110.516 73.897 110.61 74.5249 110.551 75.1478C110.492 75.7707 110.28 76.3695 109.935 76.8914C109.518 77.5293 108.87 77.9809 108.127 78.1514C107.731 78.2371 107.322 78.2417 106.925 78.1648C106.528 78.0879 106.15 77.9312 105.815 77.7041C105.608 77.5475 105.423 77.3631 105.267 77.156L105.55 76.9922C105.693 77.3488 105.76 77.7313 105.747 78.1153C105.734 78.4993 105.641 78.8763 105.475 79.2224C105.184 79.8676 104.676 80.3896 104.038 80.6966C103.509 80.9424 102.933 81.0697 102.35 81.0697C101.767 81.0697 101.19 80.9424 100.661 80.6966C99.9646 80.3749 99.3441 79.9089 98.8407 79.3295C98.6446 79.1294 98.4809 78.8998 98.3556 78.6491C98.3556 78.6491 98.5572 78.8696 98.9289 79.2413C99.4491 79.7745 100.067 80.2024 100.75 80.5013C101.249 80.7154 101.788 80.821 102.331 80.8112C102.874 80.8014 103.408 80.6765 103.9 80.4446C104.46 80.1535 104.904 79.6802 105.16 79.1027C105.304 78.7968 105.384 78.4645 105.395 78.1264C105.405 77.7884 105.347 77.4517 105.223 77.1371L104.693 75.9212L105.506 76.9796C105.639 77.1579 105.799 77.3151 105.979 77.4458C106.276 77.6485 106.611 77.7887 106.964 77.858C107.317 77.9273 107.681 77.9243 108.032 77.849C108.693 77.7056 109.273 77.3129 109.652 76.7528C109.977 76.2717 110.181 75.7188 110.245 75.1417C110.31 74.5645 110.234 73.9803 110.023 73.439C109.73 72.6971 109.263 72.0361 108.662 71.5112C108.272 71.0954 107.995 70.9379 108.014 70.9127Z" fill="#455A64"/>
<path d="M192.15 143.174L169.25 160.65C168.929 160.896 168.662 161.206 168.465 161.559C168.268 161.912 168.146 162.302 168.105 162.704C168.064 163.107 168.106 163.513 168.228 163.899C168.35 164.284 168.55 164.641 168.815 164.947C169.31 165.519 170.007 165.88 170.761 165.954C171.515 166.028 172.268 165.809 172.866 165.343L195.546 147.703L198.614 141.649L192.15 143.174Z" fill="#0093DD"/>
<path opacity="0.5" d="M195.678 142.336L197.297 144.226L195.546 147.703C195.335 147.726 195.122 147.7 194.923 147.627C194.724 147.555 194.544 147.438 194.397 147.285C194.25 147.133 194.14 146.949 194.075 146.747C194.009 146.546 193.991 146.332 194.021 146.122C193.814 146.151 193.603 146.127 193.407 146.054C193.211 145.981 193.037 145.86 192.899 145.703C192.762 145.545 192.666 145.356 192.62 145.152C192.573 144.948 192.579 144.736 192.635 144.535C192.635 144.535 191.444 144.427 192.119 143.174L195.678 142.336Z" fill="white"/>
<path d="M169.25 160.631L173.004 165.217L174.264 164.241L170.667 159.554L169.25 160.631Z" fill="#263238"/>
<path d="M167.58 204.41L166.755 204.259L183.601 174.812L180.93 166.32C180.93 166.32 177.843 154.23 180.413 151.143C180.413 151.143 186.039 144.516 187.866 144.61C189.693 144.705 191.148 145.064 191.514 146.437C191.514 146.437 194.62 146.072 195.439 147.067C195.986 147.756 196.475 148.489 196.9 149.26C196.9 149.26 200.277 148.982 201.191 151.906C201.191 151.906 204.385 153.55 204.662 155.919C204.939 158.287 204.032 169.338 203.017 172.166C202.003 174.995 198.267 180.93 197.177 189.693C196.088 198.456 192.219 204.145 188.786 216.947L179.468 220.632L167.58 204.41Z" fill="#FFBE9D"/>
<path d="M191.356 146.248C191.426 146.343 190.266 147.111 189.391 148.529C188.515 149.946 188.307 151.307 188.187 151.288C188.199 150.24 188.499 149.215 189.055 148.326C189.61 147.437 190.4 146.718 191.337 146.248H191.356Z" fill="#EB996E"/>
<path d="M196.718 149.26C196.781 149.36 195.672 150.028 194.796 151.301C193.92 152.573 193.643 153.821 193.536 153.821C193.429 153.821 193.536 152.441 194.487 151.099C195.003 150.253 195.789 149.605 196.718 149.26Z" fill="#EB996E"/>
<path d="M201.014 151.83C201.083 151.918 200.246 152.655 199.477 153.764C198.708 154.873 198.292 155.912 198.185 155.875C198.281 155.022 198.62 154.215 199.162 153.55C199.598 152.808 200.242 152.21 201.014 151.83Z" fill="#EB996E"/>
<path d="M185.22 152.788C184.609 152.589 183.972 152.48 183.33 152.466C182.7 152.564 182.088 152.758 181.516 153.04C181.484 153.04 181.604 152.8 181.913 152.573C182.323 152.289 182.803 152.121 183.301 152.088C183.799 152.055 184.297 152.157 184.741 152.384C185.069 152.567 185.22 152.75 185.22 152.788Z" fill="#EB996E"/>
<path d="M191.911 156.99C191.529 156.371 191.06 155.811 190.518 155.326C189.567 154.583 188.534 154.539 188.546 154.425C188.559 154.312 188.805 154.318 189.227 154.369C189.781 154.454 190.305 154.677 190.751 155.017C191.196 155.357 191.55 155.803 191.778 156.315C191.942 156.712 191.955 156.977 191.911 156.99Z" fill="#EB996E"/>
<path d="M198.582 158.413C198.5 158.495 197.763 157.664 196.51 157.336C195.742 157.189 194.957 157.15 194.179 157.223C194.179 157.179 194.399 157.027 194.846 156.92C195.43 156.797 196.035 156.814 196.611 156.97C197.187 157.125 197.718 157.415 198.16 157.815C198.488 158.13 198.614 158.388 198.582 158.413Z" fill="#EB996E"/>
<path d="M28.6083 190.537C28.6083 190.537 18.27 249.178 18.7803 254.665C19.2906 260.152 22.0248 268.871 28.2303 270.364C32.1717 271.245 36.2589 271.245 40.2003 270.364L32.76 198.337L28.6083 190.537Z" fill="#0093DD"/>
<path d="M58.842 160.285C58.842 160.285 46.4814 169.105 43.722 171.656C32.2938 182.461 29.9061 186.883 28.602 190.556C27.2979 194.229 36.54 279.09 36.54 279.09L38.43 293.926L125.162 294.147V218.364L112.14 165.022L104.12 162.742L102.501 156.385C102.501 156.385 92.5407 149.026 76.1103 148.825C71.0703 148.756 63.9009 150.746 59.9067 153.865L58.842 160.285Z" fill="#0093DD"/>
<path d="M102.413 165.243C102.413 165.243 111.327 164.846 112.115 165.022C114.862 165.652 122.403 172.582 131.015 181.1C139.205 189.227 155.345 206.142 155.345 206.142C155.345 206.142 158.243 203.219 161.551 207.125L174.283 188.603C174.283 188.603 193.41 190.947 196.384 205.38C196.384 205.38 190.525 216.569 185.724 224.563C185.724 224.563 167.964 254.041 153.934 248.699C141.12 243.81 125.049 230.782 122.787 227.997L103.887 214.534C103.887 214.534 90.9594 189.888 96.6735 177.565L102.413 165.243Z" fill="#0093DD"/>
<path d="M104.095 162.742C103.941 162.728 103.788 162.696 103.641 162.647L102.381 162.307C101.266 162.023 99.6408 161.633 97.6122 161.248C92.3206 160.27 86.9748 159.612 81.6039 159.277C76.2361 158.895 70.8475 158.912 65.4822 159.327C63.4221 159.503 61.7715 159.762 60.6375 159.957L59.3334 160.215C59.184 160.258 59.0291 160.28 58.8735 160.278C59.0152 160.217 59.163 160.17 59.3145 160.14L60.606 159.812C62.2073 159.466 63.8269 159.212 65.457 159.05C70.8344 158.557 76.2431 158.504 81.6291 158.892C87.0108 159.224 92.3635 159.923 97.65 160.984C99.6786 161.406 101.298 161.834 102.413 162.168L103.673 162.578C103.819 162.616 103.961 162.671 104.095 162.742Z" fill="#263238"/>
<path d="M70.3143 158.332C70.2072 158.332 69.9237 156.895 69.6843 155.087C69.4449 153.279 69.3126 151.811 69.4197 151.792C69.7502 152.847 69.9615 153.935 70.0497 155.037C70.3017 156.87 70.4214 158.319 70.3143 158.332Z" fill="#263238"/>
<path d="M73.5525 158.054C72.6913 155.974 72.5321 153.669 73.0989 151.49C73.2123 151.49 73.0422 152.977 73.1682 154.785C73.2942 156.593 73.6596 158.023 73.5525 158.054Z" fill="#263238"/>
<g opacity="0.3">
<path d="M59.1255 160.215C72.6957 162.616 86.4549 160.215 100.819 161.935C86.9589 159.062 72.5067 157.702 59.1255 160.215Z" fill="black"/>
</g>
<g opacity="0.3">
<path d="M35.28 270.478C27.6444 252.592 28.5516 232.382 29.61 212.971L35.28 270.478Z" fill="black"/>
</g>
<path d="M28.6083 203.32C28.629 203.394 28.6417 203.47 28.6461 203.547C28.6461 203.717 28.6965 203.937 28.728 204.208C28.791 204.838 28.8855 205.676 28.9989 206.772C29.2194 209.021 29.5407 212.234 29.9313 216.222C30.7062 224.173 31.7646 235.166 33.0309 247.294C34.2972 259.421 35.5509 270.39 36.5715 278.315C37.0692 282.278 37.4976 285.484 37.8315 287.696C37.9764 288.786 38.0898 289.642 38.1654 290.247C38.2032 290.524 38.2284 290.745 38.2473 290.915C38.2541 290.99 38.2541 291.066 38.2473 291.142C38.2218 291.071 38.2048 290.997 38.1969 290.921L38.0772 290.26C37.9827 289.63 37.8441 288.805 37.674 287.74C37.3275 285.529 36.855 282.328 36.3195 278.372C35.2422 270.453 33.9318 259.472 32.6655 247.351C31.3992 235.229 30.3849 224.223 29.6793 216.266C29.3391 212.304 29.0493 209.084 28.8666 206.816C28.7847 205.72 28.7154 204.863 28.6713 204.252C28.6713 203.975 28.6713 203.755 28.6272 203.578C28.6103 203.493 28.604 203.406 28.6083 203.32Z" fill="#263238"/>
<path d="M87.3243 193.725C87.1409 193.753 86.9553 193.764 86.7699 193.756H85.1634C83.7774 193.756 81.7614 193.756 79.2792 193.826C74.3085 193.939 67.4478 194.305 59.9193 195.193C52.3908 196.081 45.6309 197.366 40.7736 198.45C38.3418 198.973 36.3636 199.426 35.0343 199.76L33.4719 200.126C33.2924 200.175 33.109 200.208 32.9238 200.227C33.0945 200.152 33.2716 200.093 33.453 200.05L34.9965 199.615C36.3384 199.237 38.2914 198.746 40.7169 198.185C53.3673 195.278 66.2935 193.738 79.2729 193.593C81.7929 193.593 83.7774 193.593 85.1697 193.643L86.7699 193.706C86.9549 193.697 87.1403 193.704 87.3243 193.725Z" fill="#263238"/>
<path d="M54.0225 212.713C53.9154 212.713 54.117 204.592 54.4635 194.582C54.81 184.571 55.188 176.45 55.2951 176.457C55.4022 176.463 55.2006 184.577 54.8478 194.594C54.495 204.611 54.1233 212.719 54.0225 212.713Z" fill="#263238"/>
<path d="M98.343 211.711C98.2252 211.548 98.1179 211.378 98.0217 211.201C97.7991 210.827 97.5093 210.33 97.1523 209.708L93.9519 204.208C92.3326 201.499 90.9882 198.635 89.9388 195.659C89.3571 193.881 88.9561 192.049 88.7418 190.191C88.5589 188.191 88.5589 186.18 88.7418 184.18C89.0078 180.306 89.977 176.513 91.602 172.985C92.3486 171.458 93.3003 170.04 94.4307 168.771C95.425 167.676 96.5656 166.724 97.8201 165.942C99.6269 164.78 101.695 164.087 103.837 163.926C104.616 163.861 105.401 163.905 106.168 164.058C105.395 164.017 104.621 164.017 103.849 164.058C101.748 164.27 99.7287 164.988 97.965 166.15C96.7419 166.934 95.6312 167.882 94.6638 168.966C93.5666 170.222 92.6447 171.62 91.9233 173.124C90.3325 176.618 89.3829 180.369 89.1198 184.199C88.9432 186.172 88.9432 188.156 89.1198 190.128C89.3284 191.961 89.7166 193.769 90.279 195.527C91.3087 198.488 92.6187 201.345 94.1913 204.057L97.2846 209.614L98.0973 211.144C98.1961 211.326 98.2784 211.515 98.343 211.711Z" fill="#263238"/>
<g opacity="0.3">
<path d="M34.3287 200.157C39.8097 199.873 45.2595 199.155 50.6268 198.009C49.9646 200.38 49.6567 202.837 49.7133 205.298C51.4153 203.381 52.6546 201.098 53.3358 198.626C53.5309 199.971 53.9959 201.263 54.7028 202.423C55.4098 203.584 56.3442 204.59 57.4497 205.38C57.9897 202.942 58.1133 200.431 57.8151 197.952C65.9253 196.978 73.9809 195.644 81.9819 193.952C65.7876 193.559 49.6246 195.57 34.02 199.918" fill="black"/>
</g>
<path d="M138.6 240.578C138.467 240.52 138.342 240.446 138.228 240.357L137.189 239.664C136.294 239.034 135.009 238.171 133.409 237.056C130.259 234.839 125.906 231.72 121.174 228.192C116.443 224.664 112.216 221.388 109.204 218.988C107.692 217.791 106.47 216.808 105.632 216.121L104.675 215.328C104.557 215.241 104.449 215.141 104.353 215.031C104.482 215.103 104.604 215.185 104.719 215.277L105.714 216.021L109.349 218.805C112.417 221.161 116.663 224.4 121.395 227.928C126.126 231.456 130.41 234.599 133.56 236.88L137.264 239.576L138.266 240.313C138.384 240.392 138.496 240.481 138.6 240.578Z" fill="#263238"/>
<path d="M159.762 221.25C159.705 221.25 159.762 220.292 159.629 218.774C159.344 214.794 158.145 210.933 156.127 207.49C155.352 206.174 154.785 205.411 154.829 205.374C154.999 205.521 155.15 205.691 155.276 205.878C155.65 206.357 155.999 206.855 156.322 207.371C158.481 210.791 159.702 214.719 159.863 218.761C159.896 219.368 159.896 219.975 159.863 220.582C159.859 220.808 159.825 221.032 159.762 221.25Z" fill="#263238"/>
<path d="M163.668 219.82C163.686 219.17 163.738 218.523 163.825 217.879C163.943 216.326 163.913 214.765 163.737 213.217C163.558 211.669 163.231 210.142 162.761 208.656C162.401 207.509 162.131 206.823 162.168 206.797C162.277 206.937 162.364 207.092 162.427 207.257C162.635 207.688 162.82 208.13 162.981 208.58C164.064 211.561 164.431 214.755 164.052 217.904C163.976 218.503 163.895 218.988 163.819 219.316C163.792 219.49 163.741 219.659 163.668 219.82Z" fill="#263238"/>
<path d="M193.253 211.712C193.253 211.712 193.253 211.592 193.108 211.472C192.999 211.404 192.91 211.308 192.849 211.195C192.78 211.063 192.73 210.905 192.641 210.754C192.471 210.433 192.049 210.193 191.747 209.727C191.42 209.21 191.165 208.65 190.991 208.064C190.561 206.567 189.822 205.176 188.824 203.981C188.224 203.287 187.574 202.638 186.877 202.041C186.137 201.387 185.352 200.787 184.527 200.246C183.728 199.663 182.886 199.143 182.007 198.689L179.487 197.467C178.693 197.089 177.95 196.699 177.225 196.39L175.209 195.527C174.91 195.412 174.617 195.28 174.334 195.13C174.063 194.972 173.842 194.796 173.615 194.67L172.985 194.324C172.784 194.216 172.614 194.072 172.463 193.977C172.154 193.782 171.883 193.675 171.707 193.58C171.53 193.486 171.442 193.435 171.448 193.423C171.546 193.445 171.642 193.479 171.732 193.523C172.007 193.619 172.274 193.735 172.532 193.87C172.914 194.11 173.314 194.321 173.729 194.5C173.975 194.62 174.208 194.796 174.46 194.935C174.712 195.073 175.027 195.174 175.329 195.306L177.358 196.125C178.082 196.421 178.838 196.812 179.645 197.184L182.165 198.387C183.055 198.844 183.908 199.371 184.716 199.962C185.556 200.509 186.352 201.12 187.097 201.789C187.804 202.398 188.461 203.061 189.063 203.774C190.074 205.003 190.809 206.437 191.218 207.976C191.376 208.549 191.606 209.099 191.904 209.614C192.169 210.055 192.578 210.313 192.755 210.678C192.849 210.855 192.887 211.019 192.944 211.138C192.995 211.245 193.068 211.339 193.158 211.415C193.316 211.579 193.259 211.724 193.253 211.712Z" fill="#263238"/>
<path d="M112.43 292.685C112.342 292.685 112.266 276.746 112.266 257.084C112.266 237.422 112.342 221.483 112.43 221.483C112.518 221.483 112.594 237.422 112.594 257.084C112.594 276.746 112.524 292.685 112.43 292.685Z" fill="#263238"/>
</svg>
