<svg width="119" height="38" viewBox="0 0 119 38" fill="none" xmlns="http://www.w3.org/2000/svg">
<path fill-rule="evenodd" clip-rule="evenodd" d="M73.8218 29.3593C66.9323 34.5818 56.9112 37.3642 48.2681 37.3642C36.1593 37.3642 25.3032 32.7839 17.0358 25.1642C16.4095 24.5649 16.9523 23.7516 17.7456 24.2225C26.6393 29.5306 37.6207 32.6983 48.9779 32.6983C56.6189 32.6983 65.0533 31.0716 72.8197 27.6898C73.9888 27.219 74.9491 28.5032 73.8218 29.3593Z" fill="white"/>
<path fill-rule="evenodd" clip-rule="evenodd" d="M76.7028 25.9775C75.826 24.8217 70.8572 25.421 68.6442 25.7207C67.9761 25.8063 67.8509 25.207 68.4772 24.7789C72.4439 21.9109 78.9158 22.767 79.6674 23.7088C80.4189 24.6505 79.4586 31.3284 75.7425 34.4961C75.1579 34.967 74.6151 34.7102 74.8656 34.0681C75.7007 31.9277 77.5797 27.1761 76.7028 25.9775Z" fill="white"/>
<path fill-rule="evenodd" clip-rule="evenodd" d="M68.7695 4.65966V1.8772C68.7695 1.44913 69.0618 1.19229 69.4375 1.19229H81.5463C81.9221 1.19229 82.2561 1.49194 82.2561 1.8772V4.23159C82.2561 4.61685 81.9221 5.13054 81.3375 5.98668L75.0744 15.1474C77.4126 15.1046 79.8761 15.447 81.9639 16.6456C82.4231 16.9025 82.5484 17.3305 82.5902 17.7158V20.6695C82.5902 21.0976 82.1726 21.5684 81.7133 21.3116C77.9972 19.2997 73.0284 19.0856 68.9365 21.3544C68.519 21.5684 68.0596 21.1404 68.0596 20.7123V17.887C68.0596 17.459 68.0597 16.6884 68.519 16.0035L75.7842 5.34457H69.4793C69.1035 5.34457 68.7695 5.04492 68.7695 4.65966ZM24.6351 21.9109H20.9607C20.6267 21.8681 20.3344 21.6112 20.2926 21.2688V1.92001C20.2926 1.53475 20.6267 1.2351 21.0025 1.2351H24.4263C24.8021 1.2351 25.0526 1.53475 25.0944 1.8772V4.40282H25.1779C26.0547 1.96282 27.7667 0.807029 30.0214 0.807029C32.3179 0.807029 33.7793 1.96282 34.7814 4.40282C35.6582 1.96282 37.7042 0.807029 39.8754 0.807029C41.4203 0.807029 43.0905 1.44913 44.1344 2.94738C45.3035 4.57405 45.053 6.92844 45.053 9.02598V21.2688C45.053 21.654 44.719 21.9537 44.3432 21.9537H40.7105C40.3347 21.9109 40.0425 21.6112 40.0425 21.2688V10.9951C40.0425 10.1818 40.126 8.12702 39.959 7.3565C39.6667 6.07229 38.8733 5.68703 37.7877 5.68703C36.9109 5.68703 35.9505 6.28633 35.5747 7.27089C35.1989 8.25545 35.2407 9.88211 35.2407 10.9951V21.2688C35.2407 21.654 34.9067 21.9537 34.5309 21.9537H30.8565C30.4807 21.9109 30.1884 21.6112 30.1884 21.2688V10.9951C30.1884 8.85474 30.5225 5.64422 27.9337 5.64422C25.3032 5.64422 25.3867 8.72632 25.3867 10.9951V21.2688C25.3449 21.6112 25.0526 21.9109 24.6351 21.9109ZM92.6947 0.807029C98.1646 0.807029 101.129 5.60141 101.129 11.7228C101.129 17.6302 97.8723 22.339 92.6947 22.339C87.3502 22.339 84.4274 17.5446 84.4274 11.5516C84.3856 5.5158 87.3502 0.807029 92.6947 0.807029ZM92.6947 4.78808C89.9807 4.78808 89.8137 8.59791 89.8137 10.9523C89.8137 13.3067 89.7719 18.3579 92.653 18.3579C95.4923 18.3579 95.6593 14.2912 95.6593 11.8084C95.6593 10.1818 95.5758 8.21265 95.1165 6.6716C94.6989 5.30177 93.8639 4.78808 92.6947 4.78808ZM108.186 21.9109H104.511C104.135 21.8681 103.843 21.5684 103.843 21.226V1.83439C103.885 1.49194 104.177 1.19229 104.553 1.19229H107.977C108.311 1.19229 108.561 1.44914 108.645 1.74879V4.70247H108.728C109.772 2.04843 111.192 0.807029 113.739 0.807029C115.367 0.807029 116.996 1.40632 118.04 3.0758C119 4.61685 119 7.22808 119 9.11159V21.3116C118.958 21.654 118.666 21.9109 118.29 21.9109H114.616C114.282 21.8681 113.989 21.6112 113.948 21.3116V10.7811C113.948 8.64071 114.198 5.55861 111.651 5.55861C110.774 5.55861 109.939 6.15791 109.522 7.09967C109.021 8.29826 108.937 9.45404 108.937 10.7811V21.226C108.895 21.6112 108.561 21.9109 108.186 21.9109ZM59.1242 12.6646C59.1242 14.12 59.166 15.3614 58.4561 16.6884C57.8716 17.7586 56.953 18.4007 55.9091 18.4007C54.4895 18.4007 53.6544 17.2877 53.6544 15.6611C53.6544 12.4505 56.4519 11.8512 59.1242 11.8512V12.6646ZM62.8404 21.8681C62.5898 22.0821 62.2558 22.1249 61.9635 21.9537C60.7526 20.9263 60.5021 20.4126 59.834 19.4281C57.8298 21.5256 56.3684 22.1677 53.7796 22.1677C50.6898 22.1677 48.2681 20.1986 48.2681 16.3032C48.2681 13.2211 49.8965 11.1663 52.193 10.139C54.1972 9.24001 56.9947 9.06879 59.1242 8.81195V8.34107C59.1242 7.44212 59.2077 6.37195 58.6649 5.60142C58.2056 4.91651 57.3705 4.61685 56.6189 4.61685C55.1993 4.61685 53.9467 5.34458 53.6544 6.88563C53.5709 7.22809 53.3621 7.57053 53.0281 7.57053L49.4789 7.18527C49.1867 7.09966 48.8526 6.88563 48.9361 6.41475C49.7712 1.96282 53.6544 0.635803 57.1618 0.635803C58.9572 0.635803 61.2954 1.10668 62.7151 2.51931C64.5105 4.23159 64.3435 6.54317 64.3435 9.02598V14.8905C64.3435 16.6456 65.0533 17.4162 65.7214 18.4007C65.9719 18.7432 66.0137 19.1712 65.7214 19.3853C64.9281 20.0274 63.5919 21.226 62.8404 21.8681ZM10.8979 12.6646C10.8979 14.12 10.9396 15.3614 10.2298 16.6884C9.64526 17.7586 8.72666 18.4007 7.6828 18.4007C6.26316 18.4007 5.42807 17.2877 5.42807 15.6611C5.42807 12.4505 8.22562 11.8512 10.8979 11.8512V12.6646ZM14.5723 21.8681C14.3218 22.0821 13.9877 22.1249 13.6954 21.9537C12.4846 20.9263 12.234 20.4126 11.566 19.4281C9.56175 21.5256 8.10035 22.1677 5.51158 22.1677C2.42175 22.1677 0 20.1986 0 16.3032C0 13.2211 1.62842 11.1663 3.92491 10.139C5.92912 9.24001 8.72667 9.06879 10.8561 8.81195V8.34107C10.8561 7.44212 10.9396 6.37195 10.3968 5.60142C9.93754 4.91651 9.10246 4.61685 8.35088 4.61685C6.93123 4.61685 5.67859 5.34458 5.38631 6.88563C5.3028 7.22809 5.09403 7.57053 4.76 7.57053L1.21087 7.18527C0.918594 7.09966 0.584564 6.88563 0.668073 6.41475C1.50316 1.96282 5.38632 0.635803 8.89369 0.635803C10.6891 0.635803 13.0274 1.10668 14.447 2.51931C16.2425 4.23159 16.0754 6.54317 16.0754 9.02598V14.8905C16.0754 16.6456 16.7853 17.4162 17.4533 18.4007C17.7039 18.7432 17.7456 19.1712 17.4533 19.3853C16.66 20.0274 15.3239 21.226 14.5723 21.8681Z" fill="white"/>
</svg>
