<svg width="705" height="762" viewBox="0 0 705 762" fill="none" xmlns="http://www.w3.org/2000/svg">
<path d="M654.54 481.889H404.772V337.353H654.54V481.889ZM406.296 480.365H653.016V338.877H406.296V480.365Z" fill="#E0E0E0"/>
<path d="M603.014 414.421H438.224V419.252H603.014V414.421Z" fill="#F0F0F0"/>
<path d="M614.368 432.435H438.224V437.708H614.368V432.435Z" fill="#F0F0F0"/>
<path d="M614.368 450.662H438.224V455.935H614.368V450.662Z" fill="#F0F0F0"/>
<path d="M495.816 388.254H438.224V400.797H495.816V388.254Z" fill="#F0F0F0"/>
<path d="M653.778 338.115H405.58V361.127H653.778V338.115Z" fill="#E0E0E0"/>
<path d="M634.683 357.683C634.363 357.378 637.563 353.522 641.815 349.072C646.067 344.622 649.801 341.254 650.106 341.544C650.41 341.833 647.225 345.704 642.973 350.169C638.721 354.635 634.988 357.988 634.683 357.683Z" fill="white"/>
<path d="M650.136 357.683C649.831 357.988 646.113 354.635 641.846 350.17C637.578 345.704 634.393 341.848 634.713 341.544C635.033 341.239 638.737 344.592 643.004 349.072C647.271 353.553 650.426 357.378 650.136 357.683Z" fill="white"/>
<path d="M347.195 51.8922H98.9968V194.92H347.195V51.8922Z" fill="#E6E6E6"/>
<path d="M296.446 128.214H131.656V133.045H296.446V128.214Z" fill="#F0F0F0"/>
<path d="M307.8 146.228H131.656V151.501H307.8V146.228Z" fill="#F0F0F0"/>
<path d="M307.8 164.455H131.656V169.728H307.8V164.455Z" fill="#F0F0F0"/>
<path d="M189.248 102.047H131.656V114.59H189.248V102.047Z" fill="#F0F0F0"/>
<path d="M347.195 51.8922H98.9968V74.9046H347.195V51.8922Z" fill="#E0E0E0"/>
<path d="M327.261 71.3537C326.941 71.0641 330.142 67.1932 334.394 62.7431C338.646 58.293 342.379 54.925 342.684 55.2298C342.989 55.5346 339.804 59.3903 335.552 63.8404C331.3 68.2904 327.566 71.628 327.261 71.3537Z" fill="white"/>
<path d="M342.684 71.3537C342.38 71.6585 338.661 68.3057 334.394 63.8404C330.127 59.375 326.941 55.5346 327.261 55.2298C327.581 54.925 331.285 58.2778 335.552 62.7431C339.819 67.2084 343.004 71.0641 342.684 71.3537Z" fill="white"/>
<path d="M253.195 317.586H3.47241V173.035H253.195V317.586ZM4.99641 316.062H251.671V174.559H4.99641V316.062Z" fill="#E0E0E0"/>
<path d="M201.684 250.119H36.8938V254.95H201.684V250.119Z" fill="#F0F0F0"/>
<path d="M213.038 268.133H36.8938V273.406H213.038V268.133Z" fill="#F0F0F0"/>
<path d="M213.038 286.36H36.8938V291.633H213.038V286.36Z" fill="#F0F0F0"/>
<path d="M94.4858 223.952H36.8938V236.494H94.4858V223.952Z" fill="#F0F0F0"/>
<path d="M252.433 173.797H4.23438V196.809H252.433V173.797Z" fill="#E0E0E0"/>
<path d="M541.399 350.703H248.333V613.075H541.399V350.703Z" fill="#E6E6E6"/>
<path d="M263.07 268.056H33.4951V506.578H263.07V268.056Z" fill="#F0F0F0"/>
<path d="M263.07 268.056H33.4951V294.041H263.07V268.056Z" fill="#E0E0E0"/>
<path d="M52.4539 280.782C52.4121 281.724 52.0945 282.633 51.5406 283.397C50.9866 284.16 50.2208 284.744 49.3379 285.076C48.4551 285.408 47.4942 285.473 46.5745 285.264C45.6548 285.055 44.8168 284.58 44.1645 283.899C43.5121 283.218 43.0742 282.36 42.905 281.432C42.7358 280.504 42.8429 279.547 43.2128 278.68C43.5827 277.812 44.1993 277.072 44.986 276.552C45.7727 276.031 46.6948 275.753 47.638 275.753C48.9423 275.785 50.181 276.331 51.0833 277.274C51.9857 278.216 52.4784 279.477 52.4539 280.782Z" fill="white"/>
<path d="M72.0067 280.782C71.9679 281.728 71.6515 282.643 71.0969 283.411C70.5423 284.179 69.774 284.768 68.8877 285.103C68.0013 285.438 67.0361 285.505 66.112 285.295C65.1879 285.086 64.3458 284.609 63.6904 283.925C63.0351 283.241 62.5955 282.379 62.4263 281.446C62.2571 280.514 62.3658 279.552 62.7389 278.681C63.1119 277.81 63.7329 277.068 64.5245 276.548C65.3161 276.027 66.2434 275.75 67.1909 275.753C68.4952 275.785 69.7338 276.331 70.6362 277.274C71.5386 278.216 72.0313 279.477 72.0067 280.782Z" fill="white"/>
<path d="M91.5597 280.782C91.5209 281.728 91.2044 282.643 90.6499 283.411C90.0953 284.179 89.327 284.768 88.4407 285.103C87.5543 285.438 86.589 285.505 85.6649 285.295C84.7408 285.086 83.8987 284.609 83.2434 283.925C82.5881 283.241 82.1484 282.379 81.9793 281.446C81.8101 280.514 81.9188 279.552 82.2918 278.681C82.6649 277.81 83.2859 277.068 84.0775 276.548C84.8691 276.027 85.7963 275.75 86.7439 275.753C88.0482 275.785 89.2868 276.331 90.1892 277.274C91.0915 278.216 91.5843 279.477 91.5597 280.782Z" fill="white"/>
<path d="M621.759 104.059H328.694V396.149H621.759V104.059Z" fill="#F0F0F0"/>
<path d="M621.759 104.059H328.694V138.273H621.759V104.059Z" fill="#E0E0E0"/>
<path d="M353.657 120.823C353.603 122.067 353.185 123.267 352.455 124.276C351.725 125.284 350.715 126.056 349.55 126.495C348.385 126.934 347.117 127.021 345.903 126.746C344.688 126.471 343.582 125.845 342.72 124.946C341.859 124.047 341.28 122.915 341.056 121.691C340.833 120.466 340.973 119.203 341.461 118.057C341.95 116.912 342.763 115.935 343.802 115.248C344.84 114.561 346.057 114.194 347.302 114.193C349.023 114.233 350.657 114.953 351.848 116.196C353.04 117.438 353.69 119.102 353.657 120.823Z" fill="white"/>
<path d="M377.538 116.342C378.383 117.26 378.939 118.405 379.138 119.637C379.336 120.868 379.167 122.131 378.653 123.267C378.139 124.403 377.302 125.363 376.246 126.027C375.19 126.691 373.962 127.029 372.715 127C371.468 126.971 370.257 126.576 369.234 125.864C368.21 125.151 367.418 124.153 366.958 122.994C366.497 121.835 366.388 120.566 366.643 119.345C366.899 118.125 367.508 117.006 368.394 116.129C369.636 114.947 371.296 114.306 373.01 114.346C374.724 114.386 376.353 115.104 377.538 116.342Z" fill="white"/>
<path d="M405.138 120.823C405.084 122.067 404.666 123.267 403.936 124.276C403.206 125.284 402.196 126.056 401.031 126.495C399.866 126.934 398.597 127.021 397.383 126.746C396.169 126.471 395.063 125.845 394.201 124.946C393.34 124.047 392.761 122.915 392.537 121.691C392.313 120.466 392.454 119.203 392.942 118.057C393.43 116.912 394.244 115.935 395.282 115.248C396.321 114.561 397.538 114.194 398.783 114.193C400.503 114.233 402.138 114.953 403.329 116.196C404.52 117.438 405.171 119.102 405.138 120.823Z" fill="white"/>
<path d="M558.452 690.57C558.452 690.783 452.626 690.966 322.126 690.966C191.625 690.966 85.7532 690.783 85.7532 690.57C85.7532 690.357 191.565 690.174 322.126 690.174C452.687 690.174 558.452 690.372 558.452 690.57Z" fill="#263238"/>
<path d="M509.227 90.9523L501.378 93.7565L498.01 83.5C491.823 64.5871 472.102 54.544 453.982 60.9295C435.862 67.3151 426.215 88.0567 432.402 106.97L435.77 117.226L427.891 120.045C424.887 121.211 422.447 123.489 421.079 126.407C419.711 129.325 419.52 132.657 420.546 135.712L442.384 202.448C442.838 203.96 443.59 205.366 444.598 206.582C445.605 207.798 446.847 208.798 448.248 209.525C449.65 210.251 451.183 210.689 452.757 210.811C454.332 210.933 455.914 210.737 457.411 210.236L538.747 181.143C541.791 179.979 544.265 177.681 545.65 174.731C547.034 171.78 547.22 168.408 546.169 165.324L524.315 98.5876C523.85 97.0795 523.085 95.6806 522.068 94.4743C521.05 93.268 519.8 92.279 518.392 91.5664C516.984 90.8538 515.447 90.4322 513.872 90.3267C512.297 90.2212 510.718 90.4339 509.227 90.9523ZM447.231 101.62C445.562 96.7027 445.862 91.3302 448.066 86.6285C450.271 81.9268 454.21 78.2606 459.057 76.3981C461.451 75.5792 463.985 75.2508 466.508 75.4325C469.031 75.6142 471.492 76.3024 473.744 77.4559C475.995 78.6094 477.991 80.2046 479.613 82.1464C481.234 84.0881 482.448 86.3366 483.182 88.7578L486.535 99.0143L450.584 111.877L447.231 101.62ZM492.951 160.843L498.529 177.881C498.631 178.223 498.598 178.591 498.436 178.909C498.274 179.227 497.996 179.47 497.66 179.588L489.842 182.377C489.531 182.463 489.198 182.426 488.914 182.272C488.63 182.119 488.416 181.862 488.318 181.554L482.694 164.592C479.593 164.423 476.618 163.311 474.167 161.404C471.716 159.498 469.905 156.888 468.978 153.924C467.653 150.006 467.895 145.727 469.653 141.982C471.411 138.238 474.55 135.32 478.412 133.838C480.319 133.186 482.337 132.925 484.347 133.07C486.356 133.216 488.316 133.764 490.11 134.683C491.903 135.601 493.493 136.872 494.785 138.418C496.077 139.964 497.044 141.755 497.629 143.683C498.61 146.693 498.691 149.925 497.863 152.981C497.034 156.037 495.333 158.785 492.966 160.889L492.951 160.843Z" fill="#0093DD"/>
<path d="M501.028 93.5736C501.028 93.787 486.474 99.2581 468.369 105.766C450.264 112.273 435.496 117.5 435.42 117.348C435.344 117.196 449.974 111.679 468.094 105.156C486.215 98.6333 500.952 93.3755 501.028 93.5736Z" fill="#263238"/>
<path d="M518.31 96.3778C518.377 96.51 518.433 96.6476 518.478 96.7892C518.6 97.094 518.737 97.4903 518.92 97.978C519.316 99.0905 519.865 100.63 520.55 102.55L526.403 119.588C528.841 126.812 531.752 135.377 534.983 144.887C536.507 149.657 538.305 154.625 539.981 159.852C540.879 162.546 541.266 165.383 541.124 168.219C540.995 169.694 540.576 171.129 539.89 172.441C539.158 173.748 538.18 174.902 537.01 175.839C534.655 177.558 532.042 178.89 529.268 179.786L521.419 182.606L506.56 187.924L481.399 196.886L464.406 202.86L459.834 204.384L458.615 204.78C458.485 204.838 458.346 204.874 458.204 204.887C458.204 204.887 458.326 204.887 458.585 204.704L459.773 204.231L464.345 202.509L481.246 196.291L506.362 187.147L521.191 181.783L529.039 178.948C531.734 178.088 534.272 176.797 536.552 175.123C537.641 174.253 538.552 173.182 539.235 171.968C539.88 170.755 540.269 169.422 540.378 168.051C540.518 165.319 540.146 162.585 539.28 159.99C537.635 154.808 535.897 149.794 534.327 145.024C531.158 135.499 528.231 126.903 525.915 119.68C523.598 112.456 521.648 106.65 520.307 102.565C519.667 100.569 519.179 99.0143 518.783 97.8865L518.417 96.6673C518.371 96.575 518.335 96.4779 518.31 96.3778Z" fill="#263238"/>
<path d="M475.394 75.3618C475.394 75.3618 474.587 74.9656 473.093 74.356C470.964 73.538 468.713 73.0846 466.433 73.0148C463.054 72.899 459.692 73.534 456.588 74.8741C452.814 76.5428 449.586 79.242 447.276 82.6618C444.951 86.0717 443.703 90.1015 443.695 94.2289C443.727 97.6118 444.24 100.973 445.219 104.211C446.012 106.985 446.834 109.195 447.383 110.734C447.707 111.516 447.972 112.321 448.176 113.142C447.743 112.411 447.38 111.64 447.094 110.841C446.469 109.317 445.57 107.152 444.686 104.364C443.601 101.091 443.01 97.6755 442.933 94.2289C442.892 89.9456 444.169 85.7533 446.591 82.2198C448.981 78.6751 452.34 75.8925 456.268 74.2036C459.469 72.8561 462.936 72.2617 466.403 72.4662C468.732 72.5849 471.019 73.1271 473.154 74.0664C473.725 74.3297 474.275 74.6353 474.8 74.9808C475.017 75.076 475.217 75.2046 475.394 75.3618Z" fill="#263238"/>
<path d="M476.095 134.996C476.339 134.849 476.593 134.721 476.857 134.615C477.62 134.271 478.41 133.99 479.22 133.777C480.504 133.398 481.829 133.172 483.167 133.106C484.986 133.008 486.806 133.283 488.516 133.914C492.417 135.285 495.999 139.263 497.767 144.582C498.614 147.436 498.614 150.475 497.767 153.33C496.827 156.428 495.142 159.248 492.859 161.544L492.951 161.133C494.978 166.695 497.187 172.73 499.473 179.024L499.611 179.405L499.23 179.542L495.74 180.701L488.12 183.246L487.739 183.368L487.617 182.987C485.529 176.677 483.243 170.795 481.521 165.019L481.856 165.278C478.877 165.03 476.036 163.912 473.687 162.062C471.563 160.426 469.82 158.345 468.582 155.966C467.465 153.856 466.908 151.495 466.967 149.108C467.037 146.669 467.646 144.275 468.75 142.099C469.854 139.923 471.426 138.018 473.352 136.52C474.145 135.876 475.035 135.362 475.989 134.996C475.128 135.507 474.294 136.061 473.489 136.657C471.373 138.448 469.752 140.751 468.78 143.347C467.946 145.305 467.556 147.423 467.638 149.55C467.72 151.676 468.271 153.758 469.253 155.646C470.47 157.935 472.17 159.932 474.236 161.498C476.476 163.257 479.185 164.317 482.024 164.546H482.283L482.359 164.775C484.035 170.444 486.337 176.373 488.455 182.712L487.952 182.469L495.572 179.923L499.047 178.75L498.803 179.268C496.532 172.974 494.338 166.924 492.326 161.361V161.133L492.509 160.95C494.724 158.749 496.376 156.046 497.325 153.071C498.133 150.34 498.133 147.434 497.325 144.704C495.663 139.583 492.234 135.697 488.516 134.325C486.87 133.691 485.113 133.395 483.35 133.457C482.033 133.487 480.724 133.666 479.448 133.99C477.177 134.554 476.111 135.072 476.095 134.996Z" fill="#263238"/>
<path d="M428.988 575.036L276.756 574.335C267.965 574.286 259.552 570.751 253.366 564.504C247.179 558.258 243.725 549.811 243.762 541.02L245.377 159.395C245.395 155.04 246.271 150.73 247.955 146.714C249.64 142.697 252.099 139.052 255.193 135.986C258.287 132.92 261.955 130.494 265.987 128.847C270.019 127.2 274.336 126.363 278.692 126.385L430.909 127.086C439.7 127.131 448.114 130.663 454.304 136.906C460.493 143.15 463.951 151.594 463.919 160.386L462.303 541.995C462.285 546.352 461.409 550.663 459.725 554.681C458.041 558.7 455.582 562.347 452.489 565.415C449.395 568.483 445.728 570.912 441.695 572.563C437.663 574.213 433.345 575.054 428.988 575.036Z" fill="#455A64"/>
<path d="M430.68 140.208H401.175C400.213 140.226 399.263 140.433 398.38 140.818C397.498 141.203 396.7 141.758 396.032 142.452C395.364 143.145 394.839 143.963 394.487 144.86C394.136 145.756 393.964 146.713 393.982 147.676V153.025C394 153.987 393.828 154.943 393.477 155.838C393.125 156.734 392.6 157.551 391.931 158.243C391.263 158.936 390.465 159.489 389.583 159.873C388.7 160.256 387.751 160.461 386.789 160.477L329.273 160.218C327.327 160.166 325.482 159.344 324.142 157.933C322.801 156.521 322.076 154.635 322.125 152.69V147.34C322.175 145.397 321.452 143.514 320.115 142.102C318.778 140.691 316.936 139.868 314.993 139.812H304.615L278.783 139.69C272.639 139.653 266.73 142.053 262.352 146.363C257.973 150.673 255.48 156.543 255.42 162.687L253.896 535.183C253.882 538.231 254.468 541.252 255.622 544.074C256.775 546.895 258.473 549.462 260.619 551.627C262.764 553.792 265.315 555.513 268.126 556.693C270.936 557.872 273.952 558.486 277 558.5L428.912 559.201C431.962 559.215 434.985 558.629 437.808 557.474C440.632 556.32 443.2 554.621 445.367 552.474C447.533 550.327 449.256 547.775 450.436 544.962C451.616 542.15 452.231 539.132 452.245 536.082L453.769 163.586C453.805 157.425 451.394 151.501 447.064 147.117C442.734 142.734 436.841 140.248 430.68 140.208Z" fill="white"/>
<path d="M410.243 509.504L297.284 509.016C296.111 509.016 295.166 507.736 295.181 506.181L295.303 476.631C295.303 475.107 296.263 473.796 297.437 473.796L410.396 474.315C411.046 474.427 411.628 474.786 412.02 475.317C412.411 475.848 412.583 476.51 412.499 477.164L412.392 506.684C412.392 508.254 411.417 509.519 410.243 509.504Z" fill="#0093DD"/>
<path d="M330.444 490.625C330.021 490.625 329.614 490.557 329.224 490.422C328.839 490.281 328.541 490.102 328.329 489.885L328.565 489.422C328.766 489.617 329.034 489.782 329.37 489.918C329.712 490.048 330.07 490.113 330.444 490.113C330.801 490.113 331.091 490.069 331.314 489.983C331.541 489.89 331.707 489.768 331.81 489.617C331.918 489.465 331.972 489.297 331.972 489.113C331.972 488.89 331.907 488.711 331.777 488.576C331.652 488.44 331.487 488.335 331.281 488.259C331.075 488.177 330.847 488.107 330.598 488.047C330.349 487.988 330.099 487.925 329.85 487.86C329.601 487.79 329.37 487.698 329.159 487.584C328.953 487.47 328.785 487.321 328.655 487.137C328.53 486.947 328.468 486.7 328.468 486.397C328.468 486.115 328.541 485.857 328.687 485.624C328.839 485.386 329.069 485.196 329.378 485.055C329.687 484.909 330.083 484.835 330.566 484.835C330.885 484.835 331.202 484.882 331.517 484.974C331.831 485.06 332.102 485.182 332.33 485.34L332.127 485.819C331.883 485.657 331.623 485.537 331.346 485.462C331.075 485.386 330.812 485.348 330.557 485.348C330.216 485.348 329.934 485.394 329.712 485.486C329.489 485.578 329.324 485.703 329.216 485.86C329.113 486.012 329.061 486.185 329.061 486.38C329.061 486.603 329.124 486.782 329.248 486.917C329.378 487.053 329.546 487.158 329.752 487.234C329.964 487.31 330.194 487.378 330.444 487.437C330.693 487.497 330.94 487.562 331.184 487.633C331.433 487.703 331.661 487.795 331.867 487.909C332.078 488.018 332.246 488.164 332.371 488.348C332.501 488.533 332.566 488.774 332.566 489.072C332.566 489.348 332.49 489.606 332.338 489.844C332.186 490.077 331.953 490.267 331.639 490.414C331.33 490.554 330.931 490.625 330.444 490.625ZM333.877 490.576V484.884H334.479V490.576H333.877ZM336.331 490.576V484.884H336.827L340.754 489.828H340.494V484.884H341.087V490.576H340.591L336.672 485.632H336.932V490.576H336.331ZM345.441 490.625C345.008 490.625 344.607 490.554 344.238 490.414C343.875 490.267 343.558 490.064 343.287 489.804C343.021 489.543 342.812 489.237 342.661 488.885C342.514 488.533 342.441 488.148 342.441 487.73C342.441 487.313 342.514 486.928 342.661 486.576C342.812 486.223 343.024 485.917 343.295 485.657C343.566 485.397 343.883 485.196 344.246 485.055C344.615 484.909 345.016 484.835 345.45 484.835C345.883 484.835 346.279 484.903 346.637 485.039C347 485.174 347.309 485.38 347.564 485.657L347.19 486.039C346.951 485.8 346.688 485.63 346.401 485.527C346.114 485.424 345.805 485.372 345.474 485.372C345.122 485.372 344.796 485.432 344.498 485.551C344.206 485.665 343.948 485.83 343.726 486.047C343.509 486.258 343.338 486.508 343.214 486.795C343.094 487.077 343.035 487.389 343.035 487.73C343.035 488.066 343.094 488.378 343.214 488.665C343.338 488.953 343.509 489.205 343.726 489.422C343.948 489.633 344.206 489.798 344.498 489.918C344.796 490.031 345.119 490.088 345.466 490.088C345.791 490.088 346.097 490.04 346.385 489.942C346.677 489.844 346.946 489.679 347.19 489.446L347.531 489.901C347.26 490.14 346.943 490.321 346.58 490.446C346.217 490.565 345.837 490.625 345.441 490.625ZM346.954 489.828V487.73H347.531V489.901L346.954 489.828ZM353.655 490.625C352.929 490.625 352.357 490.416 351.94 489.999C351.522 489.581 351.314 488.963 351.314 488.145V484.884H351.915V488.121C351.915 488.793 352.067 489.289 352.371 489.609C352.674 489.928 353.102 490.088 353.655 490.088C354.214 490.088 354.645 489.928 354.948 489.609C355.252 489.289 355.404 488.793 355.404 488.121V484.884H355.989V488.145C355.989 488.963 355.78 489.581 355.363 489.999C354.951 490.416 354.382 490.625 353.655 490.625ZM357.802 490.576V484.884H359.933C360.415 484.884 360.83 484.963 361.177 485.12C361.524 485.272 361.789 485.494 361.974 485.787C362.163 486.074 362.258 486.424 362.258 486.836C362.258 487.237 362.163 487.584 361.974 487.877C361.789 488.164 361.524 488.386 361.177 488.543C360.83 488.701 360.415 488.779 359.933 488.779H358.136L358.404 488.495V490.576H357.802ZM358.404 488.543L358.136 488.251H359.916C360.486 488.251 360.917 488.129 361.209 487.885C361.507 487.635 361.656 487.286 361.656 486.836C361.656 486.38 361.507 486.028 361.209 485.779C360.917 485.529 360.486 485.405 359.916 485.405H358.136L358.404 485.12V488.543Z" fill="#E8E8E3"/>
<path d="M319.815 249.708L280.618 249.53L280.586 256.723L319.783 256.901L319.815 249.708Z" fill="#0093DD"/>
<path opacity="0.1" d="M319.815 249.708L280.618 249.53L280.586 256.723L319.783 256.901L319.815 249.708Z" fill="black"/>
<path d="M434.719 293.873C435.027 293.842 435.329 293.77 435.618 293.66C436.04 293.495 436.406 293.214 436.676 292.85C436.946 292.486 437.107 292.054 437.142 291.602C437.142 289.179 437.142 285.643 437.142 281.102C437.142 278.831 437.142 276.286 437.142 273.482C437.142 272.796 437.142 272.08 437.142 271.363C437.241 270.668 437.09 269.961 436.715 269.367C436.505 269.082 436.232 268.85 435.918 268.689C435.603 268.528 435.255 268.441 434.902 268.437H432.524H410.502L283.035 267.965C282.709 267.959 282.386 268.033 282.094 268.179C281.802 268.325 281.55 268.539 281.359 268.803C280.991 269.399 280.85 270.108 280.962 270.8C280.962 272.324 280.962 273.848 280.962 275.372C280.962 278.42 280.962 281.468 280.962 284.516C280.962 286.04 280.962 287.564 280.962 289.088C280.899 289.797 280.899 290.511 280.962 291.221C281.042 291.525 281.191 291.807 281.397 292.045C281.603 292.283 281.861 292.47 282.151 292.593C282.451 292.712 282.773 292.769 283.096 292.76H290.853L324.701 292.943L382.004 293.294L420.637 293.599L431.137 293.721H433.865C434.49 293.721 434.795 293.721 434.795 293.721H433.865H431.137H420.637H382.004L324.701 293.538L290.853 293.4H283.096C282.669 293.418 282.243 293.345 281.846 293.187C281.445 293.016 281.088 292.755 280.803 292.425C280.518 292.095 280.312 291.704 280.2 291.282C280.112 290.882 280.081 290.472 280.109 290.063V288.935C280.109 287.411 280.109 285.887 280.109 284.363C280.109 281.315 280.109 278.267 280.109 275.219C280.109 273.695 280.109 272.171 280.109 270.647C280.08 270.241 280.08 269.834 280.109 269.428C280.166 268.98 280.339 268.554 280.612 268.194C280.875 267.826 281.223 267.527 281.626 267.322C282.029 267.118 282.476 267.014 282.928 267.02L410.396 267.721L432.418 267.873H434.795C435.214 267.874 435.626 267.975 435.998 268.169C436.369 268.362 436.689 268.643 436.929 268.986C437.358 269.649 437.532 270.445 437.416 271.226C437.416 271.943 437.416 272.659 437.416 273.345C437.416 276.118 437.416 278.663 437.416 280.965C437.416 285.537 437.31 289.042 437.279 291.48C437.242 291.949 437.071 292.398 436.788 292.773C436.504 293.148 436.12 293.435 435.679 293.599C435.39 293.777 435.058 293.872 434.719 293.873Z" fill="#E0E0E0"/>
<path d="M364.081 275.615H292.392V282.336H364.081V275.615Z" fill="#0093DD"/>
<path opacity="0.2" d="M364.081 275.615H292.392V282.336H364.081V275.615Z" fill="white"/>
<path d="M319.548 315.329L280.351 315.151L280.318 322.345L319.515 322.522L319.548 315.329Z" fill="#0093DD"/>
<path opacity="0.1" d="M319.548 315.329L280.351 315.151L280.318 322.345L319.515 322.522L319.548 315.329Z" fill="black"/>
<path d="M433.728 359.496C434.036 359.459 434.341 359.403 434.643 359.329C435.068 359.193 435.46 358.968 435.791 358.668C436.122 358.369 436.385 358.001 436.563 357.591C436.803 356.976 436.897 356.314 436.837 355.656C436.837 354.924 436.837 354.132 436.837 353.248C436.837 351.48 436.837 349.468 436.837 347.152V337.475C436.91 336.774 436.755 336.068 436.395 335.463C436.019 334.842 435.428 334.381 434.734 334.167C433.975 334.032 433.202 333.991 432.433 334.046H410.502L283.477 333.573C282.794 333.575 282.134 333.824 281.621 334.276C281.108 334.727 280.777 335.349 280.688 336.027C280.688 337.475 280.688 339.075 280.688 340.599C280.688 343.647 280.688 346.695 280.688 349.743C280.688 351.267 280.688 352.791 280.688 354.315C280.631 355.027 280.662 355.744 280.78 356.448C280.97 357.066 281.361 357.603 281.892 357.972C282.455 358.33 283.116 358.5 283.782 358.46H285.9H290.305L324.031 358.628L381.135 358.978L419.631 359.283L430.101 359.405H419.631H381.135L324 359.344L290.274 359.222H283.645C282.82 359.271 282.002 359.052 281.313 358.597C280.619 358.117 280.113 357.412 279.88 356.601C279.744 355.826 279.703 355.038 279.758 354.254C279.758 352.73 279.758 351.206 279.758 349.682C279.758 346.634 279.758 343.586 279.758 340.538C279.758 339.014 279.758 337.49 279.758 335.966C279.87 335.094 280.295 334.293 280.954 333.713C281.613 333.132 282.461 332.811 283.34 332.811L410.365 333.512L432.296 333.68C433.112 333.63 433.932 333.686 434.734 333.847C435.526 334.106 436.194 334.649 436.609 335.371C437.003 336.043 437.174 336.822 437.096 337.596C437.096 338.313 437.096 339.014 437.096 339.715C437.096 342.473 437.096 345.003 437.096 347.335C437.096 349.667 437.096 351.633 437.096 353.431C437.096 354.3 437.096 355.107 437.096 355.854C437.152 356.536 437.042 357.22 436.776 357.85C436.578 358.271 436.292 358.644 435.937 358.944C435.582 359.243 435.166 359.463 434.719 359.588C434.386 359.615 434.05 359.584 433.728 359.496Z" fill="#E0E0E0"/>
<path d="M319.253 383.801L280.056 383.623L280.023 390.816L319.22 390.994L319.253 383.801Z" fill="#0093DD"/>
<path opacity="0.1" d="M319.253 383.801L280.056 383.623L280.023 390.816L319.22 390.994L319.253 383.801Z" fill="black"/>
<path d="M433.423 427.939C433.731 427.903 434.037 427.847 434.338 427.772C434.761 427.637 435.152 427.414 435.483 427.117C435.814 426.82 436.078 426.456 436.258 426.049C436.497 425.434 436.591 424.772 436.532 424.114C436.532 423.367 436.532 422.59 436.532 421.691C436.532 419.938 436.532 417.911 436.532 415.595V405.917C436.605 405.217 436.45 404.511 436.09 403.906C435.705 403.296 435.117 402.842 434.429 402.626C433.671 402.485 432.898 402.439 432.128 402.488H410.197L283.172 402.016C282.489 402.018 281.829 402.267 281.316 402.719C280.803 403.17 280.472 403.792 280.383 404.47C280.383 405.994 280.383 407.518 280.383 409.042C280.383 412.09 280.383 415.138 280.383 418.186C280.383 419.71 280.383 421.234 280.383 422.758C280.326 423.465 280.357 424.176 280.475 424.876C280.657 425.498 281.05 426.037 281.587 426.4C282.147 426.765 282.811 426.937 283.477 426.888H290.106L323.832 427.071L380.937 427.421L419.433 427.726L429.903 427.848H419.433H380.937L323.832 427.68L290.106 427.543H283.477C282.652 427.599 281.832 427.379 281.145 426.918C280.452 426.438 279.946 425.732 279.713 424.922C279.576 424.147 279.535 423.359 279.591 422.575C279.591 421.051 279.591 419.527 279.591 418.003C279.591 414.955 279.591 411.907 279.591 408.859C279.591 407.335 279.591 405.811 279.591 404.211C279.698 403.34 280.12 402.54 280.777 401.959C281.434 401.378 282.28 401.057 283.157 401.056L410.182 401.757L432.113 401.925C432.929 401.874 433.749 401.931 434.551 402.092C435.343 402.351 436.011 402.894 436.426 403.616C436.82 404.287 436.991 405.067 436.913 405.841C436.913 406.557 436.913 407.274 436.913 407.96C436.913 410.718 436.913 413.248 436.913 415.58C436.913 417.911 436.913 419.877 436.913 421.676C436.913 422.544 436.913 423.352 436.913 424.099C436.972 424.78 436.862 425.466 436.593 426.095C436.395 426.516 436.109 426.889 435.754 427.188C435.399 427.488 434.983 427.708 434.536 427.833C434.178 427.955 433.797 427.991 433.423 427.939Z" fill="#E0E0E0"/>
<path d="M362.551 343.139L290.863 342.814L290.832 349.534L362.521 349.86L362.551 343.139Z" fill="#0093DD"/>
<path opacity="0.2" d="M362.551 343.139L290.863 342.814L290.832 349.534L362.521 349.86L362.551 343.139Z" fill="white"/>
<path d="M297.345 415.503C297.3 416.116 297.077 416.703 296.701 417.19C296.326 417.677 295.816 418.043 295.235 418.242C294.654 418.442 294.027 418.467 293.431 418.314C292.836 418.161 292.299 417.836 291.887 417.38C291.474 416.924 291.205 416.358 291.111 415.75C291.018 415.143 291.105 414.521 291.362 413.962C291.619 413.404 292.034 412.933 292.555 412.608C293.077 412.284 293.683 412.119 294.297 412.135C295.146 412.183 295.943 412.563 296.513 413.193C297.084 413.824 297.383 414.654 297.345 415.503Z" fill="#0093DD"/>
<path d="M307.053 415.549C307.083 415.979 307.024 416.41 306.881 416.816C306.737 417.222 306.511 417.594 306.217 417.909C305.924 418.224 305.568 418.475 305.173 418.647C304.778 418.818 304.352 418.907 303.921 418.907C303.491 418.907 303.065 418.818 302.67 418.647C302.275 418.475 301.919 418.224 301.626 417.909C301.332 417.594 301.106 417.222 300.962 416.816C300.818 416.41 300.76 415.979 300.79 415.549C300.76 415.119 300.818 414.688 300.962 414.282C301.106 413.876 301.332 413.504 301.626 413.189C301.919 412.874 302.275 412.623 302.67 412.451C303.065 412.28 303.491 412.191 303.921 412.191C304.352 412.191 304.778 412.28 305.173 412.451C305.568 412.623 305.924 412.874 306.217 413.189C306.511 413.504 306.737 413.876 306.881 414.282C307.024 414.688 307.083 415.119 307.053 415.549Z" fill="#0093DD"/>
<path d="M316.776 415.595C316.731 416.208 316.507 416.794 316.132 417.281C315.757 417.768 315.247 418.134 314.666 418.334C314.085 418.534 313.458 418.559 312.862 418.405C312.267 418.252 311.73 417.927 311.318 417.472C310.905 417.016 310.636 416.449 310.542 415.842C310.449 415.234 310.536 414.612 310.793 414.054C311.049 413.495 311.464 413.025 311.986 412.7C312.508 412.375 313.114 412.21 313.728 412.227C314.576 412.278 315.37 412.659 315.94 413.289C316.509 413.918 316.81 414.746 316.776 415.595Z" fill="#0093DD"/>
<path d="M326.484 415.641C326.439 416.254 326.215 416.84 325.84 417.327C325.465 417.814 324.955 418.18 324.374 418.38C323.793 418.58 323.165 418.604 322.57 418.451C321.975 418.298 321.438 417.973 321.025 417.517C320.613 417.062 320.343 416.495 320.25 415.887C320.157 415.28 320.244 414.658 320.501 414.1C320.757 413.541 321.172 413.07 321.694 412.746C322.216 412.421 322.822 412.256 323.436 412.272C324.284 412.324 325.078 412.705 325.647 413.335C326.217 413.964 326.518 414.792 326.484 415.641Z" fill="#0093DD"/>
<path d="M336.192 415.671C336.15 416.285 335.929 416.873 335.555 417.362C335.182 417.851 334.673 418.22 334.091 418.422C333.51 418.624 332.882 418.651 332.286 418.499C331.69 418.347 331.151 418.024 330.737 417.568C330.323 417.113 330.052 416.546 329.958 415.938C329.863 415.33 329.95 414.708 330.206 414.148C330.463 413.589 330.878 413.117 331.4 412.792C331.923 412.466 332.529 412.302 333.144 412.318C333.989 412.369 334.781 412.749 335.35 413.375C335.919 414.001 336.222 414.825 336.192 415.671Z" fill="#0093DD"/>
<path d="M345.915 415.717C345.874 416.327 345.654 416.913 345.284 417.4C344.914 417.888 344.41 418.257 343.833 418.462C343.256 418.667 342.632 418.698 342.037 418.553C341.443 418.408 340.904 418.091 340.486 417.644C340.069 417.196 339.792 416.636 339.688 416.032C339.585 415.429 339.661 414.808 339.906 414.247C340.151 413.686 340.554 413.209 341.067 412.874C341.58 412.54 342.179 412.362 342.791 412.364C343.649 412.396 344.46 412.766 345.046 413.395C345.631 414.023 345.944 414.858 345.915 415.717Z" fill="#0093DD"/>
<path d="M355.623 415.762C355.653 416.192 355.594 416.623 355.45 417.029C355.307 417.435 355.081 417.807 354.787 418.122C354.493 418.437 354.138 418.688 353.743 418.86C353.348 419.032 352.922 419.12 352.491 419.12C352.061 419.12 351.634 419.032 351.239 418.86C350.844 418.688 350.489 418.437 350.195 418.122C349.902 417.807 349.676 417.435 349.532 417.029C349.388 416.623 349.329 416.192 349.359 415.762C349.329 415.333 349.388 414.902 349.532 414.496C349.676 414.09 349.902 413.718 350.195 413.403C350.489 413.088 350.844 412.837 351.239 412.665C351.634 412.493 352.061 412.404 352.491 412.404C352.922 412.404 353.348 412.493 353.743 412.665C354.138 412.837 354.493 413.088 354.787 413.403C355.081 413.718 355.307 414.09 355.45 414.496C355.594 414.902 355.653 415.333 355.623 415.762Z" fill="#0093DD"/>
<path d="M365.331 415.808C365.289 416.419 365.07 417.004 364.7 417.492C364.33 417.98 363.826 418.349 363.249 418.553C362.672 418.758 362.048 418.79 361.453 418.644C360.858 418.499 360.319 418.183 359.902 417.735C359.485 417.287 359.207 416.727 359.104 416.124C359.001 415.52 359.077 414.9 359.322 414.339C359.566 413.778 359.97 413.3 360.483 412.966C360.995 412.631 361.595 412.454 362.207 412.455C363.065 412.487 363.876 412.858 364.462 413.486C365.047 414.115 365.36 414.95 365.331 415.808Z" fill="#0093DD"/>
<path d="M375.039 415.854C374.997 416.468 374.775 417.056 374.402 417.545C374.028 418.034 373.519 418.402 372.938 418.605C372.357 418.807 371.729 418.834 371.133 418.682C370.536 418.53 369.998 418.207 369.584 417.751C369.17 417.296 368.899 416.729 368.804 416.121C368.71 415.513 368.797 414.89 369.053 414.331C369.309 413.772 369.725 413.3 370.247 412.975C370.769 412.649 371.376 412.485 371.991 412.501C372.836 412.552 373.627 412.931 374.197 413.558C374.766 414.184 375.068 415.008 375.039 415.854Z" fill="#0093DD"/>
<g opacity="0.2">
<path d="M297.345 415.503C297.3 416.116 297.077 416.703 296.701 417.19C296.326 417.677 295.816 418.043 295.235 418.242C294.654 418.442 294.027 418.467 293.431 418.314C292.836 418.161 292.299 417.836 291.887 417.38C291.474 416.924 291.205 416.358 291.111 415.75C291.018 415.143 291.105 414.521 291.362 413.962C291.619 413.404 292.034 412.933 292.555 412.608C293.077 412.284 293.683 412.119 294.297 412.135C295.146 412.183 295.943 412.563 296.513 413.193C297.084 413.824 297.383 414.654 297.345 415.503Z" fill="white"/>
<path d="M307.053 415.549C307.083 415.979 307.024 416.41 306.881 416.816C306.737 417.222 306.511 417.594 306.217 417.909C305.924 418.224 305.568 418.475 305.173 418.647C304.778 418.819 304.352 418.907 303.921 418.907C303.491 418.907 303.065 418.819 302.67 418.647C302.275 418.475 301.919 418.224 301.626 417.909C301.332 417.594 301.106 417.222 300.962 416.816C300.818 416.41 300.76 415.979 300.79 415.549C300.76 415.119 300.818 414.688 300.962 414.282C301.106 413.876 301.332 413.504 301.626 413.189C301.919 412.874 302.275 412.623 302.67 412.451C303.065 412.28 303.491 412.191 303.921 412.191C304.352 412.191 304.778 412.28 305.173 412.451C305.568 412.623 305.924 412.874 306.217 413.189C306.511 413.504 306.737 413.876 306.881 414.282C307.024 414.688 307.083 415.119 307.053 415.549Z" fill="white"/>
<path d="M316.776 415.595C316.731 416.208 316.507 416.794 316.132 417.281C315.757 417.768 315.247 418.134 314.666 418.334C314.085 418.534 313.458 418.559 312.862 418.405C312.267 418.252 311.73 417.927 311.318 417.472C310.905 417.016 310.636 416.449 310.542 415.842C310.449 415.234 310.536 414.612 310.793 414.054C311.049 413.495 311.464 413.025 311.986 412.7C312.508 412.375 313.114 412.21 313.728 412.227C314.576 412.278 315.37 412.659 315.94 413.289C316.509 413.918 316.81 414.746 316.776 415.595Z" fill="white"/>
<path d="M326.484 415.641C326.439 416.254 326.215 416.84 325.84 417.327C325.465 417.814 324.955 418.18 324.374 418.38C323.793 418.58 323.166 418.604 322.57 418.451C321.975 418.298 321.438 417.973 321.026 417.517C320.613 417.062 320.344 416.495 320.25 415.887C320.157 415.28 320.244 414.658 320.501 414.1C320.757 413.541 321.172 413.07 321.694 412.746C322.216 412.421 322.822 412.256 323.436 412.272C324.284 412.324 325.078 412.705 325.648 413.335C326.217 413.964 326.518 414.792 326.484 415.641Z" fill="white"/>
<path d="M336.192 415.671C336.15 416.285 335.929 416.873 335.555 417.362C335.182 417.851 334.673 418.22 334.091 418.422C333.51 418.624 332.882 418.651 332.286 418.499C331.69 418.347 331.151 418.024 330.737 417.568C330.323 417.113 330.052 416.546 329.958 415.938C329.863 415.33 329.95 414.708 330.206 414.148C330.463 413.589 330.878 413.117 331.4 412.792C331.923 412.466 332.529 412.302 333.144 412.318C333.989 412.369 334.781 412.749 335.35 413.375C335.919 414.001 336.222 414.825 336.192 415.671Z" fill="white"/>
<path d="M345.915 415.717C345.874 416.327 345.655 416.913 345.285 417.4C344.915 417.888 344.41 418.257 343.833 418.462C343.256 418.667 342.632 418.698 342.038 418.553C341.443 418.408 340.904 418.091 340.486 417.644C340.069 417.196 339.792 416.636 339.689 416.032C339.586 415.429 339.661 414.808 339.906 414.247C340.151 413.686 340.555 413.209 341.067 412.874C341.58 412.54 342.179 412.362 342.791 412.364C343.65 412.396 344.46 412.766 345.046 413.395C345.632 414.023 345.944 414.858 345.915 415.717Z" fill="white"/>
<path d="M355.623 415.762C355.653 416.192 355.594 416.623 355.45 417.029C355.307 417.435 355.081 417.807 354.787 418.122C354.493 418.437 354.138 418.688 353.743 418.86C353.348 419.032 352.922 419.12 352.491 419.12C352.061 419.12 351.634 419.032 351.239 418.86C350.844 418.688 350.489 418.437 350.195 418.122C349.902 417.807 349.676 417.435 349.532 417.029C349.388 416.623 349.329 416.192 349.359 415.762C349.329 415.333 349.388 414.902 349.532 414.496C349.676 414.09 349.902 413.718 350.195 413.403C350.489 413.088 350.844 412.837 351.239 412.665C351.634 412.493 352.061 412.404 352.491 412.404C352.922 412.404 353.348 412.493 353.743 412.665C354.138 412.837 354.493 413.088 354.787 413.403C355.081 413.718 355.307 414.09 355.45 414.496C355.594 414.902 355.653 415.333 355.623 415.762Z" fill="white"/>
<path d="M365.331 415.808C365.289 416.419 365.07 417.004 364.7 417.492C364.33 417.98 363.826 418.349 363.249 418.553C362.672 418.758 362.048 418.79 361.453 418.644C360.858 418.499 360.319 418.183 359.902 417.735C359.485 417.287 359.207 416.727 359.104 416.124C359.001 415.52 359.077 414.9 359.322 414.339C359.566 413.778 359.97 413.3 360.483 412.966C360.995 412.631 361.595 412.454 362.207 412.455C363.065 412.487 363.876 412.858 364.462 413.486C365.047 414.115 365.36 414.95 365.331 415.808Z" fill="white"/>
<path d="M375.039 415.854C374.997 416.468 374.775 417.056 374.402 417.545C374.028 418.034 373.519 418.402 372.938 418.605C372.357 418.807 371.729 418.834 371.133 418.682C370.536 418.53 369.998 418.207 369.584 417.751C369.17 417.296 368.899 416.729 368.804 416.121C368.71 415.513 368.797 414.89 369.053 414.331C369.309 413.772 369.725 413.3 370.247 412.975C370.769 412.649 371.376 412.485 371.991 412.501C372.836 412.552 373.627 412.931 374.197 413.558C374.766 414.184 375.068 415.008 375.039 415.854Z" fill="white"/>
</g>
<path d="M361.247 195.849C362.305 195.383 363.204 194.616 363.83 193.643C364.455 192.67 364.782 191.535 364.767 190.378C364.807 189.626 364.693 188.874 364.432 188.168C364.171 187.461 363.77 186.815 363.251 186.269C362.733 185.723 362.109 185.288 361.417 184.991C360.725 184.693 359.98 184.54 359.227 184.54C358.474 184.54 357.729 184.693 357.038 184.991C356.346 185.288 355.722 185.723 355.203 186.269C354.685 186.815 354.283 187.461 354.023 188.168C353.762 188.874 353.648 189.626 353.688 190.378C353.664 191.546 353.988 192.695 354.617 193.68C355.246 194.665 356.153 195.441 357.223 195.91C348.689 197.19 349.07 206.456 349.07 206.456L369.248 206.548C369.248 206.548 369.72 197.114 361.247 195.849Z" fill="#0093DD"/>
<path opacity="0.1" d="M361.247 195.849C362.305 195.383 363.204 194.616 363.83 193.643C364.455 192.67 364.782 191.535 364.767 190.378C364.807 189.626 364.693 188.874 364.432 188.168C364.171 187.461 363.77 186.815 363.251 186.269C362.733 185.723 362.109 185.288 361.417 184.991C360.725 184.693 359.98 184.54 359.227 184.54C358.474 184.54 357.729 184.693 357.038 184.991C356.346 185.288 355.722 185.723 355.203 186.269C354.685 186.815 354.283 187.461 354.023 188.168C353.762 188.874 353.648 189.626 353.688 190.378C353.664 191.546 353.988 192.695 354.617 193.68C355.246 194.665 356.153 195.441 357.223 195.91C348.689 197.19 349.07 206.456 349.07 206.456L369.248 206.548C369.248 206.548 369.72 197.114 361.247 195.849Z" fill="black"/>
<path d="M394.035 212.524L322.118 212.198L322.079 220.793L393.996 221.119L394.035 212.524Z" fill="#0093DD"/>
<path opacity="0.2" d="M394.035 212.524L322.118 212.198L322.079 220.793L393.996 221.119L394.035 212.524Z" fill="white"/>
<path d="M129.644 257.068H128.928L126.855 257.221C125.734 257.288 124.618 257.436 123.518 257.663C122.805 257.763 122.098 257.9 121.399 258.074L119.037 258.729C115.017 259.963 111.223 261.842 107.805 264.292C103.29 267.57 99.5188 271.767 96.7411 276.606C95.1085 279.396 93.8093 282.368 92.8702 285.46C91.8833 288.822 91.3152 292.292 91.1785 295.793C91.0877 297.632 91.1182 299.475 91.27 301.31C91.27 302.24 91.529 303.169 91.651 304.114C91.7535 305.067 91.9319 306.009 92.1844 306.934C93.5548 313.049 96.3354 318.76 100.304 323.61C104.273 328.46 109.321 332.315 115.044 334.869C119.187 336.656 123.627 337.654 128.136 337.81C132.792 338.066 137.454 337.398 141.852 335.844L143.193 335.341H143.376L143.528 335.432L162.746 345.186L162.182 345.674C160.124 339.303 158.143 333.131 156.223 327.203V326.974L156.39 326.807C161.052 322.111 164.513 316.36 166.479 310.043C168.26 304.267 168.78 298.175 168.003 292.181C167.313 286.854 165.6 281.71 162.959 277.033C160.683 273.014 157.746 269.408 154.272 266.365C151.406 263.956 148.234 261.937 144.839 260.36C142.269 259.252 139.593 258.409 136.853 257.846L133.805 257.343L131.595 257.175L130.254 257.084H129.797C129.949 257.067 130.102 257.067 130.254 257.084H131.61L133.82 257.175L136.868 257.617C139.643 258.14 142.355 258.952 144.96 260.04C148.414 261.598 151.644 263.613 154.562 266.029C158.099 269.059 161.098 272.666 163.431 276.697C166.147 281.425 167.913 286.639 168.628 292.044C169.469 298.131 168.986 304.328 167.211 310.21C165.232 316.66 161.718 322.532 156.97 327.325L157.061 326.928C158.981 332.857 160.978 339.029 163.05 345.384L163.34 346.314L162.471 345.872L143.254 336.133H143.589L142.217 336.636C137.735 338.214 132.987 338.897 128.242 338.648C123.636 338.473 119.103 337.439 114.877 335.6C106.814 332.147 100.106 326.146 95.781 318.516C93.7905 314.992 92.3369 311.191 91.4681 307.238C91.2302 306.29 91.052 305.328 90.9347 304.358C90.8128 303.398 90.6146 302.453 90.5689 301.508C90.1565 296.086 90.7296 290.633 92.2606 285.415C93.2231 282.279 94.5585 279.271 96.2382 276.454C99.0822 271.57 102.931 267.347 107.531 264.063C111.005 261.607 114.862 259.743 118.946 258.547L121.338 257.937C122.043 257.774 122.755 257.646 123.472 257.556C124.584 257.35 125.71 257.228 126.84 257.19L128.928 257.114C129.165 257.082 129.405 257.067 129.644 257.068Z" fill="#0093DD"/>
<path d="M203.833 683.27V670.24L180.47 670.072L180.272 689.778L181.72 689.884C188.166 690.296 214.516 690.905 218.844 689.564C223.66 688.071 203.833 683.27 203.833 683.27Z" fill="#0093DD"/>
<path d="M219.393 688.345C219.393 688.558 210.645 688.741 199.87 688.741C189.096 688.741 180.348 688.558 180.348 688.345C180.348 688.132 189.096 687.949 199.87 687.949C210.645 687.949 219.393 688.132 219.393 688.345Z" fill="#263238"/>
<path d="M204.244 685.937C204.046 685.831 204.244 685.145 204.717 684.413C205.189 683.682 205.829 683.377 205.982 683.529C206.134 683.682 205.814 684.261 205.357 684.886C204.9 685.511 204.442 686.044 204.244 685.937Z" fill="#263238"/>
<path d="M205.738 686.791C205.524 686.791 205.631 685.937 206.088 685.129C206.545 684.322 207.155 683.834 207.323 683.956C207.49 684.078 207.216 684.764 206.789 685.48C206.362 686.196 205.936 686.867 205.738 686.791Z" fill="#263238"/>
<path d="M187.389 688.284C187.297 688.284 186.947 688.01 186.444 687.431C185.83 686.686 185.146 686.002 184.402 685.389C183.67 684.804 182.798 684.42 181.872 684.276C181.156 684.185 180.698 684.276 180.653 684.185C180.607 684.093 181.049 683.773 181.887 683.712C182.993 683.689 184.072 684.056 184.935 684.748C185.743 685.407 186.425 686.208 186.947 687.111C187.297 687.781 187.48 688.223 187.389 688.284Z" fill="#263238"/>
<path d="M204.32 683.484C204.427 683.666 204.031 684.124 203.36 684.367C202.69 684.611 202.095 684.52 202.065 684.367C202.034 684.215 202.507 683.895 203.086 683.682C203.665 683.468 204.198 683.301 204.32 683.484Z" fill="#263238"/>
<path d="M203.955 682.219C203.955 682.447 203.345 682.63 202.552 682.645C201.76 682.661 201.135 682.478 201.15 682.264C201.166 682.051 201.79 681.853 202.552 681.838C203.314 681.822 203.924 682.005 203.955 682.219Z" fill="#263238"/>
<path d="M261.364 683.27V670.24L238.001 670.072L237.803 689.58L239.251 689.686C245.697 690.098 272.062 690.905 276.375 689.564C281.191 688.071 261.364 683.27 261.364 683.27Z" fill="#0093DD"/>
<path d="M276.924 688.376C276.924 688.589 268.191 688.772 257.401 688.772C246.611 688.772 237.894 688.589 237.894 688.376C237.894 688.162 246.627 687.979 257.401 687.979C268.176 687.979 276.924 688.162 276.924 688.376Z" fill="#263238"/>
<path d="M261.775 685.937C261.592 685.831 261.775 685.145 262.248 684.413C262.72 683.682 263.36 683.377 263.513 683.529C263.665 683.682 263.345 684.261 262.888 684.886C262.43 685.511 261.973 686.044 261.775 685.937Z" fill="#263238"/>
<path d="M263.269 686.791C263.071 686.791 263.162 685.937 263.634 685.129C264.107 684.322 264.701 683.834 264.869 683.956C265.037 684.078 264.747 684.764 264.32 685.48C263.894 686.196 263.482 686.867 263.269 686.791Z" fill="#263238"/>
<path d="M244.92 688.284C244.828 688.284 244.493 688.01 243.975 687.431C243.361 686.686 242.677 686.002 241.933 685.389C241.201 684.804 240.329 684.42 239.403 684.276C238.702 684.185 238.229 684.276 238.184 684.185C238.138 684.093 238.58 683.773 239.418 683.712C240.524 683.689 241.603 684.056 242.466 684.748C243.279 685.403 243.961 686.204 244.478 687.111C244.828 687.781 245.011 688.223 244.92 688.284Z" fill="#263238"/>
<path d="M261.851 683.484C261.958 683.666 261.562 684.124 260.891 684.367C260.221 684.611 259.626 684.52 259.596 684.367C259.565 684.215 260.038 683.895 260.617 683.682C261.196 683.468 261.729 683.301 261.851 683.484Z" fill="#263238"/>
<path d="M261.516 682.219C261.516 682.447 260.906 682.63 260.114 682.645C259.321 682.661 258.712 682.478 258.727 682.264C258.742 682.051 259.352 681.853 260.114 681.838C260.876 681.822 261.516 682.005 261.516 682.219Z" fill="#263238"/>
<path d="M347.439 296.327C346.83 295.702 345.321 296.007 345.321 296.007C345.472 295.129 345.472 294.232 345.321 293.355C345.047 292.501 343.126 292.669 343.126 292.669C343.038 291.95 343.038 291.224 343.126 290.505C343.142 290.346 343.107 290.185 343.028 290.046C342.949 289.907 342.829 289.796 342.684 289.728C341.776 289.357 340.8 289.181 339.819 289.209C338.646 288.371 343.401 281.711 345.168 279.578C346.936 277.444 346.616 275.783 345.047 275.783C343.965 275.783 338.417 282.184 336.71 284.333C335.003 286.482 330.477 292.456 330.325 287.685C330.172 282.915 328.252 279.319 327.048 278.709C325.844 278.1 324.564 279.532 325.219 280.858C325.795 282.364 326.154 283.945 326.286 285.552C326.452 286.832 326.395 288.131 326.118 289.392C325.613 291.739 324.925 294.042 324.061 296.281H323.939C323.939 296.281 290.685 328.178 288.278 330.449C286.129 332.491 242.908 328.026 234.237 327.111C231.29 326.68 228.314 326.476 225.336 326.502C221.572 326.669 220.901 327.203 217.152 327.249C207.685 327.354 198.239 328.184 188.898 329.733C184.668 330.452 180.717 332.319 177.476 335.13C174.235 337.941 171.828 341.588 170.518 345.674C161.786 372.953 142.004 437.525 138.514 473.796C135.877 478.579 133.496 483.498 131.382 488.533C128.928 495.209 129.522 495.437 130.345 495.59C132.57 496.001 135.1 484.022 136.045 486.918C136.99 489.814 131.245 501.198 133.576 501.533C136.624 501.96 139.047 489.341 139.337 488.335C139.627 487.329 141.135 487.65 140.861 488.594C140.419 489.936 136.137 504.154 139.124 504.612C140.77 504.855 140.952 501.853 140.952 501.853C140.952 501.853 144 488.244 145.387 488.518C146.774 488.792 145.296 496.824 144.595 499.506C143.894 502.188 144.869 503.545 146.302 502.89C147.277 502.432 149.609 494.279 150.249 491.627C150.889 488.975 152.489 481.63 154.638 485.882C156.787 490.134 160.048 492.602 161.389 492.663C161.692 492.629 161.976 492.504 162.207 492.306C162.438 492.108 162.604 491.845 162.685 491.552C162.765 491.258 162.756 490.948 162.658 490.66C162.56 490.372 162.378 490.119 162.136 489.936C160.983 488.809 159.992 487.527 159.195 486.126C158.484 485.034 157.968 483.827 157.671 482.559C157.057 480.031 156.699 477.448 156.604 474.848L156.36 473.324C159.774 456.423 169.604 406.817 183.792 375.133L189.614 387.111L192.144 395.981L176.629 434.279L242.801 433.41L232.926 395.402L244.92 355.778C257.889 356.067 291.188 356.555 296.736 354.04C303.716 350.992 339.819 305.394 339.819 305.394C342.173 303.566 344.426 301.612 346.571 299.542C346.571 299.542 348.765 297.698 347.439 296.327Z" fill="#FFBE9D"/>
<path d="M173.719 405.978C175.639 399.425 185.499 367.025 185.499 367.025C185.499 367.025 190.345 393.436 189.065 396.621C187.888 399.348 186.496 401.977 184.905 404.485C173.718 421.508 175.182 430.027 175.182 430.027L242.771 427.97C242.923 418.521 237.33 396.545 236.172 393.04C235.014 389.534 238.869 378.059 238.869 378.059C238.869 378.059 246.49 370.302 246.215 366.309C246.07 362.722 245.627 359.154 244.889 355.641L286.037 357.165L284.742 329.275L225.641 323.362C223.584 329.169 204.976 326.319 204.976 326.319C184.889 326.989 183.64 330.678 175.288 337.17C166.937 343.662 153.114 399.379 153.114 399.379L173.719 405.978Z" fill="#0093DD"/>
<path d="M213.678 399.379C212.506 399.589 211.313 399.65 210.127 399.562C207.917 399.562 204.884 399.41 201.547 399.075C198.209 398.739 195.192 398.267 193.043 397.84C191.858 397.688 190.696 397.391 189.583 396.956C190.775 396.957 191.964 397.069 193.134 397.292C195.298 397.566 198.301 397.947 201.623 398.282C204.945 398.617 207.963 398.846 210.142 398.998C211.33 399.013 212.514 399.141 213.678 399.379Z" fill="#263238"/>
<path d="M218.311 393.634C217.139 394.208 215.9 394.633 214.623 394.899C208.542 396.497 202.269 397.24 195.984 397.109C194.683 397.151 193.383 397.028 192.113 396.743C193.397 396.581 194.691 396.515 195.984 396.545C198.377 396.469 201.669 396.301 205.296 395.874C208.923 395.448 212.154 394.838 214.44 394.35C215.709 394.011 217.004 393.772 218.311 393.634Z" fill="#263238"/>
<path d="M241.049 368C241.018 369.162 240.859 370.317 240.576 371.445C240.18 373.563 239.57 376.458 238.793 379.628C238.016 382.798 237.269 385.724 236.599 387.706C236.329 388.84 235.93 389.939 235.41 390.982C235.495 389.824 235.71 388.679 236.05 387.568C236.629 385.191 237.284 382.448 238.016 379.446C238.747 376.443 239.449 373.7 240.028 371.323C240.234 370.178 240.577 369.063 241.049 368Z" fill="#263238"/>
<path d="M174.435 402.092C170.909 401.548 167.429 400.738 164.026 399.669C160.548 398.856 157.135 397.786 153.815 396.469C157.339 397.022 160.818 397.832 164.224 398.892C167.703 399.702 171.116 400.772 174.435 402.092Z" fill="#263238"/>
<path d="M245.621 355.305C245.046 355.404 244.458 355.404 243.883 355.305C242.292 355.142 240.729 354.768 239.235 354.193C236.742 353.256 234.473 351.808 232.572 349.942C230.672 348.076 229.183 345.833 228.201 343.357C227.116 340.634 226.653 337.702 226.845 334.777C226.913 332.364 227.635 330.015 228.933 327.98C229.846 326.609 231.21 325.601 232.789 325.13C233.211 325.014 233.647 324.957 234.084 324.963C234.389 324.963 234.541 324.963 234.541 324.963C234.541 324.963 233.901 324.963 232.88 325.374C231.432 325.909 230.204 326.912 229.39 328.224C227.318 331.485 226.738 337.444 228.948 343.007C229.977 345.629 231.587 347.985 233.657 349.895C235.354 351.458 237.308 352.716 239.433 353.614C241.428 354.402 243.503 354.969 245.621 355.305Z" fill="#263238"/>
<path d="M281.145 356.616C280.764 351.943 280.642 347.252 280.78 342.565C280.66 337.882 280.803 333.196 281.206 328.529C281.588 333.197 281.71 337.883 281.572 342.565C281.7 347.253 281.558 351.944 281.145 356.616Z" fill="#263238"/>
<path d="M225.245 325.069C225.412 321.671 225.763 317.83 225.763 317.83C225.763 317.83 234.175 316.901 234.678 308.214C235.181 299.527 234.678 279.486 234.678 279.486L219.438 271.683L202.522 284.988L205.128 328.422L220.642 329.413C221.828 329.445 222.979 329.007 223.842 328.192C224.704 327.378 225.209 326.255 225.245 325.069Z" fill="#FFBE9D"/>
<path d="M226.754 301.341C226.754 301.341 226.754 301.508 226.616 301.706C226.503 301.85 226.356 301.964 226.189 302.038C226.022 302.113 225.839 302.145 225.656 302.133C224.681 302.133 223.736 301.005 223.401 299.695C223.241 299.059 223.241 298.394 223.401 297.759C223.432 297.482 223.532 297.217 223.692 296.988C223.851 296.759 224.066 296.574 224.315 296.448C224.52 296.364 224.75 296.364 224.955 296.448C225.107 296.524 225.23 296.647 225.306 296.799C225.412 297.058 225.306 297.226 225.306 297.21C225.306 297.195 225.306 297.058 225.153 296.906C225.074 296.797 224.957 296.721 224.824 296.692C224.692 296.664 224.554 296.686 224.437 296.753C224.25 296.866 224.095 297.025 223.986 297.214C223.876 297.403 223.817 297.617 223.812 297.835C223.684 298.402 223.684 298.991 223.812 299.557C224.117 300.746 224.94 301.706 225.672 301.798C225.815 301.817 225.96 301.807 226.099 301.768C226.238 301.728 226.368 301.661 226.479 301.569C226.662 301.447 226.723 301.325 226.754 301.341Z" fill="#EB996E"/>
<path d="M239.906 274.792C238.732 270.8 234.48 268.818 230.609 267.721C224.711 266.045 218.341 265.313 212.58 267.432C206.82 269.55 199.901 273.268 199.901 279.624C196.502 279.349 194.551 282.321 193.21 286.009C192.353 288.256 191.839 290.619 191.686 293.019C191.26 301.341 188.928 312.831 183.533 318.927C180.485 322.326 176.263 324.673 174.526 328.91C173.002 332.583 173.795 336.941 172.377 340.66C171.112 343.936 168.323 346.268 166.281 349.118C164.201 352.351 162.976 356.06 162.723 359.896C162.47 363.732 163.196 367.57 164.833 371.048C166.483 374.438 168.805 377.456 171.658 379.918C174.511 382.381 177.836 384.237 181.43 385.374C188.549 387.54 196.14 387.614 203.299 385.587C208.673 384.302 213.685 381.817 217.96 378.318C222.335 374.746 225.339 369.77 226.464 364.236C227.546 358.018 225.809 351.693 224.513 345.506C220.46 325.953 221.618 324.932 226.738 306.781C226.86 306.461 226.921 306.126 227.013 305.806C227.104 305.486 227.15 305.333 227.211 305.09C227.356 304.372 227.433 303.642 227.439 302.91C226.691 303.188 225.88 303.247 225.099 303.08C224.319 302.912 223.603 302.526 223.035 301.965C222.466 301.368 222.069 300.627 221.886 299.822C221.704 299.017 221.743 298.178 221.999 297.393C222.358 296.535 222.894 295.762 223.571 295.124C224.249 294.486 225.053 293.998 225.931 293.69C227.622 292.989 229.436 292.623 231.097 291.846C234.617 290.17 237.056 286.695 238.717 283.053C240.083 280.528 240.504 277.6 239.906 274.792Z" fill="#263238"/>
<path d="M227.363 301.752C227.685 302.228 227.951 302.739 228.156 303.276C228.613 304.236 229.222 305.592 229.893 307.162L230.015 307.452H229.695L228.171 307.589C227.119 307.589 226.235 307.787 225.199 307.772C225.109 307.752 225.025 307.709 224.956 307.647C224.887 307.586 224.834 307.508 224.803 307.421C224.757 307.283 224.757 307.133 224.803 306.995C224.838 306.789 224.884 306.586 224.94 306.385L225.214 305.303C225.352 304.581 225.567 303.876 225.854 303.2C225.826 303.936 225.719 304.666 225.534 305.379L225.321 306.461C225.245 306.827 225.108 307.391 225.321 307.345C226.083 307.345 227.165 307.177 228.171 307.116L229.695 306.979L229.497 307.315C228.841 305.791 228.293 304.358 227.973 303.367C227.692 302.861 227.487 302.317 227.363 301.752Z" fill="#0093DD"/>
<path d="M175.182 430.027L242.771 427.97L272.184 542.788L266.774 674.492H231.036L235.41 545.592L209.274 465.658L213.297 679.597L177.178 680.131L173.383 479.039C173.216 473.446 171.387 460.842 172.073 455.295L175.182 430.027Z" fill="#263238"/>
<path d="M218.265 467.289C217.159 467.359 216.048 467.292 214.958 467.091C212.916 466.847 210.127 466.42 207.064 465.811C204 465.201 201.257 464.5 199.276 463.936C198.217 463.703 197.192 463.334 196.228 462.839C196.228 462.61 201.196 463.799 207.292 465.033C213.388 466.268 218.296 467.06 218.265 467.289Z" fill="#455A64"/>
<path d="M266.408 667.268C266.408 667.482 258.316 667.664 248.334 667.664C238.351 667.664 230.244 667.482 230.244 667.268C230.244 667.055 238.336 666.872 248.334 666.872C258.331 666.872 266.408 667.04 266.408 667.268Z" fill="#455A64"/>
<path d="M212.977 674.035C212.977 674.263 205.113 674.431 195.42 674.431C185.728 674.431 177.879 674.263 177.879 674.035C177.879 673.806 185.743 673.638 195.42 673.638C205.098 673.638 212.977 673.821 212.977 674.035Z" fill="#455A64"/>
<path d="M208.313 673.486C208.1 673.486 207.155 626.745 206.195 569.092C205.235 511.439 204.671 464.668 204.869 464.668C205.067 464.668 206.043 511.393 206.987 569.077C207.932 626.76 208.542 673.486 208.313 673.486Z" fill="#455A64"/>
<path d="M261.608 667.268C261.591 667.06 261.591 666.851 261.608 666.643V664.815C261.608 663.169 261.729 660.806 261.821 657.804C262.034 651.708 262.339 642.854 262.72 632.003C263.543 610.179 264.701 580.095 265.966 546.887C265.966 546.567 265.966 546.263 265.966 545.988V546.095C257.965 514.091 250.726 485.043 245.468 464.028L239.372 439.171C238.671 436.26 238.138 433.989 237.757 432.405C237.574 431.658 237.452 431.079 237.345 430.637C237.286 430.438 237.25 430.234 237.239 430.027C237.318 430.219 237.379 430.418 237.422 430.621C237.544 431.048 237.696 431.627 237.909 432.359C238.321 433.883 238.915 436.199 239.677 439.095C241.201 444.978 243.35 453.451 246.032 463.89C251.336 484.891 258.651 513.862 266.759 545.912V546.019C266.759 546.293 266.759 546.613 266.759 546.918C265.402 580.126 264.168 610.194 263.269 632.018C262.796 642.884 262.4 651.678 262.126 657.804C261.973 660.852 261.851 663.169 261.775 664.815C261.775 665.592 261.684 666.201 261.668 666.643C261.671 666.853 261.65 667.063 261.608 667.268Z" fill="#455A64"/>
<path d="M249.949 543.306C247.382 544.15 244.737 544.737 242.055 545.059C238.763 545.622 235.959 546.019 234.694 546.08V545.775C235.105 545.897 235.318 545.973 235.318 546.034C235.318 546.095 235.059 546.034 234.633 546.034H233.718L234.633 545.76C235.821 545.409 238.626 544.83 241.917 544.236C244.558 543.663 247.248 543.351 249.949 543.306Z" fill="#455A64"/>
<path d="M249.324 547.68C246.947 547.789 244.565 547.682 242.207 547.36C239.826 547.311 237.455 547.051 235.12 546.583C239.883 546.194 244.677 546.564 249.324 547.68Z" fill="#455A64"/>
<path opacity="0.2" d="M174.892 432.45C175.692 433.478 176.701 434.326 177.851 434.937C179.001 435.549 180.267 435.912 181.567 436.001C184.289 436.324 187.043 436.272 189.751 435.849C207.201 433.913 225.687 432.13 242.771 427.97C220.658 429.204 197.295 428.793 175.181 430.027L174.953 431.917" fill="black"/>
<g opacity="0.2">
<path d="M197.676 463.616L210.142 511.988L209.273 465.658L197.676 463.616Z" fill="black"/>
</g>
<path d="M150.512 317.166H150.694H150.876H150.99H151.058H151.127C151.176 317.111 151.211 317.045 151.229 316.973C151.229 317.041 151.229 317.053 151.229 316.973V316.848C150.722 314.89 150.621 312.849 150.933 310.85C152.354 310.21 153.854 309.762 155.394 309.519V309.394C155.399 309.352 155.399 309.31 155.394 309.269C155.4 309.2 155.4 309.132 155.394 309.064V308.961C155.389 308.893 155.389 308.825 155.394 308.757V308.631C153.945 308.758 152.518 309.072 151.149 309.564C151.149 309.564 151.149 309.473 151.149 309.428C151.593 305.058 152.06 300.552 147.849 298.207C145.911 297.169 143.644 296.932 141.533 297.547C139.964 297.953 138.44 298.513 136.981 299.22C136.981 294.839 136.811 290.344 132.008 287.556C128.788 285.678 123.94 286.713 117.601 290.628C117.18 290.879 116.77 291.14 116.372 291.402L116.167 290.389C115.268 285.837 114.483 281.888 111.797 281.023C111.738 281.004 111.675 280.997 111.612 281.001C111.549 281.006 111.488 281.024 111.432 281.052C111.376 281.081 111.326 281.12 111.285 281.168C111.245 281.216 111.214 281.271 111.194 281.331C111.175 281.39 111.167 281.453 111.172 281.516C111.177 281.579 111.194 281.64 111.223 281.696C111.251 281.752 111.291 281.802 111.339 281.843C111.386 281.883 111.442 281.914 111.501 281.934C113.664 282.628 114.426 286.486 115.234 290.571C115.325 291.038 115.416 291.504 115.519 291.982C113.292 293.514 111.16 295.178 109.134 296.967C109.048 297.06 109 297.182 109 297.308C109 297.435 109.048 297.557 109.134 297.65C109.178 297.695 109.23 297.731 109.288 297.755C109.345 297.78 109.407 297.792 109.47 297.792C109.533 297.792 109.595 297.78 109.653 297.755C109.71 297.731 109.762 297.695 109.806 297.65C111.704 295.979 113.695 294.418 115.769 292.972C116.816 297.843 118.364 302.645 122.79 303.818C127.149 304.956 131.371 302.93 135.456 300.961L136.048 300.677C136.116 304.489 136.515 308.279 140.259 310.816C143.673 313.092 146.973 312.125 149.989 310.976C149.708 313.053 149.887 315.166 150.512 317.166ZM119.354 300.096C117.971 297.709 117.045 295.084 116.622 292.358C119.718 290.287 123.45 288.273 126.682 287.704L119.354 300.096ZM122.768 302.771C121.695 302.421 120.744 301.774 120.025 300.904L127.923 287.556C129.2 287.438 130.484 287.703 131.61 288.318L132.156 288.659L122.768 302.771ZM127.661 302.953C126.376 303.22 125.052 303.243 123.758 303.021L132.93 289.24C133.734 289.896 134.396 290.709 134.876 291.63C134.791 291.668 134.719 291.731 134.671 291.812L127.752 302.736C127.691 302.794 127.651 302.87 127.638 302.953H127.661ZM135.115 300.085C133.119 301.118 131.036 301.975 128.89 302.645L135.274 292.597C135.937 294.809 136.215 297.119 136.094 299.425V299.596L135.115 300.085ZM137.072 300.21C139.621 299.072 142.08 298.037 144.39 298.139L137.994 306.572C137.275 304.531 136.954 302.372 137.05 300.21H137.072ZM138.495 307.516L145.414 298.412C146.088 298.551 146.737 298.793 147.337 299.129C147.599 299.273 147.85 299.437 148.088 299.618L140.361 309.86C139.581 309.214 138.938 308.416 138.472 307.516H138.495ZM143.513 311.112C142.708 310.956 141.937 310.655 141.237 310.225L148.896 300.108C149.542 300.818 150 301.679 150.228 302.611L143.582 310.702C143.537 310.76 143.506 310.826 143.49 310.897C143.474 310.968 143.474 311.041 143.491 311.112H143.513ZM144.39 311.215L150.41 303.874C150.529 305.686 150.464 307.504 150.216 309.303L150.148 309.929C148.332 310.757 146.363 311.195 144.367 311.215H144.39Z" fill="#455A64"/>
</svg>
