<svg width="20" height="20" viewBox="0 0 20 20" fill="none" xmlns="http://www.w3.org/2000/svg">
<path d="M18.75 3.125V16.875C18.75 17.9102 17.9102 18.75 16.875 18.75H7.28125C7.66406 18.1094 8.15625 17.1875 8.35156 16.4336C8.46875 15.9844 8.94922 14.1523 8.94922 14.1523C9.26172 14.75 10.1758 15.2539 11.1484 15.2539C14.043 15.2539 16.125 12.5938 16.125 9.28906C16.125 6.12109 13.5391 3.75 10.2109 3.75C6.07031 3.75 3.875 6.52734 3.875 9.55469C3.875 10.9609 4.625 12.7109 5.82031 13.2695C6.00391 13.3555 6.09766 13.3164 6.14062 13.1406C6.17188 13.0078 6.33594 12.3555 6.40625 12.0547C6.42969 11.957 6.41797 11.875 6.33984 11.7812C5.94531 11.3008 5.625 10.418 5.625 9.59375C5.625 7.47656 7.22656 5.42969 9.95703 5.42969C12.3125 5.42969 13.9648 7.03516 13.9648 9.33203C13.9648 11.9258 12.6562 13.7227 10.9492 13.7227C10.0078 13.7227 9.30469 12.9453 9.52734 11.9883C9.79688 10.8477 10.3203 9.61719 10.3203 8.79297C10.3203 6.72266 7.37109 7.00781 7.37109 9.76953C7.37109 10.6172 7.65625 11.1953 7.65625 11.1953C6.42969 16.3828 6.24609 16.4492 6.5 18.7188L6.58594 18.75H3.125C2.08984 18.75 1.25 17.9102 1.25 16.875V3.125C1.25 2.08984 2.08984 1.25 3.125 1.25H16.875C17.9102 1.25 18.75 2.08984 18.75 3.125Z" fill="white"/>
</svg>
