<svg width="20" height="20" viewBox="0 0 20 20" fill="none" xmlns="http://www.w3.org/2000/svg">
<g clip-path="url(#clip0_627_4332)">
<path d="M15 16.6666C15 16.6666 6.25 16.6666 5 16.6666C5.18599 16.6666 7.5 15.8332 7.5 13.3332C7.5 12.4392 7.5 11.532 7.5 9.99992M14.2647 5.83325C13.8357 5.03484 12.8475 3.33325 10.7642 3.33325C8.68085 3.33325 7.5 4.99991 7.5 7.49991C7.5 7.97457 7.5 9.38987 7.5 9.99992M7.5 9.99992H5M7.5 9.99992H11.6667" stroke="white" stroke-width="2"/>
<g clip-path="url(#clip1_627_4332)">
<rect opacity="0.2" x="2.05" y="2.05" width="15.9" height="15.9" stroke="white" stroke-width="0.1"/>
<rect opacity="0.2" x="5.05" y="5.05" width="9.9" height="9.9" stroke="white" stroke-width="0.1"/>
<rect opacity="0.2" x="4.05" y="1.05" width="11.9" height="17.9" stroke="white" stroke-width="0.1"/>
<rect opacity="0.2" x="18.95" y="4.05" width="11.9" height="17.9" transform="rotate(90 18.95 4.05)" stroke="white" stroke-width="0.1"/>
<circle opacity="0.2" cx="10" cy="10" r="9.95" stroke="white" stroke-width="0.1"/>
<circle opacity="0.2" cx="10" cy="10" r="2.95" stroke="white" stroke-width="0.1"/>
<circle opacity="0.2" cx="10" cy="10" r="6.95" stroke="white" stroke-width="0.1"/>
<line opacity="0.2" x1="2.03536" y1="1.96464" x2="18.0354" y2="17.9646" stroke="white" stroke-width="0.1"/>
<line opacity="0.2" x1="-1.31372" y1="9.95" x2="21.3137" y2="9.95" stroke="white" stroke-width="0.1"/>
<line opacity="0.2" x1="18.0354" y1="2.03536" x2="2.03536" y2="18.0354" stroke="white" stroke-width="0.1"/>
<line opacity="0.2" x1="10.05" y1="-1.31372" x2="10.05" y2="21.3137" stroke="white" stroke-width="0.1"/>
</g>
</g>
<defs>
<clipPath id="clip0_627_4332">
<rect width="20" height="20" fill="white"/>
</clipPath>
<clipPath id="clip1_627_4332">
<rect width="20" height="20" fill="white"/>
</clipPath>
</defs>
</svg>
