<svg width="100" height="16" viewBox="0 0 100 16" fill="none" xmlns="http://www.w3.org/2000/svg">
<path fill-rule="evenodd" clip-rule="evenodd" d="M54.8241 7.47084C54.8241 7.47084 53.8536 6.8607 53.2534 6.62462C53.2534 6.62462 51.3958 5.74928 51.0272 5.33282C51.0272 5.33282 50.3032 4.63913 50.7271 3.83342C50.7271 3.83342 50.9046 3.30619 51.6697 3.30619C51.6697 3.30619 52.6658 3.36189 52.6658 4.19419V5.36826H56.2355L56.2292 3.63911C56.2292 3.63911 56.5038 0.80741 52.0245 0.682724C52.0245 0.682724 48.5015 0.447272 47.4911 2.37643C47.4911 2.37643 47.0946 2.80682 47.0946 4.30558V5.38852C47.0946 5.38852 47.0541 6.63791 47.6816 7.44299C47.6816 7.44299 48.0365 7.97085 48.9105 8.55314C48.9105 8.55314 50.6854 9.52468 51.7506 10.081C51.7506 10.081 52.8258 10.7051 52.6844 11.6981C52.6844 11.6981 52.5967 12.7178 51.5582 12.676C51.5582 12.676 50.6089 12.633 50.6089 11.6329V10.4595H46.8051V12.164C46.8051 12.164 46.6986 15.4235 51.5863 15.4235C51.5863 15.4235 56.2566 15.5197 56.4745 12.0785V10.6905C56.4739 10.6905 56.6395 8.58162 54.8241 7.47084ZM36.5486 1.08843L35.3533 8.70377H35.0738L33.932 1.15678H27.9693L27.6704 14.9476H31.2009L31.2432 4.55686H31.5209L33.3923 14.9457H37.1064L38.9548 4.56065H39.2007L39.2859 14.9476H42.8351L42.4529 1.08843H36.5486ZM15.5326 1.14603L13.1837 14.9318H16.9844L18.3758 4.24292H18.6883L20.0791 14.9318H23.8791L21.5309 1.14603H15.5326ZM95.2823 7.28096V9.31455H96.2572V11.4975C96.2572 12.5646 95.3602 12.5842 95.3602 12.5842C94.2695 12.5842 94.3105 11.5703 94.3105 11.5703V4.0195C94.3105 3.24163 95.2786 3.19986 95.2786 3.19986C96.2074 3.19986 96.2137 4.12773 96.2137 4.12773V5.27585H99.7921C99.9091 3.03467 99.4696 2.49226 99.4696 2.49226C98.5818 0.465631 95.2238 0.576393 95.2238 0.576393C90.0635 0.576393 90.6362 4.60179 90.6362 4.60179V11.9026C90.7471 15.678 95.832 15.2944 95.918 15.2913C98.1797 15.0368 98.8626 14.3058 98.8626 14.3058C99.4914 13.8311 99.6533 13.1735 99.6533 13.1735C99.8332 12.7906 99.878 11.5703 99.878 11.5703V7.28096H95.2823ZM83.4209 9.52468H83.2653L79.634 1.09222H75.2892V14.9488H78.8253L78.6136 6.51766H78.7717L82.5338 14.9488H86.7466V1.09096H83.1657L83.4209 9.52468ZM66.6575 11.4962C66.6575 11.4962 66.7086 12.6336 65.6714 12.6336C65.6714 12.6336 64.5807 12.6931 64.5807 11.5247L64.5695 1.10045H60.691V11.4418C60.691 11.4418 60.2932 15.3558 65.7262 15.3558C65.7262 15.3558 70.4476 15.4128 70.4476 11.6216V1.10108H66.6575V11.4962ZM8.13858 7.47084C8.13858 7.47084 7.16928 6.8607 6.56852 6.62525C6.56852 6.62525 4.71208 5.75055 4.34353 5.33345C4.34353 5.33345 3.6195 4.6385 4.04408 3.83468C4.04408 3.83468 4.22088 3.30746 4.98537 3.30746C4.98537 3.30746 5.98208 3.36252 5.98208 4.19482V5.3689H9.55302L9.54617 3.63911C9.54617 3.63911 9.81884 0.807409 5.34147 0.683356C5.34147 0.683356 5.00405 0.661202 4.50913 0.686519C4.50913 0.686519 1.79668 0.834624 0.82675 2.34731C0.821147 2.35871 0.813054 2.36694 0.807451 2.37706C0.807451 2.37706 0.41151 2.80682 0.41151 4.30622V5.38915C0.41151 5.38915 0.370421 6.63854 0.998573 7.44362C0.998573 7.44362 1.35343 7.97148 2.22748 8.55377C2.22748 8.55377 4.00175 9.52531 5.06693 10.0817C5.06693 10.0817 6.14332 10.7044 6.00075 11.6988C6.00075 11.6988 5.91297 12.7184 4.87518 12.6766C4.87518 12.6766 3.9258 12.6336 3.9258 11.6336V10.4595H0.121401V12.1652C0.121401 12.1652 0.0149458 15.4248 4.90258 15.4248C4.90258 15.4248 9.57169 15.521 9.79145 12.0798V10.6931C9.79145 10.6918 9.95456 8.58162 8.13858 7.47084Z" fill="white"/>
</svg>
