<svg width="306" height="243" viewBox="0 0 306 243" fill="none" xmlns="http://www.w3.org/2000/svg">
<g clip-path="url(#clip0_900_72)">
<path d="M2.09885 210.426L56.3157 98.0823C61.3329 87.72 71.8281 81.1025 83.3473 81.1025H281.938C295.556 81.1025 304.515 95.3635 298.576 107.675L244.36 220.018C239.342 230.381 228.847 236.998 217.328 236.998H18.7376C5.11942 236.998 -3.83992 222.737 2.09885 210.426Z" fill="#F0F0E7"/>
<path d="M217.328 222.276H18.7376C12.2357 222.276 6.29694 218.993 2.86679 213.504C-0.563356 208.015 -0.972926 201.192 1.89406 195.344L56.1109 83.0008C61.1281 72.5873 71.8281 65.8672 83.3473 65.8672H281.938C288.44 65.8672 294.378 69.1503 297.808 74.6392C301.239 80.1281 301.648 86.9508 298.781 92.7988L244.564 205.193C239.547 215.556 228.847 222.276 217.328 222.276ZM2.09885 195.498L2.35483 195.601C-0.409767 201.295 -0.0513936 207.912 3.32756 213.247C6.65532 218.582 12.4405 221.814 18.7376 221.814H217.328C228.642 221.814 239.189 215.197 244.104 204.988L298.32 92.6449C301.085 86.9508 300.727 80.3333 297.348 74.9983C293.969 69.6633 288.235 66.4315 281.938 66.4315H83.3473C72.0329 66.4315 61.4865 73.049 56.5717 83.2573L2.35483 195.601L2.09885 195.498Z" fill="#A8D4DA"/>
<path d="M72.1867 239.973C72.1867 239.973 74.5929 229.816 81.914 224.071C87.904 219.351 91.9997 224.071 91.9997 224.071C91.9997 224.071 92.87 215.709 100.703 216.479C108.536 217.248 110.277 220.736 110.277 220.736C110.277 220.736 114.526 217.402 117.803 218.582C121.028 219.762 124.305 223.25 124.305 223.25L94.4059 226.636L72.1867 239.973Z" fill="#FCD885"/>
<path d="M124.253 224.994C124.253 224.994 106.181 220.326 91.9997 226.379C77.8183 232.433 72.1867 239.974 72.1867 239.974C72.1867 239.974 81.2485 245.462 88.4159 241.666C95.5834 237.922 96.0954 230.894 96.0954 230.894C96.0954 230.894 100.703 234.69 106.335 233.1C111.966 231.561 113.349 227.457 113.349 227.457C113.349 227.457 118.263 231.048 124.253 224.994Z" fill="#FFC633"/>
<path d="M93.0747 220.531C93.0747 220.531 93.0235 222.532 94.6106 223.712C96.1977 224.892 97.2728 231.714 97.2728 231.714C97.2728 231.714 99.4742 232.997 100.703 233.151L101.266 219.403L95.2762 217.71L93.0747 220.531Z" fill="#FFDEAF"/>
<path d="M225.673 235.51H128.554C125.021 235.51 122.154 232.638 122.154 229.098V6.41229C122.154 2.8727 125.021 0 128.554 0H225.673C229.206 0 232.073 2.8727 232.073 6.41229V229.098C232.073 232.638 229.206 235.51 225.673 235.51Z" fill="#A8D4DA"/>
<path d="M221.168 6.10449H195.16C195.16 8.9772 192.805 11.3369 189.938 11.3369H164.34C161.473 11.3369 159.118 8.9772 159.118 6.10449H133.11C130.602 6.10449 128.554 8.15642 128.554 10.67V224.84C128.554 227.354 130.602 229.406 133.11 229.406H221.168C223.677 229.406 225.724 227.354 225.724 224.84V10.67C225.673 8.15642 223.677 6.10449 221.168 6.10449Z" fill="#EBF5F6"/>
<path d="M166.388 88.5918H134.646V120.397H166.388V88.5918Z" fill="#C1DDDC"/>
<path d="M122.205 124.039C122.205 124.039 129.373 118.397 137.103 119.423C144.834 120.397 149.288 112.036 148.776 110.394C148.315 108.701 141.609 106.803 135.363 107.162C129.066 107.521 122.257 111.574 122.257 111.574V124.039H122.205Z" fill="url(#paint0_linear_900_72)"/>
<path d="M202.123 88.5918H170.381V120.397H202.123V88.5918Z" fill="#C1DDDC"/>
<path d="M216.202 54.5813H173.504C171.149 54.5813 169.255 52.6833 169.255 50.3235V27.0341C169.255 24.6744 171.149 22.7764 173.504 22.7764H216.202C218.557 22.7764 220.451 24.6744 220.451 27.0341V50.3748C220.451 52.6833 218.557 54.5813 216.202 54.5813Z" fill="#A8D4DA"/>
<path d="M220.451 58.8906H134.646V66.1237H220.451V58.8906Z" fill="#A7D4D9"/>
<path d="M162.138 54.5813H138.844C136.489 54.5813 134.595 52.6833 134.595 50.3235V27.0341C134.595 24.6744 136.489 22.7764 138.844 22.7764H162.138C164.493 22.7764 166.388 24.6744 166.388 27.0341V50.3748C166.388 52.6833 164.493 54.5813 162.138 54.5813Z" fill="#C1DDDC"/>
<path d="M170.944 70.5869H134.646V77.82H170.944V70.5869Z" fill="#87C4CA"/>
<path d="M170.944 139.121H134.646V145.226H170.944V139.121Z" fill="#A7D4D9"/>
<g opacity="0.7">
<g opacity="0.7">
<g style="mix-blend-mode:multiply">
<path d="M203.044 235.459L135.568 0H147.292L214.768 235.459H203.044Z" fill="#C4E2E5"/>
</g>
</g>
</g>
<mask id="mask0_900_72" style="mask-type:alpha" maskUnits="userSpaceOnUse" x="122" y="0" width="111" height="236">
<path d="M225.673 235.51H128.554C125.021 235.51 122.154 232.638 122.154 229.098V6.41229C122.154 2.8727 125.021 0 128.554 0H225.673C229.206 0 232.073 2.8727 232.073 6.41229V229.098C232.073 232.638 229.206 235.51 225.673 235.51Z" fill="#A8D4DA"/>
</mask>
<g mask="url(#mask0_900_72)">
<g style="mix-blend-mode:multiply">
<g opacity="0.7">
<path opacity="0.7" d="M220.861 235.459L153.333 0H183.436L250.913 235.459H220.861Z" fill="#C4E2E5"/>
</g>
</g>
</g>
<path d="M212.465 165.745L205.092 228.944V235.459L198.386 235.51C198.386 235.51 191.884 218.377 194.085 206.27C196.287 194.164 206.833 147.38 206.833 147.38L212.465 165.745Z" fill="url(#paint1_linear_900_72)"/>
<path d="M170.944 128.861C170.944 128.861 176.832 134.145 183.026 133.119C189.221 132.093 191.781 125.784 191.781 125.784C191.781 125.784 196.645 126.245 198.334 123.424C200.024 120.602 195.979 107.829 195.979 107.829C195.979 107.829 187.378 110.189 184.409 115.165C181.491 120.089 170.944 128.861 170.944 128.861Z" fill="url(#paint2_linear_900_72)"/>
<path d="M208.369 57.8643C208.369 57.8643 212.669 63.3019 214.308 67.6622C215.946 72.0226 219.53 70.9966 221.219 72.6895C222.909 74.3823 221.322 76.1777 223.062 77.6141C224.803 79.0505 225.571 78.3836 225.571 78.3836V89.6179L210.826 80.8459L206.628 67.1492L208.369 57.8643Z" fill="#172B4D"/>
<path d="M188.863 70.5869C188.863 70.5869 189.938 76.4349 188.556 80.4362C187.173 84.4374 182.719 87.4127 183.078 91.5166C183.436 95.6205 187.378 96.2361 187.378 96.2361L205.553 83.3602L197.617 70.5869H188.863Z" fill="#172B4D"/>
<path d="M133.315 104.238C133.315 104.238 137.718 101.725 141.557 102.135C145.397 102.546 149.544 105.521 150.363 106.444C151.182 107.368 152.821 107.06 153.333 107.675C153.845 108.291 153.947 109.266 153.947 109.266C153.947 109.266 170.023 118.858 172.173 119.628C174.323 120.397 177.036 116.037 178.828 114.242L188.197 118.448C188.197 118.448 182.617 129.477 175.449 130.298C170.995 130.811 153.998 117.473 150.978 114.755C148.008 112.036 143.912 112.959 140.124 111.266C136.438 109.471 133.315 104.238 133.315 104.238Z" fill="#FFCC99"/>
<path d="M139.203 103.571C139.203 103.571 141.302 103.417 144.117 105.367C146.933 107.316 149.135 108.393 149.8 109.727C150.466 111.009 150.312 112.241 148.367 112.035C146.37 111.83 140.482 107.162 138.588 106.393C136.694 105.623 134.441 105.777 135.056 104.905C135.67 104.033 139.203 103.571 139.203 103.571Z" fill="#FFA74F"/>
<path d="M175.552 117.934C175.552 117.934 176.473 120.089 179.391 121.628C182.31 123.167 185.074 123.269 185.074 123.269L186.866 120.705L177.753 115.523L175.552 117.934Z" fill="#FFA74F"/>
<path d="M200.331 216.017L199.409 225.097C199.409 225.097 197.208 226.123 194.648 226.379C192.088 226.636 189.682 224.43 189.682 224.43L190.962 215.094L200.331 216.017Z" fill="#FFCC99"/>
<path d="M221.833 215.76L222.499 223.558C222.499 223.558 223.369 224.532 225.724 224.43V215.401L221.833 215.76Z" fill="#FFCC99"/>
<path d="M190.45 218.889C190.45 218.889 191.525 219.967 194.546 220.275C197.566 220.582 199.973 219.762 199.973 219.762L200.177 217.864L190.655 217.453L190.45 218.889Z" fill="#FFA74F"/>
<path d="M221.987 217.094L222.141 218.685C222.141 218.685 223.574 219.146 225.827 218.479V216.735L221.987 217.094Z" fill="#FFA74F"/>
<path d="M193.266 141.019C193.266 141.019 192.959 144.148 193.061 146.2C193.215 149.432 193.266 155.434 192.703 160.256C192.14 165.027 189.222 216.53 189.222 216.53C189.222 216.53 191.525 218.839 196.543 218.582C201.304 218.326 201.509 217.556 201.509 217.556L208.523 152.407C208.523 152.407 212.004 163.693 214.768 173.953C217.482 184.212 220.298 216.684 220.298 216.684C220.298 216.684 222.397 217.607 225.827 216.735L225.673 145.892V139.121C225.622 139.121 206.167 143.02 193.266 141.019Z" fill="#5041FF"/>
<path d="M176.422 114.703C176.422 114.703 178.47 117.832 183.027 119.525C187.583 121.218 189.785 120.808 189.785 120.808L193.112 116.14C193.112 116.14 194.648 118.653 194.751 123.988C194.853 129.323 193.215 135.633 193.215 141.019C193.215 141.019 208.062 143.071 216.765 141.789C225.468 140.506 225.571 139.121 225.571 139.121V89.6183C225.571 89.6183 223.113 80.6411 213.898 79.7691C204.683 78.897 198.283 81.4106 194.546 84.3859C190.809 87.3612 176.422 114.703 176.422 114.703Z" fill="#FFC633"/>
<path d="M220.298 119.936C220.298 119.936 217.789 126.194 215.28 128.502C212.772 130.811 215.843 131.478 216.816 131.58C217.789 131.683 223.881 129.734 225.11 126.45C226.287 123.065 220.298 119.936 220.298 119.936Z" fill="#FF9D00"/>
<path d="M189.58 110.548C189.58 110.548 186.457 113.728 187.634 115.626C188.812 117.524 192.754 115.678 192.754 115.678C192.754 115.678 190.092 112.138 189.58 110.548Z" fill="#FF9D00"/>
<path d="M45.0525 142.712H54.6774C56.4693 142.712 57.9028 144.148 57.9028 145.944V150.561H54.7798V145.687H37.3731V150.561H34.2501V145.328C34.2501 143.892 35.4276 142.712 36.8611 142.712H45.0525Z" fill="#A7D4D9"/>
<path d="M40.1892 142.712C40.1892 142.712 39.6261 143.379 40.1892 145.687H42.3395V142.712H40.1892Z" fill="#87C4CA"/>
<path d="M63.8417 181.801H26.6732C25.0862 181.801 23.8063 180.518 23.8063 178.928V153.381C23.8063 151.791 25.0862 150.509 26.6732 150.509H63.8929C65.48 150.509 66.7599 151.791 66.7599 153.381V178.979C66.7087 180.518 65.4288 181.801 63.8417 181.801Z" fill="#D0E8EA"/>
<path d="M66.7088 150.509H28.3116V181.801H66.7088V150.509Z" fill="#A7D4D9"/>
<path d="M56.0086 150.509C56.0086 150.509 56.5718 152.766 55.1383 159.024C53.6536 165.539 43.8751 181.801 43.8751 181.801H56.4182C56.4182 181.801 59.8995 167.437 60.9234 160.358C61.9474 153.279 60.9234 150.509 60.9234 150.509H56.0086Z" fill="#87C4CA"/>
<path d="M122.205 206.066C122.205 206.066 117.751 195.652 100.703 194.472C83.6546 193.292 73.4665 191.548 69.9852 193.805C69.9852 193.805 78.4838 194.934 80.7364 199.397C82.9378 203.911 82.6307 208.271 85.856 211.349C85.856 211.349 93.689 207.451 94.713 210.375C95.7369 213.299 92.1532 216.428 92.1532 216.428C92.1532 216.428 97.4264 220.942 106.335 219.506C115.243 218.069 118.622 216.428 118.622 216.428C118.622 216.428 115.703 211.503 117.751 211.349C119.799 211.195 122.205 215.043 122.205 215.043V206.066Z" fill="#FFB200"/>
<path d="M110.072 212.067L113.297 221.763C113.297 221.763 112.581 224.584 107.819 226.072C103.058 227.559 100.549 225.61 100.549 225.61L97.2729 215.453L110.072 212.067Z" fill="#FFCC99"/>
<path d="M99.3207 221.711L99.7815 223.148L101.625 224.584C101.625 224.584 103.928 224.995 108.178 223.148C112.427 221.301 112.529 219.352 112.529 219.352L112.12 216.428L99.3207 221.711Z" fill="#FFA74F"/>
<path d="M83.8596 193.087L89.0816 210.015L93.0237 209.297L89.3376 193.6C89.3376 193.6 85.3442 193.241 83.8596 193.087Z" fill="#FFDEAF"/>
<path d="M58.0055 124.039C58.0055 124.039 56.6232 131.221 57.1352 138.403C57.6472 145.584 58.3639 149.688 58.5175 153.433C58.6711 156.921 58.3127 159.948 55.2409 167.13C51.094 176.774 27.4414 211.759 27.4414 211.759C27.4414 211.759 29.6428 217.043 34.2505 219.967C38.8581 222.891 44.1314 221.506 44.1314 221.506C44.1314 221.506 68.8591 184.725 73.1596 172.926C77.4089 161.128 77.4089 161.128 77.4089 161.128L96.4027 220.018C96.4027 220.018 99.1161 223.353 105.618 221.557C112.427 219.659 112.427 214.529 112.427 214.529C112.427 214.529 100.601 175.953 97.8874 164.513C95.174 153.074 90.8735 129.784 90.8735 129.784C90.8735 129.784 70.4974 132.247 58.0055 124.039Z" fill="#FFC633"/>
<path d="M72.1865 152.92C72.1865 152.92 69.5243 153.895 69.2683 156.049C69.0123 158.204 71.7257 159.537 73.876 159.794C76.0262 160.05 76.9477 159.794 76.9477 159.794L75.6166 156.306L72.1865 152.92Z" fill="#FF9D00"/>
<path d="M27.4923 211.759C27.4923 211.759 30.9224 209.297 38.0387 212.99C45.155 216.632 44.2335 221.506 44.2335 221.506C44.2335 221.506 40.3426 223.301 34.3526 219.967C28.2602 216.581 27.4923 211.759 27.4923 211.759Z" fill="#FF9D00"/>
<path d="M77.255 161.23L75.4632 156.459C74.9 156.1 71.6234 153.792 69.934 149.175C68.1421 144.302 68.4493 139.121 68.4493 139.069L68.9612 139.121C68.9612 139.172 68.6541 144.25 70.3947 149.021C72.1354 153.741 75.7703 156.049 75.7703 156.049L75.8215 156.1L77.6646 161.025L77.255 161.23Z" fill="#FF9D00"/>
<path d="M80.3782 72.9976L79.7638 69.0989C79.7638 69.0989 83.9107 69.2015 84.6275 67.6112C85.3442 66.021 85.3954 62.3788 85.3954 62.3788C85.3954 62.3788 87.5969 62.1736 87.3921 61.2502C87.1361 60.2756 85.4978 56.4282 85.4978 56.4282C85.4978 56.4282 85.2418 54.0685 84.6787 51.7088C84.1155 49.349 83.0404 48.6309 81.7605 47.5023C80.4806 46.3737 75.5145 43.9627 71.2141 44.9887C66.9136 46.0147 66.7088 46.7328 65.3265 48.2718C63.9442 49.8107 64.4561 54.1711 63.7906 57.6081C63.1762 61.0964 66.2992 65.6619 66.9136 66.6879L67.3231 74.3826L80.3782 72.9976Z" fill="#FFCC99"/>
<path d="M83.0404 48.785C83.0404 48.785 81.4533 49.7597 79.5079 50.2214C79.5079 50.2214 80.583 47.8616 81.2486 47.3487C81.4021 47.2461 83.0404 48.785 83.0404 48.785Z" fill="#FFA74F"/>
<path d="M77.46 55.5049C77.0504 55.2997 76.3849 55.1458 75.5657 55.4536C74.337 55.9152 73.9274 57.8646 74.9002 58.8393C76.4873 60.4295 77.204 59.9678 78.1255 60.3269C78.8423 60.5834 78.7911 61.8659 78.4839 62.7892C77.8184 64.9438 76.4361 65.6619 75.6681 66.4827C74.9002 67.3035 72.4427 68.432 70.0365 68.2781C67.7327 68.1242 65.992 65.8158 65.1729 64.8925C64.0978 63.7126 62.5107 60.9938 62.3571 58.788C62.2035 56.5308 62.9714 51.5549 63.3298 50.2211C63.6882 48.8874 65.0705 44.5783 70.0877 43.8601C75.1049 43.142 80.9925 42.1673 83.2452 43.5524C85.4978 44.9374 84.2179 47.5023 82.9892 48.8361C82.9892 48.8361 82.2212 48.1692 81.1973 47.3997C81.1973 47.3997 81.0437 49.2465 79.4566 50.2724C77.8695 51.2984 78.1255 52.6835 78.2791 53.3503C78.3303 53.7094 78.5351 54.2224 78.5863 54.7354C78.6375 55.2997 78.0231 55.7614 77.46 55.5049Z" fill="#172B4D"/>
<path d="M147.804 108.599C147.804 108.599 149.186 108.599 149.749 109.727C150.312 110.856 149.954 113.934 149.954 113.934C149.954 113.934 148.367 113.113 145.756 112.6L147.804 108.599Z" fill="#FFA74F"/>
<path d="M126.148 104.187C126.148 104.187 127.223 103.161 129.731 102.546C132.24 101.93 138.588 101.571 139.407 101.93C140.226 102.289 140.585 103.007 138.179 104.238C137.667 104.495 135.977 104.905 135.977 104.905C135.977 104.905 138.742 106.547 142.018 107.419C145.244 108.291 147.548 108.291 147.906 108.65C148.264 109.009 148.162 110.24 147.343 110.856C146.524 111.472 145.909 112.959 144.22 113.831C142.735 114.601 139.766 114.549 136.489 113.37C133.213 112.19 128.605 112.19 128.605 112.19C128.605 112.19 125.84 105.213 126.148 104.187Z" fill="#FFCC99"/>
<path d="M126.147 104.187C126.147 104.187 126.915 103.418 128.298 102.956C128.298 102.956 130.038 103.879 131.062 107.111C131.984 109.984 132.035 112.395 132.035 112.395L128.605 112.19L126.147 104.187Z" fill="#FFA74F"/>
<path d="M40.3429 150.509C40.3429 150.509 40.2917 151.791 41.418 151.996C42.5443 152.202 43.3123 150.509 43.3123 150.509H40.3429Z" fill="#87C4CA"/>
<path d="M46.5372 131.734C46.5372 131.734 43.9774 136.402 42.4415 140.352C40.9056 144.302 42.1343 145.123 41.5711 147.431C41.008 149.74 42.4415 151.792 43.8238 151.125C45.2061 150.458 45.2061 143.943 46.5372 142.712H52.9367C52.9367 142.712 55.7013 141.891 56.8276 138.352C57.9539 134.863 55.8549 131.272 55.8549 131.272L46.5372 131.734Z" fill="#FFCC99"/>
<path d="M46.5372 142.712C46.5372 142.712 47.5099 139.583 48.8922 138.506C50.2745 137.428 52.9367 138.352 52.9367 140.404C52.9367 142.199 52.8855 142.712 52.8855 142.712H46.5372Z" fill="#FFA74F"/>
<path d="M49.865 134.76C49.865 134.76 54.4726 136.504 57.1348 136.761L56.9812 134.709L49.865 134.76Z" fill="#FFA74F"/>
<path d="M57.4423 128.092C57.4423 128.092 59.2342 131.939 70.4973 132.863C81.5045 133.735 91.3342 131.324 91.3342 131.324L89.4399 106.444C89.4399 106.444 96.249 118.653 103.058 120.243C108.28 121.474 129.731 114.293 129.731 114.293C129.731 114.293 129.936 109.727 127.632 106.034C125.687 102.853 124.817 102.699 124.817 102.699L107.717 106.393C107.717 106.393 98.0921 86.2837 96.1467 82.1798C93.5356 76.6909 86.1634 71.8688 76.1801 71.3559C66.1968 70.8429 59.9509 76.024 58.2614 77.7168C52.3739 83.6162 47.1007 105.623 45.7184 114.908C44.2337 124.809 43.4145 132.452 43.4145 132.452C43.4145 132.452 45.8719 133.888 49.9164 134.761C54.1145 135.684 57.0327 134.709 57.0327 134.709L57.4423 128.092Z" fill="#5041FF"/>
<path d="M57.1861 128.092C57.1861 127.887 57.0325 108.445 57.6468 91.2598H58.1588C57.5444 108.393 57.698 127.835 57.698 128.041L57.1861 128.092Z" fill="#172B4D"/>
<path d="M31.844 210.99C31.844 210.99 33.8918 210.836 37.2708 212.529C41.9296 214.889 42.9024 216.992 42.9024 216.992L37.8851 225.713C37.8851 225.713 35.2741 226.636 30.9736 223.558C26.9803 220.737 26.9803 218.633 26.9803 218.633L31.844 210.99Z" fill="#FFCC99"/>
<path d="M40.5472 228.893C39.7793 228.893 39.2161 228.483 38.9089 228.021C38.5506 227.457 38.5506 226.79 38.9601 226.328C39.1137 226.072 40.2912 224.122 41.9807 224.584C42.6975 224.789 43.1582 225.405 43.2094 226.226C43.2606 227.098 42.7487 228.226 41.4688 228.688C41.1616 228.842 40.8544 228.893 40.5472 228.893ZM41.4688 225.046C40.24 225.046 39.3697 226.636 39.3697 226.636L39.3185 226.687C39.0625 226.944 39.0625 227.354 39.3185 227.765C39.6257 228.226 40.2912 228.585 41.264 228.226C42.2879 227.867 42.6975 226.995 42.6463 226.277C42.5951 225.661 42.2879 225.251 41.7759 225.097C41.7247 225.097 41.6223 225.046 41.4688 225.046Z" fill="#5041FF"/>
<path d="M28.2602 216.582C28.2602 216.582 27.3387 215.915 25.854 217.402C24.3693 218.89 21.7071 222.789 21.7071 222.789C21.7071 222.789 20.2224 224.738 19.864 225.354C19.5057 225.969 18.021 228.329 18.7889 229.509C19.5569 230.689 26.7243 236.998 29.3354 236.998C31.9464 236.998 58.722 236.998 58.722 236.998C58.722 236.998 59.0292 234.844 57.0837 233.048C55.1383 231.253 52.4761 230.535 50.3258 229.919C48.1756 229.304 40.5473 226.38 40.5473 226.38C40.5473 226.38 40.5473 223.763 39.7794 222.327L38.5507 224.533C38.5507 224.533 35.6325 222.43 33.943 221.198C32.2023 219.967 27.2875 218.069 27.2875 218.069L28.2602 216.582Z" fill="#786CFF"/>
<path d="M19.8129 225.353C19.8129 225.353 23.499 223.558 29.6425 227.918C35.7861 232.279 40.4449 236.998 40.4449 236.998H28.0554C28.0554 236.998 21.5535 234.587 18.7377 229.509C17.6114 227.457 19.8129 225.353 19.8129 225.353Z" fill="#172B4D"/>
<path d="M21.7072 222.789C21.7072 222.789 24.8814 221.763 28.7723 223.815C32.6632 225.867 40.445 233.664 41.0594 234.023C41.6737 234.382 49.9675 234.023 49.9675 234.023H57.903C57.903 234.023 58.9269 235.049 58.7221 237.05H40.445C40.445 237.05 32.2536 229.56 27.4924 227.046C22.7311 224.533 19.1986 226.072 19.1986 226.072L21.7072 222.789Z" fill="white"/>
<path d="M115.652 223.866C115.294 223.866 115.038 223.763 114.731 223.558C113.963 222.943 113.86 221.609 113.86 221.455C113.809 220.839 113.963 219.608 115.192 219.147C115.806 218.89 116.318 218.89 116.779 219.095C117.495 219.403 117.803 220.121 117.956 220.429C118.11 220.839 118.161 221.763 117.751 222.532C117.444 223.148 116.881 223.558 116.164 223.763C116.011 223.815 115.857 223.866 115.652 223.866ZM116.113 219.454C115.908 219.454 115.652 219.506 115.396 219.608C114.27 220.07 114.424 221.352 114.424 221.404V221.455C114.424 221.455 114.424 222.686 115.089 223.199C115.345 223.404 115.652 223.456 116.062 223.353C116.676 223.199 117.086 222.891 117.342 222.378C117.7 221.711 117.598 220.942 117.495 220.686C117.444 220.48 117.188 219.865 116.625 219.608C116.471 219.506 116.318 219.454 116.113 219.454Z" fill="#5041FF"/>
<path d="M99.2184 226.379C99.2184 226.379 99.0137 223.917 98.9625 223.558C98.9625 223.558 101.625 222.532 103.519 224.225C105.413 225.918 105.516 226.585 105.516 226.585C105.516 226.585 110.328 225.815 112.325 223.353C112.325 223.353 113.093 222.224 113.297 221.763L112.837 220.429C112.837 220.429 113.707 220.429 114.321 220.788C114.936 221.147 118.468 222.019 121.028 221.814C123.588 221.609 131.779 218.839 133.059 219.659C134.339 220.48 135.005 222.327 134.902 223.507C134.8 224.687 118.775 236.844 118.775 236.844C118.775 236.844 103.314 237.255 101.778 236.844C100.242 236.434 99.2184 226.379 99.2184 226.379Z" fill="#786CFF"/>
<path d="M89.1838 106.547C89.1326 106.444 84.0641 96.3383 82.7842 91.3624L83.2962 91.2598C84.5761 96.1844 89.5934 106.239 89.6445 106.341L89.1838 106.547Z" fill="#172B4D"/>
<path d="M52.6808 147.277C52.6808 147.277 53.0903 147.739 53.9095 147.174C54.7286 146.61 55.343 145.276 55.6501 144.353C55.9573 143.43 55.3942 141.942 55.2406 141.48C55.0358 141.019 54.0119 141.019 53.7047 141.686C53.3975 142.352 52.6808 147.277 52.6808 147.277Z" fill="#FFCC99"/>
<path d="M48.8924 148.15C48.8924 148.15 49.9163 149.125 51.401 148.765C52.8345 148.355 53.0393 145.38 53.6537 144.097C54.268 142.815 54.3704 141.225 53.3977 140.763C52.3738 140.301 51.1962 141.327 50.9403 142.61C50.6843 143.892 50.4283 144.816 50.4283 144.816H49.6092C49.558 144.867 48.9948 147.791 48.8924 148.15Z" fill="#FFCC99"/>
<path d="M46.896 148.355C46.896 148.355 47.9199 149.33 49.4046 148.971C50.8381 148.56 51.0428 145.585 51.6572 144.302C52.2716 143.02 52.374 141.43 51.4012 140.968C50.3773 140.506 49.1998 141.532 48.9438 142.815C48.6878 144.097 48.4318 145.021 48.4318 145.021H47.6127C47.5615 145.072 46.9983 147.996 46.896 148.355Z" fill="#FFCC99"/>
<path d="M44.4893 148.406C44.4893 148.406 45.9228 149.689 47.4075 149.278C48.841 148.868 49.0458 145.893 49.6602 144.61C50.2745 143.328 50.3769 141.737 49.4042 141.276C48.3803 140.814 47.2027 141.84 46.9468 143.122C46.6908 144.405 46.4348 145.328 46.4348 145.328L45.1549 145.38C45.1037 145.38 44.5917 147.996 44.4893 148.406Z" fill="#FFCC99"/>
<path d="M144.629 109.676C144.629 109.676 141.865 111.369 140.943 111.472C139.97 111.625 138.537 111.061 140.431 109.061C140.431 109.061 142.223 107.419 143.349 108.035C144.476 108.65 144.629 109.676 144.629 109.676Z" fill="#FFA74F"/>
<path d="M145.397 105.366C145.397 105.366 142.223 107.469 141.25 107.572C140.278 107.675 138.844 107.982 138.895 109.008C138.946 110.086 140.329 110.445 142.223 110.291C144.117 110.137 147.343 107.726 148.059 107.059" fill="#FFCC99"/>
<path d="M193.573 117.832C193.163 116.601 192.447 115.626 191.679 114.549C190.552 113.01 189.273 111.266 188.658 108.393C187.685 103.622 189.119 98.9029 189.119 98.8516L189.631 99.0055C189.631 99.0568 188.249 103.622 189.17 108.29C189.733 111.061 190.911 112.702 192.088 114.292C192.856 115.37 193.624 116.396 194.085 117.678L193.573 117.832Z" fill="#FF9D00"/>
<path d="M208.215 67.6621C208.215 67.6621 208.778 74.0231 209.802 77.4088C210.826 80.7945 210.826 80.8458 210.826 80.8458C210.826 80.8458 208.676 84.4367 205.809 85.9756C202.942 87.5145 200.433 85.4626 200.433 85.4626L199.051 80.1276L208.215 67.6621Z" fill="#FFCC99"/>
<path d="M199.358 81.3593C199.358 81.3593 202.379 79.5639 204.17 77.1016C204.17 77.1016 204.887 81.308 200.177 84.5911L199.358 81.3593Z" fill="#FFA74F"/>
<path d="M191.781 58.5312C191.269 59.198 189.682 60.737 190.194 68.124C190.706 75.4596 191.525 81.2563 196.082 82.231C201.099 83.3595 207.243 73.3051 207.908 70.9966C208.574 68.6882 210.058 63.9688 207.908 60.3266C205.758 56.6331 195.365 54.0682 191.781 58.5312Z" fill="#FFCC99"/>
<path d="M193.368 70.0739C193.368 70.0739 193.982 69.0992 193.368 67.8168C192.754 66.5343 190.194 67.3038 190.143 68.0733C190.143 68.8427 190.399 72.5875 190.603 73.1518C190.859 73.7161 191.883 74.1265 192.395 73.357C192.395 73.357 192.447 72.844 192.651 72.2284C192.907 71.6642 193.368 70.0739 193.368 70.0739Z" fill="url(#paint3_linear_900_72)"/>
<path d="M224.956 115.934C222.806 115.934 220.246 115.267 220.144 115.216L219.99 115.165L215.024 94.0811L215.536 93.9785L220.451 114.754C221.117 114.908 223.728 115.524 225.571 115.37L225.622 115.883C225.417 115.934 225.212 115.934 224.956 115.934Z" fill="#FF9D00"/>
<path d="M188.3 225.61C188.197 225.61 188.146 225.61 188.044 225.61C187.122 225.559 186.354 225.149 185.996 224.533C185.74 224.123 185.74 223.712 185.893 223.302C186.098 222.84 186.405 222.584 186.815 222.532C187.788 222.378 188.863 223.558 189.016 223.712C189.068 223.815 189.733 224.584 189.426 225.149C189.221 225.456 188.863 225.61 188.3 225.61ZM186.969 223.045C186.917 223.045 186.917 223.045 186.866 223.045C186.661 223.097 186.457 223.251 186.354 223.507C186.252 223.712 186.303 223.969 186.405 224.225C186.661 224.687 187.327 225.046 188.044 225.097C188.76 225.149 188.914 224.995 188.914 224.943C189.016 224.738 188.76 224.328 188.556 224.071C188.3 223.764 187.532 223.045 186.969 223.045Z" fill="#5041FF"/>
<path d="M189.836 221.968C189.836 221.968 191.167 220.736 193.522 222.378C195.877 224.02 196.03 225.251 196.03 225.251C196.03 225.251 196.696 225.251 197.617 224.943C198.539 224.635 198.897 224.276 198.897 224.276L199.153 223.045C199.153 223.045 199.716 223.147 199.921 223.814C200.126 224.481 199.921 228.226 199.921 228.226C199.921 228.226 200.382 232.125 200.331 233.407C200.28 234.69 200.331 235.408 200.331 235.408H168.026C168.026 235.408 167.36 233.92 168.896 232.843C170.381 231.766 179.494 228.175 180.876 227.61C182.259 227.046 188.146 224.379 188.76 223.866C189.375 223.353 189.836 221.968 189.836 221.968Z" fill="#786CFF"/>
<path d="M190.552 62.9435C190.552 62.9435 192.088 63.5078 195.006 63.3026C197.925 63.1487 191.576 60.9941 191.576 60.9941L191.013 61.4045L190.552 62.9435Z" fill="#FFA74F"/>
<path d="M193.01 68.2775C192.805 68.021 192.498 67.6619 191.372 67.6106C190.296 67.5593 189.887 68.1236 189.836 68.1749L189.426 67.8671C189.426 67.8158 190.04 67.0977 191.372 67.0977C192.703 67.149 193.112 67.6106 193.317 67.8671L193.01 68.2775Z" fill="#C97C00"/>
<path d="M202.993 67.3547C203.352 67.1495 205.911 70.6378 206.065 71.1508C206.219 71.6638 206.475 73.9209 206.475 73.9209C206.475 73.9209 207.294 75.4598 209.034 73.6131C210.775 71.7664 212.055 66.1236 209.546 59.9678C207.038 53.812 200.126 52.8373 196.389 53.4016C192.447 54.0172 190.143 56.4795 188.607 60.3781C187.071 64.2768 187.788 66.6878 187.686 68.1755C187.583 69.6631 186.457 72.3306 187.737 73.8183C189.017 75.3059 190.86 74.4852 190.86 74.4852C190.86 74.4852 189.989 66.7391 190.245 64.7385C190.501 62.7379 191.064 61.3528 191.064 61.3528C191.064 61.3528 192.856 63.456 196.082 63.3022C199.307 63.1483 200.331 63.969 201.099 64.5846C201.56 65.0463 201.56 68.1755 202.993 67.3547Z" fill="#172B4D"/>
<path d="M205.604 69.7148C205.604 69.7148 205.143 70.9973 204.683 71.3564C204.222 71.7668 204.836 72.2798 205.604 71.5103C206.372 70.7408 206.679 70.3304 206.628 70.0226C206.577 69.7148 205.604 69.7148 205.604 69.7148Z" fill="#172B4D"/>
<path d="M202.123 67.919C202.123 67.919 203.915 66.2262 204.939 67.0983C205.963 67.9703 205.809 70.1762 204.683 71.1508C204.017 71.7151 203.505 71.7151 203.505 71.7151L202.123 67.919Z" fill="#FFCC99"/>
<path d="M141.967 208.168H136.745C135.619 208.168 134.646 207.245 134.646 206.065C134.646 204.937 135.568 203.962 136.745 203.962H141.967C143.094 203.962 144.066 204.885 144.066 206.065C144.015 207.245 143.094 208.168 141.967 208.168Z" fill="#87C4CA"/>
<path d="M148.264 208.168C147.138 208.168 146.165 207.245 146.165 206.065C146.165 204.937 147.087 203.962 148.264 203.962C149.391 203.962 150.363 204.885 150.363 206.065C150.363 207.245 149.391 208.168 148.264 208.168Z" fill="#A7D4D9"/>
<path d="M154.357 208.168C153.23 208.168 152.257 207.245 152.257 206.065C152.257 204.937 153.179 203.962 154.357 203.962C155.483 203.962 156.456 204.885 156.456 206.065C156.456 207.245 155.534 208.168 154.357 208.168Z" fill="#A7D4D9"/>
<path d="M231.97 219.916L231.561 219.608C231.612 219.557 236.168 212.683 242.261 199.756C247.892 187.803 255.981 168.156 262.79 142.096C269.446 116.601 273.798 101.109 274.514 100.699L274.617 100.647L274.719 100.699L274.668 100.955L274.873 101.109C274.719 101.263 273.286 103.931 263.354 142.25C256.596 168.31 248.455 188.008 242.824 200.012C236.578 212.939 232.021 219.813 231.97 219.916Z" fill="#FF9D00"/>
<path d="M226.134 220.275C226.134 220.275 243.541 206.989 261.613 213.812C279.736 220.634 284.037 238.127 284.037 238.127C284.037 238.127 283.269 240.025 275.487 234.536C267.705 229.099 264.736 221.404 264.736 221.404C264.736 221.404 262.586 227.919 253.114 223.558C243.643 219.198 243.643 216.787 243.643 216.787C243.643 216.787 243.95 221.455 240.315 220.788C236.68 220.121 226.134 220.275 226.134 220.275Z" fill="#FFB200"/>
<path d="M225.775 220.942C223.42 220.89 222.499 222.634 222.499 222.634L221.833 225.815C221.833 225.815 220.758 226.841 218.198 229.406C215.638 231.971 214.717 235.459 214.717 235.459H221.065C223.625 235.459 225.724 233.356 225.724 230.791V220.942H225.775Z" fill="#786CFF"/>
<path d="M260.384 151.022C260.384 151.022 254.445 143.943 255.111 133.427C255.777 122.911 264.429 125.322 264.429 125.322C264.429 125.322 260.384 120.859 262.534 114.447C264.173 109.624 269.036 111.728 269.036 111.728C269.036 111.728 266.016 108.855 266.835 105.726C267.91 101.365 271.903 102.545 271.903 102.545C271.903 102.545 270.879 96.3895 276.101 95.7227L260.384 151.022Z" fill="#FF9D00"/>
<path d="M240.264 181.442C240.264 181.442 246.766 164.36 254.957 159.076C263.149 153.793 264.685 156.357 264.685 156.357C264.685 156.357 273.798 146.508 282.245 146.252C291.307 145.995 294.02 151.022 294.02 151.022C294.02 151.022 297.962 148.817 300.42 151.022" fill="#FF9D00"/>
<path d="M232.073 206.065L243.438 203.962C243.438 203.962 244.718 210.015 254.189 210.272C254.189 210.272 251.118 205.399 254.189 206.168C257.261 206.938 259.719 212.221 259.719 212.221C259.719 212.221 266.63 216.223 276.869 213.863C287.109 211.503 286.085 209.297 286.085 209.297C286.085 209.297 278.815 204.219 283.781 204.014C288.798 203.757 300.471 209.297 300.471 209.297C300.471 209.297 303.696 206.168 300.471 201.449C297.246 196.729 287.774 191.086 285.317 190.163C285.317 190.163 279.173 192.831 276.869 190.779C274.566 188.727 280.556 187.598 280.556 187.598C280.556 187.598 274.924 179.647 262.023 182.212C249.121 184.777 249.121 191.035 249.121 191.035C249.121 191.035 252.449 196.934 250.043 195.755C247.636 194.575 246.971 193.087 246.971 193.087C246.971 193.087 242.619 195.242 242.107 200.833C242.107 200.833 234.377 202.885 232.226 204.116L232.073 206.065Z" fill="#FFC633"/>
<path d="M232.073 192.728C232.073 192.728 242.158 176.979 251.732 169.643C261.306 162.308 277.433 156.203 281.272 156.049C285.112 155.895 285.112 155.947 285.112 155.947C285.112 155.947 300.164 150.714 300.368 151.073C300.573 151.484 302.468 153.023 300.368 154.921C298.269 156.87 294.327 158.101 292.279 160.666C290.232 163.231 277.177 179.749 274.975 181.083C274.975 181.083 271.647 177.235 268.422 178.005C265.197 178.774 269.19 183.135 269.19 183.135C269.19 183.135 267.654 186.469 260.384 186.828C253.114 187.239 247.483 186.418 247.483 186.418C247.483 186.418 245.025 182.417 244.309 183.853C243.592 185.289 244.309 185.905 244.309 185.905C244.309 185.905 240.469 186.828 239.803 187.7C239.138 188.572 233.148 195.139 232.124 197.857L232.073 192.728Z" fill="#FFB200"/>
<path d="M242.107 201.14L242.005 200.627C242.158 200.576 259.309 196.318 272.262 196.575C285.214 196.831 291.716 199.396 291.819 199.396L291.614 199.858C291.563 199.858 285.112 197.293 272.262 197.036C259.36 196.831 242.261 201.089 242.107 201.14Z" fill="#FF9D00"/>
<path d="M260.384 151.022C260.384 151.022 271.699 144.199 278.149 133.58C284.651 122.962 273.388 125.732 273.388 125.732C273.388 125.732 277.177 122.91 280.197 116.652C283.218 110.393 276.05 112.651 276.05 112.651C276.05 112.651 280.965 108.547 280.453 105.725C279.941 102.904 277.023 103.776 277.023 103.776C277.023 103.776 279.788 97.9793 275.999 95.7734L260.384 151.022Z" fill="#FFC633"/>
<path d="M217.175 109.727C217.175 109.727 219.325 107.265 219.888 105.213C220.451 103.161 221.834 104.29 221.834 105.623C221.834 106.957 221.936 110.599 221.322 111.933C220.707 113.318 225.571 115.627 225.571 115.627L225.724 127.117C225.724 127.117 222.294 123.68 220.4 121.269C218.506 118.858 215.844 115.986 214.564 115.216C213.284 114.447 209.137 114.19 207.396 111.266C205.656 108.342 205.963 108.291 206.577 107.573C207.191 106.906 208.215 109.009 209.034 109.727C209.905 110.446 214.922 110.343 217.175 109.727Z" fill="#FFCC99"/>
<path d="M79.7639 69.1503C79.7639 69.1503 79.3032 69.2016 78.2281 69.0477C77.2041 68.9451 76.3338 68.4834 76.3338 68.4834C76.3338 68.4834 77.4601 70.5866 80.1223 71.3048L79.7639 69.1503Z" fill="#FFA74F"/>
<path d="M26.7243 216.427C28.0043 215.145 31.3832 214.991 31.9976 218.223C32.6119 221.3 31.588 222.07 31.588 222.07L24.4205 218.941C24.5229 218.992 25.854 217.299 26.7243 216.427Z" fill="#786CFF"/>
<path d="M77.3065 56.4793C77.3065 56.4793 76.5898 55.7612 75.7195 56.4793C74.8491 57.1975 75.1563 58.5313 76.129 58.993C77.1018 59.4546 77.4089 59.0956 77.5113 58.7878C77.6137 58.5313 76.5386 58.3261 76.9482 57.7618C77.3577 57.1975 77.6137 57.5566 77.7673 57.3514C77.9209 57.1462 77.6649 56.8384 77.3065 56.4793Z" fill="#FFA74F"/>
<path d="M85.2931 64.6358C85.0371 64.6358 82.5285 64.5845 81.7094 62.0709L82.2214 61.917C82.9381 64.1228 85.2931 64.1228 85.2931 64.1228V64.6358Z" fill="#FFA74F"/>
<path d="M49.6606 145.585L49.1998 145.328C49.4046 145.02 49.8653 143.584 49.8141 142.507C49.8141 141.635 49.4046 141.481 49.4046 141.481L49.5582 140.968C49.6094 140.968 50.2749 141.173 50.3261 142.455C50.3773 143.687 49.9165 145.174 49.6606 145.585Z" fill="#C97C00"/>
<path d="M48.2781 149.124L47.8685 148.816C47.8685 148.816 48.2269 148.355 48.4828 147.944L48.8924 148.201C48.6364 148.663 48.2781 149.124 48.2781 149.124Z" fill="#FFA74F"/>
<path d="M48.9437 148.2L48.5341 147.944C48.6365 147.739 48.7901 147.123 48.8925 146.61C49.0461 145.994 49.0973 145.584 49.2509 145.379L49.7117 145.635C49.6093 145.789 49.5069 146.302 49.4045 146.713C49.1997 147.431 49.0973 147.944 48.9437 148.2Z" fill="#FFA74F"/>
<path d="M52.4249 145.43L51.9129 145.379C51.9129 145.328 51.9641 145.225 52.0153 145.071C52.1689 144.507 52.4761 143.378 52.4249 142.558C52.3225 141.583 51.5545 141.121 51.5545 141.121L51.8105 140.711C51.8617 140.711 52.8344 141.327 52.9368 142.558C53.0392 143.481 52.6808 144.661 52.5273 145.276C52.4761 145.328 52.4249 145.379 52.4249 145.43Z" fill="#C97C00"/>
<path d="M50.1725 149.073L49.9677 148.611C49.9677 148.611 50.4797 148.354 50.9917 147.688L51.4012 147.995C50.8381 148.816 50.2237 149.073 50.1725 149.073Z" fill="#FFA74F"/>
<path d="M51.4012 147.996L50.9917 147.688C51.5036 146.97 51.9132 145.328 51.9132 145.328L52.4252 145.431C52.374 145.533 51.9644 147.175 51.4012 147.996Z" fill="#FFA74F"/>
<path d="M53.1929 147.482L52.7321 147.329C52.7321 147.277 53.7049 144.712 53.9609 142.866C54.2168 141.224 53.2953 141.019 53.2953 141.019L53.3977 140.506C53.3977 140.506 54.78 140.814 54.4728 142.917C54.1656 144.815 53.2441 147.38 53.1929 147.482Z" fill="#FFA74F"/>
<path d="M44.899 148.509L45.5134 145.379L46.3837 145.328C46.3837 145.328 46.2813 147.226 44.899 148.509Z" fill="#FFA74F"/>
<path d="M204.119 67.8678C204.119 67.8678 203.505 67.7652 202.993 68.5347C202.481 69.3042 202.737 69.9198 202.737 69.9198C202.737 69.9198 203.044 69.4068 203.403 69.612C203.761 69.8172 203.556 70.125 203.3 70.3815C203.044 70.6379 203.403 70.7918 203.71 70.484C204.017 70.1763 204.683 69.612 204.683 69.099C204.683 68.586 204.58 67.9191 204.119 67.8678Z" fill="#FFA74F"/>
<path d="M224.598 115.165C224.598 115.165 223.676 119.987 221.372 122.501C221.372 122.501 222.755 124.04 223.215 124.553C223.83 125.219 225.724 127.169 225.724 127.169L225.57 115.678L224.598 115.165Z" fill="#FFA74F"/>
<path d="M221.321 111.984C221.321 111.984 219.837 113.729 220.4 114.036C221.014 114.344 222.141 113.523 222.141 113.523C222.141 113.523 221.219 112.908 221.321 111.984Z" fill="#FFA74F"/>
<path d="M57.6471 99.416C57.6471 99.416 53.1931 115.678 54.1658 119.935C55.1385 124.193 57.4423 122.346 57.4423 122.346L57.6471 99.416Z" fill="#172B4D"/>
<path d="M73.0572 139.531C73.0572 139.531 74.1324 139.788 76.1802 139.839C78.2281 139.89 80.5831 139.736 81.4022 139.685C82.2214 139.634 82.2214 139.583 82.2214 139.583C82.2214 139.583 82.4774 141.275 82.5797 141.737C82.5797 141.737 79.0472 142.25 76.129 141.994C74.1324 141.788 73.0061 141.532 73.0061 141.532V139.531H73.0572Z" fill="#FF9D00"/>
<path d="M78.9959 151.33C78.8423 151.33 78.6887 151.33 78.5351 151.33C75.7194 151.073 74.1835 150.15 73.6203 148.303C73.1083 146.508 73.1083 140.249 73.1083 139.993V139.736L82.3237 140.044L82.3749 140.249C82.5285 141.532 83.3988 148.047 83.3476 148.611C83.194 149.637 81.4533 151.33 78.9959 151.33ZM73.6203 140.301C73.6203 141.532 73.6715 146.713 74.0811 148.201C74.5418 149.791 75.9753 150.612 78.5351 150.817C80.8902 151.022 82.6821 149.432 82.8356 148.56C82.8868 148.149 82.2725 143.532 81.9141 140.557L73.6203 140.301Z" fill="#FF9D00"/>
<path d="M73.8763 136.146C72.0844 136.146 70.2926 136.094 68.6031 135.889C60.5653 135.068 57.1351 131.991 56.9815 131.837L57.3399 131.478C57.3911 131.529 60.7701 134.607 68.6543 135.376C78.7399 136.402 91.539 133.889 91.6926 133.837L91.795 134.35C91.6926 134.402 82.7332 136.146 73.8763 136.146Z" fill="#FF9D00"/>
<path d="M30.8201 212.632C30.8201 212.632 33.2775 212.991 36.8612 215.094C40.4449 217.197 41.6225 219.249 41.6225 219.249L42.9024 216.992C42.9024 216.992 41.3153 214.94 37.9875 212.991C35.4789 211.503 33.2775 211.144 32.3047 211.042C31.9976 210.99 31.7928 210.99 31.7928 210.99L30.8201 212.632Z" fill="#FFA74F"/>
<path d="M197.259 69.9196C197.57 69.9196 197.822 69.6669 197.822 69.3553C197.822 69.0436 197.57 68.791 197.259 68.791C196.948 68.791 196.696 69.0436 196.696 69.3553C196.696 69.6669 196.948 69.9196 197.259 69.9196Z" fill="#C97C00"/>
<path d="M198.744 68.5349C198.539 68.2784 198.283 67.868 197.157 67.7654C196.082 67.6628 195.621 68.1758 195.621 68.1758L195.211 67.8167C195.211 67.7654 195.877 67.0985 197.208 67.2011C198.488 67.355 198.898 67.868 199.102 68.1245L198.744 68.5349Z" fill="#C97C00"/>
<path d="M191.269 69.817C191.58 69.817 191.832 69.5644 191.832 69.2528C191.832 68.9411 191.58 68.6885 191.269 68.6885C190.958 68.6885 190.706 68.9411 190.706 69.2528C190.706 69.5644 190.958 69.817 191.269 69.817Z" fill="#C97C00"/>
<path d="M193.675 68.8428C193.727 70.1765 192.191 72.7927 192.447 73.7674C192.703 74.7421 194.546 74.3317 195.109 74.383C195.672 74.4343 196.133 74.2291 195.979 73.6135" fill="url(#paint4_linear_900_72)"/>
<path d="M222.14 132.503C222.14 132.503 219.017 133.94 217.021 134.196C215.024 134.453 215.894 136.145 217.686 136.248C219.478 136.351 221.782 134.863 222.448 133.94C223.215 133.016 223.164 132.041 222.14 132.503Z" fill="#FF9D00"/>
<path d="M217.738 109.727C217.738 109.727 216.816 108.599 216.458 107.573C216.1 106.547 214.615 106.29 214.308 107.367C214 108.445 214.82 110.804 215.485 111.163C216.151 111.523 218.25 111.266 217.738 109.727Z" fill="#FFCC99"/>
<path d="M215.178 109.727C215.178 109.727 214.256 108.599 213.898 107.573C213.54 106.547 212.055 106.29 211.748 107.367C211.441 108.445 212.26 110.804 212.925 111.163C213.642 111.523 215.69 111.266 215.178 109.727Z" fill="#FFCC99"/>
<path d="M212.669 109.727C212.669 109.727 211.748 108.599 211.389 107.573C211.031 106.547 209.546 106.29 209.239 107.367C208.932 108.445 209.751 110.804 210.416 111.163C211.082 111.523 213.181 111.266 212.669 109.727Z" fill="#FFCC99"/>
<path d="M210.109 109.727C210.109 109.727 209.188 108.599 208.829 107.573C208.471 106.547 206.986 106.29 206.679 107.367C206.372 108.445 207.191 110.804 207.857 111.163C208.573 111.523 210.621 111.266 210.109 109.727Z" fill="#FFCC99"/>
<path d="M92.4604 155.074C92.4604 155.074 91.3341 158.204 88.4671 159.896C85.6001 161.589 88.2111 163.436 90.4637 162.513C92.7163 161.589 93.2283 159.178 93.5867 156.408C93.9451 153.638 92.4604 155.074 92.4604 155.074Z" fill="#FF9D00"/>
<g style="mix-blend-mode:multiply">
<g opacity="0.7">
<path opacity="0.7" d="M125.584 231.561C125.584 231.561 142.223 223.404 144.015 226.38C145.807 229.355 134.646 236.998 134.646 236.998L118.775 236.844L125.584 231.561Z" fill="#C4E2E5"/>
</g>
</g>
<path d="M83.0401 91.5162C82.9377 91.5162 82.8353 91.4649 82.7841 91.3623C82.7329 91.2597 81.6066 88.6435 81.6578 81.7695C81.709 75.4085 83.6033 73.6644 83.7057 73.6131C83.8081 73.5105 83.9617 73.5105 84.064 73.6131C84.1664 73.7157 84.1664 73.8696 84.064 73.9722C84.0128 74.0235 82.221 75.7163 82.221 81.7695C82.1698 88.5409 83.2961 91.1058 83.2961 91.1571C83.3473 91.311 83.2961 91.4136 83.1425 91.5162C83.1425 91.5162 83.0913 91.5162 83.0401 91.5162Z" fill="#4333E2"/>
<path d="M57.9031 91.567C57.8007 91.567 57.6983 91.5158 57.6471 91.4645C57.4935 91.2593 57.3911 89.7203 57.1351 82.795C57.0839 81.5639 57.0327 80.384 56.9815 79.3581C56.9815 79.2042 57.0839 79.1016 57.2375 79.1016C57.3911 79.1016 57.4935 79.2042 57.4935 79.3581C57.5447 80.384 57.5959 81.5639 57.6471 82.795C57.8007 86.3859 57.9543 90.8489 58.1078 91.208C58.2102 91.3106 58.159 91.4645 58.0566 91.567C58.0055 91.5157 57.9543 91.567 57.9031 91.567Z" fill="#4333E2"/>
<path d="M107.717 106.392C107.717 106.392 109.918 112.035 111.454 112.035C112.99 112.035 112.529 105.366 112.478 105.366C112.427 105.366 107.717 106.392 107.717 106.392Z" fill="#172B4D"/>
<path d="M208.522 152.407C208.522 152.407 206.423 147.38 206.27 144.354C206.27 144.354 204.682 149.894 205.194 154.151C205.706 158.409 208.061 156.46 208.061 156.46L208.522 152.407Z" fill="#172B4D"/>
<path d="M194.853 77.768C194.699 77.768 194.495 77.768 194.341 77.7167C193.112 77.5628 192.652 76.4856 192.652 76.4343L193.112 76.2291C193.112 76.2804 193.471 77.1012 194.392 77.2038C195.467 77.3577 196.082 77.0499 196.594 76.1778L197.157 75.2031L197.618 75.4596L197.054 76.4343C196.491 77.3577 195.775 77.768 194.853 77.768Z" fill="#FFA74F"/>
<path d="M198.641 218.479L198.129 218.377C199.819 209.451 205.911 151.535 205.963 150.971L206.474 151.022C206.423 151.638 200.331 209.553 198.641 218.479Z" fill="#172B4D"/>
<path d="M83.45 56.4284C83.7893 56.4284 84.0643 56.1528 84.0643 55.8128C84.0643 55.4729 83.7893 55.1973 83.45 55.1973C83.1107 55.1973 82.8356 55.4729 82.8356 55.8128C82.8356 56.1528 83.1107 56.4284 83.45 56.4284Z" fill="#C97C00"/>
<path d="M81.8628 54.3759L81.402 54.1194C81.402 54.0681 81.9652 53.196 83.1939 52.9395C84.8834 52.5804 85.3441 53.4012 85.3953 53.4012L84.9346 53.6577C84.9346 53.6577 84.5762 53.1447 83.2963 53.4012C82.2724 53.6577 81.8628 54.3759 81.8628 54.3759Z" fill="#C97C00"/>
<path d="M100.396 233.817L115.55 234.023C115.55 234.023 117.444 233.92 118.468 232.945C119.492 231.971 134.134 220.736 134.134 220.736C134.134 220.736 135.721 222.327 134.902 223.506C133.366 225.712 122.206 234.792 118.775 236.844C118.775 236.844 106.13 237.306 101.881 236.998C101.01 236.947 100.703 236.793 100.396 233.817Z" fill="white"/>
<path d="M40.6498 214.581L40.1891 214.324C40.445 213.914 64.5585 173.901 69.0125 166.052C73.4154 158.306 71.9307 153.023 71.9307 152.971L72.4427 152.817C72.4939 153.023 74.0298 158.358 69.4733 166.309C65.0192 174.157 40.9058 214.17 40.6498 214.581Z" fill="#FF9D00"/>
<path d="M110.942 218.172C110.891 218.069 107.461 207.912 103.416 194.985C99.3718 182.058 88.3134 135.684 88.1599 135.223L88.6718 135.12C88.7742 135.582 99.8326 181.955 103.877 194.883C107.922 207.81 111.352 217.967 111.403 218.069L110.942 218.172Z" fill="#FF9D00"/>
<path d="M218.454 111.266C217.84 111.574 212.976 111.984 211.697 111.522C210.417 111.061 209.137 112.702 211.389 113.472C213.642 114.241 215.895 115.267 217.021 115.626C218.147 115.985 220.912 114.498 221.219 113.985C221.321 113.779 221.27 113.574 221.219 113.42C220.963 112.907 220.809 112.292 220.912 111.727C221.168 110.445 221.475 108.444 221.27 108.085C220.912 107.572 220.246 110.445 218.454 111.266Z" fill="#FFA74F"/>
<path d="M208.932 7.74609H197.925V10.9779H208.932V7.74609Z" fill="#D0E8EA"/>
<path d="M219.53 10.9774H211.748C210.877 10.9774 210.161 10.2592 210.161 9.38712C210.161 8.51505 210.877 7.79688 211.748 7.79688H219.53C220.4 7.79688 221.117 8.51505 221.117 9.38712C221.168 10.2592 220.451 10.9774 219.53 10.9774Z" fill="#D0E8EA"/>
<path d="M118.826 237.1H107.102V236.587H118.673C119.082 236.331 121.13 234.946 123.076 233.458C123.434 233.202 123.895 232.843 124.458 232.381C127.479 230.073 133.161 225.815 134.697 223.353L134.748 223.301C134.748 223.301 135.209 222.788 134.595 221.711C133.929 220.582 133.571 220.326 133.571 220.326L133.827 219.864C133.878 219.916 134.288 220.172 135.056 221.403C135.824 222.686 135.312 223.455 135.209 223.609C133.622 226.123 127.939 230.432 124.868 232.74C124.304 233.151 123.844 233.51 123.485 233.817C121.335 235.51 119.031 236.998 118.98 236.998L118.826 237.1Z" fill="#A8D4DA"/>
<path d="M58.7221 236.741H40.445V237.254H58.7221V236.741Z" fill="#A8D4DA"/>
<path d="M114.68 220.993C114.68 220.993 116.676 223.712 116.932 224.43C117.393 225.713 118.059 225.713 118.929 225.867C119.799 225.969 123.332 224.379 124.049 224.02C124.765 223.661 124.458 221.814 123.485 221.404C123.485 221.404 120.772 221.763 118.468 221.455C116.113 221.147 114.68 220.993 114.68 220.993Z" fill="#978EFF"/>
<path d="M40.4964 226.379V228.995C40.4964 228.995 40.5476 230.124 42.3395 230.585C44.7969 231.15 49.4558 231.919 49.6606 231.663C50.2237 231.098 49.8141 229.816 49.8141 229.816L40.4964 226.379Z" fill="#978EFF"/>
<path d="M170.023 232.176H200.382V235.459H168.077C168.026 235.459 166.9 233.612 170.023 232.176Z" fill="white"/>
<path d="M188.76 223.866C188.76 223.866 191.423 223.404 192.651 225.148C193.88 226.892 188.965 228.944 186.457 229.303C183.948 229.663 181.439 227.405 181.439 227.405L188.76 223.866Z" fill="#978EFF"/>
<path d="M48.7387 233.972C48.7387 233.972 49.3531 232.433 51.2986 232.279C53.244 232.176 56.1622 232.279 56.1622 232.279C56.1622 232.279 57.5957 233.356 57.9029 233.972H48.7387Z" fill="#FCD885"/>
<path d="M128.554 220.121C128.554 220.121 129.271 219.967 129.424 220.736C129.578 221.506 125.328 224.019 124.868 225.302C124.407 226.584 124.868 227.867 124.868 227.867L134.083 220.736C134.083 220.736 133.929 220.326 133.008 219.659C132.086 218.992 128.554 220.121 128.554 220.121Z" fill="#FCD885"/>
<path d="M170.023 232.176L176.422 229.406C176.422 229.406 177.139 230.381 180.262 230.484C183.385 230.586 184.46 230.278 185.075 230.689C185.689 231.099 186.252 232.176 186.252 232.176H170.023Z" fill="#FCD885"/>
<path d="M215.69 233.048C215.843 232.894 225.264 232.996 225.264 232.996C225.264 232.996 223.881 235.51 221.117 235.51C218.352 235.51 214.666 235.51 214.666 235.51C214.666 235.51 215.332 233.407 215.69 233.048Z" fill="white"/>
<path d="M222.909 225.148C222.909 225.148 222.345 226.328 221.987 226.738C221.629 227.149 220.605 227.559 220.553 228.175C220.502 228.842 224.291 229.611 225.776 229.098V224.84C225.776 224.84 224.752 224.43 222.909 225.148Z" fill="#978EFF"/>
<path d="M185.382 228.739C185.382 228.739 184.972 228.226 184.306 227.508C183.743 226.892 183.129 226.636 183.129 226.636L183.334 226.174C183.385 226.174 184.102 226.482 184.716 227.148C185.433 227.918 185.842 228.431 185.842 228.431L185.382 228.739Z" fill="#5041FF"/>
<path d="M186.815 228.072C186.815 228.072 186.406 227.559 185.74 226.841C185.177 226.225 184.562 225.969 184.562 225.969L184.767 225.507C184.818 225.507 185.535 225.815 186.15 226.482C186.866 227.251 187.225 227.764 187.276 227.764L186.815 228.072Z" fill="#5041FF"/>
<path d="M188.3 227.354C188.3 227.354 187.89 226.841 187.225 226.123C186.661 225.507 186.047 225.251 186.047 225.251L186.252 224.789C186.303 224.789 187.02 225.097 187.634 225.764C188.351 226.533 188.76 227.046 188.76 227.046L188.3 227.354Z" fill="#5041FF"/>
<path d="M189.785 226.636C189.785 226.636 189.375 226.123 188.709 225.405C188.146 224.789 187.532 224.533 187.532 224.533L187.737 224.071C187.788 224.071 188.505 224.379 189.119 225.046C189.836 225.815 190.245 226.328 190.245 226.328L189.785 226.636Z" fill="#5041FF"/>
<path d="M191.628 231.406C191.576 231.406 191.576 231.406 191.525 231.406C191.372 231.355 191.32 231.201 191.372 231.098C191.372 231.098 191.679 230.278 191.372 228.585C191.32 228.174 191.167 227.815 191.013 227.456C190.86 227.508 190.706 227.559 190.501 227.559C189.682 227.661 188.965 227.302 188.453 226.584C187.276 224.943 188.351 223.865 188.505 223.763C188.505 223.763 188.505 223.763 188.556 223.711C188.607 223.711 188.658 223.66 188.658 223.66C188.709 223.66 188.709 223.66 188.761 223.66C188.761 223.66 188.761 223.66 188.812 223.66C190.45 224.276 191.679 225.097 192.037 225.815C192.191 226.122 192.139 226.328 192.088 226.482C191.986 226.738 191.781 226.995 191.474 227.148C191.679 227.559 191.781 228.021 191.883 228.431C192.191 230.278 191.832 231.15 191.832 231.201C191.832 231.304 191.73 231.406 191.628 231.406ZM188.812 224.224C188.607 224.532 188.249 225.199 188.965 226.225C189.477 226.943 190.092 227.046 190.501 226.995C190.604 226.995 190.706 226.943 190.808 226.943C190.194 225.661 189.221 224.635 188.812 224.224ZM189.887 224.635C190.348 225.148 190.911 225.866 191.32 226.687C191.525 226.533 191.628 226.43 191.679 226.276C191.73 226.225 191.679 226.122 191.628 226.02C191.474 225.661 190.86 225.148 189.887 224.635Z" fill="#5041FF"/>
<path d="M217.789 229.867C217.789 229.867 216.253 231.714 215.69 233.048H225.264C225.264 233.048 225.776 231.97 225.776 230.842H219.939C219.939 230.791 218.096 230.739 217.789 229.867Z" fill="#FCD885"/>
<path d="M221.629 228.021L221.475 227.508C221.526 227.508 222.704 227.149 224.393 227.098C225.161 227.098 225.827 227.098 225.827 227.098V227.611C225.827 227.611 225.161 227.611 224.445 227.611C222.755 227.713 221.629 228.021 221.629 228.021Z" fill="#5041FF"/>
<path d="M222.909 227.097L222.755 226.584C222.806 226.584 223.421 226.379 224.547 226.379H225.827V226.892H224.547C223.472 226.892 222.909 227.097 222.909 227.097Z" fill="#5041FF"/>
<path d="M223.523 226.277L223.472 225.764C223.523 225.764 224.342 225.661 225.775 225.661V226.174C224.342 226.174 223.523 226.277 223.523 226.277Z" fill="#5041FF"/>
<path d="M224.086 225.507L223.984 224.994C224.035 224.994 224.752 224.892 225.775 224.892V225.405C224.854 225.405 224.086 225.507 224.086 225.507Z" fill="#5041FF"/>
<path d="M221.475 226.995C221.424 226.995 221.424 226.995 221.373 226.995C220.656 226.944 220.246 226.585 220.246 226.072C220.195 225.251 221.168 224.225 222.652 224.02C224.752 223.712 225.315 224.122 225.417 224.276L225.571 224.43L225.417 224.584C225.263 224.687 223.216 226.995 221.475 226.995ZM223.881 224.43C223.574 224.43 223.164 224.43 222.652 224.533C221.424 224.687 220.656 225.507 220.707 226.02C220.707 226.379 221.065 226.431 221.373 226.482C222.601 226.533 224.137 225.097 224.752 224.533C224.547 224.481 224.291 224.43 223.881 224.43Z" fill="#5041FF"/>
<path d="M118.212 225.2L117.751 223.763C117.342 222.378 116.215 221.455 116.215 221.404L116.523 220.993C116.574 221.044 117.803 222.07 118.263 223.558L118.724 224.994L118.212 225.2Z" fill="#5041FF"/>
<path d="M119.799 224.122L119.287 224.07C119.287 224.07 119.287 223.763 118.929 222.942C118.571 222.07 117.956 221.659 117.905 221.659L118.161 221.249C118.212 221.249 118.929 221.762 119.339 222.788C119.851 223.711 119.799 224.07 119.799 224.122Z" fill="#5041FF"/>
<path d="M120.926 224.532L120.465 223.198C120.055 222.019 119.595 221.711 119.595 221.711L119.851 221.249C119.902 221.3 120.465 221.608 120.926 222.993L121.387 224.327L120.926 224.532Z" fill="#5041FF"/>
<path d="M121.95 223.815C121.95 223.815 121.898 223.61 121.642 222.84C121.386 222.071 120.977 221.763 120.977 221.763L121.284 221.353C121.284 221.353 121.796 221.763 122.103 222.686C122.41 223.507 122.41 223.764 122.41 223.764L121.95 223.815Z" fill="#5041FF"/>
<path d="M116.83 228.483C115.857 228.483 114.936 228.072 114.27 227.303C113.297 226.174 112.99 224.379 113.502 222.943C113.809 221.968 114.372 221.352 115.038 221.045C116.011 220.583 117.035 220.993 117.035 220.993C119.082 221.917 119.953 224.225 119.697 225.918C119.492 227.303 118.622 228.278 117.342 228.483C117.239 228.483 117.035 228.483 116.83 228.483ZM116.164 221.301C115.908 221.301 115.601 221.352 115.345 221.455C114.782 221.711 114.372 222.276 114.065 223.045C113.604 224.328 113.912 225.918 114.731 226.893C115.192 227.457 116.062 228.072 117.393 227.867C118.468 227.713 119.185 226.944 119.338 225.764C119.543 224.276 118.775 222.224 116.983 221.404C116.881 221.404 116.574 221.301 116.164 221.301Z" fill="#5041FF"/>
<path d="M121.591 227.815C120.209 227.815 118.263 227.302 117.035 225.866C115.652 224.276 115.345 221.249 115.345 221.095L115.857 221.044C115.857 221.095 116.164 224.019 117.444 225.507C118.673 226.943 120.567 227.354 121.898 227.251L121.95 227.764C121.796 227.815 121.694 227.815 121.591 227.815Z" fill="#5041FF"/>
<path d="M42.3393 229.303L41.8273 229.252C41.9297 227.867 41.469 226.482 41.469 226.482L41.9809 226.328C41.9809 226.379 42.4417 227.764 42.3393 229.303Z" fill="#5041FF"/>
<path d="M43.7215 229.816L43.2095 229.765C43.3119 228.38 42.8512 226.995 42.8512 226.995L43.3631 226.841C43.3631 226.892 43.8239 228.277 43.7215 229.816Z" fill="#5041FF"/>
<path d="M45.1037 230.278L44.5917 230.227C44.6941 228.842 44.2334 227.457 44.2334 227.457L44.7453 227.303C44.7965 227.354 45.2061 228.79 45.1037 230.278Z" fill="#5041FF"/>
<path d="M46.5373 230.791L46.0253 230.739C46.1277 229.354 45.667 227.969 45.667 227.969L46.1789 227.815C46.1789 227.867 46.5885 229.303 46.5373 230.791Z" fill="#5041FF"/>
<path d="M47.9195 230.996L47.4075 230.945C47.5099 229.559 47.0492 228.174 47.0492 228.174L47.5611 228.021C47.5611 228.072 48.0219 229.508 47.9195 230.996Z" fill="#5041FF"/>
<path d="M41.2644 236.793C41.0596 236.691 40.5476 236.024 40.0869 232.33C40.0357 232.074 40.0357 231.817 40.0357 231.561C39.2165 231.15 38.7558 230.432 38.7046 229.458C38.6534 227.867 39.9333 226.995 41.162 226.585C41.3668 226.277 41.5204 226.072 41.5204 226.072L41.7251 225.815L41.9299 226.072C41.9299 226.123 42.0323 226.226 42.0835 226.328C42.1859 226.328 42.2883 226.277 42.3907 226.277L42.4419 226.79H42.3907C42.8515 227.56 43.4658 228.688 43.4658 229.252C43.517 230.073 43.4658 230.586 42.9539 231.202C42.4419 231.715 41.418 231.92 40.5476 231.715C40.5476 231.869 40.5988 232.023 40.5988 232.228C41.0596 235.767 41.5204 236.28 41.5716 236.332L41.2644 236.793ZM40.4964 231.253C41.3156 231.51 42.1859 231.304 42.5443 230.945C42.9027 230.535 43.0051 230.227 42.9539 229.406C42.9027 228.945 42.2883 227.765 41.8275 226.995C41.7251 226.995 41.6228 227.047 41.4692 227.098C41.0596 227.816 40.4452 229.201 40.4964 231.253ZM40.7524 227.303C39.9333 227.662 39.1653 228.278 39.1653 229.458C39.2165 230.278 39.5749 230.74 39.9333 230.997C39.9845 229.355 40.394 228.124 40.7524 227.303Z" fill="#5041FF"/>
</g>
<defs>
<linearGradient id="paint0_linear_900_72" x1="122.182" y1="115.542" x2="148.782" y2="115.542" gradientUnits="userSpaceOnUse">
<stop stop-color="#2494A1"/>
<stop offset="0.998" stop-color="white" stop-opacity="0"/>
</linearGradient>
<linearGradient id="paint1_linear_900_72" x1="198.02" y1="233.679" x2="206.587" y2="163.576" gradientUnits="userSpaceOnUse">
<stop stop-color="#2494A1"/>
<stop offset="0.998" stop-color="white" stop-opacity="0"/>
</linearGradient>
<linearGradient id="paint2_linear_900_72" x1="194.118" y1="111.19" x2="176.32" y2="139.202" gradientUnits="userSpaceOnUse">
<stop stop-color="#2494A1"/>
<stop offset="0.998" stop-color="white" stop-opacity="0"/>
</linearGradient>
<linearGradient id="paint3_linear_900_72" x1="190.802" y1="68.393" x2="192.535" y2="71.3717" gradientUnits="userSpaceOnUse">
<stop stop-color="#FFCC99" stop-opacity="0.3"/>
<stop offset="1" stop-color="#FFB759"/>
</linearGradient>
<linearGradient id="paint4_linear_900_72" x1="197.49" y1="68.8944" x2="192.654" y2="73.634" gradientUnits="userSpaceOnUse">
<stop offset="0.00200123" stop-color="#FFCC99" stop-opacity="0"/>
<stop offset="0.2661" stop-color="#FFD19F" stop-opacity="0.2646"/>
<stop offset="0.6161" stop-color="#FFE0B0" stop-opacity="0.6153"/>
<stop offset="1" stop-color="#FFF7CA"/>
</linearGradient>
<clipPath id="clip0_900_72">
<rect width="306" height="243" fill="white"/>
</clipPath>
</defs>
</svg>
