<svg width="98" height="10" viewBox="0 0 98 10" fill="none" xmlns="http://www.w3.org/2000/svg">
<path d="M27.7404 0.54801H17.6921L17.3332 0.839962V9.92589H20.0965V6.49582L20.3477 6.24045H27.7403C29.6064 6.24045 30.4677 5.72964 30.4677 4.41603V2.3361C30.4678 1.05886 29.6065 0.54801 27.7404 0.54801ZM27.7404 3.90503C27.7404 4.52531 27.3456 4.63479 26.4485 4.63479H20.3836L20.0965 4.37941V2.44547L20.3477 2.19005H26.4484C27.3097 2.19005 27.7403 2.29952 27.7403 2.9198L27.7404 3.90503ZM35.5637 2.26299L37.9681 5.83897L37.8245 6.1674H32.5133L31.1496 7.88243H39.0446L39.6188 8.21081L40.839 9.92585H44.0329L37.035 0.438538M67.2515 8.10134V5.54712L67.5386 5.29164H72.8858V3.68608H64.4165V9.92585H76.905V8.32029H67.5745M64.4165 0.54801H77.0127V2.29952H64.4165V0.54801ZM50.3848 2.22652H60.5407C60.3972 0.912913 59.5718 0.54801 57.5621 0.54801H50.2772C47.9805 0.54801 47.2627 0.985912 47.2627 2.77385V7.73643C47.2627 9.48799 47.9805 9.96237 50.2772 9.96237H57.5621C59.6077 9.96237 60.3972 9.56095 60.469 8.21081H50.3848L50.0977 7.91886V2.44547M10.5148 4.19698H3.15806L2.94273 3.94161V2.33605L3.15806 2.15362H13.0986L13.2422 1.82519C12.9192 0.949389 12.022 0.511585 10.4071 0.511585H3.48101C1.18429 0.511585 0.466551 0.949439 0.466551 2.73738V3.79561C0.466551 5.54717 1.18429 6.02154 3.48101 6.02154H10.8378L11.0531 6.2404V7.91891L10.8737 8.17438H0.251218C0.251218 8.17438 6.10352e-05 8.32029 6.10352e-05 8.35681C0.179472 9.59747 1.00488 9.92585 2.9786 9.92585H10.5148C12.8116 9.92585 13.5652 9.48799 13.5652 7.70001V6.42282C13.5652 4.67136 12.8116 4.19698 10.5148 4.19698ZM84.9436 0.511537H80.7807L80.5654 0.949387L85.1589 4.37946C86.0202 3.86856 86.9891 3.35775 87.9939 2.84685M88.6758 6.93373L92.731 9.92585H96.8939L97.0733 9.52442L91.0443 5.03622C90.2548 5.6565 89.4295 6.27687 88.6758 6.93373Z" fill="white"/>
</svg>
