<svg width="16" height="16" viewBox="0 0 16 16" fill="none" xmlns="http://www.w3.org/2000/svg">
<mask id="path-1-inside-1_627_4315" fill="white">
<path d="M8 1.75C6.76387 1.75 5.5555 2.11656 4.52769 2.80331C3.49988 3.49007 2.6988 4.46619 2.22576 5.60823C1.75271 6.75027 1.62894 8.00693 1.87009 9.21931C2.11125 10.4317 2.70651 11.5453 3.58059 12.4194C4.45466 13.2935 5.56831 13.8887 6.78069 14.1299C7.99307 14.3711 9.24974 14.2473 10.3918 13.7742C11.5338 13.3012 12.5099 12.5001 13.1967 11.4723C13.8834 10.4445 14.25 9.23613 14.25 8C14.2482 6.34296 13.5891 4.7543 12.4174 3.58259C11.2457 2.41088 9.65705 1.75182 8 1.75ZM8 13.75C6.86276 13.75 5.75106 13.4128 4.80547 12.7809C3.85989 12.1491 3.1229 11.2511 2.6877 10.2004C2.25249 9.14975 2.13862 7.99362 2.36049 6.87823C2.58235 5.76284 3.12999 4.73829 3.93414 3.93414C4.73829 3.12998 5.76284 2.58235 6.87823 2.36048C7.99362 2.13862 9.14976 2.25249 10.2004 2.68769C11.2511 3.1229 12.1491 3.85989 12.781 4.80547C13.4128 5.75105 13.75 6.86276 13.75 8C13.7483 9.52449 13.142 10.9861 12.064 12.064C10.9861 13.142 9.52449 13.7483 8 13.75ZM10.2 9.65062C9.85361 10.1122 9.37077 10.4531 8.81987 10.6251C8.26898 10.797 7.67794 10.7913 7.13047 10.6088C6.58301 10.4262 6.10685 10.076 5.76944 9.60779C5.43203 9.13959 5.25047 8.57711 5.25047 8C5.25047 7.42289 5.43203 6.8604 5.76944 6.3922C6.10685 5.92401 6.58301 5.57382 7.13047 5.39124C7.67794 5.20867 8.26898 5.20295 8.81987 5.37491C9.37077 5.54687 9.85361 5.88778 10.2 6.34937C10.2197 6.37564 10.2341 6.40553 10.2423 6.43735C10.2505 6.46917 10.2523 6.50229 10.2477 6.53482C10.2431 6.56735 10.2321 6.59865 10.2154 6.62694C10.1987 6.65523 10.1766 6.67995 10.1503 6.69969C10.1241 6.71943 10.0942 6.7338 10.0623 6.74198C10.0305 6.75017 9.9974 6.75201 9.96487 6.7474C9.93234 6.74278 9.90104 6.73181 9.87275 6.71509C9.84446 6.69838 9.81974 6.67626 9.8 6.65C9.51666 6.27221 9.12163 5.99315 8.67088 5.85234C8.22012 5.71154 7.73649 5.71613 7.28849 5.86546C6.84049 6.0148 6.45083 6.3013 6.17471 6.6844C5.89859 7.0675 5.75 7.52776 5.75 8C5.75 8.47224 5.89859 8.9325 6.17471 9.3156C6.45083 9.6987 6.84049 9.9852 7.28849 10.1345C7.73649 10.2839 8.22012 10.2885 8.67088 10.1477C9.12163 10.0068 9.51666 9.72779 9.8 9.35C9.83987 9.29696 9.89917 9.26192 9.96487 9.2526C10.0306 9.24329 10.0973 9.26045 10.1503 9.30031C10.2034 9.34018 10.2384 9.39948 10.2477 9.46518C10.257 9.53087 10.2399 9.59758 10.2 9.65062Z"/>
</mask>
<path d="M8 1.75C6.76387 1.75 5.5555 2.11656 4.52769 2.80331C3.49988 3.49007 2.6988 4.46619 2.22576 5.60823C1.75271 6.75027 1.62894 8.00693 1.87009 9.21931C2.11125 10.4317 2.70651 11.5453 3.58059 12.4194C4.45466 13.2935 5.56831 13.8887 6.78069 14.1299C7.99307 14.3711 9.24974 14.2473 10.3918 13.7742C11.5338 13.3012 12.5099 12.5001 13.1967 11.4723C13.8834 10.4445 14.25 9.23613 14.25 8C14.2482 6.34296 13.5891 4.7543 12.4174 3.58259C11.2457 2.41088 9.65705 1.75182 8 1.75ZM8 13.75C6.86276 13.75 5.75106 13.4128 4.80547 12.7809C3.85989 12.1491 3.1229 11.2511 2.6877 10.2004C2.25249 9.14975 2.13862 7.99362 2.36049 6.87823C2.58235 5.76284 3.12999 4.73829 3.93414 3.93414C4.73829 3.12998 5.76284 2.58235 6.87823 2.36048C7.99362 2.13862 9.14976 2.25249 10.2004 2.68769C11.2511 3.1229 12.1491 3.85989 12.781 4.80547C13.4128 5.75105 13.75 6.86276 13.75 8C13.7483 9.52449 13.142 10.9861 12.064 12.064C10.9861 13.142 9.52449 13.7483 8 13.75ZM10.2 9.65062C9.85361 10.1122 9.37077 10.4531 8.81987 10.6251C8.26898 10.797 7.67794 10.7913 7.13047 10.6088C6.58301 10.4262 6.10685 10.076 5.76944 9.60779C5.43203 9.13959 5.25047 8.57711 5.25047 8C5.25047 7.42289 5.43203 6.8604 5.76944 6.3922C6.10685 5.92401 6.58301 5.57382 7.13047 5.39124C7.67794 5.20867 8.26898 5.20295 8.81987 5.37491C9.37077 5.54687 9.85361 5.88778 10.2 6.34937C10.2197 6.37564 10.2341 6.40553 10.2423 6.43735C10.2505 6.46917 10.2523 6.50229 10.2477 6.53482C10.2431 6.56735 10.2321 6.59865 10.2154 6.62694C10.1987 6.65523 10.1766 6.67995 10.1503 6.69969C10.1241 6.71943 10.0942 6.7338 10.0623 6.74198C10.0305 6.75017 9.9974 6.75201 9.96487 6.7474C9.93234 6.74278 9.90104 6.73181 9.87275 6.71509C9.84446 6.69838 9.81974 6.67626 9.8 6.65C9.51666 6.27221 9.12163 5.99315 8.67088 5.85234C8.22012 5.71154 7.73649 5.71613 7.28849 5.86546C6.84049 6.0148 6.45083 6.3013 6.17471 6.6844C5.89859 7.0675 5.75 7.52776 5.75 8C5.75 8.47224 5.89859 8.9325 6.17471 9.3156C6.45083 9.6987 6.84049 9.9852 7.28849 10.1345C7.73649 10.2839 8.22012 10.2885 8.67088 10.1477C9.12163 10.0068 9.51666 9.72779 9.8 9.35C9.83987 9.29696 9.89917 9.26192 9.96487 9.2526C10.0306 9.24329 10.0973 9.26045 10.1503 9.30031C10.2034 9.34018 10.2384 9.39948 10.2477 9.46518C10.257 9.53087 10.2399 9.59758 10.2 9.65062Z" fill="white"/>
<path d="M8 1.75L8.00879 -6.25H8V1.75ZM14.25 8H22.25L22.25 7.99121L14.25 8ZM8 13.75V21.75L8.00868 21.75L8 13.75ZM13.75 8L21.75 8.00868V8H13.75ZM10.2 9.65062L3.8048 4.84423L3.80137 4.84881L10.2 9.65062ZM10.2 6.34937L3.80136 11.1512L3.8048 11.1558L10.2 6.34937ZM9.8 6.65L3.4 11.45L3.4048 11.4564L9.8 6.65ZM5.75 8H-2.25H5.75ZM9.8 9.35L3.4048 4.5436L3.4 4.55L9.8 9.35ZM8 -6.25C5.18162 -6.25 2.42653 -5.41425 0.083127 -3.84844L8.97225 9.45507C8.68446 9.64736 8.34612 9.75 8 9.75V-6.25ZM0.083127 -3.84844C-2.26027 -2.28263 -4.08673 -0.0570863 -5.16528 2.54676L9.61679 8.6697C9.48434 8.98947 9.26004 9.26278 8.97225 9.45507L0.083127 -3.84844ZM-5.16528 2.54676C-6.24383 5.15061 -6.52603 8.01581 -5.97619 10.78L9.71638 7.65859C9.7839 7.99806 9.74925 8.34992 9.61679 8.6697L-5.16528 2.54676ZM-5.97619 10.78C-5.42635 13.5443 -4.06917 16.0834 -2.07627 18.0763L9.23744 6.76256C9.48218 7.0073 9.64885 7.31912 9.71638 7.65859L-5.97619 10.78ZM-2.07627 18.0763C-0.0833695 20.0692 2.45574 21.4263 5.21997 21.9762L8.34141 6.28362C8.68088 6.35115 8.9927 6.51782 9.23744 6.76256L-2.07627 18.0763ZM5.21997 21.9762C7.98419 22.526 10.8494 22.2438 13.4532 21.1653L7.33031 6.38321C7.65008 6.25076 8.00195 6.2161 8.34141 6.28362L5.21997 21.9762ZM13.4532 21.1653C16.0571 20.0867 18.2826 18.2603 19.8484 15.9169L6.54493 7.02775C6.73722 6.73997 7.01053 6.51566 7.33031 6.38321L13.4532 21.1653ZM19.8484 15.9169C21.4143 13.5735 22.25 10.8184 22.25 8H6.25C6.25 7.65388 6.35264 7.31554 6.54493 7.02775L19.8484 15.9169ZM22.25 7.99121C22.2459 4.21548 20.7441 0.595586 18.0743 -2.07426L6.76056 9.23945C6.43412 8.91302 6.25051 8.47043 6.25001 8.00879L22.25 7.99121ZM18.0743 -2.07426C15.4044 -4.74411 11.7845 -6.24585 8.00879 -6.25L7.99122 9.75C7.52958 9.74949 7.08699 9.56588 6.76056 9.23945L18.0743 -2.07426ZM8 5.75C8.44501 5.75 8.88002 5.88196 9.25004 6.12919L0.360912 19.4327C2.62209 20.9436 5.28051 21.75 8 21.75V5.75ZM9.25004 6.12919C9.62005 6.37643 9.90843 6.72783 10.0787 7.13896L-4.70334 13.2619C-3.66264 15.7744 -1.90026 17.9218 0.360912 19.4327L9.25004 6.12919ZM10.0787 7.13896C10.249 7.5501 10.2936 8.0025 10.2068 8.43895L-5.4858 5.31751C-6.01634 7.98475 -5.74405 10.7494 -4.70334 13.2619L10.0787 7.13896ZM10.2068 8.43895C10.12 8.87541 9.90566 9.27632 9.59099 9.59099L-1.72272 -1.72272C-3.64569 0.200253 -4.95525 2.65027 -5.4858 5.31751L10.2068 8.43895ZM9.59099 9.59099C9.27632 9.90566 8.87541 10.12 8.43896 10.2068L5.31751 -5.4858C2.65027 -4.95525 0.200257 -3.64569 -1.72272 -1.72272L9.59099 9.59099ZM8.43896 10.2068C8.0025 10.2936 7.5501 10.249 7.13897 10.0787L13.2619 -4.70334C10.7494 -5.74405 7.98475 -6.01634 5.31751 -5.4858L8.43896 10.2068ZM7.13897 10.0787C6.72783 9.90843 6.37643 9.62004 6.1292 9.25003L19.4327 0.360909C17.9218 -1.90027 15.7744 -3.66264 13.2619 -4.70334L7.13897 10.0787ZM6.1292 9.25003C5.88196 8.88002 5.75 8.44501 5.75 8H21.75C21.75 5.28051 20.9436 2.62209 19.4327 0.360909L6.1292 9.25003ZM5.75001 7.99132C5.75065 7.39708 5.987 6.82737 6.40718 6.40718L17.7209 17.7209C20.297 15.1448 21.746 11.6519 21.75 8.00868L5.75001 7.99132ZM6.40718 6.40718C6.82737 5.98699 7.39708 5.75065 7.99132 5.75L8.00868 21.75C11.6519 21.746 15.1448 20.297 17.7209 17.7209L6.40718 6.40718ZM3.80137 4.84881C4.46267 3.96759 5.38445 3.31675 6.43616 2.98847L11.2036 18.2617C13.3571 17.5895 15.2445 16.2568 16.5986 14.4524L3.80137 4.84881ZM6.43616 2.98847C7.48787 2.66019 8.61621 2.67109 9.66137 3.01965L4.59957 18.1979C6.73968 18.9116 9.05008 18.9339 11.2036 18.2617L6.43616 2.98847ZM9.66137 3.01965C10.7065 3.3682 11.6156 4.03674 12.2597 4.93057L-0.720828 14.285C0.598135 16.1153 2.45947 17.4842 4.59957 18.1979L9.66137 3.01965ZM12.2597 4.93057C12.9039 5.82441 13.2505 6.89824 13.2505 8H-2.74953C-2.74953 10.256 -2.03979 12.4548 -0.720828 14.285L12.2597 4.93057ZM13.2505 8C13.2505 9.10176 12.9039 10.1756 12.2597 11.0694L-0.720828 1.71498C-2.03979 3.54522 -2.74953 5.74402 -2.74953 8H13.2505ZM12.2597 11.0694C11.6156 11.9633 10.7065 12.6318 9.66137 12.9804L4.59957 -2.19786C2.45947 -1.48416 0.598132 -0.115251 -0.720828 1.71498L12.2597 11.0694ZM9.66137 12.9804C8.6162 13.3289 7.48787 13.3398 6.43616 13.0115L11.2036 -2.2617C9.05008 -2.9339 6.73968 -2.91157 4.59957 -2.19786L9.66137 12.9804ZM6.43616 13.0115C5.38445 12.6832 4.46267 12.0324 3.80137 11.1512L16.5986 1.54756C15.2445 -0.256843 13.3571 -1.5895 11.2036 -2.2617L6.43616 13.0115ZM3.8048 11.1558C3.19337 10.3422 2.74815 9.41619 2.49458 8.43054L17.99 4.44416C17.7201 3.39487 17.2461 2.40906 16.5952 1.54298L3.8048 11.1558ZM2.49458 8.43054C2.24101 7.44489 2.18407 6.41898 2.32699 5.41137L18.1684 7.65828C18.3206 6.58561 18.26 5.49345 17.99 4.44416L2.49458 8.43054ZM2.32699 5.41137C2.46991 4.40373 2.8099 3.43411 3.32754 2.55787L17.1033 10.696C17.6543 9.7632 18.0163 8.73097 18.1684 7.65828L2.32699 5.41137ZM3.32754 2.55787C3.84519 1.68163 4.53036 0.915928 5.34392 0.304487L14.9567 13.0949C15.8228 12.444 16.5522 11.6288 17.1033 10.696L3.32754 2.55787ZM5.34392 0.304487C6.1575 -0.306966 7.08353 -0.752176 8.06915 -1.00574L12.0555 14.4897C13.1048 14.2198 14.0906 13.7458 14.9567 13.0949L5.34392 0.304487ZM8.06915 -1.00574C9.05472 -1.25929 10.0806 -1.31626 11.0883 -1.17333L8.84141 14.6681C9.91416 14.8203 11.0063 14.7596 12.0555 14.4897L8.06915 -1.00574ZM11.0883 -1.17333C12.096 -1.03041 13.0656 -0.690416 13.9418 -0.172771L5.80368 13.603C6.73649 14.154 7.76872 14.516 8.84141 14.6681L11.0883 -1.17333ZM13.9418 -0.172771C14.8181 0.344879 15.5838 1.03005 16.1952 1.84361L3.4048 11.4564C4.05572 12.3225 4.87086 13.0519 5.80368 13.603L13.9418 -0.172771ZM16.2 1.85C14.9092 0.128966 13.1097 -1.14232 11.0562 -1.78376L6.28554 13.4885C5.13361 13.1286 4.1241 12.4155 3.4 11.45L16.2 1.85ZM11.0562 -1.78376C9.00278 -2.42521 6.79956 -2.4043 4.75867 -1.724L9.81831 13.4549C8.67342 13.8366 7.43747 13.8483 6.28554 13.4885L11.0562 -1.78376ZM4.75867 -1.724C2.71777 -1.0437 0.942655 0.261497 -0.31523 2.00672L12.6646 11.3621C11.959 12.3411 10.9632 13.0733 9.81831 13.4549L4.75867 -1.724ZM-0.31523 2.00672C-1.57311 3.75194 -2.25 5.8487 -2.25 8H13.75C13.75 9.20682 13.3703 10.3831 12.6646 11.3621L-0.31523 2.00672ZM-2.25 8C-2.25 10.1513 -1.57312 12.2481 -0.31523 13.9933L12.6646 4.63792C13.3703 5.61694 13.75 6.79318 13.75 8H-2.25ZM-0.31523 13.9933C0.942655 15.7385 2.71777 17.0437 4.75867 17.724L9.81831 2.54507C10.9632 2.9267 11.959 3.65889 12.6646 4.63792L-0.31523 13.9933ZM4.75867 17.724C6.79957 18.4043 9.00278 18.4252 11.0562 17.7838L6.28554 2.51155C7.43747 2.15171 8.67342 2.16344 9.81831 2.54507L4.75867 17.724ZM11.0562 17.7838C13.1097 17.1423 14.9092 15.871 16.2 14.15L3.4 4.55C4.1241 3.58454 5.13361 2.87138 6.28554 2.51155L11.0562 17.7838ZM16.1952 14.1564C14.9603 15.7995 13.1233 16.8847 11.0883 17.1733L8.84141 1.33188C6.675 1.63916 4.7194 2.79446 3.4048 4.54361L16.1952 14.1564ZM11.0883 17.1733C9.05338 17.462 6.98704 16.9304 5.34392 15.6955L14.9567 2.90511C13.2075 1.59047 11.0077 1.02461 8.84141 1.33188L11.0883 17.1733ZM5.34392 15.6955C3.70083 14.4606 2.61562 12.6236 2.32699 10.5886L18.1684 8.34172C17.8612 6.17535 16.7059 4.21973 14.9567 2.90511L5.34392 15.6955ZM2.32699 10.5886C2.03834 8.55361 2.56994 6.48729 3.8048 4.84423L16.5952 14.457C17.9098 12.7079 18.4757 10.5081 18.1684 8.34172L2.32699 10.5886Z" fill="white" mask="url(#path-1-inside-1_627_4315)"/>
</svg>
