<svg width="111" height="33" viewBox="0 0 111 33" fill="none" xmlns="http://www.w3.org/2000/svg">
<path fill-rule="evenodd" clip-rule="evenodd" d="M38.1255 15.2778V1.8668H43.0156C44.0526 1.8668 44.7199 2.08902 45.3125 2.31124C46.6464 2.97789 47.2384 4.23776 47.2384 5.34885C47.2384 6.60872 46.7198 7.4976 45.6822 8.16425C47.2383 8.53462 48.1279 9.57227 48.1279 11.2019C48.1279 13.0543 47.0161 14.3876 45.1637 14.9808C44.497 15.2031 43.7563 15.2771 42.6446 15.2771L38.1255 15.2778ZM44.1267 4.16369C43.7563 4.01554 43.3859 3.94147 42.8668 3.94147H40.3477V7.42352H42.7186C43.3853 7.42352 43.8304 7.34945 44.2007 7.12723C44.4509 6.9878 44.6587 6.78334 44.8021 6.53547C44.9455 6.28761 45.0193 6.00557 45.0155 5.71922C45.0155 5.05319 44.6452 4.45998 44.1267 4.16369ZM44.7939 9.72041C44.4977 9.57227 44.0526 9.49819 43.3119 9.49819H40.3483V13.2025H43.0896C43.9785 13.2025 44.4236 13.0543 44.7939 12.9062C45.4606 12.6099 45.7569 12.0167 45.7569 11.2759C45.7569 10.5352 45.4606 10.0173 44.7939 9.72041ZM61.4641 15.2778V1.8668H63.7616V15.2778H61.4641ZM78.1349 15.2778V1.8668H80.4324V15.2778H78.1349ZM87.7675 1.79272C89.2484 1.79272 90.7311 2.16309 91.5465 2.53408L91.4718 4.7569C90.286 4.16431 89.1755 3.79332 87.7682 3.79332C86.5077 3.79332 85.3972 4.16369 85.3972 5.20133C85.3972 7.94266 92.2879 6.83094 92.2879 11.3506C92.2879 13.8698 90.2132 15.4259 87.1015 15.4259C85.0268 15.4259 83.6182 14.8333 82.5812 14.2401L83.5448 12.3877C84.3602 12.9062 85.6941 13.4247 87.175 13.4247C88.5823 13.4247 89.8428 12.9062 89.8428 11.721C89.8428 8.83091 83.0262 10.0908 83.0262 5.57107C83.0256 3.12667 84.9515 1.79272 87.7675 1.79272ZM103.104 15.2778V9.49882H96.6575V15.2778H94.3613V1.8668H96.6575V7.35008H103.104V1.8668H105.401V15.2778H103.104ZM43.1637 17.5747C44.5711 17.5747 45.6828 17.8709 46.868 18.3895L46.2013 20.316C45.5347 20.0191 44.6452 19.6493 43.3859 19.6493C40.8668 19.6493 39.3107 21.7981 39.3107 24.3912C39.3107 27.0591 40.7928 29.2072 43.3859 29.2072C44.6452 29.2072 45.5347 28.8369 46.2013 28.5406L46.868 30.4665C45.6822 30.985 44.5711 31.2819 43.1637 31.2819C39.1625 31.2819 36.8656 28.4665 36.8656 24.4653C36.8656 20.6863 39.1625 17.5747 43.1637 17.5747ZM93.2508 17.5747C94.7317 17.5747 95.844 17.8709 96.9545 18.3895L96.2878 20.316C95.6212 20.0191 94.7316 19.6493 93.473 19.6493C90.9533 19.6493 89.3978 21.7981 89.3978 24.3912C89.3978 27.0591 90.8799 29.2072 93.473 29.2072C94.7323 29.2072 95.6212 28.8369 96.2878 28.5406L96.9545 30.4665C95.8434 30.985 94.7317 31.2819 93.2508 31.2819C89.249 31.2819 86.9527 28.4665 86.9527 24.4653C86.9521 20.6863 89.249 17.5747 93.2508 17.5747ZM59.908 24.3906C59.908 28.3918 57.3895 31.2819 53.6105 31.2819C49.8315 31.2819 47.3124 28.4665 47.3124 24.4653C47.3124 20.4641 49.8322 17.5747 53.6105 17.5747C57.4636 17.5747 59.908 20.3901 59.908 24.3906ZM57.537 24.3906C57.537 21.5011 55.8339 19.6487 53.6105 19.6487C51.3877 19.6487 49.684 21.5011 49.684 24.4647C49.684 27.3548 51.3883 29.2066 53.6105 29.2066C55.8339 29.2066 57.537 27.3548 57.537 24.3906ZM61.4641 26.0209V17.7228H63.7616V26.0949C63.7616 28.3918 64.9474 29.2066 66.8733 29.2066C68.7992 29.2066 69.985 28.3918 69.985 26.0949V17.7228H72.2813V26.0209C72.2813 29.6517 70.2066 31.2819 66.8733 31.2819C63.5388 31.2819 61.4641 29.6517 61.4641 26.0209ZM76.5788 21.353H76.5053C76.5788 21.7974 76.5788 22.5388 76.5788 23.1314V31.0591H74.2825V17.7228H76.8022L82.9509 26.8363H83.0256C82.9509 26.3918 82.9509 25.6505 82.9509 25.0579V17.7228H85.2484V31.0591H83.2472L76.5788 21.353ZM98.7335 31.0591V17.7228H101.03V31.0591H98.7335ZM103.104 31.0591V17.7228H105.401V28.985H110.662V31.0591H103.104ZM76.3572 1.9415H65.5394V4.01554H69.8369V15.2778H72.1344V4.01554H76.3572V1.9415ZM57.3901 15.2778C55.463 11.2025 54.9444 10.0914 54.1296 10.0914H51.9809V15.2778H49.684V1.9415H54.2037C57.6858 1.9415 58.9463 3.71988 58.9463 5.71985C58.9463 7.5723 57.9827 8.75746 56.5006 9.2019C57.0938 9.57227 57.7611 10.8321 59.9839 15.2778H57.3901ZM54.3512 3.94147H51.9803V8.01673H54.2772C55.9074 8.01673 56.6475 7.20193 56.6475 5.94206C56.6481 4.83097 55.9815 3.94147 54.3512 3.94147Z" fill="white"/>
<path fill-rule="evenodd" clip-rule="evenodd" d="M15.6751 8.31304C15.6751 12.5365 12.1931 15.9444 7.96965 15.9444C3.82031 15.9444 0.338257 12.5358 0.338257 8.31304C0.338257 4.09026 3.82031 0.681648 7.96965 0.681648C12.1931 0.681648 15.6751 4.08963 15.6751 8.31304ZM31.9756 8.31304C31.977 9.3156 31.7805 10.3086 31.3975 11.2351C31.0145 12.1616 30.4524 13.0035 29.7435 13.7124C29.0346 14.4213 28.1927 14.9834 27.2662 15.3664C26.3397 15.7494 25.3467 15.9458 24.3442 15.9444C20.1207 15.9444 16.7128 12.5358 16.7128 8.31304C16.7128 4.09026 20.1214 0.681648 24.3442 0.681648C25.3467 0.680243 26.3397 0.876676 27.2662 1.25969C28.1927 1.64271 29.0346 2.20478 29.7435 2.9137C30.4524 3.62262 31.0145 4.46445 31.3975 5.39097C31.7805 6.31749 31.977 7.31048 31.9756 8.31304ZM15.6751 24.6875C15.6751 28.911 12.1931 32.3189 7.96965 32.3189C3.82031 32.3189 0.338257 28.9103 0.338257 24.6875C0.338257 20.4635 3.82031 17.0562 7.96965 17.0562C12.1931 17.0562 15.6751 20.4635 15.6751 24.6875ZM31.9756 24.6875C31.977 25.6901 31.7805 26.6831 31.3975 27.6096C31.0145 28.5361 30.4524 29.378 29.7435 30.0869C29.0346 30.7958 28.1927 31.3579 27.2662 31.7409C26.3397 32.1239 25.3467 32.3203 24.3442 32.3189C23.3416 32.3203 22.3486 32.1239 21.4221 31.7409C20.4956 31.3579 19.6537 30.7958 18.9448 30.0869C18.2359 29.378 17.6738 28.5361 17.2908 27.6096C16.9078 26.6831 16.7114 25.6901 16.7128 24.6875C16.7114 23.685 16.9078 22.692 17.2908 21.7655C17.6738 20.839 18.2359 19.9971 18.9448 19.2882C19.6537 18.5793 20.4956 18.0172 21.4221 17.6342C22.3486 17.2512 23.3416 17.0548 24.3442 17.0562C25.3467 17.0547 26.3398 17.251 27.2663 17.634C28.1929 18.017 29.0348 18.5791 29.7437 19.288C30.4526 19.997 31.0147 20.8388 31.3977 21.7654C31.7807 22.6919 31.977 23.685 31.9756 24.6875Z" fill="white"/>
</svg>
