<svg width="20" height="20" viewBox="0 0 20 20" fill="none" xmlns="http://www.w3.org/2000/svg">
<path d="M9.99166 1.66675C5.39166 1.66675 1.66666 5.40008 1.66666 10.0001C1.66666 14.6001 5.39166 18.3334 9.99166 18.3334C14.6 18.3334 18.3333 14.6001 18.3333 10.0001C18.3333 5.40008 14.6 1.66675 9.99166 1.66675ZM15.7667 6.66675H13.3083C13.0475 5.63463 12.6613 4.63833 12.1583 3.70008C13.6784 4.22342 14.9593 5.27652 15.7667 6.66675ZM9.99999 3.36675C10.6917 4.36675 11.2333 5.47508 11.5917 6.66675H8.40832C8.76666 5.47508 9.30832 4.36675 9.99999 3.36675ZM3.54999 11.6667C3.41666 11.1334 3.33332 10.5751 3.33332 10.0001C3.33332 9.42508 3.41666 8.86675 3.54999 8.33341H6.36666C6.29999 8.88341 6.24999 9.43341 6.24999 10.0001C6.24999 10.5667 6.29999 11.1167 6.36666 11.6667H3.54999ZM4.23332 13.3334H6.69166C6.95832 14.3751 7.34166 15.3751 7.84166 16.3001C6.31996 15.7796 5.03818 14.7258 4.23332 13.3334ZM6.69166 6.66675H4.23332C5.03818 5.2744 6.31996 4.22055 7.84166 3.70008C7.33868 4.63833 6.95247 5.63463 6.69166 6.66675ZM9.99999 16.6334C9.30832 15.6334 8.76666 14.5251 8.40832 13.3334H11.5917C11.2333 14.5251 10.6917 15.6334 9.99999 16.6334ZM11.95 11.6667H8.04999C7.97499 11.1167 7.91666 10.5667 7.91666 10.0001C7.91666 9.43341 7.97499 8.87508 8.04999 8.33341H11.95C12.025 8.87508 12.0833 9.43341 12.0833 10.0001C12.0833 10.5667 12.025 11.1167 11.95 11.6667ZM12.1583 16.3001C12.6583 15.3751 13.0417 14.3751 13.3083 13.3334H15.7667C14.9593 14.7236 13.6784 15.7767 12.1583 16.3001ZM13.6333 11.6667C13.7 11.1167 13.75 10.5667 13.75 10.0001C13.75 9.43341 13.7 8.88341 13.6333 8.33341H16.45C16.5833 8.86675 16.6667 9.42508 16.6667 10.0001C16.6667 10.5751 16.5833 11.1334 16.45 11.6667H13.6333Z" fill="white"/>
</svg>
