<svg width="232" height="132" viewBox="0 0 232 132" fill="none" xmlns="http://www.w3.org/2000/svg">
<g filter="url(#filter0_d_637_5716)">
<path d="M10.9531 105V94.9902L18.3262 93.4277V45.5273L10.9531 43.9648V33.9062H42.7891V43.9648L35.416 45.5273V93.4277L42.7891 94.9902V105H10.9531Z" fill="white"/>
</g>
<path d="M2.444 113.42V122H1.404V113.42H2.444ZM5.7722 122V115.5H6.6822L6.7732 116.956L6.6042 116.813C6.74287 116.466 6.9292 116.189 7.1632 115.981C7.3972 115.764 7.66587 115.608 7.9692 115.513C8.2812 115.418 8.60187 115.37 8.9312 115.37C9.3992 115.37 9.82387 115.461 10.2052 115.643C10.5865 115.816 10.8899 116.085 11.1152 116.449C11.3492 116.813 11.4662 117.277 11.4662 117.84V122H10.4262V118.204C10.4262 117.485 10.2702 116.986 9.9582 116.709C9.65487 116.423 9.27787 116.28 8.8272 116.28C8.5152 116.28 8.2032 116.354 7.8912 116.501C7.5792 116.648 7.3192 116.887 7.1112 117.216C6.91187 117.545 6.8122 117.987 6.8122 118.542V122H5.7722ZM19.294 124.73V120.219L19.476 120.349C19.4154 120.73 19.268 121.055 19.034 121.324C18.8087 121.584 18.527 121.783 18.189 121.922C17.8597 122.061 17.5087 122.13 17.136 122.13C16.5987 122.13 16.1047 121.996 15.654 121.727C15.2034 121.458 14.8437 121.073 14.575 120.57C14.3064 120.059 14.172 119.452 14.172 118.75C14.172 118.031 14.315 117.42 14.601 116.917C14.887 116.414 15.264 116.033 15.732 115.773C16.2 115.504 16.7027 115.37 17.24 115.37C17.604 115.37 17.942 115.439 18.254 115.578C18.566 115.708 18.8304 115.899 19.047 116.15C19.2724 116.393 19.4197 116.683 19.489 117.021H19.333L19.424 115.5H20.334V124.73H19.294ZM17.24 121.22C17.6474 121.22 18.0027 121.12 18.306 120.921C18.618 120.713 18.8607 120.423 19.034 120.05C19.2074 119.669 19.294 119.222 19.294 118.711C19.294 118.191 19.2074 117.753 19.034 117.398C18.8694 117.034 18.6354 116.757 18.332 116.566C18.0287 116.375 17.6734 116.28 17.266 116.28C16.6247 116.28 16.122 116.505 15.758 116.956C15.394 117.407 15.212 118.005 15.212 118.75C15.212 119.495 15.3897 120.093 15.745 120.544C16.1004 120.995 16.5987 121.22 17.24 121.22ZM25.8844 122.13C25.4684 122.13 25.0741 122.052 24.7014 121.896C24.3374 121.74 24.0384 121.489 23.8044 121.142C23.5791 120.787 23.4664 120.327 23.4664 119.764V115.5H24.5064V119.491C24.5064 120.15 24.6494 120.605 24.9354 120.856C25.2214 121.099 25.6244 121.22 26.1444 121.22C26.3871 121.22 26.6254 121.181 26.8594 121.103C27.0934 121.016 27.3014 120.886 27.4834 120.713C27.6741 120.531 27.8214 120.301 27.9254 120.024C28.0381 119.747 28.0944 119.417 28.0944 119.036V115.5H29.1344V122H28.2244L28.1594 121.012C27.9341 121.402 27.6264 121.688 27.2364 121.87C26.8551 122.043 26.4044 122.13 25.8844 122.13ZM35.0519 122.13C34.4365 122.13 33.8862 121.996 33.4009 121.727C32.9242 121.458 32.5515 121.073 32.2829 120.57C32.0142 120.059 31.8799 119.452 31.8799 118.75C31.8799 118.048 32.0142 117.446 32.2829 116.943C32.5515 116.432 32.9199 116.042 33.3879 115.773C33.8559 115.504 34.3889 115.37 34.9869 115.37C35.5935 115.37 36.1092 115.5 36.5339 115.76C36.9672 116.02 37.2965 116.375 37.5219 116.826C37.7472 117.268 37.8599 117.766 37.8599 118.321C37.8599 118.468 37.8555 118.603 37.8469 118.724C37.8382 118.845 37.8252 118.954 37.8079 119.049H32.5559V118.126H37.3529L36.8199 118.23C36.8199 117.606 36.6465 117.125 36.2999 116.787C35.9619 116.449 35.5155 116.28 34.9609 116.28C34.5362 116.28 34.1679 116.38 33.8559 116.579C33.5525 116.77 33.3142 117.051 33.1409 117.424C32.9762 117.788 32.8939 118.23 32.8939 118.75C32.8939 119.261 32.9805 119.703 33.1539 120.076C33.3272 120.449 33.5699 120.735 33.8819 120.934C34.2025 121.125 34.5839 121.22 35.0259 121.22C35.5025 121.22 35.8882 121.129 36.1829 120.947C36.4862 120.765 36.7289 120.518 36.9109 120.206L37.7299 120.687C37.5652 120.982 37.3529 121.237 37.0929 121.454C36.8415 121.671 36.5425 121.84 36.1959 121.961C35.8579 122.074 35.4765 122.13 35.0519 122.13ZM42.9578 122.13C42.3251 122.13 41.7401 121.996 41.2028 121.727C40.6741 121.458 40.2668 121.077 39.9808 120.583L40.8648 119.946C41.0555 120.345 41.3328 120.657 41.6968 120.882C42.0695 121.107 42.5158 121.22 43.0358 121.22C43.4951 121.22 43.8548 121.133 44.1148 120.96C44.3748 120.778 44.5048 120.544 44.5048 120.258C44.5048 120.076 44.4441 119.911 44.3228 119.764C44.2101 119.608 43.9891 119.495 43.6598 119.426L42.0998 119.101C41.4671 118.971 41.0121 118.754 40.7348 118.451C40.4661 118.148 40.3318 117.771 40.3318 117.32C40.3318 116.965 40.4315 116.64 40.6308 116.345C40.8388 116.05 41.1291 115.816 41.5018 115.643C41.8831 115.461 42.3295 115.37 42.8408 115.37C43.4821 115.37 44.0238 115.496 44.4658 115.747C44.9078 115.998 45.2371 116.354 45.4538 116.813L44.5828 117.385C44.4355 117.004 44.1971 116.726 43.8678 116.553C43.5385 116.371 43.1961 116.28 42.8408 116.28C42.5288 116.28 42.2601 116.323 42.0348 116.41C41.8181 116.497 41.6491 116.618 41.5278 116.774C41.4151 116.921 41.3588 117.09 41.3588 117.281C41.3588 117.472 41.4238 117.649 41.5538 117.814C41.6838 117.97 41.9265 118.083 42.2818 118.152L43.9068 118.49C44.5135 118.611 44.9381 118.811 45.1808 119.088C45.4235 119.365 45.5448 119.703 45.5448 120.102C45.5448 120.509 45.4365 120.869 45.2198 121.181C45.0031 121.484 44.6998 121.718 44.3098 121.883C43.9198 122.048 43.4691 122.13 42.9578 122.13ZM49.7873 113.654V120.206C49.7873 120.527 49.8783 120.765 50.0603 120.921C50.2423 121.077 50.4763 121.155 50.7623 121.155C51.0136 121.155 51.2303 121.112 51.4123 121.025C51.5943 120.938 51.7589 120.821 51.9063 120.674L52.2703 121.545C52.0709 121.727 51.8326 121.87 51.5553 121.974C51.2866 122.078 50.9746 122.13 50.6193 122.13C50.2899 122.13 49.9823 122.074 49.6963 121.961C49.4103 121.84 49.1806 121.653 49.0073 121.402C48.8426 121.142 48.7559 120.804 48.7473 120.388V113.94L49.7873 113.654ZM52.1533 115.5V116.397H47.4473V115.5H52.1533Z" fill="white"/>
<g filter="url(#filter1_d_637_5716)">
<path d="M71.9531 105V94.9902L79.3262 93.4277V45.5273L71.9531 43.9648V33.8574H106.914C112.546 33.8574 117.428 34.7526 121.562 36.543C125.697 38.3333 128.887 40.8887 131.133 44.209C133.379 47.4967 134.502 51.403 134.502 55.9277C134.502 60.0944 133.363 63.9681 131.084 67.5488C128.838 71.1296 125.745 74.0104 121.807 76.1914C117.868 78.3398 113.376 79.3978 108.33 79.3652L96.4648 79.2188V93.4277L103.838 94.9902V105H71.9531ZM116.973 105L107.402 77.2656L122.295 72.1875L130.938 93.3301L137.676 95.0391V105H116.973ZM96.4648 66.084H107.109C110.43 66.084 112.985 65.319 114.775 63.7891C116.566 62.2266 117.461 59.9805 117.461 57.0508C117.461 54.0234 116.549 51.5983 114.727 49.7754C112.904 47.9199 110.299 46.9922 106.914 46.9922H96.4648V66.084Z" fill="white"/>
</g>
<path d="M77.654 113.42C78.5293 113.42 79.2313 113.645 79.76 114.096C80.2887 114.547 80.553 115.158 80.553 115.929C80.553 116.7 80.2843 117.303 79.747 117.736C79.2183 118.161 78.5163 118.373 77.641 118.373L77.55 118.438H75.444V122H74.404V113.42H77.654ZM77.641 117.463C78.2563 117.463 78.7113 117.337 79.006 117.086C79.3093 116.826 79.461 116.44 79.461 115.929C79.461 115.418 79.3093 115.036 79.006 114.785C78.7113 114.525 78.2563 114.395 77.641 114.395H75.444V117.463H77.641ZM78.239 117.671L81.073 122H79.838L77.368 118.243L78.239 117.671ZM86.1357 122.13C85.5204 122.13 84.97 121.996 84.4847 121.727C84.008 121.458 83.6354 121.073 83.3667 120.57C83.098 120.059 82.9637 119.452 82.9637 118.75C82.9637 118.048 83.098 117.446 83.3667 116.943C83.6354 116.432 84.0037 116.042 84.4717 115.773C84.9397 115.504 85.4727 115.37 86.0707 115.37C86.6774 115.37 87.193 115.5 87.6177 115.76C88.051 116.02 88.3804 116.375 88.6057 116.826C88.831 117.268 88.9437 117.766 88.9437 118.321C88.9437 118.468 88.9394 118.603 88.9307 118.724C88.922 118.845 88.909 118.954 88.8917 119.049H83.6397V118.126H88.4367L87.9037 118.23C87.9037 117.606 87.7304 117.125 87.3837 116.787C87.0457 116.449 86.5994 116.28 86.0447 116.28C85.62 116.28 85.2517 116.38 84.9397 116.579C84.6364 116.77 84.398 117.051 84.2247 117.424C84.06 117.788 83.9777 118.23 83.9777 118.75C83.9777 119.261 84.0644 119.703 84.2377 120.076C84.411 120.449 84.6537 120.735 84.9657 120.934C85.2864 121.125 85.6677 121.22 86.1097 121.22C86.5864 121.22 86.972 121.129 87.2667 120.947C87.57 120.765 87.8127 120.518 87.9947 120.206L88.8137 120.687C88.649 120.982 88.4367 121.237 88.1767 121.454C87.9254 121.671 87.6264 121.84 87.2797 121.961C86.9417 122.074 86.5604 122.13 86.1357 122.13ZM94.0416 122.13C93.409 122.13 92.824 121.996 92.2866 121.727C91.758 121.458 91.3506 121.077 91.0646 120.583L91.9486 119.946C92.1393 120.345 92.4166 120.657 92.7806 120.882C93.1533 121.107 93.5996 121.22 94.1196 121.22C94.579 121.22 94.9386 121.133 95.1986 120.96C95.4586 120.778 95.5886 120.544 95.5886 120.258C95.5886 120.076 95.528 119.911 95.4066 119.764C95.294 119.608 95.073 119.495 94.7436 119.426L93.1836 119.101C92.551 118.971 92.096 118.754 91.8186 118.451C91.55 118.148 91.4156 117.771 91.4156 117.32C91.4156 116.965 91.5153 116.64 91.7146 116.345C91.9226 116.05 92.213 115.816 92.5856 115.643C92.967 115.461 93.4133 115.37 93.9246 115.37C94.566 115.37 95.1076 115.496 95.5496 115.747C95.9916 115.998 96.321 116.354 96.5376 116.813L95.6666 117.385C95.5193 117.004 95.281 116.726 94.9516 116.553C94.6223 116.371 94.28 116.28 93.9246 116.28C93.6126 116.28 93.344 116.323 93.1186 116.41C92.902 116.497 92.733 116.618 92.6116 116.774C92.499 116.921 92.4426 117.09 92.4426 117.281C92.4426 117.472 92.5076 117.649 92.6376 117.814C92.7676 117.97 93.0103 118.083 93.3656 118.152L94.9906 118.49C95.5973 118.611 96.022 118.811 96.2646 119.088C96.5073 119.365 96.6286 119.703 96.6286 120.102C96.6286 120.509 96.5203 120.869 96.3036 121.181C96.087 121.484 95.7836 121.718 95.3936 121.883C95.0036 122.048 94.553 122.13 94.0416 122.13ZM102.054 122.13C101.439 122.13 100.888 121.996 100.403 121.727C99.9264 121.458 99.5538 121.073 99.2851 120.57C99.0164 120.059 98.8821 119.452 98.8821 118.75C98.8821 118.048 99.0164 117.446 99.2851 116.943C99.5538 116.432 99.9221 116.042 100.39 115.773C100.858 115.504 101.391 115.37 101.989 115.37C102.596 115.37 103.111 115.5 103.536 115.76C103.969 116.02 104.299 116.375 104.524 116.826C104.749 117.268 104.862 117.766 104.862 118.321C104.862 118.468 104.858 118.603 104.849 118.724C104.84 118.845 104.827 118.954 104.81 119.049H99.5581V118.126H104.355L103.822 118.23C103.822 117.606 103.649 117.125 103.302 116.787C102.964 116.449 102.518 116.28 101.963 116.28C101.538 116.28 101.17 116.38 100.858 116.579C100.555 116.77 100.316 117.051 100.143 117.424C99.9784 117.788 99.8961 118.23 99.8961 118.75C99.8961 119.261 99.9828 119.703 100.156 120.076C100.329 120.449 100.572 120.735 100.884 120.934C101.205 121.125 101.586 121.22 102.028 121.22C102.505 121.22 102.89 121.129 103.185 120.947C103.488 120.765 103.731 120.518 103.913 120.206L104.732 120.687C104.567 120.982 104.355 121.237 104.095 121.454C103.844 121.671 103.545 121.84 103.198 121.961C102.86 122.074 102.479 122.13 102.054 122.13ZM111.416 117.801C111.416 117.316 111.286 116.943 111.026 116.683C110.766 116.414 110.398 116.28 109.921 116.28C109.47 116.28 109.089 116.38 108.777 116.579C108.465 116.77 108.235 117.082 108.088 117.515L107.243 116.995C107.416 116.51 107.737 116.12 108.205 115.825C108.673 115.522 109.254 115.37 109.947 115.37C110.415 115.37 110.84 115.452 111.221 115.617C111.602 115.773 111.901 116.016 112.118 116.345C112.343 116.666 112.456 117.082 112.456 117.593V120.739C112.456 121.051 112.621 121.207 112.95 121.207C113.115 121.207 113.275 121.185 113.431 121.142L113.379 121.961C113.206 122.048 112.98 122.091 112.703 122.091C112.452 122.091 112.226 122.043 112.027 121.948C111.828 121.853 111.672 121.71 111.559 121.519C111.446 121.32 111.39 121.073 111.39 120.778V120.648L111.65 120.687C111.546 121.025 111.368 121.302 111.117 121.519C110.866 121.727 110.584 121.883 110.272 121.987C109.96 122.082 109.652 122.13 109.349 122.13C108.968 122.13 108.612 122.065 108.283 121.935C107.954 121.805 107.689 121.61 107.49 121.35C107.299 121.081 107.204 120.752 107.204 120.362C107.204 119.877 107.364 119.478 107.685 119.166C108.014 118.845 108.469 118.629 109.05 118.516L111.624 118.009V118.867L109.531 119.296C109.106 119.383 108.79 119.504 108.582 119.66C108.374 119.816 108.27 120.033 108.27 120.31C108.27 120.579 108.374 120.8 108.582 120.973C108.799 121.138 109.102 121.22 109.492 121.22C109.743 121.22 109.982 121.19 110.207 121.129C110.441 121.06 110.649 120.96 110.831 120.83C111.013 120.691 111.156 120.522 111.26 120.323C111.364 120.115 111.416 119.872 111.416 119.595V117.801ZM115.763 122V115.5H116.608L116.751 116.566C116.933 116.167 117.198 115.868 117.544 115.669C117.9 115.47 118.329 115.37 118.831 115.37C118.944 115.37 119.065 115.379 119.195 115.396C119.334 115.413 119.451 115.448 119.546 115.5L119.364 116.449C119.269 116.414 119.165 116.388 119.052 116.371C118.94 116.354 118.779 116.345 118.571 116.345C118.303 116.345 118.03 116.423 117.752 116.579C117.484 116.735 117.258 116.973 117.076 117.294C116.894 117.606 116.803 118.005 116.803 118.49V122H115.763ZM124.338 115.37C124.788 115.37 125.183 115.439 125.521 115.578C125.867 115.717 126.166 115.916 126.418 116.176C126.669 116.436 126.873 116.744 127.029 117.099L126.041 117.567C125.902 117.151 125.69 116.835 125.404 116.618C125.126 116.393 124.762 116.28 124.312 116.28C123.878 116.28 123.506 116.38 123.194 116.579C122.882 116.77 122.643 117.051 122.479 117.424C122.314 117.788 122.232 118.23 122.232 118.75C122.232 119.261 122.314 119.703 122.479 120.076C122.643 120.449 122.882 120.735 123.194 120.934C123.506 121.125 123.878 121.22 124.312 121.22C124.65 121.22 124.94 121.168 125.183 121.064C125.434 120.96 125.638 120.808 125.794 120.609C125.958 120.41 126.071 120.167 126.132 119.881L127.094 120.219C126.946 120.618 126.743 120.96 126.483 121.246C126.231 121.532 125.924 121.753 125.56 121.909C125.204 122.056 124.797 122.13 124.338 122.13C123.731 122.13 123.189 121.996 122.713 121.727C122.236 121.458 121.863 121.073 121.595 120.57C121.326 120.059 121.192 119.452 121.192 118.75C121.192 118.048 121.326 117.446 121.595 116.943C121.863 116.432 122.236 116.042 122.713 115.773C123.189 115.504 123.731 115.37 124.338 115.37ZM129.701 122V112.51H130.741V116.475C130.967 116.085 131.266 115.803 131.638 115.63C132.011 115.457 132.418 115.37 132.86 115.37C133.328 115.37 133.753 115.461 134.134 115.643C134.516 115.816 134.819 116.085 135.044 116.449C135.278 116.813 135.395 117.277 135.395 117.84V122H134.355V118.204C134.355 117.485 134.199 116.986 133.887 116.709C133.584 116.423 133.207 116.28 132.756 116.28C132.444 116.28 132.132 116.354 131.82 116.501C131.508 116.648 131.248 116.891 131.04 117.229C130.841 117.558 130.741 118 130.741 118.555V122H129.701Z" fill="white"/>
<g filter="url(#filter2_d_637_5716)">
<path d="M192.865 106.025C186.094 106.025 180.056 104.658 174.75 101.924C169.444 99.1895 165.277 95.2344 162.25 90.0586C159.223 84.8503 157.709 78.5352 157.709 71.1133V67.8418C157.709 61.0059 159.092 54.9674 161.859 49.7266C164.659 44.4531 168.63 40.3353 173.773 37.373C178.949 34.3783 185.085 32.8809 192.182 32.8809C197.13 32.8809 201.833 33.5482 206.293 34.8828C210.785 36.1849 214.952 38.431 218.793 41.6211V59.9316H206.342L204.633 49.4336C203.526 48.6849 202.354 48.0339 201.117 47.4805C199.913 46.9271 198.611 46.5039 197.211 46.2109C195.844 45.918 194.363 45.7715 192.768 45.7715C189.154 45.7715 185.997 46.6341 183.295 48.3594C180.593 50.0846 178.493 52.5911 176.996 55.8789C175.531 59.1341 174.799 63.0892 174.799 67.7441V71.1133C174.799 75.4753 175.564 79.3164 177.094 82.6367C178.624 85.9245 180.756 88.4961 183.49 90.3516C186.257 92.207 189.447 93.1348 193.061 93.1348C194.981 93.1348 196.934 92.9395 198.92 92.5488C200.906 92.1257 202.826 91.5723 204.682 90.8887L206.391 80.8301H218.891V98.75C216.059 100.703 212.445 102.412 208.051 103.877C203.656 105.309 198.594 106.025 192.865 106.025Z" fill="white"/>
</g>
<path d="M173.32 119.803C173.138 120.288 172.878 120.709 172.54 121.064C172.202 121.411 171.803 121.675 171.344 121.857C170.893 122.039 170.399 122.13 169.862 122.13C169.047 122.13 168.341 121.952 167.743 121.597C167.154 121.233 166.694 120.722 166.365 120.063C166.044 119.404 165.884 118.62 165.884 117.71C165.884 116.8 166.044 116.016 166.365 115.357C166.694 114.698 167.154 114.191 167.743 113.836C168.341 113.472 169.039 113.29 169.836 113.29C170.391 113.29 170.885 113.368 171.318 113.524C171.751 113.671 172.12 113.897 172.423 114.2C172.735 114.495 172.982 114.859 173.164 115.292L172.137 115.773C171.946 115.279 171.669 114.906 171.305 114.655C170.95 114.395 170.486 114.265 169.914 114.265C169.333 114.265 168.822 114.404 168.38 114.681C167.938 114.95 167.591 115.34 167.34 115.851C167.097 116.362 166.976 116.982 166.976 117.71C166.976 118.429 167.093 119.049 167.327 119.569C167.561 120.08 167.895 120.475 168.328 120.752C168.761 121.021 169.273 121.155 169.862 121.155C170.434 121.155 170.932 121.012 171.357 120.726C171.782 120.431 172.089 119.994 172.28 119.413L173.32 119.803ZM178.618 122.13C178.003 122.13 177.452 121.996 176.967 121.727C176.49 121.458 176.118 121.073 175.849 120.57C175.58 120.059 175.446 119.452 175.446 118.75C175.446 118.048 175.58 117.446 175.849 116.943C176.118 116.432 176.486 116.042 176.954 115.773C177.422 115.504 177.955 115.37 178.553 115.37C179.16 115.37 179.675 115.5 180.1 115.76C180.533 116.02 180.863 116.375 181.088 116.826C181.313 117.268 181.426 117.766 181.426 118.321C181.426 118.468 181.422 118.603 181.413 118.724C181.404 118.845 181.391 118.954 181.374 119.049H176.122V118.126H180.919L180.386 118.23C180.386 117.606 180.213 117.125 179.866 116.787C179.528 116.449 179.082 116.28 178.527 116.28C178.102 116.28 177.734 116.38 177.422 116.579C177.119 116.77 176.88 117.051 176.707 117.424C176.542 117.788 176.46 118.23 176.46 118.75C176.46 119.261 176.547 119.703 176.72 120.076C176.893 120.449 177.136 120.735 177.448 120.934C177.769 121.125 178.15 121.22 178.592 121.22C179.069 121.22 179.454 121.129 179.749 120.947C180.052 120.765 180.295 120.518 180.477 120.206L181.296 120.687C181.131 120.982 180.919 121.237 180.659 121.454C180.408 121.671 180.109 121.84 179.762 121.961C179.424 122.074 179.043 122.13 178.618 122.13ZM184.184 122V115.5H185.094L185.185 116.956L185.016 116.813C185.155 116.466 185.341 116.189 185.575 115.981C185.809 115.764 186.078 115.608 186.381 115.513C186.693 115.418 187.014 115.37 187.343 115.37C187.811 115.37 188.236 115.461 188.617 115.643C188.998 115.816 189.302 116.085 189.527 116.449C189.761 116.813 189.878 117.277 189.878 117.84V122H188.838V118.204C188.838 117.485 188.682 116.986 188.37 116.709C188.067 116.423 187.69 116.28 187.239 116.28C186.927 116.28 186.615 116.354 186.303 116.501C185.991 116.648 185.731 116.887 185.523 117.216C185.324 117.545 185.224 117.987 185.224 118.542V122H184.184ZM194.458 113.654V120.206C194.458 120.527 194.549 120.765 194.731 120.921C194.913 121.077 195.147 121.155 195.433 121.155C195.684 121.155 195.901 121.112 196.083 121.025C196.265 120.938 196.43 120.821 196.577 120.674L196.941 121.545C196.742 121.727 196.503 121.87 196.226 121.974C195.957 122.078 195.645 122.13 195.29 122.13C194.961 122.13 194.653 122.074 194.367 121.961C194.081 121.84 193.851 121.653 193.678 121.402C193.513 121.142 193.427 120.804 193.418 120.388V113.94L194.458 113.654ZM196.824 115.5V116.397H192.118V115.5H196.824ZM201.867 122.13C201.252 122.13 200.702 121.996 200.216 121.727C199.74 121.458 199.367 121.073 199.098 120.57C198.83 120.059 198.695 119.452 198.695 118.75C198.695 118.048 198.83 117.446 199.098 116.943C199.367 116.432 199.735 116.042 200.203 115.773C200.671 115.504 201.204 115.37 201.802 115.37C202.409 115.37 202.925 115.5 203.349 115.76C203.783 116.02 204.112 116.375 204.337 116.826C204.563 117.268 204.675 117.766 204.675 118.321C204.675 118.468 204.671 118.603 204.662 118.724C204.654 118.845 204.641 118.954 204.623 119.049H199.371V118.126H204.168L203.635 118.23C203.635 117.606 203.462 117.125 203.115 116.787C202.777 116.449 202.331 116.28 201.776 116.28C201.352 116.28 200.983 116.38 200.671 116.579C200.368 116.77 200.13 117.051 199.956 117.424C199.792 117.788 199.709 118.23 199.709 118.75C199.709 119.261 199.796 119.703 199.969 120.076C200.143 120.449 200.385 120.735 200.697 120.934C201.018 121.125 201.399 121.22 201.841 121.22C202.318 121.22 202.704 121.129 202.998 120.947C203.302 120.765 203.544 120.518 203.726 120.206L204.545 120.687C204.381 120.982 204.168 121.237 203.908 121.454C203.657 121.671 203.358 121.84 203.011 121.961C202.673 122.074 202.292 122.13 201.867 122.13ZM207.433 122V115.5H208.278L208.421 116.566C208.603 116.167 208.868 115.868 209.214 115.669C209.57 115.47 209.999 115.37 210.501 115.37C210.614 115.37 210.735 115.379 210.865 115.396C211.004 115.413 211.121 115.448 211.216 115.5L211.034 116.449C210.939 116.414 210.835 116.388 210.722 116.371C210.61 116.354 210.449 116.345 210.241 116.345C209.973 116.345 209.7 116.423 209.422 116.579C209.154 116.735 208.928 116.973 208.746 117.294C208.564 117.606 208.473 118.005 208.473 118.49V122H207.433Z" fill="white"/>
<defs>
<filter id="filter0_d_637_5716" x="5.95312" y="28.9062" width="49.8359" height="89.0938" filterUnits="userSpaceOnUse" color-interpolation-filters="sRGB">
<feFlood flood-opacity="0" result="BackgroundImageFix"/>
<feColorMatrix in="SourceAlpha" type="matrix" values="0 0 0 0 0 0 0 0 0 0 0 0 0 0 0 0 0 0 127 0" result="hardAlpha"/>
<feOffset dx="4" dy="4"/>
<feGaussianBlur stdDeviation="4.5"/>
<feComposite in2="hardAlpha" operator="out"/>
<feColorMatrix type="matrix" values="0 0 0 0 0.0527778 0 0 0 0 0.0620161 0 0 0 0 0.0666667 0 0 0 0.9 0"/>
<feBlend mode="normal" in2="BackgroundImageFix" result="effect1_dropShadow_637_5716"/>
<feBlend mode="normal" in="SourceGraphic" in2="effect1_dropShadow_637_5716" result="shape"/>
</filter>
<filter id="filter1_d_637_5716" x="66.9531" y="28.8574" width="83.7227" height="89.1426" filterUnits="userSpaceOnUse" color-interpolation-filters="sRGB">
<feFlood flood-opacity="0" result="BackgroundImageFix"/>
<feColorMatrix in="SourceAlpha" type="matrix" values="0 0 0 0 0 0 0 0 0 0 0 0 0 0 0 0 0 0 127 0" result="hardAlpha"/>
<feOffset dx="4" dy="4"/>
<feGaussianBlur stdDeviation="4.5"/>
<feComposite in2="hardAlpha" operator="out"/>
<feColorMatrix type="matrix" values="0 0 0 0 0.0527778 0 0 0 0 0.0620161 0 0 0 0 0.0666667 0 0 0 0.9 0"/>
<feBlend mode="normal" in2="BackgroundImageFix" result="effect1_dropShadow_637_5716"/>
<feBlend mode="normal" in="SourceGraphic" in2="effect1_dropShadow_637_5716" result="shape"/>
</filter>
<filter id="filter2_d_637_5716" x="152.709" y="27.8809" width="79.1816" height="91.1445" filterUnits="userSpaceOnUse" color-interpolation-filters="sRGB">
<feFlood flood-opacity="0" result="BackgroundImageFix"/>
<feColorMatrix in="SourceAlpha" type="matrix" values="0 0 0 0 0 0 0 0 0 0 0 0 0 0 0 0 0 0 127 0" result="hardAlpha"/>
<feOffset dx="4" dy="4"/>
<feGaussianBlur stdDeviation="4.5"/>
<feComposite in2="hardAlpha" operator="out"/>
<feColorMatrix type="matrix" values="0 0 0 0 0.0527778 0 0 0 0 0.0620161 0 0 0 0 0.0666667 0 0 0 0.9 0"/>
<feBlend mode="normal" in2="BackgroundImageFix" result="effect1_dropShadow_637_5716"/>
<feBlend mode="normal" in="SourceGraphic" in2="effect1_dropShadow_637_5716" result="shape"/>
</filter>
</defs>
</svg>
