<svg width="207" height="58" viewBox="0 0 207 58" fill="none" xmlns="http://www.w3.org/2000/svg">
<path d="M54.396 46.4076V42.0484L57.6166 41.368V20.5075L54.396 19.827V15.4466H68.3022V19.827L65.0816 20.5075V41.368L68.3022 42.0484V46.4076H54.396Z" fill="#0093DD"/>
<path d="M50.6791 50.0745V53.8111H50.2249V50.0745H50.6791Z" fill="#0093DD"/>
<path d="M52.1329 53.8111V50.9804H52.5304L52.5702 51.6144L52.4963 51.5522C52.5569 51.4012 52.6383 51.2804 52.7405 51.1898C52.8427 51.0955 52.9601 51.0275 53.0926 50.986C53.2289 50.9445 53.3689 50.9238 53.5128 50.9238C53.7172 50.9238 53.9027 50.9634 54.0693 51.0426C54.2359 51.1181 54.3684 51.2351 54.4668 51.3937C54.569 51.5522 54.6201 51.7541 54.6201 51.9994V53.8111H54.1658V52.1579C54.1658 51.8447 54.0977 51.6277 53.9614 51.5069C53.8289 51.3823 53.6642 51.3201 53.4674 51.3201C53.3311 51.3201 53.1948 51.3521 53.0585 51.4163C52.9222 51.4805 52.8087 51.5843 52.7178 51.7277C52.6307 51.8711 52.5872 52.0636 52.5872 52.3051V53.8111H52.1329Z" fill="#0093DD"/>
<path d="M58.0394 55V53.0355L58.1189 53.0921C58.0924 53.2582 58.028 53.3997 57.9258 53.5167C57.8274 53.6299 57.7043 53.7167 57.5567 53.7771C57.4128 53.8375 57.2595 53.8677 57.0967 53.8677C56.862 53.8677 56.6462 53.8092 56.4494 53.6922C56.2525 53.5752 56.0954 53.4072 55.9781 53.1883C55.8607 52.9656 55.802 52.7014 55.802 52.3957C55.802 52.0825 55.8645 51.8164 55.9894 51.5975C56.1144 51.3786 56.279 51.2125 56.4835 51.0993C56.6879 50.9823 56.9075 50.9238 57.1422 50.9238C57.3012 50.9238 57.4488 50.9539 57.5851 51.0143C57.7214 51.0709 57.8368 51.154 57.9315 51.2634C58.0299 51.3691 58.0943 51.4956 58.1245 51.6428H58.0564L58.0962 50.9804H58.4937V55H58.0394ZM57.1422 53.4714C57.3201 53.4714 57.4753 53.428 57.6078 53.3412C57.7441 53.2506 57.8501 53.1242 57.9258 52.9619C58.0015 52.7958 58.0394 52.6014 58.0394 52.3787C58.0394 52.1523 58.0015 51.9617 57.9258 51.8069C57.8539 51.6484 57.7517 51.5276 57.6192 51.4446C57.4867 51.3616 57.3314 51.3201 57.1535 51.3201C56.8734 51.3201 56.6538 51.4182 56.4948 51.6144C56.3358 51.8107 56.2563 52.0711 56.2563 52.3957C56.2563 52.7203 56.3339 52.9807 56.4891 53.177C56.6444 53.3733 56.862 53.4714 57.1422 53.4714Z" fill="#0093DD"/>
<path d="M60.9181 53.8677C60.7364 53.8677 60.5641 53.8337 60.4014 53.7658C60.2424 53.6979 60.1118 53.5884 60.0095 53.4374C59.9111 53.2827 59.8619 53.0827 59.8619 52.8373V50.9804H60.3162V52.7184C60.3162 53.0053 60.3787 53.2034 60.5036 53.3129C60.6285 53.4186 60.8045 53.4714 61.0317 53.4714C61.1377 53.4714 61.2418 53.4544 61.344 53.4205C61.4462 53.3827 61.5371 53.3261 61.6166 53.2506C61.6999 53.1713 61.7642 53.0713 61.8096 52.9506C61.8588 52.8298 61.8835 52.6864 61.8835 52.5203V50.9804H62.3377V53.8111H61.9402L61.9118 53.3808C61.8134 53.5507 61.679 53.6752 61.5087 53.7545C61.3421 53.83 61.1453 53.8677 60.9181 53.8677Z" fill="#0093DD"/>
<path d="M64.9225 53.8677C64.6537 53.8677 64.4134 53.8092 64.2014 53.6922C63.9931 53.5752 63.8304 53.4072 63.713 53.1883C63.5956 52.9656 63.537 52.7014 63.537 52.3957C63.537 52.09 63.5956 51.8277 63.713 51.6088C63.8304 51.3861 63.9912 51.2163 64.1957 51.0993C64.4001 50.9823 64.6329 50.9238 64.8941 50.9238C65.1591 50.9238 65.3844 50.9804 65.5699 51.0936C65.7592 51.2068 65.903 51.3616 66.0014 51.5578C66.0999 51.7503 66.1491 51.9673 66.1491 52.2089C66.1491 52.2731 66.1472 52.3316 66.1434 52.3844C66.1396 52.4372 66.1339 52.4844 66.1264 52.5259H63.8323V52.124H65.9276L65.6948 52.1693C65.6948 51.8975 65.6191 51.688 65.4677 51.5409C65.32 51.3937 65.1251 51.3201 64.8828 51.3201C64.6973 51.3201 64.5364 51.3635 64.4001 51.4503C64.2676 51.5333 64.1635 51.656 64.0878 51.8183C64.0159 51.9768 63.9799 52.1693 63.9799 52.3957C63.9799 52.6184 64.0177 52.8109 64.0935 52.9732C64.1692 53.1355 64.2752 53.26 64.4115 53.3469C64.5515 53.4299 64.7181 53.4714 64.9112 53.4714C65.1194 53.4714 65.2878 53.4318 65.4166 53.3525C65.5491 53.2733 65.6551 53.1657 65.7346 53.0298L66.0923 53.2393C66.0204 53.3676 65.9276 53.479 65.814 53.5733C65.7043 53.6677 65.5737 53.7413 65.4222 53.7941C65.2746 53.8432 65.108 53.8677 64.9225 53.8677Z" fill="#0093DD"/>
<path d="M68.3759 53.8677C68.0995 53.8677 67.844 53.8092 67.6093 53.6922C67.3784 53.5752 67.2005 53.4091 67.0755 53.194L67.4617 52.9166C67.5449 53.0902 67.6661 53.2261 67.8251 53.3242C67.9879 53.4223 68.1828 53.4714 68.41 53.4714C68.6106 53.4714 68.7677 53.4337 68.8813 53.3582C68.9949 53.2789 69.0516 53.177 69.0516 53.0525C69.0516 52.9732 69.0251 52.9015 68.9721 52.8373C68.9229 52.7694 68.8264 52.7203 68.6825 52.6901L68.0011 52.5486C67.7248 52.492 67.526 52.3976 67.4049 52.2655C67.2875 52.1334 67.2288 51.9692 67.2288 51.773C67.2288 51.6182 67.2724 51.4767 67.3594 51.3484C67.4503 51.22 67.5771 51.1181 67.7399 51.0426C67.9065 50.9634 68.1014 50.9238 68.3248 50.9238C68.6049 50.9238 68.8415 50.9785 69.0346 51.0879C69.2277 51.1974 69.3715 51.3521 69.4662 51.5522L69.0857 51.8013C69.0214 51.6352 68.9173 51.5144 68.7734 51.4389C68.6295 51.3597 68.48 51.3201 68.3248 51.3201C68.1885 51.3201 68.0712 51.3389 67.9727 51.3767C67.8781 51.4144 67.8043 51.4673 67.7513 51.5352C67.7021 51.5993 67.6774 51.6729 67.6774 51.756C67.6774 51.839 67.7058 51.9164 67.7626 51.9881C67.8194 52.056 67.9254 52.1051 68.0806 52.1353L68.7904 52.2825C69.0554 52.3353 69.2409 52.4221 69.3469 52.5429C69.4529 52.6637 69.5059 52.8109 69.5059 52.9845C69.5059 53.1619 69.4586 53.3185 69.364 53.4544C69.2693 53.5865 69.1368 53.6884 68.9665 53.7601C68.7961 53.8319 68.5993 53.8677 68.3759 53.8677Z" fill="#0093DD"/>
<path d="M71.3591 50.1764V53.0298C71.3591 53.1695 71.3988 53.2733 71.4783 53.3412C71.5578 53.4091 71.66 53.4431 71.785 53.4431C71.8947 53.4431 71.9894 53.4242 72.0689 53.3865C72.1484 53.3487 72.2203 53.2978 72.2847 53.2336L72.4437 53.6129C72.3566 53.6922 72.2525 53.7545 72.1313 53.7998C72.014 53.8451 71.8777 53.8677 71.7225 53.8677C71.5786 53.8677 71.4443 53.8432 71.3193 53.7941C71.1944 53.7413 71.0941 53.6601 71.0184 53.5507C70.9464 53.4374 70.9086 53.2902 70.9048 53.1091V50.301L71.3591 50.1764ZM72.3926 50.9804V51.371H70.3369V50.9804H72.3926Z" fill="#0093DD"/>
<path d="M81.0413 46.4076V42.0484L84.2619 41.368V20.5075L81.0413 19.827V15.4253H96.3125C98.7724 15.4253 100.905 15.8151 102.711 16.5948C104.517 17.3745 105.91 18.4874 106.891 19.9334C107.873 21.3652 108.363 23.0663 108.363 25.0368C108.363 26.8514 107.866 28.5384 106.87 30.0978C105.889 31.6572 104.538 32.9118 102.818 33.8616C101.097 34.7972 99.135 35.258 96.9311 35.2438L91.7482 35.18V41.368L94.9688 42.0484V46.4076H81.0413ZM100.706 46.4076L96.5258 34.3294L103.031 32.1179L106.806 41.3254L109.75 42.0697V46.4076H100.706ZM91.7482 29.4599H96.3979C97.8482 29.4599 98.9644 29.1267 99.7464 28.4604C100.528 27.78 100.92 26.8018 100.92 25.5259C100.92 24.2075 100.521 23.1514 99.7251 22.3575C98.9288 21.5495 97.7913 21.1454 96.3125 21.1454H91.7482V29.4599Z" fill="#0093DD"/>
<path d="M83.5315 50.0745C83.9139 50.0745 84.2205 50.1727 84.4514 50.3689C84.6823 50.5652 84.7978 50.8313 84.7978 51.1672C84.7978 51.5031 84.6805 51.7654 84.4457 51.9541C84.2148 52.1391 83.9082 52.2315 83.5258 52.2315L83.4861 52.2599H82.5662V53.8111H82.1119V50.0745H83.5315ZM83.5258 51.8352C83.7946 51.8352 83.9934 51.7805 84.1221 51.6711C84.2546 51.5578 84.3208 51.3899 84.3208 51.1672C84.3208 50.9445 84.2546 50.7784 84.1221 50.669C83.9934 50.5558 83.7946 50.4991 83.5258 50.4991H82.5662V51.8352H83.5258ZM83.787 51.9258L85.0249 53.8111H84.4855L83.4066 52.1749L83.787 51.9258Z" fill="#0093DD"/>
<path d="M87.2364 53.8677C86.9676 53.8677 86.7272 53.8092 86.5152 53.6922C86.307 53.5752 86.1442 53.4072 86.0269 53.1883C85.9095 52.9656 85.8508 52.7014 85.8508 52.3957C85.8508 52.09 85.9095 51.8277 86.0269 51.6088C86.1442 51.3861 86.3051 51.2163 86.5095 51.0993C86.714 50.9823 86.9468 50.9238 87.208 50.9238C87.473 50.9238 87.6982 50.9804 87.8837 51.0936C88.073 51.2068 88.2169 51.3616 88.3153 51.5578C88.4137 51.7503 88.4629 51.9673 88.4629 52.2089C88.4629 52.2731 88.461 52.3316 88.4573 52.3844C88.4535 52.4372 88.4478 52.4844 88.4402 52.5259H86.1461V52.124H88.2415L88.0087 52.1693C88.0087 51.8975 87.9329 51.688 87.7815 51.5409C87.6339 51.3937 87.4389 51.3201 87.1966 51.3201C87.0111 51.3201 86.8502 51.3635 86.714 51.4503C86.5815 51.5333 86.4773 51.656 86.4016 51.8183C86.3297 51.9768 86.2937 52.1693 86.2937 52.3957C86.2937 52.6184 86.3316 52.8109 86.4073 52.9732C86.483 53.1355 86.589 53.26 86.7253 53.3469C86.8654 53.4299 87.0319 53.4714 87.225 53.4714C87.4332 53.4714 87.6017 53.4318 87.7304 53.3525C87.8629 53.2733 87.9689 53.1657 88.0484 53.0298L88.4062 53.2393C88.3342 53.3676 88.2415 53.479 88.1279 53.5733C88.0181 53.6677 87.8875 53.7413 87.7361 53.7941C87.5884 53.8432 87.4219 53.8677 87.2364 53.8677Z" fill="#0093DD"/>
<path d="M90.6898 53.8677C90.4134 53.8677 90.1579 53.8092 89.9232 53.6922C89.6922 53.5752 89.5143 53.4091 89.3894 53.194L89.7755 52.9166C89.8588 53.0902 89.9799 53.2261 90.1389 53.3242C90.3017 53.4223 90.4967 53.4714 90.7238 53.4714C90.9245 53.4714 91.0816 53.4337 91.1951 53.3582C91.3087 53.2789 91.3655 53.177 91.3655 53.0525C91.3655 52.9732 91.339 52.9015 91.286 52.8373C91.2368 52.7694 91.1402 52.7203 90.9964 52.6901L90.315 52.5486C90.0386 52.492 89.8399 52.3976 89.7187 52.2655C89.6014 52.1334 89.5427 51.9692 89.5427 51.773C89.5427 51.6182 89.5862 51.4767 89.6733 51.3484C89.7642 51.22 89.891 51.1181 90.0538 51.0426C90.2203 50.9634 90.4153 50.9238 90.6386 50.9238C90.9188 50.9238 91.1554 50.9785 91.3485 51.0879C91.5415 51.1974 91.6854 51.3521 91.78 51.5522L91.3996 51.8013C91.3352 51.6352 91.2311 51.5144 91.0872 51.4389C90.9434 51.3597 90.7939 51.3201 90.6386 51.3201C90.5024 51.3201 90.385 51.3389 90.2866 51.3767C90.1919 51.4144 90.1181 51.4673 90.0651 51.5352C90.0159 51.5993 89.9913 51.6729 89.9913 51.756C89.9913 51.839 90.0197 51.9164 90.0765 51.9881C90.1333 52.056 90.2393 52.1051 90.3945 52.1353L91.1043 52.2825C91.3693 52.3353 91.5548 52.4221 91.6608 52.5429C91.7668 52.6637 91.8198 52.8109 91.8198 52.9845C91.8198 53.1619 91.7725 53.3185 91.6778 53.4544C91.5832 53.5865 91.4507 53.6884 91.2803 53.7601C91.11 53.8319 90.9131 53.8677 90.6898 53.8677Z" fill="#0093DD"/>
<path d="M94.1897 53.8677C93.9209 53.8677 93.6805 53.8092 93.4685 53.6922C93.2603 53.5752 93.0975 53.4072 92.9801 53.1883C92.8628 52.9656 92.8041 52.7014 92.8041 52.3957C92.8041 52.09 92.8628 51.8277 92.9801 51.6088C93.0975 51.3861 93.2584 51.2163 93.4628 51.0993C93.6672 50.9823 93.9001 50.9238 94.1613 50.9238C94.4263 50.9238 94.6515 50.9804 94.837 51.0936C95.0263 51.2068 95.1702 51.3616 95.2686 51.5578C95.367 51.7503 95.4162 51.9673 95.4162 52.2089C95.4162 52.2731 95.4143 52.3316 95.4105 52.3844C95.4068 52.4372 95.4011 52.4844 95.3935 52.5259H93.0994V52.124H95.1948L94.9619 52.1693C94.9619 51.8975 94.8862 51.688 94.7348 51.5409C94.5872 51.3937 94.3922 51.3201 94.1499 51.3201C93.9644 51.3201 93.8035 51.3635 93.6672 51.4503C93.5347 51.5333 93.4306 51.656 93.3549 51.8183C93.283 51.9768 93.247 52.1693 93.247 52.3957C93.247 52.6184 93.2849 52.8109 93.3606 52.9732C93.4363 53.1355 93.5423 53.26 93.6786 53.3469C93.8187 53.4299 93.9852 53.4714 94.1783 53.4714C94.3865 53.4714 94.555 53.4318 94.6837 53.3525C94.8162 53.2733 94.9222 53.1657 95.0017 53.0298L95.3594 53.2393C95.2875 53.3676 95.1948 53.479 95.0812 53.5733C94.9714 53.6677 94.8408 53.7413 94.6894 53.7941C94.5417 53.8432 94.3752 53.8677 94.1897 53.8677Z" fill="#0093DD"/>
<path d="M98.279 51.9824C98.279 51.7711 98.2223 51.6088 98.1087 51.4956C97.9951 51.3786 97.8342 51.3201 97.626 51.3201C97.4292 51.3201 97.2626 51.3635 97.1263 51.4503C96.99 51.5333 96.8897 51.6692 96.8253 51.8579L96.4562 51.6314C96.5319 51.4201 96.672 51.2502 96.8764 51.1219C97.0809 50.9898 97.3345 50.9238 97.6374 50.9238C97.8418 50.9238 98.0273 50.9596 98.1939 51.0313C98.3604 51.0993 98.491 51.2049 98.5857 51.3484C98.6841 51.488 98.7333 51.6692 98.7333 51.8919V53.2619C98.7333 53.3978 98.8052 53.4657 98.9491 53.4657C99.021 53.4657 99.0911 53.4563 99.1592 53.4374L99.1365 53.7941C99.0608 53.8319 98.9623 53.8507 98.8412 53.8507C98.7314 53.8507 98.633 53.83 98.5459 53.7884C98.4589 53.7469 98.3907 53.6847 98.3415 53.6016C98.2923 53.5148 98.2677 53.4072 98.2677 53.2789V53.2223L98.3813 53.2393C98.3358 53.3865 98.2582 53.5073 98.1484 53.6016C98.0386 53.6922 97.9156 53.7601 97.7793 53.8054C97.643 53.847 97.5087 53.8677 97.3762 53.8677C97.2096 53.8677 97.0544 53.8394 96.9105 53.7828C96.7667 53.7262 96.6512 53.6413 96.5641 53.528C96.4808 53.411 96.4392 53.2676 96.4392 53.0977C96.4392 52.8864 96.5092 52.7128 96.6493 52.5769C96.7932 52.4372 96.9919 52.3429 97.2455 52.2938L98.3699 52.073V52.4467L97.4557 52.6335C97.2702 52.6713 97.132 52.7241 97.0411 52.792C96.9503 52.86 96.9048 52.9543 96.9048 53.0751C96.9048 53.1921 96.9503 53.2884 97.0411 53.3638C97.1358 53.4356 97.2683 53.4714 97.4386 53.4714C97.5484 53.4714 97.6525 53.4582 97.7509 53.4318C97.8531 53.4016 97.944 53.3582 98.0235 53.3016C98.103 53.2412 98.1655 53.1676 98.2109 53.0808C98.2563 52.9902 98.279 52.8845 98.279 52.7637V51.9824Z" fill="#0093DD"/>
<path d="M100.178 53.8111V50.9804H100.547L100.61 51.4446C100.689 51.271 100.804 51.1408 100.956 51.054C101.111 50.9672 101.299 50.9238 101.518 50.9238C101.567 50.9238 101.62 50.9275 101.677 50.9351C101.738 50.9426 101.789 50.9577 101.83 50.9804L101.751 51.3937C101.709 51.3786 101.664 51.3672 101.615 51.3597C101.565 51.3521 101.495 51.3484 101.405 51.3484C101.287 51.3484 101.168 51.3823 101.047 51.4503C100.929 51.5182 100.831 51.622 100.751 51.7616C100.672 51.8975 100.632 52.0711 100.632 52.2825V53.8111H100.178Z" fill="#0093DD"/>
<path d="M103.923 50.9238C104.12 50.9238 104.292 50.9539 104.44 51.0143C104.592 51.0747 104.722 51.1615 104.832 51.2748C104.942 51.388 105.031 51.522 105.099 51.6767L104.667 51.8805C104.607 51.6994 104.514 51.5616 104.389 51.4672C104.268 51.3691 104.109 51.3201 103.912 51.3201C103.723 51.3201 103.56 51.3635 103.424 51.4503C103.287 51.5333 103.183 51.656 103.111 51.8183C103.039 51.9768 103.003 52.1693 103.003 52.3957C103.003 52.6184 103.039 52.8109 103.111 52.9732C103.183 53.1355 103.287 53.26 103.424 53.3469C103.56 53.4299 103.723 53.4714 103.912 53.4714C104.06 53.4714 104.186 53.4488 104.292 53.4035C104.402 53.3582 104.491 53.2921 104.559 53.2053C104.631 53.1185 104.681 53.0128 104.707 52.8883L105.127 53.0355C105.063 53.2091 104.974 53.3582 104.86 53.4827C104.751 53.6073 104.616 53.7035 104.457 53.7715C104.302 53.8356 104.124 53.8677 103.923 53.8677C103.658 53.8677 103.422 53.8092 103.214 53.6922C103.005 53.5752 102.843 53.4072 102.725 53.1883C102.608 52.9656 102.549 52.7014 102.549 52.3957C102.549 52.09 102.608 51.8277 102.725 51.6088C102.843 51.3861 103.005 51.2163 103.214 51.0993C103.422 50.9823 103.658 50.9238 103.923 50.9238Z" fill="#0093DD"/>
<path d="M106.266 53.8111V49.6782H106.72V51.405C106.819 51.2351 106.949 51.1125 107.112 51.037C107.275 50.9615 107.453 50.9238 107.646 50.9238C107.85 50.9238 108.036 50.9634 108.203 51.0426C108.369 51.1181 108.502 51.2351 108.6 51.3937C108.702 51.5522 108.753 51.7541 108.753 51.9994V53.8111H108.299V52.1579C108.299 51.8447 108.231 51.6277 108.095 51.5069C107.962 51.3823 107.797 51.3201 107.601 51.3201C107.464 51.3201 107.328 51.3521 107.192 51.4163C107.055 51.4805 106.942 51.5861 106.851 51.7333C106.764 51.8768 106.72 52.0693 106.72 52.3108V53.8111H106.266Z" fill="#0093DD"/>
<path d="M133.857 46.8542C130.899 46.8542 128.262 46.2588 125.944 45.068C123.626 43.8772 121.806 42.1548 120.484 39.9007C119.161 37.6325 118.5 34.8823 118.5 31.6501V30.2254C118.5 27.2483 119.105 24.6186 120.313 22.3362C121.536 20.0397 123.271 18.2464 125.517 16.9563C127.778 15.6521 130.458 15 133.558 15C135.719 15 137.774 15.2906 139.722 15.8718C141.684 16.4389 143.504 17.4171 145.182 18.8063V26.7805H139.743L138.997 22.2087C138.513 21.8826 138.002 21.5991 137.461 21.3581C136.935 21.1171 136.366 20.9328 135.755 20.8052C135.158 20.6776 134.511 20.6138 133.814 20.6138C132.236 20.6138 130.857 20.9895 129.676 21.7408C128.496 22.4922 127.579 23.5838 126.925 25.0156C126.285 26.4332 125.965 28.1556 125.965 30.1828V31.6501C125.965 33.5497 126.299 35.2225 126.968 36.6685C127.636 38.1003 128.567 39.2203 129.762 40.0283C130.97 40.8364 132.364 41.2404 133.942 41.2404C134.781 41.2404 135.634 41.1553 136.501 40.9852C137.369 40.8009 138.208 40.5599 139.018 40.2622L139.765 35.8817H145.225V43.6858C143.988 44.5364 142.409 45.2806 140.49 45.9186C138.57 46.5423 136.359 46.8542 133.857 46.8542Z" fill="#0093DD"/>
<path d="M125.319 52.8543C125.24 53.0657 125.126 53.2487 124.979 53.4035C124.831 53.5544 124.657 53.6696 124.456 53.7488C124.259 53.8281 124.043 53.8677 123.809 53.8677C123.453 53.8677 123.144 53.7903 122.883 53.6356C122.626 53.4771 122.425 53.2544 122.281 52.9675C122.141 52.6807 122.071 52.3391 122.071 51.9428C122.071 51.5465 122.141 51.2049 122.281 50.9181C122.425 50.6312 122.626 50.4104 122.883 50.2557C123.144 50.0972 123.449 50.0179 123.797 50.0179C124.04 50.0179 124.255 50.0519 124.445 50.1198C124.634 50.184 124.795 50.2821 124.927 50.4142C125.064 50.5425 125.172 50.7011 125.251 50.8898L124.802 51.0993C124.719 50.8841 124.598 50.7218 124.439 50.6124C124.284 50.4991 124.081 50.4425 123.831 50.4425C123.578 50.4425 123.354 50.5029 123.161 50.6237C122.968 50.7407 122.817 50.9105 122.707 51.1332C122.601 51.3559 122.548 51.6258 122.548 51.9428C122.548 52.2561 122.599 52.5259 122.701 52.7524C122.804 52.9751 122.949 53.1468 123.139 53.2676C123.328 53.3846 123.551 53.4431 123.809 53.4431C124.059 53.4431 124.276 53.3808 124.462 53.2563C124.647 53.1279 124.782 52.9373 124.865 52.6845L125.319 52.8543Z" fill="#0093DD"/>
<path d="M127.633 53.8677C127.365 53.8677 127.124 53.8092 126.912 53.6922C126.704 53.5752 126.541 53.4072 126.424 53.1883C126.307 52.9656 126.248 52.7014 126.248 52.3957C126.248 52.09 126.307 51.8277 126.424 51.6088C126.541 51.3861 126.702 51.2163 126.907 51.0993C127.111 50.9823 127.344 50.9238 127.605 50.9238C127.87 50.9238 128.095 50.9804 128.281 51.0936C128.47 51.2068 128.614 51.3616 128.712 51.5578C128.811 51.7503 128.86 51.9673 128.86 52.2089C128.86 52.2731 128.858 52.3316 128.854 52.3844C128.851 52.4372 128.845 52.4844 128.837 52.5259H126.543V52.124H128.639L128.406 52.1693C128.406 51.8975 128.33 51.688 128.179 51.5409C128.031 51.3937 127.836 51.3201 127.594 51.3201C127.408 51.3201 127.247 51.3635 127.111 51.4503C126.979 51.5333 126.874 51.656 126.799 51.8183C126.727 51.9768 126.691 52.1693 126.691 52.3957C126.691 52.6184 126.729 52.8109 126.804 52.9732C126.88 53.1355 126.986 53.26 127.122 53.3469C127.262 53.4299 127.429 53.4714 127.622 53.4714C127.83 53.4714 127.999 53.4318 128.128 53.3525C128.26 53.2733 128.366 53.1657 128.446 53.0298L128.803 53.2393C128.731 53.3676 128.639 53.479 128.525 53.5733C128.415 53.6677 128.285 53.7413 128.133 53.7941C127.986 53.8432 127.819 53.8677 127.633 53.8677Z" fill="#0093DD"/>
<path d="M130.065 53.8111V50.9804H130.462L130.502 51.6144L130.428 51.5522C130.489 51.4012 130.57 51.2804 130.672 51.1898C130.775 51.0955 130.892 51.0275 131.024 50.986C131.161 50.9445 131.301 50.9238 131.445 50.9238C131.649 50.9238 131.835 50.9634 132.001 51.0426C132.168 51.1181 132.3 51.2351 132.399 51.3937C132.501 51.5522 132.552 51.7541 132.552 51.9994V53.8111H132.098V52.1579C132.098 51.8447 132.029 51.6277 131.893 51.5069C131.761 51.3823 131.596 51.3201 131.399 51.3201C131.263 51.3201 131.127 51.3521 130.99 51.4163C130.854 51.4805 130.74 51.5843 130.65 51.7277C130.563 51.8711 130.519 52.0636 130.519 52.3051V53.8111H130.065Z" fill="#0093DD"/>
<path d="M134.552 50.1764V53.0298C134.552 53.1695 134.592 53.2733 134.672 53.3412C134.751 53.4091 134.853 53.4431 134.978 53.4431C135.088 53.4431 135.183 53.4242 135.262 53.3865C135.342 53.3487 135.414 53.2978 135.478 53.2336L135.637 53.6129C135.55 53.6922 135.446 53.7545 135.325 53.7998C135.207 53.8451 135.071 53.8677 134.916 53.8677C134.772 53.8677 134.638 53.8432 134.513 53.7941C134.388 53.7413 134.287 53.6601 134.212 53.5507C134.14 53.4374 134.102 53.2902 134.098 53.1091V50.301L134.552 50.1764ZM135.586 50.9804V51.371H133.53V50.9804H135.586Z" fill="#0093DD"/>
<path d="M137.789 53.8677C137.52 53.8677 137.28 53.8092 137.068 53.6922C136.86 53.5752 136.697 53.4072 136.579 53.1883C136.462 52.9656 136.403 52.7014 136.403 52.3957C136.403 52.09 136.462 51.8277 136.579 51.6088C136.697 51.3861 136.858 51.2163 137.062 51.0993C137.266 50.9823 137.499 50.9238 137.761 50.9238C138.026 50.9238 138.251 50.9804 138.436 51.0936C138.626 51.2068 138.769 51.3616 138.868 51.5578C138.966 51.7503 139.015 51.9673 139.015 52.2089C139.015 52.2731 139.014 52.3316 139.01 52.3844C139.006 52.4372 139 52.4844 138.993 52.5259H136.699V52.124H138.794L138.561 52.1693C138.561 51.8975 138.485 51.688 138.334 51.5409C138.186 51.3937 137.991 51.3201 137.749 51.3201C137.564 51.3201 137.403 51.3635 137.266 51.4503C137.134 51.5333 137.03 51.656 136.954 51.8183C136.882 51.9768 136.846 52.1693 136.846 52.3957C136.846 52.6184 136.884 52.8109 136.96 52.9732C137.036 53.1355 137.142 53.26 137.278 53.3469C137.418 53.4299 137.584 53.4714 137.778 53.4714C137.986 53.4714 138.154 53.4318 138.283 53.3525C138.415 53.2733 138.521 53.1657 138.601 53.0298L138.959 53.2393C138.887 53.3676 138.794 53.479 138.68 53.5733C138.571 53.6677 138.44 53.7413 138.289 53.7941C138.141 53.8432 137.974 53.8677 137.789 53.8677Z" fill="#0093DD"/>
<path d="M140.22 53.8111V50.9804H140.589L140.652 51.4446C140.731 51.271 140.847 51.1408 140.998 51.054C141.153 50.9672 141.341 50.9238 141.56 50.9238C141.61 50.9238 141.663 50.9275 141.719 50.9351C141.78 50.9426 141.831 50.9577 141.873 50.9804L141.793 51.3937C141.751 51.3786 141.706 51.3672 141.657 51.3597C141.608 51.3521 141.538 51.3484 141.447 51.3484C141.329 51.3484 141.21 51.3823 141.089 51.4503C140.972 51.5182 140.873 51.622 140.794 51.7616C140.714 51.8975 140.674 52.0711 140.674 52.2825V53.8111H140.22Z" fill="#0093DD"/>
<path fill-rule="evenodd" clip-rule="evenodd" d="M27.2105 15.963H34.2236C34.2236 15.963 34.4903 23.6676 27.2105 23.6676C25.8577 23.6676 24.663 23.0214 23.9385 22.0333C23.6494 21.6384 23.062 21.5883 22.7108 21.9331L21.2069 23.4076V28.3934L19.2057 29.0243V18.5922C18.6084 18.2589 18.2052 17.6387 18.2052 16.926C18.2052 15.8281 19.1597 14.944 20.3154 15.0028C21.349 15.0548 22.1855 15.8878 22.2075 16.8837C22.2235 17.6137 21.8163 18.2522 21.2069 18.5922V20.2092L24.2217 17.2525V17.2544C24.9551 16.4618 26.0218 15.963 27.2105 15.963ZM16.4645 22.0091C16.7553 21.6128 17.3459 21.5635 17.6991 21.9086L18.2052 22.4045V19.1943L16.1798 17.2118V17.2127C15.4423 16.4182 14.3697 15.9175 13.1745 15.9175H6.1225C6.1225 15.9175 6.54709 23.6505 13.1745 23.6505C14.5348 23.6505 15.7361 23.0018 16.4645 22.0091ZM17.0845 29.737L17.0734 29.7409C16.2277 30.0161 15.4829 30.3966 14.8579 30.8592C13.5345 29.8529 13.3178 28.694 13.3178 28.045C13.3178 27.1265 13.5335 26.2525 14.5445 25.4161C15.6018 24.517 16.9776 24.4639 17.4807 25.2539C17.9433 25.9801 17.4907 27.141 16.4706 27.848C16.1159 28.0933 15.7399 28.2497 15.3801 28.3212C15.505 28.7085 15.885 29.1025 16.4646 29.4347C16.6692 29.5516 16.8355 29.6375 17.0845 29.737ZM22.9961 25.6724C23.4795 24.714 24.8029 24.7807 25.8181 25.8689C26.7908 26.8823 26.9971 27.9412 27 29.0552C27 29.9539 26.7288 31.6588 24.9085 32.9728C24.4929 33.2724 24.18 33.4538 23.558 33.7241C24.8891 34.5361 25.6592 35.8186 25.6592 37.2825C25.6592 39.4016 24.2003 40.6127 22.5515 41.3323C23.3671 42.0379 23.7973 42.9588 23.7973 43.9078C23.7973 44.5244 23.7334 45.1715 22.9099 45.9251L22.9089 45.9239C22.8605 45.9707 22.8004 46 22.7336 46C22.5786 46 22.4526 45.8479 22.4526 45.6607C22.4526 45.5986 22.4672 45.5413 22.4914 45.491L22.4904 45.4898C23.1133 44.2272 22.4129 43.4304 21.2998 42.8664V44.8287C21.2998 45.4746 20.8658 45.9988 20.331 45.9988C19.7963 45.9988 19.3623 45.4746 19.3623 44.8287V42.8652C18.2037 43.4526 17.6069 44.1313 18.1688 45.4898C18.193 45.5401 18.2075 45.5975 18.2075 45.6595C18.2075 45.8467 18.0816 45.9988 17.9266 45.9988C17.8598 45.9988 17.7987 45.9696 17.7503 45.9228L17.7493 45.9239C16.8988 45.2031 16.8425 44.4777 16.8425 43.8926C16.8425 42.8734 17.2805 42.0063 18.0952 41.3241C18.4861 40.9984 18.7252 40.8704 19.7104 40.3428L19.7108 40.3426L19.7115 40.3422C19.8906 40.2462 20.0944 40.1371 20.3282 40.0112C20.6815 39.8208 21.001 39.6517 21.2893 39.4991C23.1542 38.5123 23.7188 38.2135 23.7188 37.2801C23.7188 36.8355 23.1938 36.1708 22.1921 35.759C21.9582 35.6645 21.7345 35.5752 21.52 35.4896L21.2979 35.4009V36.8928L19.3604 37.9366V35.3997C19.0785 35.5121 18.7801 35.6314 18.4633 35.759C17.4616 36.1697 16.9365 36.8355 16.9365 37.2801C16.9365 37.8874 17.1729 38.242 17.9392 38.71C17.2736 39.1044 16.704 39.597 16.2477 40.1645C15.5221 39.4671 15 38.5146 15 37.2801C15 35.5471 16.0792 34.0681 17.8927 33.3239C19.1909 32.8032 20.179 32.4124 20.9462 32.1104C23.1841 31.227 23.4466 31.117 23.9726 30.7379C24.5297 30.3353 24.8949 29.8579 25.015 29.3887C24.6692 29.3021 24.3078 29.1125 23.9668 28.8153C22.9864 27.9588 22.5524 26.5523 22.9961 25.6724Z" fill="url(#paint0_linear_763_1164)"/>
<defs>
<linearGradient id="paint0_linear_763_1164" x1="27.7543" y1="2.46048" x2="-4.87157" y2="2.46048" gradientUnits="userSpaceOnUse">
<stop stop-color="#0093DD"/>
<stop offset="0.348958" stop-color="#ABFFDD"/>
<stop offset="1" stop-color="#F4FAFF"/>
</linearGradient>
</defs>
</svg>
