<svg width="120" height="122" viewBox="0 0 120 122" fill="none" xmlns="http://www.w3.org/2000/svg">
<g clip-path="url(#clip0_637_5615)">
<mask id="mask0_637_5615" style="mask-type:luminance" maskUnits="userSpaceOnUse" x="-65" y="19" width="250" height="84">
<path d="M-64.605 102.152H184.605V19.8494H-64.605V102.152Z" fill="white"/>
</mask>
<g mask="url(#mask0_637_5615)">
<path d="M24.7789 48.9702C23.4994 47.4875 21.1865 46.8519 18.2278 46.8519H9.64056C9.34766 46.8517 9.06433 46.9578 8.84154 47.1511C8.61875 47.3444 8.47114 47.6122 8.42527 47.9063L4.85126 70.9628C4.83469 71.0697 4.84112 71.1791 4.87011 71.2833C4.89911 71.3875 4.94997 71.484 5.01921 71.5663C5.08844 71.6486 5.1744 71.7146 5.27115 71.7599C5.36791 71.8051 5.47316 71.8285 5.57967 71.8284H10.8811L12.2125 63.2426L12.1713 63.5115C12.2162 63.2179 12.3629 62.9504 12.5847 62.7571C12.8065 62.5637 13.089 62.4573 13.3812 62.457H15.9004C20.8495 62.457 24.7246 60.4133 25.8566 54.5013C25.8902 54.3265 25.9193 54.1563 25.9445 53.99C26.2808 51.8049 25.9422 50.3176 24.7796 48.9709" fill="white" fill-opacity="0.8"/>
<path d="M89.6797 59.9416C89.3556 62.105 87.7306 62.105 86.1592 62.105H85.2649L85.8924 58.0657C85.9306 57.8217 86.137 57.6422 86.3801 57.6422H86.7905C87.8606 57.6422 88.871 57.6422 89.3923 58.2616C89.7034 58.6322 89.7974 59.1824 89.6797 59.9416ZM88.9956 54.297H83.0674C82.8711 54.2971 82.6812 54.3683 82.5319 54.4979C82.3826 54.6275 82.2836 54.807 82.2527 55.0041L79.8573 70.4577C79.8462 70.5293 79.8506 70.6025 79.87 70.6723C79.8894 70.7421 79.9235 70.8068 79.9698 70.8619C80.0161 70.917 80.0736 70.9613 80.1384 70.9918C80.2031 71.0222 80.2736 71.038 80.3449 71.0381H83.3869C83.6705 71.0381 83.912 70.8283 83.9564 70.5439L84.6366 66.1613C84.6993 65.7549 85.0448 65.4541 85.4499 65.4541H87.3255C91.2313 65.4541 93.4845 63.534 94.073 59.7256C94.3383 58.0611 94.0837 56.7525 93.3171 55.8363C92.4741 54.8293 90.9798 54.2962 88.9964 54.2962" fill="white" fill-opacity="0.9"/>
<path d="M47.3969 59.9416C47.0728 62.1049 45.4479 62.1049 43.8756 62.1049H42.9814L43.6089 58.0657C43.6471 57.8217 43.8535 57.6422 44.0965 57.6422H44.507C45.577 57.6422 46.5875 57.6422 47.1088 58.2616C47.4206 58.6322 47.5146 59.1824 47.3969 59.9416ZM46.7128 54.297H40.7847C40.3796 54.297 40.0341 54.5969 39.9707 55.0041L37.5745 70.4577C37.5633 70.5293 37.5676 70.6026 37.587 70.6724C37.6063 70.7423 37.6404 70.807 37.6867 70.8622C37.7331 70.9173 37.7906 70.9616 37.8554 70.992C37.9203 71.0224 37.9908 71.0381 38.0621 71.0381H40.8932C41.2983 71.0381 41.643 70.7382 41.7065 70.331L42.3538 66.162C42.4165 65.7548 42.762 65.4549 43.1671 65.4549H45.0428C48.9485 65.4549 51.2017 63.534 51.7903 59.7256C52.0555 58.0611 51.801 56.7525 51.0344 55.8363C50.1913 54.8292 48.697 54.2962 46.7136 54.2962M60.4761 65.4899C60.201 67.1388 58.9146 68.2461 57.2721 68.2461C56.4489 68.2461 55.7893 67.9765 55.3658 67.4667C54.9454 66.9616 54.788 66.2413 54.921 65.4401C55.1763 63.8052 56.4848 62.6629 58.1021 62.6629C58.9085 62.6629 59.562 62.9349 59.9946 63.4493C60.4295 63.9676 60.6007 64.6918 60.4761 65.4899ZM64.4323 59.8717H61.5936C61.4756 59.8715 61.3614 59.9143 61.2717 59.9922C61.182 60.0702 61.1227 60.1782 61.1044 60.2967L60.9806 61.1033L60.7819 60.8111C60.1673 59.9043 58.7969 59.6005 57.4287 59.6005C54.2927 59.6005 51.6137 62.0171 51.0924 65.4052C50.8211 67.0968 51.2063 68.7124 52.1495 69.8399C53.0155 70.8757 54.2514 71.307 55.7243 71.307C58.2527 71.307 59.6545 69.6565 59.6545 69.6565L59.5276 70.4584C59.5164 70.5302 59.5207 70.6035 59.5401 70.6734C59.5595 70.7433 59.5936 70.8081 59.6401 70.8632C59.6865 70.9184 59.7442 70.9627 59.8091 70.993C59.874 71.0234 59.9446 71.039 60.016 71.0389H62.5719C62.977 71.0389 63.3225 70.7397 63.3859 70.3318L64.9207 60.4529C64.9318 60.3811 64.9274 60.3078 64.9079 60.2379C64.8883 60.168 64.8542 60.1033 64.8077 60.0481C64.7612 59.9929 64.7035 59.9486 64.6386 59.9183C64.5736 59.888 64.503 59.8723 64.4315 59.8724" fill="white" fill-opacity="0.8"/>
<path d="M102.759 65.4899C102.484 67.1388 101.197 68.2461 99.5549 68.2461C98.7317 68.2461 98.0721 67.9765 97.6486 67.4667C97.2282 66.9616 97.0708 66.2413 97.2038 65.4401C97.4591 63.8052 98.7668 62.6629 100.385 62.6629C101.191 62.6629 101.845 62.9349 102.277 63.4493C102.712 63.9676 102.884 64.6918 102.759 65.4899ZM106.715 59.8717H103.876C103.758 59.8715 103.644 59.9143 103.554 59.9922C103.465 60.0702 103.405 60.1782 103.387 60.2967L103.263 61.1033L103.065 60.8111C102.45 59.9043 101.08 59.6005 99.7115 59.6005C96.5763 59.6005 93.8973 62.0171 93.3752 65.4052C93.1039 67.0968 93.4899 68.7124 94.4331 69.8399C95.2991 70.8757 96.535 71.307 98.0079 71.307C100.537 71.307 101.939 69.6565 101.939 69.6565L101.812 70.4584C101.801 70.5301 101.805 70.6034 101.824 70.6733C101.843 70.7432 101.877 70.808 101.923 70.8632C101.97 70.9184 102.027 70.9627 102.092 70.9931C102.157 71.0234 102.227 71.0391 102.299 71.0389H104.854C105.259 71.0389 105.605 70.7397 105.669 70.3318L107.204 60.4529C107.215 60.3811 107.21 60.3078 107.191 60.2379C107.171 60.168 107.137 60.1033 107.09 60.0481C107.044 59.9929 106.986 59.9486 106.921 59.9183C106.856 59.888 106.786 59.8723 106.714 59.8724" fill="white" fill-opacity="0.9"/>
<path d="M79.5515 59.8724H76.6975C76.4247 59.8724 76.1701 60.01 76.0173 60.24L72.081 66.1333L70.4124 60.47C70.3615 60.2972 70.2572 60.1458 70.115 60.038C69.9728 59.9302 69.8003 59.8719 69.6229 59.8716H66.8186C66.7399 59.8717 66.6624 59.8908 66.5925 59.9274C66.5226 59.964 66.4623 60.017 66.4165 60.082C66.3708 60.147 66.341 60.2222 66.3295 60.3013C66.3181 60.3804 66.3254 60.4612 66.3508 60.5368L69.4922 69.9129L66.5373 74.1518C66.4851 74.2271 66.4542 74.3155 66.448 74.4073C66.4418 74.4992 66.4606 74.591 66.5022 74.6728C66.5438 74.7546 66.6068 74.8232 66.6841 74.8711C66.7615 74.919 66.8503 74.9444 66.9409 74.9445H69.7918C70.0608 74.9445 70.3138 74.81 70.4682 74.5847L79.9566 60.6611C80.0082 60.5859 80.0384 60.4977 80.0441 60.4062C80.0498 60.3147 80.0308 60.2233 79.989 60.1421C79.9473 60.0608 79.8844 59.9927 79.8073 59.9451C79.7302 59.8976 79.6417 59.8725 79.5515 59.8724Z" fill="white" fill-opacity="0.8"/>
<path d="M110.061 54.722L107.627 70.4584C107.616 70.5301 107.62 70.6034 107.64 70.6732C107.659 70.7431 107.693 70.8078 107.74 70.8629C107.786 70.9181 107.844 70.9624 107.909 70.9927C107.973 71.0231 108.044 71.0389 108.115 71.0389H110.562C110.967 71.0389 111.313 70.7389 111.376 70.3317L113.775 54.8774C113.786 54.8057 113.782 54.7323 113.763 54.6624C113.743 54.5926 113.709 54.5278 113.663 54.4726C113.616 54.4174 113.559 54.3731 113.494 54.3428C113.429 54.3125 113.358 54.2968 113.287 54.2969H110.549C110.431 54.2966 110.317 54.3392 110.228 54.4171C110.138 54.4949 110.079 54.6036 110.061 54.722Z" fill="white" fill-opacity="0.9"/>
<path d="M24.7789 48.9702C23.4994 47.4875 21.1865 46.8519 18.2278 46.8519H9.64056C9.34766 46.8517 9.06433 46.9578 8.84154 47.1511C8.61875 47.3444 8.47114 47.6122 8.42527 47.9063L4.85126 70.9628C4.83469 71.0697 4.84112 71.1791 4.87011 71.2833C4.89911 71.3875 4.94997 71.484 5.01921 71.5663C5.08844 71.6486 5.1744 71.7146 5.27115 71.7599C5.36791 71.8051 5.47316 71.8285 5.57967 71.8284H10.8811L12.2125 63.2426L12.1713 63.5115C12.2162 63.2179 12.3629 62.9504 12.5847 62.7571C12.8065 62.5637 13.089 62.4573 13.3812 62.457H15.9004C20.8495 62.457 24.7246 60.4133 25.8566 54.5013C25.8902 54.3265 25.9193 54.1563 25.9445 53.99C26.2808 51.8049 25.9422 50.3176 24.7796 48.9709" fill="white" fill-opacity="0.8"/>
<path d="M13.6426 54.0188C13.6827 53.7618 13.8117 53.5278 14.0062 53.3587C14.2008 53.1897 14.4483 53.0967 14.7042 53.0964H21.4364C22.2336 53.0964 22.9773 53.1492 23.6568 53.2596C24.0283 53.3203 24.3959 53.4039 24.7575 53.5098C25.1681 53.6271 25.5654 53.7881 25.9429 53.99C26.2808 51.8041 25.9414 50.3176 24.7789 48.9701C23.4986 47.4883 21.1865 46.8526 18.2278 46.8526H9.63976C9.34713 46.8528 9.06416 46.9591 8.84169 47.1524C8.61922 47.3457 8.47184 47.6133 8.426 47.9071L4.85047 70.9612C4.83378 71.0682 4.8401 71.1775 4.869 71.2817C4.89789 71.386 4.94867 71.4826 5.01783 71.565C5.08699 71.6473 5.1729 71.7134 5.26962 71.7588C5.36635 71.8041 5.47159 71.8276 5.57811 71.8276H10.8803L12.2117 63.241L13.6426 54.0188Z" fill="white" fill-opacity="0.8"/>
<path d="M25.9437 53.9892C25.9174 54.1602 25.8881 54.3307 25.8558 54.5005C24.7238 60.4117 20.8487 62.4562 15.8996 62.4562H13.3796C13.0875 62.4564 12.805 62.5628 12.5833 62.7562C12.3615 62.9495 12.2151 63.2171 12.1704 63.5107L10.8802 71.8269L10.5134 74.186C10.4988 74.2797 10.5043 74.3755 10.5297 74.4667C10.555 74.558 10.5995 74.6426 10.6601 74.7147C10.7207 74.7868 10.7959 74.8446 10.8807 74.8843C10.9654 74.924 11.0575 74.9445 11.1508 74.9445H15.6199C16.1488 74.9445 16.5982 74.5528 16.6815 74.0221L16.7251 73.7905L17.5674 68.3635L17.6209 68.0635C17.6609 67.8063 17.7899 67.5721 17.9847 67.403C18.1795 67.2339 18.4272 67.1411 18.6833 67.1411H19.3521C23.6813 67.1411 27.0711 65.3539 28.0616 60.1817C28.4744 58.0214 28.2604 56.2163 27.1674 54.9489C26.8203 54.556 26.4056 54.2307 25.9437 53.9892Z" fill="white" fill-opacity="0.9"/>
<path d="M24.7582 53.5098C24.5855 53.4577 24.4074 53.4111 24.224 53.3699C24.0405 53.3287 23.851 53.2922 23.6568 53.2611C22.9766 53.1485 22.2336 53.0956 21.4357 53.0956H14.7042C14.448 53.0953 14.2001 53.1882 14.0054 53.3575C13.8107 53.5268 13.682 53.7614 13.6426 54.0188L12.2117 63.2426L12.1705 63.5107C12.2151 63.2172 12.3616 62.9496 12.5833 62.7562C12.8051 62.5628 13.0875 62.4564 13.3796 62.4562H15.8996C20.8487 62.4562 24.7238 60.4125 25.8558 54.5006C25.8894 54.3257 25.9177 54.1563 25.9437 53.9893C25.6448 53.8302 25.3334 53.6966 25.0128 53.5898C24.9294 53.5619 24.8446 53.5362 24.7582 53.5098Z" fill="white"/>
</g>
</g>
<defs>
<clipPath id="clip0_637_5615">
<rect width="120" height="122" fill="white"/>
</clipPath>
</defs>
</svg>
