<svg width="20" height="20" viewBox="0 0 20 20" fill="none" xmlns="http://www.w3.org/2000/svg">
<path d="M10 7.93341C9.59127 7.93341 9.1917 8.05462 8.85184 8.28171C8.51198 8.5088 8.24709 8.83157 8.09067 9.2092C7.93425 9.58684 7.89332 10.0024 7.97306 10.4033C8.05281 10.8042 8.24964 11.1724 8.53867 11.4614C8.82769 11.7505 9.19594 11.9473 9.59683 12.027C9.99773 12.1068 10.4133 12.0659 10.7909 11.9094C11.1685 11.753 11.4913 11.4881 11.7184 11.1483C11.9455 10.8084 12.0667 10.4088 12.0667 10.0001C12.0667 9.72868 12.0132 9.45994 11.9094 9.2092C11.8055 8.95846 11.6533 8.73063 11.4614 8.53873C11.2695 8.34682 11.0416 8.19459 10.7909 8.09073C10.5402 7.98687 10.2714 7.93341 10 7.93341ZM18.275 5.89175C18.2706 5.24821 18.1521 4.61056 17.925 4.00841C17.7578 3.5678 17.499 3.16766 17.1657 2.8344C16.8324 2.50115 16.4323 2.24235 15.9917 2.07508C15.3895 1.84797 14.7519 1.72947 14.1084 1.72508C13.0334 1.66675 12.7167 1.66675 10 1.66675C7.28335 1.66675 6.96669 1.66675 5.89169 1.72508C5.24815 1.72947 4.6105 1.84797 4.00835 2.07508C3.56774 2.24235 3.1676 2.50115 2.83434 2.8344C2.50108 3.16766 2.24229 3.5678 2.07502 4.00841C1.84791 4.61056 1.7294 5.24821 1.72502 5.89175C1.66669 6.96675 1.66669 7.28341 1.66669 10.0001C1.66669 12.7167 1.66669 13.0334 1.72502 14.1084C1.73399 14.7542 1.85233 15.3938 2.07502 16.0001C2.24154 16.4387 2.50013 16.8365 2.83335 17.1667C3.16518 17.502 3.56618 17.7608 4.00835 17.9251C4.6105 18.1522 5.24815 18.2707 5.89169 18.2751C6.96669 18.3334 7.28335 18.3334 10 18.3334C12.7167 18.3334 13.0334 18.3334 14.1084 18.2751C14.7519 18.2707 15.3895 18.1522 15.9917 17.9251C16.4339 17.7608 16.8349 17.502 17.1667 17.1667C17.4999 16.8365 17.7585 16.4387 17.925 16.0001C18.1519 15.395 18.2704 14.7546 18.275 14.1084C18.3334 13.0334 18.3334 12.7167 18.3334 10.0001C18.3334 7.28341 18.3334 6.96675 18.275 5.89175ZM16.1584 12.5584C16.1316 13.0727 16.0219 13.5792 15.8334 14.0584C15.6716 14.4582 15.4311 14.8213 15.1261 15.1262C14.8212 15.4311 14.4581 15.6716 14.0584 15.8334C13.5746 16.0114 13.0652 16.1099 12.55 16.1251H7.45002C6.9348 16.1099 6.42543 16.0114 5.94169 15.8334C5.52844 15.6798 5.15525 15.4349 4.85002 15.1167C4.54808 14.8178 4.31489 14.4566 4.16669 14.0584C3.98798 13.5752 3.89219 13.0652 3.88335 12.5501V7.45008C3.89219 6.93494 3.98798 6.42498 4.16669 5.94175C4.32025 5.5285 4.56525 5.15531 4.88335 4.85008C5.18363 4.54977 5.54441 4.31683 5.94169 4.16675C6.42543 3.98875 6.9348 3.89026 7.45002 3.87508H12.55C13.0652 3.89026 13.5746 3.98875 14.0584 4.16675C14.4716 4.32032 14.8448 4.56531 15.15 4.88341C15.452 5.18237 15.6852 5.54352 15.8334 5.94175C16.0113 6.42549 16.1098 6.93486 16.125 7.45008V10.0001C16.125 11.7167 16.1834 11.8917 16.1584 12.5501V12.5584ZM14.825 6.35841C14.7258 6.08923 14.5694 5.84478 14.3665 5.64193C14.1637 5.43907 13.9192 5.28263 13.65 5.18341C13.2804 5.0553 12.8911 4.99324 12.5 5.00008H7.50002C7.10691 5.00392 6.71758 5.07728 6.35002 5.21675C6.08496 5.31146 5.8431 5.46151 5.64051 5.65692C5.43792 5.85232 5.27924 6.08861 5.17502 6.35008C5.054 6.72122 4.99488 7.10974 5.00002 7.50008V12.5001C5.00828 12.8927 5.08149 13.2813 5.21669 13.6501C5.31591 13.9193 5.47234 14.1637 5.6752 14.3666C5.87806 14.5694 6.12251 14.7259 6.39169 14.8251C6.74724 14.9558 7.1214 15.029 7.50002 15.0417H12.5C12.8931 15.0379 13.2825 14.9646 13.65 14.8251C13.9192 14.7259 14.1637 14.5694 14.3665 14.3666C14.5694 14.1637 14.7258 13.9193 14.825 13.6501C14.9645 13.2825 15.0378 12.8932 15.0417 12.5001V7.50008C15.0419 7.10658 14.9684 6.71652 14.825 6.35008V6.35841ZM10 13.1834C9.58237 13.1834 9.16883 13.101 8.78307 12.9409C8.39732 12.7809 8.04694 12.5462 7.752 12.2505C7.45707 11.9548 7.22337 11.6038 7.06431 11.2177C6.90524 10.8315 6.82392 10.4177 6.82502 10.0001C6.82502 9.37012 7.01193 8.75433 7.36209 8.23065C7.71225 7.70698 8.20991 7.29897 8.79208 7.05828C9.37424 6.81758 10.0147 6.75503 10.6325 6.87854C11.2502 7.00204 11.8174 7.30606 12.2623 7.75209C12.7071 8.19812 13.0096 8.76611 13.1315 9.38417C13.2534 10.0022 13.1892 10.6425 12.947 11.2241C12.7048 11.8056 12.2954 12.3022 11.7709 12.651C11.2463 12.9998 10.63 13.1851 10 13.1834ZM13.3334 7.44175C13.1491 7.42225 12.9787 7.33527 12.8548 7.19756C12.7309 7.05985 12.6623 6.88116 12.6623 6.69591C12.6623 6.51067 12.7309 6.33198 12.8548 6.19427C12.9787 6.05656 13.1491 5.96958 13.3334 5.95008C13.5176 5.96958 13.688 6.05656 13.8119 6.19427C13.9359 6.33198 14.0044 6.51067 14.0044 6.69591C14.0044 6.88116 13.9359 7.05985 13.8119 7.19756C13.688 7.33527 13.5176 7.42225 13.3334 7.44175Z" fill="white"/>
</svg>
