<svg width="120" height="50" viewBox="0 0 120 50" fill="none" xmlns="http://www.w3.org/2000/svg">
<path d="M0 0.599976V3.93875H23.3578V0.599976H0ZM26.6671 0.599976V3.93875H59.9531C59.9531 3.93875 56.5531 0.599976 52.05 0.599976H26.6671ZM66.4828 0.599976V3.93875H86.6202L85.425 0.599976H66.4828ZM101.058 0.599976L99.8624 3.93875H119.817V0.599976H101.058ZM0 7.09306V10.4318H23.3578V7.09306H0ZM26.6671 7.09782V10.432H63.8155C63.8155 10.432 63.3817 7.86227 62.6249 7.09782H26.6671ZM66.4828 7.09782V10.432H88.8281L87.7218 7.09782H66.4828ZM98.6671 7.09782L97.5608 10.432H119.817V7.09782H98.6671ZM6.71244 13.5861V16.9297H16.8281V13.5861H6.71244ZM33.3797 13.5861V16.9297H43.4953V13.5861H33.3797ZM53.3344 13.5861V16.9297H63.45C63.45 16.9297 64.0922 15.164 64.0922 13.5861H53.3344ZM73.1953 13.5861V16.9297H91.1297L89.9344 13.5861H73.1953ZM96.464 13.5861L95.264 16.9297H113.287V13.5861H96.464ZM6.71244 20.0841V23.4229H16.8281V20.0841H6.71244ZM33.3797 20.0841V23.4229H59.2171C59.2171 23.4229 61.3786 21.7098 62.0671 20.0841H33.3797ZM73.1953 20.0841V23.4229H83.311V21.5643L83.9532 23.4229H102.483L103.172 21.5643V23.4229H113.288V20.0841H94.2984L93.2906 22.9121L92.2781 20.0841H73.1953ZM6.71244 26.5772V29.916H16.8281V26.5772H6.71244ZM33.3797 26.5772V29.916H62.0671C61.3784 28.2957 59.2171 26.5772 59.2171 26.5772H33.3797ZM73.1953 26.5772V29.916H83.311V26.5772H73.1953ZM85.1484 26.5772L86.3718 29.916H100.266L101.428 26.5772H85.1484ZM103.172 26.5772V29.916H113.287V26.5772H103.172ZM6.71244 33.0703V36.4089H16.8281V33.0703H6.71244ZM33.3797 33.0703V36.4089H43.4953V33.0703H33.3797ZM53.3344 33.0703V36.4089H64.0921C64.0921 34.8333 63.4499 33.0703 63.4499 33.0703H53.3344ZM73.1953 33.0703V36.4089H83.311V33.0703H73.1953ZM87.4453 33.0703L88.6313 36.4089H97.9453L99.1406 33.0703H87.4453ZM103.172 33.0703V36.4089H113.287V33.0703H103.172ZM0.18276 39.5634V42.9069H23.5405V39.5634H0.18276ZM26.6671 39.5634V42.9069H62.6249C63.3817 42.1413 63.8155 39.5634 63.8155 39.5634H26.6671ZM66.6656 39.5634V42.9069H83.311V39.5634H66.6656ZM89.7468 39.5634L90.9655 42.9069H95.7046L96.8483 39.5634H89.7468ZM103.172 39.5634V42.9069H120V39.5634H103.172ZM0.18276 46.0612V49.4H23.5405V46.0612H0.18276ZM26.6671 46.0612V49.3952H52.05C56.5531 49.3952 59.9531 46.0612 59.9531 46.0612H26.6671ZM66.6656 46.0612V49.4H83.311V46.0612H66.6656ZM92.0578 46.0612L93.2297 49.3906L93.4313 49.3952L94.6219 46.0612H92.0578ZM103.172 46.0612V49.4H120V46.0612H103.172Z" fill="white"/>
</svg>
